G04 EAGLE Gerber RS-274X export*
G75*
%MOMM*%
%FSLAX34Y34*%
%LPD*%
%INBottom Copper*%
%IPPOS*%
%AMOC8*
5,1,8,0,0,1.08239X$1,22.5*%
G01*
%ADD10P,2.089446X8X22.500000*%
%ADD11P,1.732040X8X112.500000*%
%ADD12P,1.732040X8X292.500000*%
%ADD13C,1.524000*%
%ADD14C,1.500000*%
%ADD15P,1.319650X8X22.500000*%
%ADD16R,1.935000X1.935000*%
%ADD17C,1.935000*%
%ADD18R,2.055000X2.055000*%
%ADD19C,2.055000*%
%ADD20C,1.170000*%
%ADD21P,1.814519X8X22.500000*%
%ADD22P,1.319650X8X112.500000*%
%ADD23P,1.319650X8X202.500000*%
%ADD24C,0.304800*%
%ADD25C,0.525000*%

G36*
X-687381Y16782D02*
X-687381Y16782D01*
X-687242Y16795D01*
X-687223Y16802D01*
X-687203Y16805D01*
X-687074Y16856D01*
X-686942Y16903D01*
X-686926Y16914D01*
X-686907Y16922D01*
X-686794Y17003D01*
X-686679Y17081D01*
X-686666Y17097D01*
X-686650Y17108D01*
X-686561Y17216D01*
X-686469Y17320D01*
X-686460Y17338D01*
X-686447Y17353D01*
X-686387Y17479D01*
X-686324Y17603D01*
X-686320Y17623D01*
X-686311Y17641D01*
X-686285Y17777D01*
X-686255Y17913D01*
X-686255Y17934D01*
X-686251Y17953D01*
X-686260Y18092D01*
X-686264Y18231D01*
X-686270Y18251D01*
X-686271Y18271D01*
X-686314Y18403D01*
X-686353Y18537D01*
X-686363Y18554D01*
X-686369Y18573D01*
X-686444Y18691D01*
X-686514Y18811D01*
X-686533Y18832D01*
X-686539Y18842D01*
X-686554Y18856D01*
X-686621Y18931D01*
X-692696Y25007D01*
X-696215Y33502D01*
X-696215Y42698D01*
X-692696Y51193D01*
X-686193Y57696D01*
X-677698Y61215D01*
X-668502Y61215D01*
X-660007Y57696D01*
X-653504Y51193D01*
X-649985Y42698D01*
X-649985Y33502D01*
X-653504Y25007D01*
X-659579Y18931D01*
X-659665Y18822D01*
X-659753Y18715D01*
X-659762Y18696D01*
X-659774Y18680D01*
X-659830Y18552D01*
X-659889Y18427D01*
X-659893Y18407D01*
X-659901Y18388D01*
X-659923Y18250D01*
X-659949Y18114D01*
X-659947Y18094D01*
X-659951Y18074D01*
X-659937Y17935D01*
X-659929Y17797D01*
X-659923Y17778D01*
X-659921Y17758D01*
X-659874Y17626D01*
X-659831Y17495D01*
X-659820Y17477D01*
X-659813Y17458D01*
X-659735Y17343D01*
X-659661Y17226D01*
X-659646Y17212D01*
X-659635Y17195D01*
X-659530Y17103D01*
X-659429Y17008D01*
X-659411Y16998D01*
X-659396Y16985D01*
X-659272Y16921D01*
X-659151Y16854D01*
X-659131Y16849D01*
X-659113Y16840D01*
X-658977Y16810D01*
X-658843Y16775D01*
X-658815Y16773D01*
X-658803Y16770D01*
X-658782Y16771D01*
X-658682Y16765D01*
X-157734Y16765D01*
X-157616Y16780D01*
X-157497Y16787D01*
X-157459Y16800D01*
X-157418Y16805D01*
X-157308Y16848D01*
X-157195Y16885D01*
X-157160Y16907D01*
X-157123Y16922D01*
X-157027Y16991D01*
X-156926Y17055D01*
X-156898Y17085D01*
X-156865Y17108D01*
X-156789Y17200D01*
X-156708Y17287D01*
X-156688Y17322D01*
X-156663Y17353D01*
X-156612Y17461D01*
X-156554Y17565D01*
X-156544Y17605D01*
X-156527Y17641D01*
X-156505Y17758D01*
X-156475Y17873D01*
X-156471Y17933D01*
X-156467Y17953D01*
X-156469Y17974D01*
X-156465Y18034D01*
X-156465Y39784D01*
X-131436Y64812D01*
X-131376Y64890D01*
X-131308Y64962D01*
X-131279Y65015D01*
X-131242Y65063D01*
X-131202Y65154D01*
X-131154Y65241D01*
X-131139Y65299D01*
X-131115Y65355D01*
X-131100Y65453D01*
X-131075Y65549D01*
X-131069Y65649D01*
X-131065Y65669D01*
X-131067Y65681D01*
X-131065Y65709D01*
X-131065Y74482D01*
X-131082Y74619D01*
X-131095Y74758D01*
X-131102Y74777D01*
X-131105Y74797D01*
X-131156Y74926D01*
X-131203Y75058D01*
X-131214Y75074D01*
X-131222Y75093D01*
X-131303Y75206D01*
X-131381Y75321D01*
X-131397Y75334D01*
X-131408Y75350D01*
X-131516Y75439D01*
X-131620Y75531D01*
X-131638Y75540D01*
X-131653Y75553D01*
X-131779Y75613D01*
X-131903Y75676D01*
X-131923Y75680D01*
X-131941Y75689D01*
X-132077Y75715D01*
X-132213Y75745D01*
X-132234Y75745D01*
X-132253Y75749D01*
X-132392Y75740D01*
X-132531Y75736D01*
X-132551Y75730D01*
X-132571Y75729D01*
X-132703Y75686D01*
X-132837Y75647D01*
X-132854Y75637D01*
X-132873Y75631D01*
X-132991Y75556D01*
X-133111Y75486D01*
X-133132Y75467D01*
X-133142Y75461D01*
X-133156Y75446D01*
X-133231Y75379D01*
X-139307Y69304D01*
X-147802Y65785D01*
X-156998Y65785D01*
X-165493Y69304D01*
X-171996Y75807D01*
X-175515Y84302D01*
X-175515Y93498D01*
X-171996Y101993D01*
X-165493Y108496D01*
X-156998Y112015D01*
X-147802Y112015D01*
X-139307Y108496D01*
X-133231Y102421D01*
X-133122Y102335D01*
X-133015Y102247D01*
X-132996Y102238D01*
X-132980Y102226D01*
X-132852Y102170D01*
X-132727Y102111D01*
X-132707Y102107D01*
X-132688Y102099D01*
X-132550Y102077D01*
X-132414Y102051D01*
X-132394Y102053D01*
X-132374Y102049D01*
X-132235Y102063D01*
X-132097Y102071D01*
X-132078Y102077D01*
X-132058Y102079D01*
X-131926Y102126D01*
X-131795Y102169D01*
X-131777Y102180D01*
X-131758Y102187D01*
X-131643Y102265D01*
X-131526Y102339D01*
X-131512Y102354D01*
X-131495Y102365D01*
X-131403Y102470D01*
X-131308Y102571D01*
X-131298Y102589D01*
X-131285Y102604D01*
X-131221Y102728D01*
X-131154Y102849D01*
X-131149Y102869D01*
X-131140Y102887D01*
X-131110Y103023D01*
X-131075Y103157D01*
X-131073Y103185D01*
X-131070Y103197D01*
X-131071Y103218D01*
X-131065Y103318D01*
X-131065Y353882D01*
X-131082Y354019D01*
X-131095Y354158D01*
X-131102Y354177D01*
X-131105Y354197D01*
X-131156Y354326D01*
X-131203Y354458D01*
X-131214Y354474D01*
X-131222Y354493D01*
X-131303Y354606D01*
X-131381Y354721D01*
X-131397Y354734D01*
X-131408Y354750D01*
X-131516Y354839D01*
X-131620Y354931D01*
X-131638Y354940D01*
X-131653Y354953D01*
X-131779Y355013D01*
X-131903Y355076D01*
X-131923Y355080D01*
X-131941Y355089D01*
X-132077Y355115D01*
X-132213Y355145D01*
X-132234Y355145D01*
X-132253Y355149D01*
X-132392Y355140D01*
X-132531Y355136D01*
X-132551Y355130D01*
X-132571Y355129D01*
X-132703Y355086D01*
X-132837Y355047D01*
X-132854Y355037D01*
X-132873Y355031D01*
X-132991Y354956D01*
X-133111Y354886D01*
X-133132Y354867D01*
X-133142Y354861D01*
X-133156Y354846D01*
X-133231Y354779D01*
X-139307Y348704D01*
X-147802Y345185D01*
X-156998Y345185D01*
X-165493Y348704D01*
X-171996Y355207D01*
X-175515Y363702D01*
X-175515Y372898D01*
X-171996Y381393D01*
X-165493Y387896D01*
X-156998Y391415D01*
X-147802Y391415D01*
X-139307Y387896D01*
X-133231Y381821D01*
X-133122Y381735D01*
X-133015Y381647D01*
X-132996Y381638D01*
X-132980Y381626D01*
X-132852Y381570D01*
X-132727Y381511D01*
X-132707Y381507D01*
X-132688Y381499D01*
X-132550Y381477D01*
X-132414Y381451D01*
X-132394Y381453D01*
X-132374Y381449D01*
X-132235Y381463D01*
X-132097Y381471D01*
X-132078Y381477D01*
X-132058Y381479D01*
X-131926Y381526D01*
X-131795Y381569D01*
X-131777Y381580D01*
X-131758Y381587D01*
X-131643Y381665D01*
X-131526Y381739D01*
X-131512Y381754D01*
X-131495Y381765D01*
X-131403Y381870D01*
X-131308Y381971D01*
X-131298Y381989D01*
X-131285Y382004D01*
X-131221Y382128D01*
X-131154Y382249D01*
X-131149Y382269D01*
X-131140Y382287D01*
X-131110Y382423D01*
X-131075Y382557D01*
X-131073Y382585D01*
X-131070Y382597D01*
X-131071Y382618D01*
X-131065Y382718D01*
X-131065Y388951D01*
X-131077Y389049D01*
X-131080Y389148D01*
X-131097Y389206D01*
X-131105Y389266D01*
X-131141Y389358D01*
X-131169Y389453D01*
X-131199Y389505D01*
X-131222Y389562D01*
X-131280Y389642D01*
X-131330Y389727D01*
X-131396Y389803D01*
X-131408Y389819D01*
X-131418Y389827D01*
X-131436Y389848D01*
X-156465Y414876D01*
X-156465Y528651D01*
X-156477Y528749D01*
X-156480Y528848D01*
X-156497Y528906D01*
X-156505Y528966D01*
X-156541Y529058D01*
X-156569Y529153D01*
X-156599Y529205D01*
X-156622Y529262D01*
X-156680Y529342D01*
X-156730Y529427D01*
X-156796Y529503D01*
X-156808Y529519D01*
X-156818Y529527D01*
X-156836Y529548D01*
X-168952Y541664D01*
X-169030Y541724D01*
X-169102Y541792D01*
X-169155Y541821D01*
X-169203Y541858D01*
X-169294Y541898D01*
X-169381Y541946D01*
X-169439Y541961D01*
X-169495Y541985D01*
X-169593Y542000D01*
X-169689Y542025D01*
X-169789Y542031D01*
X-169809Y542035D01*
X-169821Y542033D01*
X-169849Y542035D01*
X-645982Y542035D01*
X-646119Y542018D01*
X-646258Y542005D01*
X-646277Y541998D01*
X-646297Y541995D01*
X-646426Y541944D01*
X-646558Y541897D01*
X-646574Y541886D01*
X-646593Y541878D01*
X-646706Y541797D01*
X-646821Y541719D01*
X-646834Y541703D01*
X-646850Y541692D01*
X-646939Y541584D01*
X-647031Y541480D01*
X-647040Y541462D01*
X-647053Y541447D01*
X-647113Y541321D01*
X-647176Y541197D01*
X-647180Y541177D01*
X-647189Y541159D01*
X-647215Y541023D01*
X-647245Y540887D01*
X-647245Y540866D01*
X-647249Y540847D01*
X-647240Y540708D01*
X-647236Y540569D01*
X-647230Y540549D01*
X-647229Y540529D01*
X-647186Y540397D01*
X-647147Y540263D01*
X-647137Y540246D01*
X-647131Y540227D01*
X-647056Y540109D01*
X-646986Y539989D01*
X-646967Y539968D01*
X-646961Y539958D01*
X-646946Y539944D01*
X-646879Y539869D01*
X-640804Y533793D01*
X-638176Y527448D01*
X-638151Y527405D01*
X-638135Y527358D01*
X-638073Y527267D01*
X-638018Y527172D01*
X-637984Y527136D01*
X-637956Y527095D01*
X-637874Y527023D01*
X-637797Y526944D01*
X-637755Y526917D01*
X-637718Y526885D01*
X-637620Y526835D01*
X-637526Y526777D01*
X-637479Y526763D01*
X-637434Y526740D01*
X-637327Y526716D01*
X-637222Y526684D01*
X-637173Y526681D01*
X-637124Y526670D01*
X-637014Y526674D01*
X-636904Y526669D01*
X-636856Y526679D01*
X-636806Y526680D01*
X-636701Y526711D01*
X-636593Y526733D01*
X-636548Y526755D01*
X-636501Y526768D01*
X-636406Y526824D01*
X-636307Y526873D01*
X-636269Y526905D01*
X-636227Y526930D01*
X-636106Y527036D01*
X-629996Y533147D01*
X-619684Y533147D01*
X-613037Y526500D01*
X-612943Y526427D01*
X-612854Y526348D01*
X-612818Y526330D01*
X-612786Y526305D01*
X-612677Y526257D01*
X-612571Y526203D01*
X-612532Y526195D01*
X-612494Y526179D01*
X-612377Y526160D01*
X-612261Y526134D01*
X-612220Y526135D01*
X-612180Y526129D01*
X-612062Y526140D01*
X-611943Y526143D01*
X-611904Y526155D01*
X-611864Y526158D01*
X-611751Y526199D01*
X-611637Y526232D01*
X-611602Y526252D01*
X-611564Y526266D01*
X-611466Y526333D01*
X-611363Y526393D01*
X-611318Y526433D01*
X-611301Y526445D01*
X-611288Y526460D01*
X-611242Y526500D01*
X-604596Y533147D01*
X-594284Y533147D01*
X-587637Y526500D01*
X-587543Y526427D01*
X-587454Y526348D01*
X-587418Y526330D01*
X-587386Y526305D01*
X-587277Y526257D01*
X-587171Y526203D01*
X-587132Y526195D01*
X-587094Y526179D01*
X-586977Y526160D01*
X-586861Y526134D01*
X-586820Y526135D01*
X-586780Y526129D01*
X-586662Y526140D01*
X-586543Y526143D01*
X-586504Y526155D01*
X-586464Y526158D01*
X-586351Y526199D01*
X-586237Y526232D01*
X-586202Y526252D01*
X-586164Y526266D01*
X-586066Y526333D01*
X-585963Y526393D01*
X-585918Y526433D01*
X-585901Y526445D01*
X-585888Y526460D01*
X-585842Y526500D01*
X-579196Y533147D01*
X-568884Y533147D01*
X-561475Y525737D01*
X-561455Y525682D01*
X-561444Y525666D01*
X-561436Y525647D01*
X-561355Y525534D01*
X-561277Y525419D01*
X-561261Y525406D01*
X-561250Y525389D01*
X-561142Y525301D01*
X-561038Y525209D01*
X-561020Y525200D01*
X-561005Y525187D01*
X-560879Y525127D01*
X-560755Y525064D01*
X-560735Y525060D01*
X-560717Y525051D01*
X-560581Y525025D01*
X-560445Y524995D01*
X-560424Y524995D01*
X-560405Y524991D01*
X-560266Y525000D01*
X-560127Y525004D01*
X-560107Y525010D01*
X-560087Y525011D01*
X-559955Y525054D01*
X-559821Y525093D01*
X-559804Y525103D01*
X-559785Y525109D01*
X-559667Y525184D01*
X-559547Y525254D01*
X-559526Y525273D01*
X-559516Y525279D01*
X-559502Y525294D01*
X-559427Y525361D01*
X-553164Y531623D01*
X-551139Y531623D01*
X-551139Y521930D01*
X-551124Y521812D01*
X-551117Y521693D01*
X-551104Y521655D01*
X-551099Y521615D01*
X-551056Y521504D01*
X-551019Y521391D01*
X-550997Y521357D01*
X-550982Y521319D01*
X-550913Y521223D01*
X-550849Y521122D01*
X-550819Y521094D01*
X-550796Y521062D01*
X-550704Y520986D01*
X-550617Y520904D01*
X-550582Y520885D01*
X-550551Y520859D01*
X-550443Y520808D01*
X-550339Y520751D01*
X-550299Y520741D01*
X-550263Y520723D01*
X-550156Y520703D01*
X-550186Y520699D01*
X-550296Y520655D01*
X-550409Y520619D01*
X-550444Y520597D01*
X-550481Y520582D01*
X-550577Y520512D01*
X-550678Y520449D01*
X-550706Y520419D01*
X-550739Y520395D01*
X-550815Y520304D01*
X-550896Y520217D01*
X-550916Y520182D01*
X-550941Y520150D01*
X-550992Y520043D01*
X-551050Y519938D01*
X-551060Y519899D01*
X-551077Y519863D01*
X-551099Y519746D01*
X-551129Y519630D01*
X-551133Y519570D01*
X-551137Y519550D01*
X-551135Y519530D01*
X-551139Y519470D01*
X-551139Y509777D01*
X-553164Y509777D01*
X-559427Y516039D01*
X-559536Y516125D01*
X-559643Y516213D01*
X-559662Y516222D01*
X-559678Y516234D01*
X-559806Y516290D01*
X-559931Y516349D01*
X-559951Y516353D01*
X-559970Y516361D01*
X-560108Y516383D01*
X-560244Y516409D01*
X-560264Y516407D01*
X-560284Y516411D01*
X-560423Y516398D01*
X-560561Y516389D01*
X-560580Y516383D01*
X-560600Y516381D01*
X-560732Y516334D01*
X-560863Y516291D01*
X-560881Y516280D01*
X-560900Y516273D01*
X-561015Y516195D01*
X-561132Y516121D01*
X-561146Y516106D01*
X-561163Y516095D01*
X-561255Y515990D01*
X-561350Y515889D01*
X-561360Y515871D01*
X-561373Y515856D01*
X-561437Y515732D01*
X-561475Y515663D01*
X-568884Y508253D01*
X-579196Y508253D01*
X-585842Y514900D01*
X-585937Y514973D01*
X-586026Y515052D01*
X-586062Y515070D01*
X-586094Y515095D01*
X-586203Y515142D01*
X-586309Y515197D01*
X-586348Y515205D01*
X-586386Y515221D01*
X-586503Y515240D01*
X-586619Y515266D01*
X-586660Y515265D01*
X-586700Y515271D01*
X-586818Y515260D01*
X-586937Y515257D01*
X-586976Y515245D01*
X-587016Y515242D01*
X-587129Y515201D01*
X-587243Y515168D01*
X-587277Y515148D01*
X-587316Y515134D01*
X-587414Y515067D01*
X-587517Y515007D01*
X-587562Y514967D01*
X-587579Y514955D01*
X-587592Y514940D01*
X-587637Y514900D01*
X-594284Y508253D01*
X-604596Y508253D01*
X-611242Y514900D01*
X-611337Y514973D01*
X-611426Y515052D01*
X-611462Y515070D01*
X-611494Y515095D01*
X-611603Y515142D01*
X-611709Y515197D01*
X-611748Y515205D01*
X-611786Y515221D01*
X-611903Y515240D01*
X-612019Y515266D01*
X-612060Y515265D01*
X-612100Y515271D01*
X-612218Y515260D01*
X-612337Y515257D01*
X-612376Y515245D01*
X-612416Y515242D01*
X-612529Y515201D01*
X-612643Y515168D01*
X-612677Y515148D01*
X-612716Y515134D01*
X-612814Y515067D01*
X-612917Y515007D01*
X-612962Y514967D01*
X-612979Y514955D01*
X-612992Y514940D01*
X-613037Y514900D01*
X-619684Y508253D01*
X-629996Y508253D01*
X-636106Y514364D01*
X-636145Y514394D01*
X-636179Y514431D01*
X-636270Y514491D01*
X-636357Y514559D01*
X-636403Y514578D01*
X-636444Y514606D01*
X-636548Y514641D01*
X-636649Y514685D01*
X-636698Y514693D01*
X-636745Y514709D01*
X-636854Y514717D01*
X-636963Y514735D01*
X-637013Y514730D01*
X-637062Y514734D01*
X-637170Y514715D01*
X-637280Y514705D01*
X-637326Y514688D01*
X-637375Y514680D01*
X-637476Y514634D01*
X-637579Y514597D01*
X-637620Y514569D01*
X-637665Y514549D01*
X-637751Y514480D01*
X-637842Y514419D01*
X-637875Y514381D01*
X-637914Y514350D01*
X-637980Y514263D01*
X-638053Y514180D01*
X-638075Y514136D01*
X-638105Y514096D01*
X-638176Y513952D01*
X-640804Y507607D01*
X-647307Y501104D01*
X-655802Y497585D01*
X-664998Y497585D01*
X-673493Y501104D01*
X-679996Y507607D01*
X-683515Y516102D01*
X-683515Y525298D01*
X-679996Y533793D01*
X-673921Y539869D01*
X-673835Y539978D01*
X-673747Y540085D01*
X-673738Y540104D01*
X-673726Y540120D01*
X-673670Y540248D01*
X-673611Y540373D01*
X-673607Y540393D01*
X-673599Y540412D01*
X-673577Y540550D01*
X-673551Y540686D01*
X-673553Y540706D01*
X-673549Y540726D01*
X-673563Y540865D01*
X-673571Y541003D01*
X-673577Y541022D01*
X-673579Y541042D01*
X-673626Y541174D01*
X-673669Y541305D01*
X-673680Y541323D01*
X-673687Y541342D01*
X-673765Y541457D01*
X-673839Y541574D01*
X-673854Y541588D01*
X-673865Y541605D01*
X-673970Y541697D01*
X-674071Y541792D01*
X-674089Y541802D01*
X-674104Y541815D01*
X-674228Y541879D01*
X-674349Y541946D01*
X-674369Y541951D01*
X-674387Y541960D01*
X-674523Y541990D01*
X-674657Y542025D01*
X-674685Y542027D01*
X-674697Y542030D01*
X-674718Y542029D01*
X-674818Y542035D01*
X-807466Y542035D01*
X-807584Y542020D01*
X-807703Y542013D01*
X-807741Y542000D01*
X-807782Y541995D01*
X-807892Y541952D01*
X-808005Y541915D01*
X-808040Y541893D01*
X-808077Y541878D01*
X-808173Y541809D01*
X-808274Y541745D01*
X-808302Y541715D01*
X-808335Y541692D01*
X-808411Y541600D01*
X-808492Y541513D01*
X-808512Y541478D01*
X-808537Y541447D01*
X-808588Y541339D01*
X-808646Y541235D01*
X-808656Y541195D01*
X-808673Y541159D01*
X-808695Y541042D01*
X-808725Y540927D01*
X-808729Y540867D01*
X-808733Y540847D01*
X-808731Y540826D01*
X-808735Y540766D01*
X-808735Y18034D01*
X-808720Y17916D01*
X-808713Y17797D01*
X-808700Y17759D01*
X-808695Y17718D01*
X-808652Y17608D01*
X-808615Y17495D01*
X-808593Y17460D01*
X-808578Y17423D01*
X-808509Y17327D01*
X-808445Y17226D01*
X-808415Y17198D01*
X-808392Y17165D01*
X-808300Y17089D01*
X-808213Y17008D01*
X-808178Y16988D01*
X-808147Y16963D01*
X-808039Y16912D01*
X-807935Y16854D01*
X-807895Y16844D01*
X-807859Y16827D01*
X-807742Y16805D01*
X-807627Y16775D01*
X-807567Y16771D01*
X-807547Y16767D01*
X-807526Y16769D01*
X-807466Y16765D01*
X-687518Y16765D01*
X-687381Y16782D01*
G37*
%LPC*%
G36*
X-360598Y76834D02*
X-360598Y76834D01*
X-366703Y82940D01*
X-366781Y83000D01*
X-366853Y83068D01*
X-366906Y83097D01*
X-366954Y83134D01*
X-367045Y83174D01*
X-367132Y83222D01*
X-367190Y83237D01*
X-367246Y83261D01*
X-367344Y83276D01*
X-367440Y83301D01*
X-367540Y83307D01*
X-367560Y83311D01*
X-367573Y83309D01*
X-367601Y83311D01*
X-623412Y83311D01*
X-625466Y84162D01*
X-726287Y184984D01*
X-728816Y187513D01*
X-764987Y223684D01*
X-766738Y225434D01*
X-767589Y227488D01*
X-767589Y276559D01*
X-767601Y276658D01*
X-767604Y276757D01*
X-767621Y276815D01*
X-767629Y276875D01*
X-767665Y276967D01*
X-767693Y277062D01*
X-767723Y277114D01*
X-767746Y277171D01*
X-767804Y277251D01*
X-767854Y277336D01*
X-767920Y277411D01*
X-767932Y277428D01*
X-767942Y277436D01*
X-767960Y277457D01*
X-779438Y288934D01*
X-780289Y290988D01*
X-780289Y340614D01*
X-780304Y340732D01*
X-780311Y340851D01*
X-780324Y340889D01*
X-780329Y340930D01*
X-780372Y341040D01*
X-780409Y341153D01*
X-780431Y341188D01*
X-780446Y341225D01*
X-780515Y341321D01*
X-780579Y341422D01*
X-780609Y341450D01*
X-780632Y341483D01*
X-780724Y341559D01*
X-780811Y341640D01*
X-780846Y341660D01*
X-780877Y341685D01*
X-780985Y341736D01*
X-781089Y341794D01*
X-781129Y341804D01*
X-781165Y341821D01*
X-781282Y341843D01*
X-781397Y341873D01*
X-781457Y341877D01*
X-781477Y341881D01*
X-781498Y341879D01*
X-781558Y341883D01*
X-793082Y341883D01*
X-801117Y349918D01*
X-801117Y361282D01*
X-794996Y367402D01*
X-794923Y367497D01*
X-794844Y367586D01*
X-794826Y367622D01*
X-794801Y367654D01*
X-794754Y367763D01*
X-794700Y367869D01*
X-794691Y367908D01*
X-794675Y367946D01*
X-794656Y368063D01*
X-794630Y368179D01*
X-794631Y368220D01*
X-794625Y368260D01*
X-794636Y368378D01*
X-794640Y368497D01*
X-794651Y368536D01*
X-794655Y368576D01*
X-794695Y368689D01*
X-794728Y368803D01*
X-794748Y368837D01*
X-794762Y368876D01*
X-794829Y368974D01*
X-794889Y369077D01*
X-794929Y369122D01*
X-794941Y369139D01*
X-794956Y369152D01*
X-794996Y369197D01*
X-801117Y375318D01*
X-801117Y386682D01*
X-793082Y394717D01*
X-781718Y394717D01*
X-773683Y386682D01*
X-773683Y375713D01*
X-773671Y375614D01*
X-773668Y375515D01*
X-773651Y375457D01*
X-773643Y375397D01*
X-773607Y375305D01*
X-773579Y375210D01*
X-773549Y375158D01*
X-773526Y375101D01*
X-773468Y375021D01*
X-773418Y374936D01*
X-773352Y374861D01*
X-773340Y374844D01*
X-773330Y374836D01*
X-773312Y374815D01*
X-757262Y358766D01*
X-756411Y356712D01*
X-756411Y354488D01*
X-757262Y352434D01*
X-768740Y340957D01*
X-768800Y340879D01*
X-768868Y340806D01*
X-768897Y340753D01*
X-768934Y340706D01*
X-768974Y340615D01*
X-769022Y340528D01*
X-769037Y340469D01*
X-769061Y340414D01*
X-769076Y340316D01*
X-769101Y340220D01*
X-769107Y340120D01*
X-769111Y340100D01*
X-769109Y340087D01*
X-769111Y340059D01*
X-769111Y294941D01*
X-769099Y294842D01*
X-769096Y294743D01*
X-769079Y294685D01*
X-769071Y294625D01*
X-769035Y294533D01*
X-769007Y294438D01*
X-768977Y294386D01*
X-768954Y294329D01*
X-768896Y294249D01*
X-768846Y294164D01*
X-768780Y294089D01*
X-768768Y294072D01*
X-768758Y294064D01*
X-768740Y294043D01*
X-761627Y286931D01*
X-761518Y286846D01*
X-761411Y286757D01*
X-761392Y286749D01*
X-761376Y286736D01*
X-761248Y286681D01*
X-761123Y286622D01*
X-761103Y286618D01*
X-761084Y286610D01*
X-760946Y286588D01*
X-760810Y286562D01*
X-760790Y286563D01*
X-760770Y286560D01*
X-760631Y286573D01*
X-760493Y286582D01*
X-760474Y286588D01*
X-760454Y286590D01*
X-760322Y286637D01*
X-760191Y286680D01*
X-760173Y286691D01*
X-760154Y286697D01*
X-760039Y286775D01*
X-759922Y286850D01*
X-759908Y286865D01*
X-759891Y286876D01*
X-759799Y286980D01*
X-759704Y287081D01*
X-759694Y287099D01*
X-759681Y287114D01*
X-759617Y287239D01*
X-759550Y287360D01*
X-759545Y287380D01*
X-759536Y287398D01*
X-759506Y287533D01*
X-759471Y287668D01*
X-759469Y287696D01*
X-759466Y287708D01*
X-759467Y287728D01*
X-759461Y287829D01*
X-759461Y296309D01*
X-753509Y302261D01*
X-745091Y302261D01*
X-739139Y296309D01*
X-739139Y287891D01*
X-743340Y283691D01*
X-743400Y283613D01*
X-743468Y283541D01*
X-743497Y283488D01*
X-743534Y283440D01*
X-743574Y283349D01*
X-743622Y283262D01*
X-743637Y283204D01*
X-743661Y283148D01*
X-743676Y283050D01*
X-743701Y282954D01*
X-743707Y282854D01*
X-743711Y282834D01*
X-743709Y282822D01*
X-743711Y282794D01*
X-743711Y282241D01*
X-743699Y282142D01*
X-743696Y282043D01*
X-743679Y281985D01*
X-743671Y281925D01*
X-743635Y281833D01*
X-743607Y281738D01*
X-743577Y281686D01*
X-743554Y281629D01*
X-743496Y281549D01*
X-743446Y281464D01*
X-743380Y281389D01*
X-743368Y281372D01*
X-743358Y281364D01*
X-743340Y281343D01*
X-721957Y259960D01*
X-721879Y259900D01*
X-721806Y259832D01*
X-721753Y259803D01*
X-721706Y259766D01*
X-721615Y259726D01*
X-721528Y259678D01*
X-721469Y259663D01*
X-721414Y259639D01*
X-721316Y259624D01*
X-721220Y259599D01*
X-721120Y259593D01*
X-721100Y259589D01*
X-721087Y259591D01*
X-721059Y259589D01*
X-659288Y259589D01*
X-657234Y258738D01*
X-635385Y236888D01*
X-635330Y236846D01*
X-635281Y236796D01*
X-635205Y236749D01*
X-635134Y236694D01*
X-635069Y236666D01*
X-635010Y236629D01*
X-634924Y236603D01*
X-634842Y236567D01*
X-634773Y236556D01*
X-634706Y236536D01*
X-634617Y236531D01*
X-634528Y236517D01*
X-634458Y236524D01*
X-634388Y236521D01*
X-634301Y236539D01*
X-634211Y236547D01*
X-634145Y236571D01*
X-634077Y236585D01*
X-633996Y236624D01*
X-633912Y236655D01*
X-633854Y236694D01*
X-633791Y236725D01*
X-633723Y236783D01*
X-633649Y236833D01*
X-633602Y236886D01*
X-633549Y236931D01*
X-633498Y237004D01*
X-633438Y237072D01*
X-633406Y237134D01*
X-633366Y237191D01*
X-633334Y237275D01*
X-633293Y237355D01*
X-633278Y237423D01*
X-633253Y237488D01*
X-633243Y237578D01*
X-633224Y237665D01*
X-633226Y237735D01*
X-633218Y237804D01*
X-633231Y237893D01*
X-633233Y237983D01*
X-633253Y238050D01*
X-633263Y238119D01*
X-633315Y238272D01*
X-633865Y239600D01*
X-633865Y244200D01*
X-632104Y248451D01*
X-628851Y251704D01*
X-628672Y251778D01*
X-628647Y251793D01*
X-628619Y251802D01*
X-628509Y251871D01*
X-628396Y251936D01*
X-628375Y251956D01*
X-628350Y251972D01*
X-628261Y252067D01*
X-628168Y252157D01*
X-628152Y252182D01*
X-628132Y252204D01*
X-628069Y252317D01*
X-628001Y252428D01*
X-627993Y252456D01*
X-627978Y252482D01*
X-627946Y252608D01*
X-627908Y252732D01*
X-627906Y252761D01*
X-627899Y252790D01*
X-627889Y252951D01*
X-627889Y338659D01*
X-627890Y338668D01*
X-627889Y338677D01*
X-627910Y338826D01*
X-627929Y338974D01*
X-627932Y338983D01*
X-627933Y338992D01*
X-627985Y339145D01*
X-628990Y341569D01*
X-628990Y344231D01*
X-627971Y346689D01*
X-626089Y348571D01*
X-623631Y349590D01*
X-620969Y349590D01*
X-618511Y348571D01*
X-616629Y346689D01*
X-615610Y344231D01*
X-615610Y341569D01*
X-616615Y339145D01*
X-616617Y339136D01*
X-616622Y339127D01*
X-616659Y338982D01*
X-616699Y338838D01*
X-616699Y338829D01*
X-616701Y338820D01*
X-616711Y338659D01*
X-616711Y252951D01*
X-616708Y252921D01*
X-616710Y252892D01*
X-616688Y252764D01*
X-616671Y252635D01*
X-616661Y252608D01*
X-616656Y252579D01*
X-616602Y252460D01*
X-616554Y252340D01*
X-616537Y252316D01*
X-616525Y252289D01*
X-616444Y252187D01*
X-616368Y252082D01*
X-616345Y252063D01*
X-616326Y252040D01*
X-616223Y251962D01*
X-616123Y251879D01*
X-616096Y251867D01*
X-616072Y251849D01*
X-615928Y251778D01*
X-615749Y251704D01*
X-612496Y248451D01*
X-610735Y244200D01*
X-610735Y239600D01*
X-612496Y235349D01*
X-615749Y232096D01*
X-620000Y230335D01*
X-624600Y230335D01*
X-625928Y230885D01*
X-625996Y230904D01*
X-626060Y230931D01*
X-626148Y230946D01*
X-626235Y230969D01*
X-626305Y230970D01*
X-626374Y230981D01*
X-626463Y230973D01*
X-626553Y230974D01*
X-626621Y230958D01*
X-626690Y230952D01*
X-626775Y230921D01*
X-626862Y230900D01*
X-626924Y230868D01*
X-626990Y230844D01*
X-627064Y230793D01*
X-627143Y230751D01*
X-627195Y230705D01*
X-627253Y230665D01*
X-627312Y230598D01*
X-627379Y230538D01*
X-627417Y230479D01*
X-627463Y230427D01*
X-627504Y230347D01*
X-627554Y230272D01*
X-627576Y230206D01*
X-627608Y230144D01*
X-627628Y230056D01*
X-627657Y229971D01*
X-627662Y229901D01*
X-627678Y229833D01*
X-627675Y229744D01*
X-627682Y229654D01*
X-627670Y229585D01*
X-627668Y229515D01*
X-627643Y229429D01*
X-627628Y229341D01*
X-627599Y229277D01*
X-627579Y229210D01*
X-627534Y229133D01*
X-627497Y229051D01*
X-627453Y228996D01*
X-627418Y228936D01*
X-627312Y228815D01*
X-626162Y227666D01*
X-626139Y227648D01*
X-626120Y227625D01*
X-626013Y227550D01*
X-625911Y227471D01*
X-625884Y227459D01*
X-625860Y227442D01*
X-625738Y227396D01*
X-625619Y227345D01*
X-625590Y227340D01*
X-625562Y227329D01*
X-625433Y227315D01*
X-625305Y227295D01*
X-625276Y227298D01*
X-625246Y227294D01*
X-625118Y227312D01*
X-624988Y227325D01*
X-624961Y227335D01*
X-624931Y227339D01*
X-624779Y227391D01*
X-624600Y227465D01*
X-620000Y227465D01*
X-615749Y225704D01*
X-612496Y222451D01*
X-610735Y218200D01*
X-610735Y213600D01*
X-612496Y209349D01*
X-615749Y206096D01*
X-620000Y204335D01*
X-624600Y204335D01*
X-628851Y206096D01*
X-632104Y209349D01*
X-633865Y213600D01*
X-633865Y218200D01*
X-633791Y218379D01*
X-633783Y218408D01*
X-633770Y218434D01*
X-633741Y218560D01*
X-633707Y218686D01*
X-633706Y218715D01*
X-633700Y218744D01*
X-633704Y218874D01*
X-633702Y219004D01*
X-633709Y219032D01*
X-633710Y219062D01*
X-633746Y219187D01*
X-633776Y219313D01*
X-633790Y219339D01*
X-633798Y219367D01*
X-633864Y219479D01*
X-633925Y219594D01*
X-633944Y219616D01*
X-633959Y219641D01*
X-634066Y219762D01*
X-662343Y248040D01*
X-662421Y248100D01*
X-662494Y248168D01*
X-662547Y248197D01*
X-662594Y248234D01*
X-662685Y248274D01*
X-662772Y248322D01*
X-662831Y248337D01*
X-662886Y248361D01*
X-662984Y248376D01*
X-663080Y248401D01*
X-663180Y248407D01*
X-663200Y248411D01*
X-663213Y248409D01*
X-663241Y248411D01*
X-725012Y248411D01*
X-727066Y249262D01*
X-754098Y276294D01*
X-754127Y276345D01*
X-754175Y276395D01*
X-754216Y276452D01*
X-754286Y276509D01*
X-754348Y276573D01*
X-754408Y276610D01*
X-754461Y276655D01*
X-754542Y276693D01*
X-754619Y276740D01*
X-754686Y276760D01*
X-754749Y276790D01*
X-754837Y276807D01*
X-754923Y276833D01*
X-754993Y276837D01*
X-755062Y276850D01*
X-755151Y276844D01*
X-755241Y276849D01*
X-755309Y276834D01*
X-755379Y276830D01*
X-755464Y276802D01*
X-755552Y276784D01*
X-755615Y276754D01*
X-755681Y276732D01*
X-755757Y276684D01*
X-755838Y276645D01*
X-755891Y276599D01*
X-755950Y276562D01*
X-756012Y276496D01*
X-756080Y276438D01*
X-756120Y276381D01*
X-756168Y276330D01*
X-756211Y276252D01*
X-756263Y276178D01*
X-756288Y276113D01*
X-756322Y276052D01*
X-756344Y275965D01*
X-756376Y275881D01*
X-756384Y275812D01*
X-756401Y275744D01*
X-756411Y275583D01*
X-756411Y231441D01*
X-756399Y231342D01*
X-756396Y231243D01*
X-756379Y231185D01*
X-756371Y231125D01*
X-756335Y231033D01*
X-756307Y230938D01*
X-756277Y230886D01*
X-756254Y230829D01*
X-756196Y230749D01*
X-756146Y230664D01*
X-756080Y230589D01*
X-756068Y230572D01*
X-756058Y230564D01*
X-756040Y230543D01*
X-721357Y195860D01*
X-721279Y195800D01*
X-721206Y195732D01*
X-721153Y195703D01*
X-721106Y195666D01*
X-721015Y195626D01*
X-720928Y195578D01*
X-720869Y195563D01*
X-720814Y195539D01*
X-720716Y195524D01*
X-720620Y195499D01*
X-720520Y195493D01*
X-720500Y195489D01*
X-720487Y195491D01*
X-720459Y195489D01*
X-633351Y195489D01*
X-633321Y195492D01*
X-633292Y195490D01*
X-633164Y195512D01*
X-633035Y195529D01*
X-633008Y195539D01*
X-632979Y195544D01*
X-632860Y195598D01*
X-632740Y195646D01*
X-632716Y195663D01*
X-632689Y195675D01*
X-632587Y195756D01*
X-632482Y195832D01*
X-632463Y195855D01*
X-632440Y195874D01*
X-632362Y195977D01*
X-632279Y196077D01*
X-632267Y196104D01*
X-632249Y196128D01*
X-632178Y196272D01*
X-632104Y196451D01*
X-628851Y199704D01*
X-624600Y201465D01*
X-620000Y201465D01*
X-615749Y199704D01*
X-612496Y196451D01*
X-610735Y192200D01*
X-610735Y187600D01*
X-610809Y187421D01*
X-610817Y187392D01*
X-610830Y187366D01*
X-610859Y187240D01*
X-610893Y187114D01*
X-610894Y187085D01*
X-610900Y187056D01*
X-610896Y186926D01*
X-610898Y186796D01*
X-610891Y186768D01*
X-610890Y186738D01*
X-610854Y186613D01*
X-610824Y186487D01*
X-610810Y186461D01*
X-610802Y186433D01*
X-610736Y186321D01*
X-610675Y186206D01*
X-610656Y186184D01*
X-610641Y186159D01*
X-610534Y186038D01*
X-570157Y145660D01*
X-570079Y145600D01*
X-570006Y145532D01*
X-569953Y145503D01*
X-569906Y145466D01*
X-569815Y145426D01*
X-569728Y145378D01*
X-569669Y145363D01*
X-569614Y145339D01*
X-569516Y145324D01*
X-569420Y145299D01*
X-569320Y145293D01*
X-569300Y145289D01*
X-569287Y145291D01*
X-569259Y145289D01*
X-472741Y145289D01*
X-472642Y145301D01*
X-472543Y145304D01*
X-472485Y145321D01*
X-472425Y145329D01*
X-472333Y145365D01*
X-472238Y145393D01*
X-472186Y145423D01*
X-472129Y145446D01*
X-472049Y145504D01*
X-471964Y145554D01*
X-471889Y145620D01*
X-471872Y145632D01*
X-471864Y145642D01*
X-471843Y145660D01*
X-454786Y162717D01*
X-454726Y162795D01*
X-454658Y162868D01*
X-454629Y162921D01*
X-454592Y162968D01*
X-454552Y163059D01*
X-454504Y163146D01*
X-454489Y163205D01*
X-454465Y163260D01*
X-454450Y163358D01*
X-454425Y163454D01*
X-454419Y163554D01*
X-454415Y163574D01*
X-454417Y163587D01*
X-454415Y163615D01*
X-454415Y167072D01*
X-452905Y170716D01*
X-450116Y173505D01*
X-446472Y175015D01*
X-442528Y175015D01*
X-438884Y173505D01*
X-436095Y170716D01*
X-434585Y167072D01*
X-434585Y163128D01*
X-436095Y159484D01*
X-438884Y156695D01*
X-442528Y155185D01*
X-445985Y155185D01*
X-446084Y155173D01*
X-446183Y155170D01*
X-446241Y155153D01*
X-446301Y155145D01*
X-446393Y155109D01*
X-446488Y155081D01*
X-446540Y155051D01*
X-446597Y155028D01*
X-446677Y154970D01*
X-446762Y154920D01*
X-446837Y154854D01*
X-446854Y154842D01*
X-446862Y154832D01*
X-446883Y154814D01*
X-466734Y134962D01*
X-468788Y134111D01*
X-573212Y134111D01*
X-575266Y134962D01*
X-577016Y136713D01*
X-618438Y178134D01*
X-618461Y178152D01*
X-618480Y178175D01*
X-618586Y178249D01*
X-618689Y178329D01*
X-618716Y178341D01*
X-618740Y178358D01*
X-618862Y178404D01*
X-618981Y178455D01*
X-619010Y178460D01*
X-619038Y178471D01*
X-619167Y178485D01*
X-619295Y178505D01*
X-619324Y178502D01*
X-619354Y178506D01*
X-619482Y178488D01*
X-619612Y178475D01*
X-619639Y178465D01*
X-619669Y178461D01*
X-619821Y178409D01*
X-620000Y178335D01*
X-624600Y178335D01*
X-628851Y180096D01*
X-632104Y183349D01*
X-632178Y183528D01*
X-632192Y183551D01*
X-632200Y183576D01*
X-632201Y183578D01*
X-632202Y183581D01*
X-632271Y183691D01*
X-632336Y183804D01*
X-632356Y183825D01*
X-632372Y183850D01*
X-632467Y183939D01*
X-632557Y184032D01*
X-632582Y184048D01*
X-632604Y184068D01*
X-632717Y184131D01*
X-632828Y184199D01*
X-632856Y184207D01*
X-632882Y184222D01*
X-633008Y184254D01*
X-633132Y184292D01*
X-633161Y184294D01*
X-633190Y184301D01*
X-633351Y184311D01*
X-706743Y184311D01*
X-706881Y184294D01*
X-707020Y184281D01*
X-707039Y184274D01*
X-707059Y184271D01*
X-707188Y184220D01*
X-707319Y184173D01*
X-707336Y184162D01*
X-707355Y184154D01*
X-707467Y184073D01*
X-707582Y183995D01*
X-707596Y183979D01*
X-707612Y183968D01*
X-707701Y183860D01*
X-707793Y183756D01*
X-707802Y183738D01*
X-707815Y183723D01*
X-707874Y183597D01*
X-707937Y183473D01*
X-707942Y183453D01*
X-707950Y183435D01*
X-707976Y183299D01*
X-708007Y183163D01*
X-708006Y183142D01*
X-708010Y183123D01*
X-708001Y182984D01*
X-707997Y182845D01*
X-707992Y182825D01*
X-707990Y182805D01*
X-707948Y182673D01*
X-707909Y182539D01*
X-707899Y182522D01*
X-707892Y182503D01*
X-707818Y182385D01*
X-707747Y182265D01*
X-707729Y182244D01*
X-707722Y182234D01*
X-707717Y182229D01*
X-707717Y182228D01*
X-707706Y182218D01*
X-707641Y182145D01*
X-620357Y94860D01*
X-620279Y94800D01*
X-620206Y94732D01*
X-620153Y94703D01*
X-620106Y94666D01*
X-620015Y94626D01*
X-619928Y94578D01*
X-619869Y94563D01*
X-619814Y94539D01*
X-619716Y94524D01*
X-619620Y94499D01*
X-619520Y94493D01*
X-619500Y94489D01*
X-619487Y94491D01*
X-619459Y94489D01*
X-367601Y94489D01*
X-367502Y94501D01*
X-367403Y94504D01*
X-367345Y94521D01*
X-367285Y94529D01*
X-367193Y94565D01*
X-367098Y94593D01*
X-367046Y94623D01*
X-366989Y94646D01*
X-366909Y94704D01*
X-366824Y94754D01*
X-366748Y94820D01*
X-366732Y94832D01*
X-366724Y94842D01*
X-366703Y94860D01*
X-360598Y100966D01*
X-350602Y100966D01*
X-343534Y93898D01*
X-343534Y83902D01*
X-350602Y76834D01*
X-360598Y76834D01*
G37*
%LPD*%
%LPC*%
G36*
X-446472Y256785D02*
X-446472Y256785D01*
X-450116Y258295D01*
X-452905Y261084D01*
X-454415Y264728D01*
X-454415Y268672D01*
X-452905Y272316D01*
X-450116Y275105D01*
X-446472Y276615D01*
X-443015Y276615D01*
X-442916Y276627D01*
X-442817Y276630D01*
X-442759Y276647D01*
X-442699Y276655D01*
X-442607Y276691D01*
X-442512Y276719D01*
X-442460Y276749D01*
X-442403Y276772D01*
X-442323Y276830D01*
X-442238Y276880D01*
X-442163Y276946D01*
X-442146Y276958D01*
X-442138Y276968D01*
X-442117Y276986D01*
X-371259Y347845D01*
X-371174Y347954D01*
X-371085Y348061D01*
X-371077Y348080D01*
X-371064Y348096D01*
X-371009Y348224D01*
X-370950Y348349D01*
X-370946Y348369D01*
X-370938Y348388D01*
X-370916Y348526D01*
X-370890Y348662D01*
X-370891Y348682D01*
X-370888Y348702D01*
X-370901Y348841D01*
X-370910Y348979D01*
X-370916Y348998D01*
X-370918Y349018D01*
X-370965Y349150D01*
X-371008Y349281D01*
X-371019Y349299D01*
X-371025Y349318D01*
X-371103Y349433D01*
X-371178Y349550D01*
X-371193Y349564D01*
X-371204Y349581D01*
X-371308Y349673D01*
X-371409Y349768D01*
X-371427Y349778D01*
X-371442Y349791D01*
X-371566Y349854D01*
X-371688Y349922D01*
X-371708Y349927D01*
X-371726Y349936D01*
X-371861Y349966D01*
X-371996Y350001D01*
X-372024Y350003D01*
X-372036Y350006D01*
X-372056Y350005D01*
X-372157Y350011D01*
X-397094Y350011D01*
X-397192Y349999D01*
X-397291Y349996D01*
X-397349Y349979D01*
X-397409Y349971D01*
X-397501Y349935D01*
X-397596Y349907D01*
X-397648Y349877D01*
X-397705Y349854D01*
X-397785Y349796D01*
X-397870Y349746D01*
X-397946Y349680D01*
X-397962Y349668D01*
X-397970Y349658D01*
X-397991Y349640D01*
X-402191Y345439D01*
X-410609Y345439D01*
X-416561Y351391D01*
X-416561Y359809D01*
X-410609Y365761D01*
X-402191Y365761D01*
X-397991Y361560D01*
X-397913Y361500D01*
X-397841Y361432D01*
X-397788Y361403D01*
X-397740Y361366D01*
X-397649Y361326D01*
X-397562Y361278D01*
X-397504Y361263D01*
X-397448Y361239D01*
X-397350Y361224D01*
X-397254Y361199D01*
X-397154Y361193D01*
X-397134Y361189D01*
X-397122Y361191D01*
X-397094Y361189D01*
X-294941Y361189D01*
X-294842Y361201D01*
X-294743Y361204D01*
X-294685Y361221D01*
X-294625Y361229D01*
X-294533Y361265D01*
X-294438Y361293D01*
X-294386Y361323D01*
X-294329Y361346D01*
X-294249Y361404D01*
X-294164Y361454D01*
X-294089Y361520D01*
X-294072Y361532D01*
X-294064Y361542D01*
X-294043Y361560D01*
X-234560Y421043D01*
X-234500Y421121D01*
X-234432Y421194D01*
X-234403Y421247D01*
X-234366Y421294D01*
X-234326Y421385D01*
X-234278Y421472D01*
X-234263Y421531D01*
X-234239Y421586D01*
X-234224Y421684D01*
X-234199Y421780D01*
X-234193Y421880D01*
X-234189Y421900D01*
X-234191Y421913D01*
X-234189Y421941D01*
X-234189Y442865D01*
X-234201Y442963D01*
X-234204Y443062D01*
X-234221Y443120D01*
X-234229Y443180D01*
X-234265Y443272D01*
X-234293Y443367D01*
X-234323Y443420D01*
X-234346Y443476D01*
X-234404Y443556D01*
X-234454Y443641D01*
X-234520Y443717D01*
X-234532Y443733D01*
X-234542Y443741D01*
X-234560Y443762D01*
X-240403Y449604D01*
X-240497Y449677D01*
X-240586Y449756D01*
X-240622Y449774D01*
X-240654Y449799D01*
X-240763Y449846D01*
X-240869Y449900D01*
X-240908Y449909D01*
X-240946Y449925D01*
X-241063Y449944D01*
X-241179Y449970D01*
X-241220Y449969D01*
X-241260Y449975D01*
X-241378Y449964D01*
X-241497Y449960D01*
X-241536Y449949D01*
X-241576Y449945D01*
X-241689Y449905D01*
X-241803Y449872D01*
X-241838Y449852D01*
X-241876Y449838D01*
X-241974Y449771D01*
X-242077Y449711D01*
X-242122Y449671D01*
X-242139Y449659D01*
X-242152Y449644D01*
X-242198Y449604D01*
X-247482Y444320D01*
X-247555Y444226D01*
X-247634Y444137D01*
X-247652Y444101D01*
X-247677Y444069D01*
X-247724Y443959D01*
X-247778Y443853D01*
X-247787Y443814D01*
X-247803Y443777D01*
X-247822Y443659D01*
X-247848Y443543D01*
X-247847Y443503D01*
X-247853Y443463D01*
X-247842Y443344D01*
X-247838Y443225D01*
X-247827Y443186D01*
X-247823Y443146D01*
X-247783Y443034D01*
X-247750Y442920D01*
X-247729Y442885D01*
X-247715Y442847D01*
X-247649Y442748D01*
X-247588Y442646D01*
X-247548Y442600D01*
X-247537Y442584D01*
X-247522Y442570D01*
X-247482Y442525D01*
X-241807Y436850D01*
X-241807Y434339D01*
X-252730Y434339D01*
X-252848Y434324D01*
X-252967Y434317D01*
X-253005Y434304D01*
X-253045Y434299D01*
X-253156Y434256D01*
X-253269Y434219D01*
X-253303Y434197D01*
X-253341Y434182D01*
X-253437Y434112D01*
X-253538Y434049D01*
X-253566Y434019D01*
X-253598Y433995D01*
X-253674Y433904D01*
X-253756Y433817D01*
X-253775Y433782D01*
X-253801Y433751D01*
X-253852Y433643D01*
X-253909Y433539D01*
X-253920Y433499D01*
X-253937Y433463D01*
X-253959Y433346D01*
X-253989Y433231D01*
X-253993Y433170D01*
X-253997Y433150D01*
X-253995Y433130D01*
X-253999Y433070D01*
X-253999Y431799D01*
X-254001Y431799D01*
X-254001Y433070D01*
X-254016Y433188D01*
X-254023Y433307D01*
X-254036Y433345D01*
X-254041Y433385D01*
X-254085Y433496D01*
X-254121Y433609D01*
X-254143Y433644D01*
X-254158Y433681D01*
X-254228Y433777D01*
X-254291Y433878D01*
X-254321Y433906D01*
X-254345Y433939D01*
X-254436Y434014D01*
X-254523Y434096D01*
X-254558Y434116D01*
X-254590Y434141D01*
X-254697Y434192D01*
X-254802Y434250D01*
X-254841Y434260D01*
X-254877Y434277D01*
X-254994Y434299D01*
X-255109Y434329D01*
X-255170Y434333D01*
X-255190Y434337D01*
X-255210Y434335D01*
X-255270Y434339D01*
X-266193Y434339D01*
X-266193Y436850D01*
X-260518Y442525D01*
X-260445Y442619D01*
X-260366Y442708D01*
X-260348Y442744D01*
X-260323Y442776D01*
X-260276Y442886D01*
X-260222Y442991D01*
X-260213Y443031D01*
X-260197Y443068D01*
X-260178Y443186D01*
X-260152Y443302D01*
X-260153Y443342D01*
X-260147Y443382D01*
X-260158Y443501D01*
X-260162Y443620D01*
X-260173Y443658D01*
X-260177Y443699D01*
X-260217Y443811D01*
X-260250Y443925D01*
X-260271Y443960D01*
X-260285Y443998D01*
X-260352Y444097D01*
X-260412Y444199D01*
X-260452Y444244D01*
X-260463Y444261D01*
X-260478Y444275D01*
X-260518Y444320D01*
X-267717Y451518D01*
X-267717Y462882D01*
X-259682Y470917D01*
X-248318Y470917D01*
X-242198Y464796D01*
X-242103Y464723D01*
X-242014Y464644D01*
X-241978Y464626D01*
X-241946Y464601D01*
X-241837Y464554D01*
X-241731Y464500D01*
X-241692Y464491D01*
X-241654Y464475D01*
X-241537Y464456D01*
X-241421Y464430D01*
X-241380Y464431D01*
X-241340Y464425D01*
X-241222Y464436D01*
X-241103Y464440D01*
X-241064Y464451D01*
X-241024Y464455D01*
X-240911Y464495D01*
X-240797Y464528D01*
X-240763Y464548D01*
X-240724Y464562D01*
X-240626Y464629D01*
X-240523Y464689D01*
X-240478Y464729D01*
X-240461Y464741D01*
X-240448Y464756D01*
X-240403Y464796D01*
X-234282Y470917D01*
X-222918Y470917D01*
X-215720Y463718D01*
X-215626Y463645D01*
X-215537Y463566D01*
X-215501Y463548D01*
X-215469Y463523D01*
X-215359Y463476D01*
X-215253Y463422D01*
X-215214Y463413D01*
X-215177Y463397D01*
X-215059Y463378D01*
X-214943Y463352D01*
X-214903Y463353D01*
X-214863Y463347D01*
X-214744Y463358D01*
X-214625Y463362D01*
X-214586Y463373D01*
X-214546Y463377D01*
X-214434Y463417D01*
X-214320Y463450D01*
X-214285Y463471D01*
X-214247Y463485D01*
X-214148Y463552D01*
X-214046Y463612D01*
X-214001Y463652D01*
X-213984Y463663D01*
X-213970Y463678D01*
X-213925Y463718D01*
X-208250Y469393D01*
X-205739Y469393D01*
X-205739Y458470D01*
X-205724Y458352D01*
X-205717Y458233D01*
X-205704Y458195D01*
X-205699Y458155D01*
X-205656Y458044D01*
X-205619Y457931D01*
X-205597Y457897D01*
X-205582Y457859D01*
X-205512Y457763D01*
X-205449Y457662D01*
X-205419Y457634D01*
X-205395Y457602D01*
X-205304Y457526D01*
X-205217Y457444D01*
X-205182Y457425D01*
X-205151Y457399D01*
X-205043Y457348D01*
X-204939Y457291D01*
X-204899Y457280D01*
X-204863Y457263D01*
X-204746Y457241D01*
X-204631Y457211D01*
X-204570Y457207D01*
X-204550Y457203D01*
X-204530Y457205D01*
X-204470Y457201D01*
X-203199Y457201D01*
X-203199Y457199D01*
X-204470Y457199D01*
X-204588Y457184D01*
X-204707Y457177D01*
X-204745Y457164D01*
X-204785Y457159D01*
X-204896Y457115D01*
X-205009Y457079D01*
X-205044Y457057D01*
X-205081Y457042D01*
X-205177Y456972D01*
X-205278Y456909D01*
X-205306Y456879D01*
X-205339Y456855D01*
X-205414Y456764D01*
X-205496Y456677D01*
X-205516Y456642D01*
X-205541Y456610D01*
X-205592Y456503D01*
X-205650Y456398D01*
X-205660Y456359D01*
X-205677Y456323D01*
X-205699Y456206D01*
X-205729Y456091D01*
X-205733Y456030D01*
X-205737Y456010D01*
X-205736Y456007D01*
X-205737Y456006D01*
X-205736Y455988D01*
X-205739Y455930D01*
X-205739Y445007D01*
X-208250Y445007D01*
X-213925Y450682D01*
X-214019Y450755D01*
X-214108Y450834D01*
X-214144Y450852D01*
X-214176Y450877D01*
X-214285Y450924D01*
X-214391Y450978D01*
X-214431Y450987D01*
X-214468Y451003D01*
X-214586Y451022D01*
X-214702Y451048D01*
X-214742Y451047D01*
X-214782Y451053D01*
X-214901Y451042D01*
X-215020Y451038D01*
X-215058Y451027D01*
X-215099Y451023D01*
X-215211Y450983D01*
X-215325Y450950D01*
X-215360Y450929D01*
X-215398Y450915D01*
X-215496Y450849D01*
X-215599Y450788D01*
X-215644Y450748D01*
X-215661Y450737D01*
X-215675Y450722D01*
X-215720Y450682D01*
X-222640Y443762D01*
X-222700Y443684D01*
X-222768Y443612D01*
X-222797Y443559D01*
X-222834Y443511D01*
X-222874Y443420D01*
X-222922Y443333D01*
X-222937Y443275D01*
X-222961Y443219D01*
X-222976Y443121D01*
X-223001Y443025D01*
X-223007Y442925D01*
X-223011Y442905D01*
X-223009Y442893D01*
X-223011Y442865D01*
X-223011Y417988D01*
X-223862Y415934D01*
X-288934Y350862D01*
X-290988Y350011D01*
X-352759Y350011D01*
X-352858Y349999D01*
X-352957Y349996D01*
X-353015Y349979D01*
X-353075Y349971D01*
X-353167Y349935D01*
X-353262Y349907D01*
X-353314Y349877D01*
X-353371Y349854D01*
X-353451Y349796D01*
X-353536Y349746D01*
X-353611Y349680D01*
X-353628Y349668D01*
X-353636Y349658D01*
X-353657Y349640D01*
X-434214Y269083D01*
X-434274Y269005D01*
X-434342Y268932D01*
X-434371Y268879D01*
X-434408Y268832D01*
X-434448Y268741D01*
X-434496Y268654D01*
X-434511Y268595D01*
X-434535Y268540D01*
X-434550Y268442D01*
X-434575Y268346D01*
X-434581Y268246D01*
X-434585Y268226D01*
X-434583Y268213D01*
X-434585Y268185D01*
X-434585Y264728D01*
X-436095Y261084D01*
X-438884Y258295D01*
X-442528Y256785D01*
X-446472Y256785D01*
G37*
%LPD*%
%LPC*%
G36*
X-360756Y508253D02*
X-360756Y508253D01*
X-368047Y515544D01*
X-368047Y525856D01*
X-360756Y533147D01*
X-350444Y533147D01*
X-343797Y526500D01*
X-343703Y526427D01*
X-343614Y526348D01*
X-343578Y526330D01*
X-343546Y526305D01*
X-343437Y526257D01*
X-343331Y526203D01*
X-343292Y526195D01*
X-343254Y526179D01*
X-343137Y526160D01*
X-343021Y526134D01*
X-342980Y526135D01*
X-342940Y526129D01*
X-342822Y526140D01*
X-342703Y526143D01*
X-342664Y526155D01*
X-342624Y526158D01*
X-342511Y526199D01*
X-342397Y526232D01*
X-342362Y526252D01*
X-342324Y526266D01*
X-342226Y526333D01*
X-342123Y526393D01*
X-342078Y526433D01*
X-342061Y526445D01*
X-342048Y526460D01*
X-342002Y526500D01*
X-335356Y533147D01*
X-325044Y533147D01*
X-318397Y526500D01*
X-318303Y526427D01*
X-318214Y526348D01*
X-318178Y526330D01*
X-318146Y526305D01*
X-318037Y526257D01*
X-317931Y526203D01*
X-317892Y526195D01*
X-317854Y526179D01*
X-317737Y526160D01*
X-317621Y526134D01*
X-317580Y526135D01*
X-317540Y526129D01*
X-317422Y526140D01*
X-317303Y526143D01*
X-317264Y526155D01*
X-317224Y526158D01*
X-317111Y526199D01*
X-316997Y526232D01*
X-316962Y526252D01*
X-316924Y526266D01*
X-316826Y526333D01*
X-316723Y526393D01*
X-316678Y526433D01*
X-316661Y526445D01*
X-316648Y526460D01*
X-316602Y526500D01*
X-309956Y533147D01*
X-299644Y533147D01*
X-292997Y526500D01*
X-292903Y526427D01*
X-292814Y526348D01*
X-292778Y526330D01*
X-292746Y526305D01*
X-292637Y526257D01*
X-292531Y526203D01*
X-292492Y526195D01*
X-292454Y526179D01*
X-292337Y526160D01*
X-292221Y526134D01*
X-292180Y526135D01*
X-292140Y526129D01*
X-292022Y526140D01*
X-291903Y526143D01*
X-291864Y526155D01*
X-291824Y526158D01*
X-291711Y526199D01*
X-291597Y526232D01*
X-291562Y526252D01*
X-291524Y526266D01*
X-291426Y526333D01*
X-291323Y526393D01*
X-291278Y526433D01*
X-291261Y526445D01*
X-291248Y526460D01*
X-291202Y526500D01*
X-284556Y533147D01*
X-274244Y533147D01*
X-267598Y526500D01*
X-267503Y526427D01*
X-267414Y526348D01*
X-267378Y526330D01*
X-267346Y526305D01*
X-267237Y526258D01*
X-267131Y526203D01*
X-267092Y526195D01*
X-267054Y526179D01*
X-266937Y526160D01*
X-266821Y526134D01*
X-266780Y526135D01*
X-266740Y526129D01*
X-266622Y526140D01*
X-266503Y526143D01*
X-266464Y526155D01*
X-266424Y526158D01*
X-266311Y526199D01*
X-266197Y526232D01*
X-266163Y526252D01*
X-266124Y526266D01*
X-266026Y526333D01*
X-265923Y526393D01*
X-265878Y526433D01*
X-265861Y526445D01*
X-265848Y526460D01*
X-265803Y526500D01*
X-259156Y533147D01*
X-248844Y533147D01*
X-242198Y526500D01*
X-242103Y526427D01*
X-242014Y526348D01*
X-241978Y526330D01*
X-241946Y526305D01*
X-241837Y526258D01*
X-241731Y526203D01*
X-241692Y526195D01*
X-241654Y526179D01*
X-241537Y526160D01*
X-241421Y526134D01*
X-241380Y526135D01*
X-241340Y526129D01*
X-241222Y526140D01*
X-241103Y526143D01*
X-241064Y526155D01*
X-241024Y526158D01*
X-240911Y526199D01*
X-240797Y526232D01*
X-240763Y526252D01*
X-240724Y526266D01*
X-240626Y526333D01*
X-240523Y526393D01*
X-240478Y526433D01*
X-240461Y526445D01*
X-240448Y526460D01*
X-240403Y526500D01*
X-233756Y533147D01*
X-223444Y533147D01*
X-216798Y526500D01*
X-216703Y526427D01*
X-216614Y526348D01*
X-216578Y526330D01*
X-216546Y526305D01*
X-216437Y526258D01*
X-216331Y526203D01*
X-216292Y526195D01*
X-216254Y526179D01*
X-216137Y526160D01*
X-216021Y526134D01*
X-215980Y526135D01*
X-215940Y526129D01*
X-215822Y526140D01*
X-215703Y526143D01*
X-215664Y526155D01*
X-215624Y526158D01*
X-215511Y526199D01*
X-215397Y526232D01*
X-215363Y526252D01*
X-215324Y526266D01*
X-215226Y526333D01*
X-215123Y526393D01*
X-215078Y526433D01*
X-215061Y526445D01*
X-215048Y526460D01*
X-215003Y526500D01*
X-208356Y533147D01*
X-198044Y533147D01*
X-191398Y526500D01*
X-191303Y526427D01*
X-191214Y526348D01*
X-191178Y526330D01*
X-191146Y526305D01*
X-191037Y526258D01*
X-190931Y526203D01*
X-190892Y526195D01*
X-190854Y526179D01*
X-190737Y526160D01*
X-190621Y526134D01*
X-190580Y526135D01*
X-190540Y526129D01*
X-190422Y526140D01*
X-190303Y526143D01*
X-190264Y526155D01*
X-190224Y526158D01*
X-190111Y526199D01*
X-189997Y526232D01*
X-189963Y526252D01*
X-189924Y526266D01*
X-189826Y526333D01*
X-189723Y526393D01*
X-189678Y526433D01*
X-189661Y526445D01*
X-189648Y526460D01*
X-189603Y526500D01*
X-182956Y533147D01*
X-172644Y533147D01*
X-165353Y525856D01*
X-165353Y515544D01*
X-172644Y508253D01*
X-182956Y508253D01*
X-189603Y514900D01*
X-189697Y514973D01*
X-189786Y515052D01*
X-189822Y515070D01*
X-189854Y515095D01*
X-189963Y515143D01*
X-190069Y515197D01*
X-190108Y515205D01*
X-190146Y515221D01*
X-190263Y515240D01*
X-190379Y515266D01*
X-190420Y515265D01*
X-190460Y515271D01*
X-190578Y515260D01*
X-190697Y515257D01*
X-190736Y515245D01*
X-190776Y515242D01*
X-190889Y515201D01*
X-191003Y515168D01*
X-191038Y515148D01*
X-191076Y515134D01*
X-191174Y515067D01*
X-191277Y515007D01*
X-191322Y514967D01*
X-191339Y514955D01*
X-191352Y514940D01*
X-191398Y514900D01*
X-198044Y508253D01*
X-208356Y508253D01*
X-215003Y514900D01*
X-215097Y514973D01*
X-215186Y515052D01*
X-215222Y515070D01*
X-215254Y515095D01*
X-215363Y515143D01*
X-215469Y515197D01*
X-215508Y515205D01*
X-215546Y515221D01*
X-215663Y515240D01*
X-215779Y515266D01*
X-215820Y515265D01*
X-215860Y515271D01*
X-215978Y515260D01*
X-216097Y515257D01*
X-216136Y515245D01*
X-216176Y515242D01*
X-216289Y515201D01*
X-216403Y515168D01*
X-216438Y515148D01*
X-216476Y515134D01*
X-216574Y515067D01*
X-216677Y515007D01*
X-216722Y514967D01*
X-216739Y514955D01*
X-216752Y514940D01*
X-216798Y514900D01*
X-223444Y508253D01*
X-233756Y508253D01*
X-240403Y514900D01*
X-240497Y514973D01*
X-240586Y515052D01*
X-240622Y515070D01*
X-240654Y515095D01*
X-240763Y515143D01*
X-240869Y515197D01*
X-240908Y515205D01*
X-240946Y515221D01*
X-241063Y515240D01*
X-241179Y515266D01*
X-241220Y515265D01*
X-241260Y515271D01*
X-241378Y515260D01*
X-241497Y515257D01*
X-241536Y515245D01*
X-241576Y515242D01*
X-241689Y515201D01*
X-241803Y515168D01*
X-241838Y515148D01*
X-241876Y515134D01*
X-241974Y515067D01*
X-242077Y515007D01*
X-242122Y514967D01*
X-242139Y514955D01*
X-242152Y514940D01*
X-242198Y514900D01*
X-248844Y508253D01*
X-259156Y508253D01*
X-265803Y514900D01*
X-265897Y514973D01*
X-265986Y515052D01*
X-266022Y515070D01*
X-266054Y515095D01*
X-266163Y515143D01*
X-266269Y515197D01*
X-266308Y515205D01*
X-266346Y515221D01*
X-266463Y515240D01*
X-266579Y515266D01*
X-266620Y515265D01*
X-266660Y515271D01*
X-266778Y515260D01*
X-266897Y515257D01*
X-266936Y515245D01*
X-266976Y515242D01*
X-267089Y515201D01*
X-267203Y515168D01*
X-267238Y515148D01*
X-267276Y515134D01*
X-267374Y515067D01*
X-267477Y515007D01*
X-267522Y514967D01*
X-267539Y514955D01*
X-267552Y514940D01*
X-267598Y514900D01*
X-274244Y508253D01*
X-284556Y508253D01*
X-291202Y514900D01*
X-291297Y514973D01*
X-291386Y515052D01*
X-291422Y515070D01*
X-291454Y515095D01*
X-291563Y515142D01*
X-291669Y515197D01*
X-291708Y515205D01*
X-291746Y515221D01*
X-291863Y515240D01*
X-291979Y515266D01*
X-292020Y515265D01*
X-292060Y515271D01*
X-292178Y515260D01*
X-292297Y515257D01*
X-292336Y515245D01*
X-292376Y515242D01*
X-292489Y515201D01*
X-292603Y515168D01*
X-292637Y515148D01*
X-292676Y515134D01*
X-292774Y515067D01*
X-292877Y515007D01*
X-292922Y514967D01*
X-292939Y514955D01*
X-292952Y514940D01*
X-292997Y514900D01*
X-299644Y508253D01*
X-309956Y508253D01*
X-316602Y514900D01*
X-316697Y514973D01*
X-316786Y515052D01*
X-316822Y515070D01*
X-316854Y515095D01*
X-316963Y515142D01*
X-317069Y515197D01*
X-317108Y515205D01*
X-317146Y515221D01*
X-317263Y515240D01*
X-317379Y515266D01*
X-317420Y515265D01*
X-317460Y515271D01*
X-317578Y515260D01*
X-317697Y515257D01*
X-317736Y515245D01*
X-317776Y515242D01*
X-317889Y515201D01*
X-318003Y515168D01*
X-318037Y515148D01*
X-318076Y515134D01*
X-318174Y515067D01*
X-318277Y515007D01*
X-318322Y514967D01*
X-318339Y514955D01*
X-318352Y514940D01*
X-318397Y514900D01*
X-325044Y508253D01*
X-335356Y508253D01*
X-342002Y514900D01*
X-342097Y514973D01*
X-342186Y515052D01*
X-342222Y515070D01*
X-342254Y515095D01*
X-342363Y515142D01*
X-342469Y515197D01*
X-342508Y515205D01*
X-342546Y515221D01*
X-342663Y515240D01*
X-342779Y515266D01*
X-342820Y515265D01*
X-342860Y515271D01*
X-342978Y515260D01*
X-343097Y515257D01*
X-343136Y515245D01*
X-343176Y515242D01*
X-343289Y515201D01*
X-343403Y515168D01*
X-343437Y515148D01*
X-343476Y515134D01*
X-343574Y515067D01*
X-343677Y515007D01*
X-343722Y514967D01*
X-343739Y514955D01*
X-343752Y514940D01*
X-343797Y514900D01*
X-350444Y508253D01*
X-360756Y508253D01*
G37*
%LPD*%
%LPC*%
G36*
X-528396Y508253D02*
X-528396Y508253D01*
X-535805Y515663D01*
X-535825Y515718D01*
X-535836Y515734D01*
X-535844Y515753D01*
X-535925Y515866D01*
X-536003Y515981D01*
X-536019Y515994D01*
X-536030Y516011D01*
X-536138Y516099D01*
X-536242Y516191D01*
X-536260Y516200D01*
X-536275Y516213D01*
X-536401Y516273D01*
X-536525Y516336D01*
X-536545Y516340D01*
X-536563Y516349D01*
X-536699Y516375D01*
X-536835Y516405D01*
X-536856Y516405D01*
X-536875Y516409D01*
X-537014Y516400D01*
X-537153Y516396D01*
X-537173Y516390D01*
X-537193Y516389D01*
X-537325Y516346D01*
X-537459Y516307D01*
X-537476Y516297D01*
X-537495Y516291D01*
X-537613Y516216D01*
X-537733Y516146D01*
X-537754Y516127D01*
X-537764Y516121D01*
X-537778Y516106D01*
X-537853Y516039D01*
X-544116Y509777D01*
X-546141Y509777D01*
X-546141Y519470D01*
X-546156Y519588D01*
X-546163Y519707D01*
X-546175Y519745D01*
X-546181Y519785D01*
X-546224Y519896D01*
X-546261Y520009D01*
X-546283Y520043D01*
X-546298Y520081D01*
X-546367Y520177D01*
X-546431Y520278D01*
X-546461Y520306D01*
X-546484Y520338D01*
X-546576Y520414D01*
X-546663Y520496D01*
X-546698Y520515D01*
X-546729Y520541D01*
X-546837Y520592D01*
X-546941Y520649D01*
X-546981Y520659D01*
X-547017Y520677D01*
X-547124Y520697D01*
X-547094Y520701D01*
X-546984Y520745D01*
X-546871Y520781D01*
X-546836Y520803D01*
X-546799Y520818D01*
X-546702Y520888D01*
X-546602Y520951D01*
X-546574Y520981D01*
X-546541Y521005D01*
X-546465Y521096D01*
X-546384Y521183D01*
X-546364Y521218D01*
X-546339Y521250D01*
X-546288Y521357D01*
X-546230Y521462D01*
X-546220Y521501D01*
X-546203Y521537D01*
X-546181Y521654D01*
X-546151Y521770D01*
X-546147Y521830D01*
X-546143Y521850D01*
X-546145Y521870D01*
X-546141Y521930D01*
X-546141Y531623D01*
X-544116Y531623D01*
X-537853Y525361D01*
X-537744Y525275D01*
X-537637Y525187D01*
X-537618Y525178D01*
X-537602Y525166D01*
X-537474Y525110D01*
X-537349Y525051D01*
X-537329Y525047D01*
X-537310Y525039D01*
X-537172Y525017D01*
X-537036Y524991D01*
X-537016Y524993D01*
X-536996Y524989D01*
X-536857Y525002D01*
X-536719Y525011D01*
X-536700Y525017D01*
X-536680Y525019D01*
X-536548Y525066D01*
X-536417Y525109D01*
X-536399Y525120D01*
X-536380Y525127D01*
X-536265Y525205D01*
X-536148Y525279D01*
X-536134Y525294D01*
X-536117Y525305D01*
X-536025Y525410D01*
X-535930Y525511D01*
X-535920Y525529D01*
X-535907Y525544D01*
X-535843Y525668D01*
X-535805Y525737D01*
X-528396Y533147D01*
X-518084Y533147D01*
X-511437Y526500D01*
X-511343Y526427D01*
X-511254Y526348D01*
X-511218Y526330D01*
X-511186Y526305D01*
X-511077Y526257D01*
X-510971Y526203D01*
X-510932Y526195D01*
X-510894Y526179D01*
X-510777Y526160D01*
X-510661Y526134D01*
X-510620Y526135D01*
X-510580Y526129D01*
X-510462Y526140D01*
X-510343Y526143D01*
X-510304Y526155D01*
X-510264Y526158D01*
X-510151Y526199D01*
X-510037Y526232D01*
X-510002Y526252D01*
X-509964Y526266D01*
X-509866Y526333D01*
X-509763Y526393D01*
X-509718Y526433D01*
X-509701Y526445D01*
X-509688Y526460D01*
X-509642Y526500D01*
X-502996Y533147D01*
X-492684Y533147D01*
X-486037Y526500D01*
X-485943Y526427D01*
X-485854Y526348D01*
X-485818Y526330D01*
X-485786Y526305D01*
X-485677Y526257D01*
X-485571Y526203D01*
X-485532Y526195D01*
X-485494Y526179D01*
X-485377Y526160D01*
X-485261Y526134D01*
X-485220Y526135D01*
X-485180Y526129D01*
X-485062Y526140D01*
X-484943Y526143D01*
X-484904Y526155D01*
X-484864Y526158D01*
X-484751Y526199D01*
X-484637Y526232D01*
X-484602Y526252D01*
X-484564Y526266D01*
X-484466Y526333D01*
X-484363Y526393D01*
X-484318Y526433D01*
X-484301Y526445D01*
X-484288Y526460D01*
X-484242Y526500D01*
X-477596Y533147D01*
X-467284Y533147D01*
X-460637Y526500D01*
X-460543Y526427D01*
X-460454Y526348D01*
X-460418Y526330D01*
X-460386Y526305D01*
X-460277Y526257D01*
X-460171Y526203D01*
X-460132Y526195D01*
X-460094Y526179D01*
X-459977Y526160D01*
X-459861Y526134D01*
X-459820Y526135D01*
X-459780Y526129D01*
X-459662Y526140D01*
X-459543Y526143D01*
X-459504Y526155D01*
X-459464Y526158D01*
X-459351Y526199D01*
X-459237Y526232D01*
X-459202Y526252D01*
X-459164Y526266D01*
X-459066Y526333D01*
X-458963Y526393D01*
X-458918Y526433D01*
X-458901Y526445D01*
X-458888Y526460D01*
X-458842Y526500D01*
X-452196Y533147D01*
X-441884Y533147D01*
X-435238Y526500D01*
X-435143Y526427D01*
X-435054Y526348D01*
X-435018Y526330D01*
X-434986Y526305D01*
X-434877Y526258D01*
X-434771Y526203D01*
X-434732Y526195D01*
X-434694Y526179D01*
X-434577Y526160D01*
X-434461Y526134D01*
X-434420Y526135D01*
X-434380Y526129D01*
X-434262Y526140D01*
X-434143Y526143D01*
X-434104Y526155D01*
X-434064Y526158D01*
X-433951Y526199D01*
X-433837Y526232D01*
X-433803Y526252D01*
X-433764Y526266D01*
X-433666Y526333D01*
X-433563Y526393D01*
X-433518Y526433D01*
X-433501Y526445D01*
X-433488Y526460D01*
X-433443Y526500D01*
X-426796Y533147D01*
X-416484Y533147D01*
X-409837Y526500D01*
X-409743Y526427D01*
X-409654Y526348D01*
X-409618Y526330D01*
X-409586Y526305D01*
X-409477Y526257D01*
X-409371Y526203D01*
X-409332Y526195D01*
X-409294Y526179D01*
X-409177Y526160D01*
X-409061Y526134D01*
X-409020Y526135D01*
X-408980Y526129D01*
X-408862Y526140D01*
X-408743Y526143D01*
X-408704Y526155D01*
X-408664Y526158D01*
X-408551Y526199D01*
X-408437Y526232D01*
X-408402Y526252D01*
X-408364Y526266D01*
X-408266Y526333D01*
X-408163Y526393D01*
X-408118Y526433D01*
X-408101Y526445D01*
X-408088Y526460D01*
X-408042Y526500D01*
X-401396Y533147D01*
X-391084Y533147D01*
X-383793Y525856D01*
X-383793Y515544D01*
X-391084Y508253D01*
X-401396Y508253D01*
X-408042Y514900D01*
X-408137Y514973D01*
X-408226Y515052D01*
X-408262Y515070D01*
X-408294Y515095D01*
X-408403Y515142D01*
X-408509Y515197D01*
X-408548Y515205D01*
X-408586Y515221D01*
X-408703Y515240D01*
X-408819Y515266D01*
X-408860Y515265D01*
X-408900Y515271D01*
X-409018Y515260D01*
X-409137Y515257D01*
X-409176Y515245D01*
X-409216Y515242D01*
X-409329Y515201D01*
X-409443Y515168D01*
X-409477Y515148D01*
X-409516Y515134D01*
X-409614Y515067D01*
X-409717Y515007D01*
X-409762Y514967D01*
X-409779Y514955D01*
X-409792Y514940D01*
X-409837Y514900D01*
X-416484Y508253D01*
X-426796Y508253D01*
X-433443Y514900D01*
X-433537Y514973D01*
X-433626Y515052D01*
X-433662Y515070D01*
X-433694Y515095D01*
X-433803Y515143D01*
X-433909Y515197D01*
X-433948Y515205D01*
X-433986Y515221D01*
X-434103Y515240D01*
X-434219Y515266D01*
X-434260Y515265D01*
X-434300Y515271D01*
X-434418Y515260D01*
X-434537Y515257D01*
X-434576Y515245D01*
X-434616Y515242D01*
X-434729Y515201D01*
X-434843Y515168D01*
X-434878Y515148D01*
X-434916Y515134D01*
X-435014Y515067D01*
X-435117Y515007D01*
X-435162Y514967D01*
X-435179Y514955D01*
X-435192Y514940D01*
X-435238Y514900D01*
X-441884Y508253D01*
X-452196Y508253D01*
X-458842Y514900D01*
X-458937Y514973D01*
X-459026Y515052D01*
X-459062Y515070D01*
X-459094Y515095D01*
X-459203Y515142D01*
X-459309Y515197D01*
X-459348Y515205D01*
X-459386Y515221D01*
X-459503Y515240D01*
X-459619Y515266D01*
X-459660Y515265D01*
X-459700Y515271D01*
X-459818Y515260D01*
X-459937Y515257D01*
X-459976Y515245D01*
X-460016Y515242D01*
X-460129Y515201D01*
X-460243Y515168D01*
X-460277Y515148D01*
X-460316Y515134D01*
X-460414Y515067D01*
X-460517Y515007D01*
X-460562Y514967D01*
X-460579Y514955D01*
X-460592Y514940D01*
X-460637Y514900D01*
X-467284Y508253D01*
X-477596Y508253D01*
X-484242Y514900D01*
X-484337Y514973D01*
X-484426Y515052D01*
X-484462Y515070D01*
X-484494Y515095D01*
X-484603Y515142D01*
X-484709Y515197D01*
X-484748Y515205D01*
X-484786Y515221D01*
X-484903Y515240D01*
X-485019Y515266D01*
X-485060Y515265D01*
X-485100Y515271D01*
X-485218Y515260D01*
X-485337Y515257D01*
X-485376Y515245D01*
X-485416Y515242D01*
X-485529Y515201D01*
X-485643Y515168D01*
X-485677Y515148D01*
X-485716Y515134D01*
X-485814Y515067D01*
X-485917Y515007D01*
X-485962Y514967D01*
X-485979Y514955D01*
X-485992Y514940D01*
X-486037Y514900D01*
X-492684Y508253D01*
X-502996Y508253D01*
X-509642Y514900D01*
X-509737Y514973D01*
X-509826Y515052D01*
X-509862Y515070D01*
X-509894Y515095D01*
X-510003Y515142D01*
X-510109Y515197D01*
X-510148Y515205D01*
X-510186Y515221D01*
X-510303Y515240D01*
X-510419Y515266D01*
X-510460Y515265D01*
X-510500Y515271D01*
X-510618Y515260D01*
X-510737Y515257D01*
X-510776Y515245D01*
X-510816Y515242D01*
X-510929Y515201D01*
X-511043Y515168D01*
X-511077Y515148D01*
X-511116Y515134D01*
X-511214Y515067D01*
X-511317Y515007D01*
X-511362Y514967D01*
X-511379Y514955D01*
X-511392Y514940D01*
X-511437Y514900D01*
X-518084Y508253D01*
X-528396Y508253D01*
G37*
%LPD*%
%LPC*%
G36*
X-446472Y205985D02*
X-446472Y205985D01*
X-450116Y207495D01*
X-452905Y210284D01*
X-454415Y213928D01*
X-454415Y217385D01*
X-454427Y217484D01*
X-454430Y217583D01*
X-454447Y217641D01*
X-454455Y217701D01*
X-454491Y217793D01*
X-454519Y217888D01*
X-454549Y217940D01*
X-454572Y217997D01*
X-454630Y218077D01*
X-454680Y218162D01*
X-454746Y218237D01*
X-454758Y218254D01*
X-454768Y218262D01*
X-454786Y218283D01*
X-563538Y327034D01*
X-564389Y329088D01*
X-564389Y378159D01*
X-564401Y378258D01*
X-564404Y378357D01*
X-564421Y378415D01*
X-564429Y378475D01*
X-564465Y378567D01*
X-564493Y378662D01*
X-564523Y378714D01*
X-564546Y378771D01*
X-564604Y378851D01*
X-564654Y378936D01*
X-564720Y379011D01*
X-564732Y379028D01*
X-564742Y379036D01*
X-564760Y379057D01*
X-573027Y387323D01*
X-573121Y387396D01*
X-573210Y387475D01*
X-573246Y387493D01*
X-573278Y387518D01*
X-573388Y387566D01*
X-573493Y387620D01*
X-573533Y387628D01*
X-573570Y387644D01*
X-573688Y387663D01*
X-573804Y387689D01*
X-573844Y387688D01*
X-573884Y387694D01*
X-574003Y387683D01*
X-574122Y387680D01*
X-574160Y387668D01*
X-574201Y387665D01*
X-574313Y387624D01*
X-574427Y387591D01*
X-574462Y387571D01*
X-574500Y387557D01*
X-574599Y387490D01*
X-574701Y387430D01*
X-574746Y387390D01*
X-574763Y387378D01*
X-574777Y387363D01*
X-574822Y387323D01*
X-577649Y384496D01*
X-581900Y382735D01*
X-586500Y382735D01*
X-590751Y384496D01*
X-594004Y387749D01*
X-595765Y392000D01*
X-595765Y396600D01*
X-594004Y400851D01*
X-590751Y404104D01*
X-586500Y405865D01*
X-581900Y405865D01*
X-577649Y404104D01*
X-574396Y400851D01*
X-574322Y400672D01*
X-574307Y400647D01*
X-574298Y400619D01*
X-574229Y400509D01*
X-574164Y400396D01*
X-574144Y400375D01*
X-574128Y400350D01*
X-574033Y400261D01*
X-573943Y400168D01*
X-573918Y400152D01*
X-573896Y400132D01*
X-573783Y400069D01*
X-573672Y400001D01*
X-573644Y399993D01*
X-573618Y399978D01*
X-573492Y399946D01*
X-573368Y399908D01*
X-573339Y399906D01*
X-573310Y399899D01*
X-573149Y399889D01*
X-570988Y399889D01*
X-568934Y399038D01*
X-554062Y384166D01*
X-553211Y382112D01*
X-553211Y333041D01*
X-553199Y332942D01*
X-553196Y332843D01*
X-553179Y332785D01*
X-553171Y332725D01*
X-553135Y332633D01*
X-553107Y332538D01*
X-553077Y332486D01*
X-553054Y332429D01*
X-552996Y332349D01*
X-552946Y332264D01*
X-552880Y332189D01*
X-552868Y332172D01*
X-552858Y332164D01*
X-552840Y332143D01*
X-446883Y226186D01*
X-446805Y226126D01*
X-446732Y226058D01*
X-446679Y226029D01*
X-446632Y225992D01*
X-446541Y225952D01*
X-446454Y225904D01*
X-446395Y225889D01*
X-446340Y225865D01*
X-446242Y225850D01*
X-446146Y225825D01*
X-446046Y225819D01*
X-446026Y225815D01*
X-446013Y225817D01*
X-445985Y225815D01*
X-442528Y225815D01*
X-438884Y224305D01*
X-436095Y221516D01*
X-434585Y217872D01*
X-434585Y213928D01*
X-436095Y210284D01*
X-438884Y207495D01*
X-442528Y205985D01*
X-446472Y205985D01*
G37*
%LPD*%
%LPC*%
G36*
X-309956Y25653D02*
X-309956Y25653D01*
X-317247Y32944D01*
X-317247Y43256D01*
X-309956Y50547D01*
X-299644Y50547D01*
X-292997Y43900D01*
X-292903Y43827D01*
X-292814Y43748D01*
X-292778Y43730D01*
X-292746Y43705D01*
X-292637Y43657D01*
X-292531Y43603D01*
X-292492Y43595D01*
X-292454Y43579D01*
X-292337Y43560D01*
X-292221Y43534D01*
X-292180Y43535D01*
X-292140Y43529D01*
X-292022Y43540D01*
X-291903Y43543D01*
X-291864Y43555D01*
X-291824Y43558D01*
X-291711Y43599D01*
X-291597Y43632D01*
X-291562Y43652D01*
X-291524Y43666D01*
X-291426Y43733D01*
X-291323Y43793D01*
X-291278Y43833D01*
X-291261Y43845D01*
X-291248Y43860D01*
X-291202Y43900D01*
X-284556Y50547D01*
X-274244Y50547D01*
X-267598Y43900D01*
X-267503Y43827D01*
X-267414Y43748D01*
X-267378Y43730D01*
X-267346Y43705D01*
X-267237Y43658D01*
X-267131Y43603D01*
X-267092Y43595D01*
X-267054Y43579D01*
X-266937Y43560D01*
X-266821Y43534D01*
X-266780Y43535D01*
X-266740Y43529D01*
X-266622Y43540D01*
X-266503Y43543D01*
X-266464Y43555D01*
X-266424Y43558D01*
X-266311Y43599D01*
X-266197Y43632D01*
X-266163Y43652D01*
X-266124Y43666D01*
X-266026Y43733D01*
X-265923Y43793D01*
X-265878Y43833D01*
X-265861Y43845D01*
X-265848Y43860D01*
X-265803Y43900D01*
X-259156Y50547D01*
X-248844Y50547D01*
X-242198Y43900D01*
X-242103Y43827D01*
X-242014Y43748D01*
X-241978Y43730D01*
X-241946Y43705D01*
X-241837Y43658D01*
X-241731Y43603D01*
X-241692Y43595D01*
X-241654Y43579D01*
X-241537Y43560D01*
X-241421Y43534D01*
X-241380Y43535D01*
X-241340Y43529D01*
X-241222Y43540D01*
X-241103Y43543D01*
X-241064Y43555D01*
X-241024Y43558D01*
X-240911Y43599D01*
X-240797Y43632D01*
X-240763Y43652D01*
X-240724Y43666D01*
X-240626Y43733D01*
X-240523Y43793D01*
X-240478Y43833D01*
X-240461Y43845D01*
X-240448Y43860D01*
X-240403Y43900D01*
X-233756Y50547D01*
X-223444Y50547D01*
X-216798Y43900D01*
X-216703Y43827D01*
X-216614Y43748D01*
X-216578Y43730D01*
X-216546Y43705D01*
X-216437Y43658D01*
X-216331Y43603D01*
X-216292Y43595D01*
X-216254Y43579D01*
X-216137Y43560D01*
X-216021Y43534D01*
X-215980Y43535D01*
X-215940Y43529D01*
X-215822Y43540D01*
X-215703Y43543D01*
X-215664Y43555D01*
X-215624Y43558D01*
X-215511Y43599D01*
X-215397Y43632D01*
X-215363Y43652D01*
X-215324Y43666D01*
X-215226Y43733D01*
X-215123Y43793D01*
X-215078Y43833D01*
X-215061Y43845D01*
X-215048Y43860D01*
X-215003Y43900D01*
X-208356Y50547D01*
X-198044Y50547D01*
X-191398Y43900D01*
X-191303Y43827D01*
X-191214Y43748D01*
X-191178Y43730D01*
X-191146Y43705D01*
X-191037Y43658D01*
X-190931Y43603D01*
X-190892Y43595D01*
X-190854Y43579D01*
X-190737Y43560D01*
X-190621Y43534D01*
X-190580Y43535D01*
X-190540Y43529D01*
X-190422Y43540D01*
X-190303Y43543D01*
X-190264Y43555D01*
X-190224Y43558D01*
X-190111Y43599D01*
X-189997Y43632D01*
X-189963Y43652D01*
X-189924Y43666D01*
X-189826Y43733D01*
X-189723Y43793D01*
X-189678Y43833D01*
X-189661Y43845D01*
X-189648Y43860D01*
X-189603Y43900D01*
X-182956Y50547D01*
X-172644Y50547D01*
X-165353Y43256D01*
X-165353Y32944D01*
X-172644Y25653D01*
X-182956Y25653D01*
X-189603Y32300D01*
X-189697Y32373D01*
X-189786Y32452D01*
X-189822Y32470D01*
X-189854Y32495D01*
X-189963Y32543D01*
X-190069Y32597D01*
X-190108Y32605D01*
X-190146Y32621D01*
X-190263Y32640D01*
X-190379Y32666D01*
X-190420Y32665D01*
X-190460Y32671D01*
X-190578Y32660D01*
X-190697Y32657D01*
X-190736Y32645D01*
X-190776Y32642D01*
X-190889Y32601D01*
X-191003Y32568D01*
X-191038Y32548D01*
X-191076Y32534D01*
X-191174Y32467D01*
X-191277Y32407D01*
X-191322Y32367D01*
X-191339Y32355D01*
X-191352Y32340D01*
X-191398Y32300D01*
X-198044Y25653D01*
X-208356Y25653D01*
X-215003Y32300D01*
X-215097Y32373D01*
X-215186Y32452D01*
X-215222Y32470D01*
X-215254Y32495D01*
X-215363Y32543D01*
X-215469Y32597D01*
X-215508Y32605D01*
X-215546Y32621D01*
X-215663Y32640D01*
X-215779Y32666D01*
X-215820Y32665D01*
X-215860Y32671D01*
X-215978Y32660D01*
X-216097Y32657D01*
X-216136Y32645D01*
X-216176Y32642D01*
X-216289Y32601D01*
X-216403Y32568D01*
X-216438Y32548D01*
X-216476Y32534D01*
X-216574Y32467D01*
X-216677Y32407D01*
X-216722Y32367D01*
X-216739Y32355D01*
X-216752Y32340D01*
X-216798Y32300D01*
X-223444Y25653D01*
X-233756Y25653D01*
X-240403Y32300D01*
X-240497Y32373D01*
X-240586Y32452D01*
X-240622Y32470D01*
X-240654Y32495D01*
X-240763Y32543D01*
X-240869Y32597D01*
X-240908Y32605D01*
X-240946Y32621D01*
X-241063Y32640D01*
X-241179Y32666D01*
X-241220Y32665D01*
X-241260Y32671D01*
X-241378Y32660D01*
X-241497Y32657D01*
X-241536Y32645D01*
X-241576Y32642D01*
X-241689Y32601D01*
X-241803Y32568D01*
X-241838Y32548D01*
X-241876Y32534D01*
X-241974Y32467D01*
X-242077Y32407D01*
X-242122Y32367D01*
X-242139Y32355D01*
X-242152Y32340D01*
X-242198Y32300D01*
X-248844Y25653D01*
X-259156Y25653D01*
X-265803Y32300D01*
X-265897Y32373D01*
X-265986Y32452D01*
X-266022Y32470D01*
X-266054Y32495D01*
X-266163Y32543D01*
X-266269Y32597D01*
X-266308Y32605D01*
X-266346Y32621D01*
X-266463Y32640D01*
X-266579Y32666D01*
X-266620Y32665D01*
X-266660Y32671D01*
X-266778Y32660D01*
X-266897Y32657D01*
X-266936Y32645D01*
X-266976Y32642D01*
X-267089Y32601D01*
X-267203Y32568D01*
X-267238Y32548D01*
X-267276Y32534D01*
X-267374Y32467D01*
X-267477Y32407D01*
X-267522Y32367D01*
X-267539Y32355D01*
X-267552Y32340D01*
X-267598Y32300D01*
X-274244Y25653D01*
X-284556Y25653D01*
X-291202Y32300D01*
X-291297Y32373D01*
X-291386Y32452D01*
X-291422Y32470D01*
X-291454Y32495D01*
X-291563Y32542D01*
X-291669Y32597D01*
X-291708Y32605D01*
X-291746Y32621D01*
X-291863Y32640D01*
X-291979Y32666D01*
X-292020Y32665D01*
X-292060Y32671D01*
X-292178Y32660D01*
X-292297Y32657D01*
X-292336Y32645D01*
X-292376Y32642D01*
X-292489Y32601D01*
X-292603Y32568D01*
X-292637Y32548D01*
X-292676Y32534D01*
X-292774Y32467D01*
X-292877Y32407D01*
X-292922Y32367D01*
X-292939Y32355D01*
X-292952Y32340D01*
X-292997Y32300D01*
X-299644Y25653D01*
X-309956Y25653D01*
G37*
%LPD*%
%LPC*%
G36*
X-310482Y62483D02*
X-310482Y62483D01*
X-318517Y70518D01*
X-318517Y81882D01*
X-311318Y89080D01*
X-311245Y89174D01*
X-311166Y89263D01*
X-311148Y89299D01*
X-311123Y89331D01*
X-311076Y89441D01*
X-311022Y89547D01*
X-311013Y89586D01*
X-310997Y89623D01*
X-310978Y89741D01*
X-310952Y89857D01*
X-310953Y89897D01*
X-310947Y89937D01*
X-310958Y90056D01*
X-310962Y90175D01*
X-310973Y90214D01*
X-310977Y90254D01*
X-311017Y90366D01*
X-311050Y90480D01*
X-311071Y90515D01*
X-311085Y90553D01*
X-311151Y90652D01*
X-311212Y90754D01*
X-311252Y90800D01*
X-311263Y90816D01*
X-311278Y90830D01*
X-311318Y90875D01*
X-316993Y96550D01*
X-316993Y99061D01*
X-306070Y99061D01*
X-305952Y99076D01*
X-305833Y99083D01*
X-305795Y99096D01*
X-305755Y99101D01*
X-305644Y99144D01*
X-305531Y99181D01*
X-305497Y99203D01*
X-305459Y99218D01*
X-305363Y99288D01*
X-305262Y99351D01*
X-305234Y99381D01*
X-305202Y99404D01*
X-305126Y99496D01*
X-305044Y99583D01*
X-305025Y99618D01*
X-304999Y99649D01*
X-304948Y99757D01*
X-304891Y99861D01*
X-304880Y99901D01*
X-304863Y99937D01*
X-304841Y100054D01*
X-304811Y100169D01*
X-304807Y100230D01*
X-304803Y100250D01*
X-304805Y100270D01*
X-304801Y100330D01*
X-304801Y101601D01*
X-303530Y101601D01*
X-303412Y101616D01*
X-303293Y101623D01*
X-303255Y101636D01*
X-303214Y101641D01*
X-303104Y101685D01*
X-302991Y101721D01*
X-302956Y101743D01*
X-302919Y101758D01*
X-302823Y101828D01*
X-302722Y101891D01*
X-302694Y101921D01*
X-302661Y101945D01*
X-302586Y102036D01*
X-302504Y102123D01*
X-302484Y102158D01*
X-302459Y102190D01*
X-302408Y102297D01*
X-302350Y102402D01*
X-302340Y102441D01*
X-302323Y102477D01*
X-302301Y102594D01*
X-302271Y102709D01*
X-302267Y102770D01*
X-302263Y102790D01*
X-302265Y102810D01*
X-302261Y102870D01*
X-302261Y113793D01*
X-299750Y113793D01*
X-294075Y108118D01*
X-293981Y108045D01*
X-293892Y107966D01*
X-293856Y107948D01*
X-293824Y107923D01*
X-293714Y107876D01*
X-293609Y107822D01*
X-293569Y107813D01*
X-293532Y107797D01*
X-293414Y107778D01*
X-293298Y107752D01*
X-293258Y107753D01*
X-293218Y107747D01*
X-293099Y107758D01*
X-292980Y107762D01*
X-292942Y107773D01*
X-292901Y107777D01*
X-292789Y107817D01*
X-292675Y107850D01*
X-292640Y107871D01*
X-292602Y107885D01*
X-292504Y107951D01*
X-292401Y108012D01*
X-292356Y108052D01*
X-292339Y108063D01*
X-292325Y108078D01*
X-292280Y108118D01*
X-287598Y112800D01*
X-287525Y112894D01*
X-287447Y112983D01*
X-287428Y113019D01*
X-287404Y113051D01*
X-287356Y113160D01*
X-287302Y113266D01*
X-287293Y113306D01*
X-287277Y113343D01*
X-287259Y113461D01*
X-287232Y113577D01*
X-287234Y113617D01*
X-287227Y113657D01*
X-287239Y113776D01*
X-287242Y113895D01*
X-287253Y113933D01*
X-287257Y113974D01*
X-287297Y114086D01*
X-287331Y114200D01*
X-287351Y114235D01*
X-287365Y114273D01*
X-287432Y114371D01*
X-287492Y114474D01*
X-287532Y114519D01*
X-287543Y114536D01*
X-287559Y114550D01*
X-287598Y114595D01*
X-319443Y146440D01*
X-319521Y146500D01*
X-319594Y146568D01*
X-319647Y146597D01*
X-319694Y146634D01*
X-319785Y146674D01*
X-319872Y146722D01*
X-319931Y146737D01*
X-319986Y146761D01*
X-320084Y146776D01*
X-320180Y146801D01*
X-320280Y146807D01*
X-320300Y146811D01*
X-320313Y146809D01*
X-320341Y146811D01*
X-344739Y146811D01*
X-344877Y146794D01*
X-345015Y146781D01*
X-345034Y146774D01*
X-345054Y146771D01*
X-345183Y146720D01*
X-345314Y146673D01*
X-345331Y146662D01*
X-345350Y146654D01*
X-345462Y146573D01*
X-345578Y146495D01*
X-345591Y146479D01*
X-345607Y146468D01*
X-345696Y146360D01*
X-345788Y146256D01*
X-345797Y146238D01*
X-345810Y146223D01*
X-345869Y146097D01*
X-345933Y145973D01*
X-345937Y145953D01*
X-345946Y145935D01*
X-345972Y145798D01*
X-346002Y145663D01*
X-346002Y145642D01*
X-346005Y145623D01*
X-345997Y145484D01*
X-345993Y145345D01*
X-345987Y145325D01*
X-345986Y145305D01*
X-345943Y145173D01*
X-345904Y145039D01*
X-345894Y145022D01*
X-345888Y145003D01*
X-345813Y144885D01*
X-345743Y144765D01*
X-345724Y144744D01*
X-345718Y144734D01*
X-345703Y144720D01*
X-345636Y144645D01*
X-345058Y144067D01*
X-345058Y141731D01*
X-354838Y141731D01*
X-354956Y141716D01*
X-355075Y141709D01*
X-355113Y141696D01*
X-355153Y141691D01*
X-355264Y141648D01*
X-355377Y141611D01*
X-355411Y141589D01*
X-355449Y141574D01*
X-355545Y141505D01*
X-355597Y141471D01*
X-355615Y141488D01*
X-355650Y141508D01*
X-355682Y141533D01*
X-355789Y141584D01*
X-355894Y141642D01*
X-355933Y141652D01*
X-355969Y141669D01*
X-356086Y141691D01*
X-356202Y141721D01*
X-356262Y141725D01*
X-356282Y141729D01*
X-356302Y141727D01*
X-356362Y141731D01*
X-366142Y141731D01*
X-366142Y144067D01*
X-365564Y144645D01*
X-365479Y144754D01*
X-365390Y144861D01*
X-365381Y144880D01*
X-365369Y144896D01*
X-365313Y145024D01*
X-365254Y145149D01*
X-365251Y145169D01*
X-365242Y145188D01*
X-365221Y145326D01*
X-365195Y145462D01*
X-365196Y145482D01*
X-365193Y145502D01*
X-365206Y145641D01*
X-365214Y145779D01*
X-365220Y145798D01*
X-365222Y145818D01*
X-365270Y145950D01*
X-365312Y146081D01*
X-365323Y146099D01*
X-365330Y146118D01*
X-365408Y146233D01*
X-365482Y146350D01*
X-365497Y146364D01*
X-365509Y146381D01*
X-365613Y146473D01*
X-365714Y146568D01*
X-365732Y146578D01*
X-365747Y146591D01*
X-365871Y146654D01*
X-365993Y146722D01*
X-366012Y146727D01*
X-366030Y146736D01*
X-366166Y146766D01*
X-366301Y146801D01*
X-366329Y146803D01*
X-366341Y146806D01*
X-366361Y146805D01*
X-366461Y146811D01*
X-376759Y146811D01*
X-376768Y146810D01*
X-376777Y146811D01*
X-376926Y146790D01*
X-377074Y146771D01*
X-377083Y146768D01*
X-377092Y146767D01*
X-377245Y146715D01*
X-379669Y145710D01*
X-382331Y145710D01*
X-384789Y146729D01*
X-386671Y148611D01*
X-387690Y151069D01*
X-387690Y153731D01*
X-386671Y156189D01*
X-384789Y158071D01*
X-382331Y159090D01*
X-379669Y159090D01*
X-377245Y158085D01*
X-377236Y158083D01*
X-377227Y158078D01*
X-377082Y158041D01*
X-376938Y158001D01*
X-376929Y158001D01*
X-376920Y157999D01*
X-376759Y157989D01*
X-316388Y157989D01*
X-314334Y157138D01*
X-274662Y117466D01*
X-273906Y115641D01*
X-273902Y115633D01*
X-273899Y115624D01*
X-273824Y115496D01*
X-273749Y115365D01*
X-273742Y115358D01*
X-273738Y115351D01*
X-273631Y115230D01*
X-265683Y107282D01*
X-265683Y95918D01*
X-273718Y87883D01*
X-285082Y87883D01*
X-292280Y95082D01*
X-292374Y95155D01*
X-292463Y95234D01*
X-292499Y95252D01*
X-292531Y95277D01*
X-292641Y95324D01*
X-292747Y95378D01*
X-292786Y95387D01*
X-292823Y95403D01*
X-292941Y95422D01*
X-293057Y95448D01*
X-293097Y95447D01*
X-293137Y95453D01*
X-293256Y95442D01*
X-293375Y95438D01*
X-293414Y95427D01*
X-293454Y95423D01*
X-293566Y95383D01*
X-293680Y95350D01*
X-293715Y95329D01*
X-293753Y95315D01*
X-293852Y95249D01*
X-293954Y95188D01*
X-294000Y95148D01*
X-294016Y95137D01*
X-294030Y95122D01*
X-294075Y95082D01*
X-298282Y90875D01*
X-298355Y90781D01*
X-298434Y90692D01*
X-298452Y90656D01*
X-298477Y90624D01*
X-298524Y90514D01*
X-298578Y90409D01*
X-298587Y90369D01*
X-298603Y90332D01*
X-298622Y90214D01*
X-298648Y90098D01*
X-298647Y90058D01*
X-298653Y90018D01*
X-298642Y89899D01*
X-298638Y89780D01*
X-298627Y89742D01*
X-298623Y89701D01*
X-298583Y89589D01*
X-298550Y89475D01*
X-298529Y89440D01*
X-298515Y89402D01*
X-298448Y89303D01*
X-298388Y89201D01*
X-298348Y89156D01*
X-298337Y89139D01*
X-298322Y89125D01*
X-298282Y89080D01*
X-291083Y81882D01*
X-291083Y70518D01*
X-299118Y62483D01*
X-310482Y62483D01*
G37*
%LPD*%
%LPC*%
G36*
X-538556Y25653D02*
X-538556Y25653D01*
X-545847Y32944D01*
X-545847Y43256D01*
X-538556Y50547D01*
X-528244Y50547D01*
X-521597Y43900D01*
X-521503Y43827D01*
X-521414Y43748D01*
X-521378Y43730D01*
X-521346Y43705D01*
X-521237Y43657D01*
X-521131Y43603D01*
X-521092Y43595D01*
X-521054Y43579D01*
X-520937Y43560D01*
X-520821Y43534D01*
X-520780Y43535D01*
X-520740Y43529D01*
X-520622Y43540D01*
X-520503Y43543D01*
X-520464Y43555D01*
X-520424Y43558D01*
X-520311Y43599D01*
X-520197Y43632D01*
X-520162Y43652D01*
X-520124Y43666D01*
X-520026Y43733D01*
X-519923Y43793D01*
X-519878Y43833D01*
X-519861Y43845D01*
X-519848Y43860D01*
X-519802Y43900D01*
X-513156Y50547D01*
X-502844Y50547D01*
X-496197Y43900D01*
X-496103Y43827D01*
X-496014Y43748D01*
X-495978Y43730D01*
X-495946Y43705D01*
X-495837Y43657D01*
X-495731Y43603D01*
X-495692Y43595D01*
X-495654Y43579D01*
X-495537Y43560D01*
X-495421Y43534D01*
X-495380Y43535D01*
X-495340Y43529D01*
X-495222Y43540D01*
X-495103Y43543D01*
X-495064Y43555D01*
X-495024Y43558D01*
X-494911Y43599D01*
X-494797Y43632D01*
X-494762Y43652D01*
X-494724Y43666D01*
X-494626Y43733D01*
X-494523Y43793D01*
X-494478Y43833D01*
X-494461Y43845D01*
X-494448Y43860D01*
X-494402Y43900D01*
X-487756Y50547D01*
X-477444Y50547D01*
X-470797Y43900D01*
X-470703Y43827D01*
X-470614Y43748D01*
X-470578Y43730D01*
X-470546Y43705D01*
X-470437Y43657D01*
X-470331Y43603D01*
X-470292Y43595D01*
X-470254Y43579D01*
X-470137Y43560D01*
X-470021Y43534D01*
X-469980Y43535D01*
X-469940Y43529D01*
X-469822Y43540D01*
X-469703Y43543D01*
X-469664Y43555D01*
X-469624Y43558D01*
X-469511Y43599D01*
X-469397Y43632D01*
X-469362Y43652D01*
X-469324Y43666D01*
X-469226Y43733D01*
X-469123Y43793D01*
X-469078Y43833D01*
X-469061Y43845D01*
X-469048Y43860D01*
X-469002Y43900D01*
X-462356Y50547D01*
X-452044Y50547D01*
X-445397Y43900D01*
X-445303Y43827D01*
X-445214Y43748D01*
X-445178Y43730D01*
X-445146Y43705D01*
X-445037Y43657D01*
X-444931Y43603D01*
X-444892Y43595D01*
X-444854Y43579D01*
X-444737Y43560D01*
X-444621Y43534D01*
X-444580Y43535D01*
X-444540Y43529D01*
X-444422Y43540D01*
X-444303Y43543D01*
X-444264Y43555D01*
X-444224Y43558D01*
X-444111Y43599D01*
X-443997Y43632D01*
X-443962Y43652D01*
X-443924Y43666D01*
X-443826Y43733D01*
X-443723Y43793D01*
X-443678Y43833D01*
X-443661Y43845D01*
X-443648Y43860D01*
X-443602Y43900D01*
X-436956Y50547D01*
X-426644Y50547D01*
X-419235Y43137D01*
X-419215Y43082D01*
X-419204Y43066D01*
X-419196Y43047D01*
X-419115Y42934D01*
X-419037Y42819D01*
X-419021Y42806D01*
X-419010Y42789D01*
X-418902Y42701D01*
X-418798Y42609D01*
X-418780Y42600D01*
X-418765Y42587D01*
X-418639Y42527D01*
X-418515Y42464D01*
X-418495Y42460D01*
X-418477Y42451D01*
X-418341Y42425D01*
X-418205Y42395D01*
X-418184Y42395D01*
X-418165Y42391D01*
X-418026Y42400D01*
X-417887Y42404D01*
X-417867Y42410D01*
X-417847Y42411D01*
X-417715Y42454D01*
X-417581Y42493D01*
X-417564Y42503D01*
X-417545Y42509D01*
X-417427Y42584D01*
X-417307Y42654D01*
X-417286Y42673D01*
X-417276Y42679D01*
X-417262Y42694D01*
X-417187Y42761D01*
X-410924Y49023D01*
X-408899Y49023D01*
X-408899Y39330D01*
X-408884Y39212D01*
X-408877Y39093D01*
X-408864Y39055D01*
X-408859Y39015D01*
X-408816Y38904D01*
X-408779Y38791D01*
X-408757Y38757D01*
X-408742Y38719D01*
X-408673Y38623D01*
X-408609Y38522D01*
X-408579Y38494D01*
X-408556Y38462D01*
X-408464Y38386D01*
X-408377Y38304D01*
X-408342Y38285D01*
X-408311Y38259D01*
X-408203Y38208D01*
X-408099Y38151D01*
X-408059Y38141D01*
X-408023Y38123D01*
X-407916Y38103D01*
X-407946Y38099D01*
X-408056Y38055D01*
X-408169Y38019D01*
X-408204Y37997D01*
X-408241Y37982D01*
X-408337Y37912D01*
X-408438Y37849D01*
X-408466Y37819D01*
X-408499Y37795D01*
X-408575Y37704D01*
X-408656Y37617D01*
X-408676Y37582D01*
X-408701Y37550D01*
X-408752Y37443D01*
X-408810Y37338D01*
X-408820Y37299D01*
X-408837Y37263D01*
X-408859Y37146D01*
X-408889Y37030D01*
X-408893Y36970D01*
X-408897Y36950D01*
X-408895Y36930D01*
X-408899Y36870D01*
X-408899Y27177D01*
X-410924Y27177D01*
X-417187Y33439D01*
X-417296Y33525D01*
X-417403Y33613D01*
X-417422Y33622D01*
X-417438Y33634D01*
X-417566Y33690D01*
X-417691Y33749D01*
X-417711Y33753D01*
X-417730Y33761D01*
X-417868Y33783D01*
X-418004Y33809D01*
X-418024Y33807D01*
X-418044Y33811D01*
X-418183Y33798D01*
X-418321Y33789D01*
X-418340Y33783D01*
X-418360Y33781D01*
X-418492Y33734D01*
X-418623Y33691D01*
X-418641Y33680D01*
X-418660Y33673D01*
X-418775Y33595D01*
X-418892Y33521D01*
X-418906Y33506D01*
X-418923Y33495D01*
X-419015Y33390D01*
X-419110Y33289D01*
X-419120Y33271D01*
X-419133Y33256D01*
X-419197Y33132D01*
X-419235Y33063D01*
X-426644Y25653D01*
X-436956Y25653D01*
X-443602Y32300D01*
X-443697Y32373D01*
X-443786Y32452D01*
X-443822Y32470D01*
X-443854Y32495D01*
X-443963Y32542D01*
X-444069Y32597D01*
X-444108Y32605D01*
X-444146Y32621D01*
X-444263Y32640D01*
X-444379Y32666D01*
X-444420Y32665D01*
X-444460Y32671D01*
X-444578Y32660D01*
X-444697Y32657D01*
X-444736Y32645D01*
X-444776Y32642D01*
X-444889Y32601D01*
X-445003Y32568D01*
X-445037Y32548D01*
X-445076Y32534D01*
X-445174Y32467D01*
X-445277Y32407D01*
X-445322Y32367D01*
X-445339Y32355D01*
X-445352Y32340D01*
X-445397Y32300D01*
X-452044Y25653D01*
X-462356Y25653D01*
X-469002Y32300D01*
X-469097Y32373D01*
X-469186Y32452D01*
X-469222Y32470D01*
X-469254Y32495D01*
X-469363Y32542D01*
X-469469Y32597D01*
X-469508Y32605D01*
X-469546Y32621D01*
X-469663Y32640D01*
X-469779Y32666D01*
X-469820Y32665D01*
X-469860Y32671D01*
X-469978Y32660D01*
X-470097Y32657D01*
X-470136Y32645D01*
X-470176Y32642D01*
X-470289Y32601D01*
X-470403Y32568D01*
X-470437Y32548D01*
X-470476Y32534D01*
X-470574Y32467D01*
X-470677Y32407D01*
X-470722Y32367D01*
X-470739Y32355D01*
X-470752Y32340D01*
X-470797Y32300D01*
X-477444Y25653D01*
X-487756Y25653D01*
X-494402Y32300D01*
X-494497Y32373D01*
X-494586Y32452D01*
X-494622Y32470D01*
X-494654Y32495D01*
X-494763Y32542D01*
X-494869Y32597D01*
X-494908Y32605D01*
X-494946Y32621D01*
X-495063Y32640D01*
X-495179Y32666D01*
X-495220Y32665D01*
X-495260Y32671D01*
X-495378Y32660D01*
X-495497Y32657D01*
X-495536Y32645D01*
X-495576Y32642D01*
X-495689Y32601D01*
X-495803Y32568D01*
X-495837Y32548D01*
X-495876Y32534D01*
X-495974Y32467D01*
X-496077Y32407D01*
X-496122Y32367D01*
X-496139Y32355D01*
X-496152Y32340D01*
X-496197Y32300D01*
X-502844Y25653D01*
X-513156Y25653D01*
X-519802Y32300D01*
X-519897Y32373D01*
X-519986Y32452D01*
X-520022Y32470D01*
X-520054Y32495D01*
X-520163Y32542D01*
X-520269Y32597D01*
X-520308Y32605D01*
X-520346Y32621D01*
X-520463Y32640D01*
X-520579Y32666D01*
X-520620Y32665D01*
X-520660Y32671D01*
X-520778Y32660D01*
X-520897Y32657D01*
X-520936Y32645D01*
X-520976Y32642D01*
X-521089Y32601D01*
X-521203Y32568D01*
X-521237Y32548D01*
X-521276Y32534D01*
X-521374Y32467D01*
X-521477Y32407D01*
X-521522Y32367D01*
X-521539Y32355D01*
X-521552Y32340D01*
X-521597Y32300D01*
X-528244Y25653D01*
X-538556Y25653D01*
G37*
%LPD*%
%LPC*%
G36*
X-535372Y155185D02*
X-535372Y155185D01*
X-539016Y156695D01*
X-541805Y159484D01*
X-543315Y163128D01*
X-543315Y167072D01*
X-541805Y170716D01*
X-539016Y173505D01*
X-535372Y175015D01*
X-531915Y175015D01*
X-531816Y175027D01*
X-531717Y175030D01*
X-531659Y175047D01*
X-531599Y175055D01*
X-531507Y175091D01*
X-531412Y175119D01*
X-531360Y175149D01*
X-531303Y175172D01*
X-531223Y175230D01*
X-531138Y175280D01*
X-531063Y175346D01*
X-531046Y175358D01*
X-531038Y175368D01*
X-531017Y175386D01*
X-511166Y195238D01*
X-509112Y196089D01*
X-397941Y196089D01*
X-397932Y196090D01*
X-397923Y196089D01*
X-397774Y196110D01*
X-397626Y196129D01*
X-397617Y196132D01*
X-397608Y196133D01*
X-397455Y196185D01*
X-395031Y197190D01*
X-392369Y197190D01*
X-389911Y196171D01*
X-388029Y194289D01*
X-387010Y191831D01*
X-387010Y189169D01*
X-388029Y186711D01*
X-389911Y184829D01*
X-392369Y183810D01*
X-395031Y183810D01*
X-397455Y184815D01*
X-397464Y184817D01*
X-397473Y184822D01*
X-397618Y184859D01*
X-397762Y184899D01*
X-397771Y184899D01*
X-397780Y184901D01*
X-397941Y184911D01*
X-505159Y184911D01*
X-505258Y184899D01*
X-505357Y184896D01*
X-505415Y184879D01*
X-505475Y184871D01*
X-505567Y184835D01*
X-505662Y184807D01*
X-505714Y184777D01*
X-505771Y184754D01*
X-505851Y184696D01*
X-505936Y184646D01*
X-506011Y184580D01*
X-506028Y184568D01*
X-506036Y184558D01*
X-506057Y184540D01*
X-523114Y167483D01*
X-523174Y167405D01*
X-523242Y167332D01*
X-523271Y167279D01*
X-523308Y167232D01*
X-523348Y167141D01*
X-523396Y167054D01*
X-523411Y166995D01*
X-523435Y166940D01*
X-523450Y166842D01*
X-523475Y166746D01*
X-523481Y166646D01*
X-523485Y166626D01*
X-523483Y166613D01*
X-523485Y166585D01*
X-523485Y163128D01*
X-524995Y159484D01*
X-527784Y156695D01*
X-531428Y155185D01*
X-535372Y155185D01*
G37*
%LPD*%
%LPC*%
G36*
X-244152Y163560D02*
X-244152Y163560D01*
X-249423Y165743D01*
X-253457Y169777D01*
X-255640Y175048D01*
X-255640Y180752D01*
X-253457Y186023D01*
X-249423Y190057D01*
X-248664Y190371D01*
X-248535Y190444D01*
X-248405Y190516D01*
X-248397Y190523D01*
X-248388Y190528D01*
X-248281Y190632D01*
X-248173Y190734D01*
X-248167Y190742D01*
X-248160Y190750D01*
X-248082Y190877D01*
X-248002Y191002D01*
X-247999Y191012D01*
X-247993Y191021D01*
X-247950Y191163D01*
X-247904Y191305D01*
X-247903Y191315D01*
X-247900Y191325D01*
X-247893Y191473D01*
X-247883Y191622D01*
X-247885Y191632D01*
X-247885Y191642D01*
X-247915Y191788D01*
X-247943Y191934D01*
X-247947Y191944D01*
X-247949Y191954D01*
X-248014Y192088D01*
X-248078Y192222D01*
X-248084Y192230D01*
X-248089Y192240D01*
X-248185Y192353D01*
X-248280Y192468D01*
X-248291Y192476D01*
X-248295Y192482D01*
X-248307Y192490D01*
X-248404Y192570D01*
X-249649Y193475D01*
X-251075Y194901D01*
X-252261Y196533D01*
X-253177Y198331D01*
X-253800Y200249D01*
X-253873Y200711D01*
X-242570Y200711D01*
X-242452Y200726D01*
X-242333Y200733D01*
X-242295Y200746D01*
X-242255Y200751D01*
X-242144Y200794D01*
X-242031Y200831D01*
X-241997Y200853D01*
X-241959Y200868D01*
X-241863Y200938D01*
X-241762Y201001D01*
X-241734Y201031D01*
X-241702Y201054D01*
X-241626Y201146D01*
X-241544Y201233D01*
X-241525Y201268D01*
X-241499Y201299D01*
X-241448Y201407D01*
X-241391Y201511D01*
X-241380Y201551D01*
X-241363Y201587D01*
X-241341Y201704D01*
X-241311Y201819D01*
X-241307Y201880D01*
X-241303Y201900D01*
X-241305Y201920D01*
X-241301Y201980D01*
X-241301Y204520D01*
X-241316Y204638D01*
X-241323Y204757D01*
X-241336Y204795D01*
X-241341Y204835D01*
X-241385Y204946D01*
X-241421Y205059D01*
X-241443Y205094D01*
X-241458Y205131D01*
X-241528Y205227D01*
X-241591Y205328D01*
X-241621Y205356D01*
X-241645Y205389D01*
X-241736Y205464D01*
X-241823Y205546D01*
X-241858Y205566D01*
X-241890Y205591D01*
X-241997Y205642D01*
X-242102Y205700D01*
X-242141Y205710D01*
X-242177Y205727D01*
X-242294Y205749D01*
X-242409Y205779D01*
X-242470Y205783D01*
X-242490Y205787D01*
X-242510Y205785D01*
X-242570Y205789D01*
X-253873Y205789D01*
X-253800Y206251D01*
X-253177Y208169D01*
X-252261Y209967D01*
X-251075Y211599D01*
X-250581Y212093D01*
X-250495Y212203D01*
X-250407Y212310D01*
X-250398Y212329D01*
X-250386Y212345D01*
X-250330Y212473D01*
X-250271Y212598D01*
X-250267Y212618D01*
X-250259Y212637D01*
X-250237Y212775D01*
X-250211Y212911D01*
X-250213Y212931D01*
X-250210Y212951D01*
X-250223Y213090D01*
X-250231Y213228D01*
X-250237Y213247D01*
X-250239Y213267D01*
X-250286Y213398D01*
X-250329Y213530D01*
X-250340Y213548D01*
X-250347Y213567D01*
X-250425Y213681D01*
X-250499Y213799D01*
X-250514Y213813D01*
X-250526Y213830D01*
X-250630Y213922D01*
X-250731Y214017D01*
X-250749Y214027D01*
X-250764Y214040D01*
X-250888Y214103D01*
X-251010Y214171D01*
X-251029Y214176D01*
X-251047Y214185D01*
X-251183Y214215D01*
X-251317Y214250D01*
X-251345Y214252D01*
X-251357Y214255D01*
X-251378Y214254D01*
X-251478Y214260D01*
X-253259Y214260D01*
X-255640Y216641D01*
X-255640Y240559D01*
X-253259Y242940D01*
X-229341Y242940D01*
X-226960Y240559D01*
X-226960Y216641D01*
X-229341Y214260D01*
X-231122Y214260D01*
X-231260Y214243D01*
X-231398Y214230D01*
X-231417Y214223D01*
X-231437Y214220D01*
X-231567Y214169D01*
X-231698Y214122D01*
X-231714Y214111D01*
X-231733Y214103D01*
X-231846Y214022D01*
X-231961Y213944D01*
X-231974Y213928D01*
X-231990Y213917D01*
X-232079Y213809D01*
X-232171Y213705D01*
X-232180Y213687D01*
X-232193Y213672D01*
X-232252Y213546D01*
X-232316Y213422D01*
X-232320Y213402D01*
X-232329Y213384D01*
X-232355Y213248D01*
X-232385Y213112D01*
X-232385Y213091D01*
X-232389Y213072D01*
X-232380Y212933D01*
X-232376Y212794D01*
X-232370Y212774D01*
X-232369Y212754D01*
X-232326Y212622D01*
X-232287Y212488D01*
X-232277Y212471D01*
X-232271Y212452D01*
X-232196Y212334D01*
X-232126Y212214D01*
X-232107Y212193D01*
X-232101Y212183D01*
X-232086Y212169D01*
X-232019Y212093D01*
X-231525Y211599D01*
X-230339Y209967D01*
X-229423Y208169D01*
X-228800Y206251D01*
X-228727Y205789D01*
X-240030Y205789D01*
X-240148Y205774D01*
X-240267Y205767D01*
X-240305Y205754D01*
X-240345Y205749D01*
X-240456Y205706D01*
X-240569Y205669D01*
X-240603Y205647D01*
X-240641Y205632D01*
X-240737Y205562D01*
X-240838Y205499D01*
X-240866Y205469D01*
X-240898Y205445D01*
X-240974Y205354D01*
X-241056Y205267D01*
X-241075Y205232D01*
X-241101Y205201D01*
X-241152Y205093D01*
X-241209Y204989D01*
X-241220Y204949D01*
X-241237Y204913D01*
X-241259Y204796D01*
X-241289Y204681D01*
X-241293Y204620D01*
X-241297Y204600D01*
X-241295Y204580D01*
X-241299Y204520D01*
X-241299Y201980D01*
X-241284Y201862D01*
X-241277Y201743D01*
X-241264Y201705D01*
X-241259Y201664D01*
X-241215Y201554D01*
X-241179Y201441D01*
X-241157Y201406D01*
X-241142Y201369D01*
X-241072Y201273D01*
X-241009Y201172D01*
X-240979Y201144D01*
X-240955Y201111D01*
X-240864Y201036D01*
X-240777Y200954D01*
X-240742Y200934D01*
X-240710Y200909D01*
X-240603Y200858D01*
X-240498Y200800D01*
X-240459Y200790D01*
X-240423Y200773D01*
X-240306Y200751D01*
X-240191Y200721D01*
X-240130Y200717D01*
X-240110Y200713D01*
X-240090Y200715D01*
X-240030Y200711D01*
X-228727Y200711D01*
X-228800Y200249D01*
X-229423Y198331D01*
X-230339Y196533D01*
X-231525Y194901D01*
X-232951Y193475D01*
X-234196Y192570D01*
X-234305Y192468D01*
X-234415Y192368D01*
X-234420Y192360D01*
X-234428Y192353D01*
X-234507Y192227D01*
X-234589Y192103D01*
X-234593Y192093D01*
X-234598Y192084D01*
X-234644Y191943D01*
X-234693Y191802D01*
X-234693Y191791D01*
X-234697Y191782D01*
X-234706Y191634D01*
X-234718Y191485D01*
X-234716Y191475D01*
X-234717Y191464D01*
X-234689Y191319D01*
X-234663Y191171D01*
X-234659Y191162D01*
X-234657Y191152D01*
X-234594Y191017D01*
X-234533Y190881D01*
X-234526Y190873D01*
X-234522Y190864D01*
X-234427Y190749D01*
X-234334Y190633D01*
X-234326Y190627D01*
X-234319Y190619D01*
X-234199Y190531D01*
X-234080Y190442D01*
X-234068Y190436D01*
X-234062Y190432D01*
X-234049Y190426D01*
X-233936Y190371D01*
X-233177Y190057D01*
X-229143Y186023D01*
X-226960Y180752D01*
X-226960Y175048D01*
X-229143Y169777D01*
X-233177Y165743D01*
X-238448Y163560D01*
X-244152Y163560D01*
G37*
%LPD*%
%LPC*%
G36*
X-244033Y291060D02*
X-244033Y291060D01*
X-249083Y293152D01*
X-252948Y297017D01*
X-255040Y302067D01*
X-255040Y307533D01*
X-252948Y312583D01*
X-249083Y316448D01*
X-247288Y317191D01*
X-247210Y317236D01*
X-247128Y317271D01*
X-247073Y317314D01*
X-247012Y317349D01*
X-246948Y317411D01*
X-246877Y317466D01*
X-246834Y317521D01*
X-246783Y317570D01*
X-246737Y317647D01*
X-246682Y317717D01*
X-246654Y317782D01*
X-246617Y317841D01*
X-246591Y317927D01*
X-246555Y318009D01*
X-246544Y318078D01*
X-246524Y318145D01*
X-246519Y318235D01*
X-246505Y318323D01*
X-246512Y318393D01*
X-246508Y318463D01*
X-246527Y318551D01*
X-246535Y318640D01*
X-246559Y318706D01*
X-246573Y318774D01*
X-246612Y318855D01*
X-246642Y318939D01*
X-246682Y318997D01*
X-246712Y319060D01*
X-246771Y319128D01*
X-246821Y319202D01*
X-246873Y319249D01*
X-246919Y319302D01*
X-246992Y319354D01*
X-247059Y319413D01*
X-247167Y319477D01*
X-247179Y319485D01*
X-247185Y319488D01*
X-247198Y319495D01*
X-247702Y319752D01*
X-249258Y320882D01*
X-250618Y322242D01*
X-251748Y323798D01*
X-252621Y325511D01*
X-253215Y327339D01*
X-253266Y327661D01*
X-242570Y327661D01*
X-242452Y327676D01*
X-242333Y327683D01*
X-242295Y327696D01*
X-242255Y327701D01*
X-242144Y327744D01*
X-242031Y327781D01*
X-241997Y327803D01*
X-241959Y327818D01*
X-241863Y327888D01*
X-241762Y327951D01*
X-241734Y327981D01*
X-241702Y328004D01*
X-241626Y328096D01*
X-241544Y328183D01*
X-241525Y328218D01*
X-241499Y328249D01*
X-241448Y328357D01*
X-241391Y328461D01*
X-241380Y328501D01*
X-241363Y328537D01*
X-241341Y328654D01*
X-241311Y328769D01*
X-241307Y328830D01*
X-241303Y328850D01*
X-241305Y328870D01*
X-241301Y328930D01*
X-241301Y331470D01*
X-241316Y331588D01*
X-241323Y331707D01*
X-241336Y331745D01*
X-241341Y331785D01*
X-241385Y331896D01*
X-241421Y332009D01*
X-241443Y332044D01*
X-241458Y332081D01*
X-241528Y332177D01*
X-241591Y332278D01*
X-241621Y332306D01*
X-241645Y332339D01*
X-241736Y332414D01*
X-241823Y332496D01*
X-241858Y332516D01*
X-241890Y332541D01*
X-241997Y332592D01*
X-242102Y332650D01*
X-242141Y332660D01*
X-242177Y332677D01*
X-242294Y332699D01*
X-242409Y332729D01*
X-242470Y332733D01*
X-242490Y332737D01*
X-242510Y332735D01*
X-242570Y332739D01*
X-253266Y332739D01*
X-253215Y333061D01*
X-252621Y334889D01*
X-251748Y336602D01*
X-250618Y338158D01*
X-249258Y339518D01*
X-249194Y339564D01*
X-249136Y339619D01*
X-249071Y339665D01*
X-249020Y339727D01*
X-248962Y339782D01*
X-248920Y339849D01*
X-248869Y339910D01*
X-248835Y339983D01*
X-248792Y340050D01*
X-248767Y340126D01*
X-248733Y340198D01*
X-248718Y340277D01*
X-248693Y340353D01*
X-248688Y340432D01*
X-248673Y340511D01*
X-248678Y340590D01*
X-248673Y340670D01*
X-248688Y340748D01*
X-248693Y340828D01*
X-248718Y340904D01*
X-248733Y340982D01*
X-248766Y341055D01*
X-248791Y341130D01*
X-248834Y341198D01*
X-248868Y341270D01*
X-248919Y341332D01*
X-248961Y341399D01*
X-249019Y341454D01*
X-249070Y341515D01*
X-249135Y341562D01*
X-249193Y341617D01*
X-249263Y341656D01*
X-249327Y341703D01*
X-249402Y341732D01*
X-249471Y341771D01*
X-249549Y341791D01*
X-249623Y341820D01*
X-249702Y341830D01*
X-249779Y341850D01*
X-249937Y341860D01*
X-249938Y341860D01*
X-249939Y341860D01*
X-249940Y341860D01*
X-252659Y341860D01*
X-255040Y344241D01*
X-255040Y366959D01*
X-252659Y369340D01*
X-229941Y369340D01*
X-227560Y366959D01*
X-227560Y344241D01*
X-229941Y341860D01*
X-232660Y341860D01*
X-232739Y341850D01*
X-232819Y341850D01*
X-232896Y341830D01*
X-232976Y341820D01*
X-233050Y341791D01*
X-233127Y341771D01*
X-233197Y341733D01*
X-233271Y341703D01*
X-233336Y341657D01*
X-233406Y341618D01*
X-233464Y341564D01*
X-233529Y341517D01*
X-233579Y341455D01*
X-233638Y341401D01*
X-233680Y341333D01*
X-233731Y341272D01*
X-233765Y341199D01*
X-233808Y341132D01*
X-233833Y341056D01*
X-233867Y340984D01*
X-233882Y340906D01*
X-233907Y340830D01*
X-233912Y340750D01*
X-233927Y340672D01*
X-233922Y340592D01*
X-233927Y340512D01*
X-233912Y340434D01*
X-233907Y340354D01*
X-233882Y340278D01*
X-233868Y340200D01*
X-233834Y340127D01*
X-233809Y340052D01*
X-233766Y339984D01*
X-233732Y339912D01*
X-233682Y339850D01*
X-233639Y339783D01*
X-233581Y339728D01*
X-233530Y339667D01*
X-233408Y339566D01*
X-233407Y339565D01*
X-233406Y339564D01*
X-233342Y339518D01*
X-231982Y338158D01*
X-230852Y336602D01*
X-229979Y334889D01*
X-229385Y333061D01*
X-229334Y332739D01*
X-240030Y332739D01*
X-240148Y332724D01*
X-240267Y332717D01*
X-240305Y332704D01*
X-240345Y332699D01*
X-240456Y332656D01*
X-240569Y332619D01*
X-240603Y332597D01*
X-240641Y332582D01*
X-240737Y332512D01*
X-240838Y332449D01*
X-240866Y332419D01*
X-240898Y332395D01*
X-240974Y332304D01*
X-241056Y332217D01*
X-241075Y332182D01*
X-241101Y332151D01*
X-241152Y332043D01*
X-241209Y331939D01*
X-241220Y331899D01*
X-241237Y331863D01*
X-241259Y331746D01*
X-241289Y331631D01*
X-241293Y331570D01*
X-241297Y331550D01*
X-241295Y331530D01*
X-241299Y331470D01*
X-241299Y328930D01*
X-241284Y328812D01*
X-241277Y328693D01*
X-241264Y328655D01*
X-241259Y328614D01*
X-241215Y328504D01*
X-241179Y328391D01*
X-241157Y328356D01*
X-241142Y328319D01*
X-241072Y328223D01*
X-241009Y328122D01*
X-240979Y328094D01*
X-240955Y328061D01*
X-240864Y327986D01*
X-240777Y327904D01*
X-240742Y327884D01*
X-240710Y327859D01*
X-240603Y327808D01*
X-240498Y327750D01*
X-240459Y327740D01*
X-240423Y327723D01*
X-240306Y327701D01*
X-240191Y327671D01*
X-240130Y327667D01*
X-240110Y327663D01*
X-240090Y327665D01*
X-240030Y327661D01*
X-229334Y327661D01*
X-229385Y327339D01*
X-229979Y325511D01*
X-230852Y323798D01*
X-231982Y322242D01*
X-233342Y320882D01*
X-234898Y319752D01*
X-235402Y319495D01*
X-235476Y319445D01*
X-235556Y319403D01*
X-235608Y319356D01*
X-235665Y319316D01*
X-235725Y319249D01*
X-235791Y319189D01*
X-235829Y319130D01*
X-235876Y319078D01*
X-235916Y318998D01*
X-235966Y318923D01*
X-235988Y318857D01*
X-236020Y318794D01*
X-236040Y318707D01*
X-236069Y318622D01*
X-236074Y318552D01*
X-236090Y318484D01*
X-236087Y318395D01*
X-236094Y318305D01*
X-236082Y318236D01*
X-236080Y318166D01*
X-236055Y318080D01*
X-236040Y317992D01*
X-236011Y317928D01*
X-235991Y317861D01*
X-235946Y317784D01*
X-235909Y317702D01*
X-235865Y317647D01*
X-235830Y317587D01*
X-235766Y317524D01*
X-235710Y317454D01*
X-235654Y317411D01*
X-235605Y317362D01*
X-235528Y317316D01*
X-235456Y317262D01*
X-235344Y317207D01*
X-235331Y317200D01*
X-235325Y317198D01*
X-235312Y317191D01*
X-233517Y316448D01*
X-229652Y312583D01*
X-227560Y307533D01*
X-227560Y302067D01*
X-229652Y297017D01*
X-233517Y293152D01*
X-238567Y291060D01*
X-244033Y291060D01*
G37*
%LPD*%
%LPC*%
G36*
X-787401Y139699D02*
X-787401Y139699D01*
X-787401Y140970D01*
X-787416Y141088D01*
X-787423Y141207D01*
X-787436Y141245D01*
X-787441Y141285D01*
X-787485Y141396D01*
X-787521Y141509D01*
X-787543Y141544D01*
X-787558Y141581D01*
X-787628Y141677D01*
X-787691Y141778D01*
X-787721Y141806D01*
X-787745Y141839D01*
X-787836Y141914D01*
X-787923Y141996D01*
X-787958Y142016D01*
X-787990Y142041D01*
X-788097Y142092D01*
X-788202Y142150D01*
X-788241Y142160D01*
X-788277Y142177D01*
X-788394Y142199D01*
X-788509Y142229D01*
X-788570Y142233D01*
X-788590Y142237D01*
X-788610Y142235D01*
X-788670Y142239D01*
X-799593Y142239D01*
X-799593Y144750D01*
X-793918Y150425D01*
X-793845Y150519D01*
X-793766Y150608D01*
X-793748Y150644D01*
X-793723Y150676D01*
X-793676Y150786D01*
X-793622Y150891D01*
X-793613Y150931D01*
X-793597Y150968D01*
X-793578Y151086D01*
X-793552Y151202D01*
X-793553Y151242D01*
X-793547Y151282D01*
X-793558Y151401D01*
X-793562Y151520D01*
X-793573Y151558D01*
X-793577Y151599D01*
X-793617Y151711D01*
X-793650Y151825D01*
X-793671Y151860D01*
X-793685Y151898D01*
X-793752Y151997D01*
X-793812Y152099D01*
X-793852Y152144D01*
X-793863Y152161D01*
X-793878Y152175D01*
X-793918Y152220D01*
X-801117Y159418D01*
X-801117Y170782D01*
X-794996Y176902D01*
X-794923Y176997D01*
X-794844Y177086D01*
X-794826Y177122D01*
X-794801Y177154D01*
X-794754Y177263D01*
X-794700Y177369D01*
X-794691Y177408D01*
X-794675Y177446D01*
X-794656Y177563D01*
X-794630Y177679D01*
X-794631Y177720D01*
X-794625Y177760D01*
X-794636Y177878D01*
X-794640Y177997D01*
X-794651Y178036D01*
X-794655Y178076D01*
X-794695Y178189D01*
X-794728Y178303D01*
X-794748Y178337D01*
X-794762Y178376D01*
X-794829Y178474D01*
X-794889Y178577D01*
X-794929Y178622D01*
X-794941Y178639D01*
X-794956Y178652D01*
X-794996Y178697D01*
X-801117Y184818D01*
X-801117Y196182D01*
X-793082Y204217D01*
X-781718Y204217D01*
X-773683Y196182D01*
X-773683Y184818D01*
X-779804Y178697D01*
X-779877Y178603D01*
X-779956Y178514D01*
X-779974Y178478D01*
X-779999Y178446D01*
X-780046Y178337D01*
X-780100Y178231D01*
X-780109Y178192D01*
X-780125Y178154D01*
X-780144Y178037D01*
X-780170Y177921D01*
X-780169Y177880D01*
X-780175Y177840D01*
X-780164Y177722D01*
X-780160Y177603D01*
X-780149Y177564D01*
X-780145Y177524D01*
X-780105Y177411D01*
X-780072Y177297D01*
X-780052Y177262D01*
X-780038Y177224D01*
X-779971Y177126D01*
X-779911Y177023D01*
X-779871Y176978D01*
X-779859Y176961D01*
X-779844Y176948D01*
X-779804Y176902D01*
X-773683Y170782D01*
X-773683Y159418D01*
X-780882Y152220D01*
X-780955Y152126D01*
X-781034Y152037D01*
X-781052Y152001D01*
X-781077Y151969D01*
X-781124Y151859D01*
X-781178Y151753D01*
X-781187Y151714D01*
X-781203Y151677D01*
X-781222Y151559D01*
X-781248Y151443D01*
X-781247Y151403D01*
X-781253Y151363D01*
X-781242Y151244D01*
X-781238Y151125D01*
X-781227Y151086D01*
X-781223Y151046D01*
X-781183Y150934D01*
X-781150Y150820D01*
X-781129Y150785D01*
X-781115Y150747D01*
X-781049Y150648D01*
X-780988Y150546D01*
X-780948Y150500D01*
X-780937Y150484D01*
X-780922Y150470D01*
X-780882Y150425D01*
X-775207Y144750D01*
X-775207Y142239D01*
X-786130Y142239D01*
X-786248Y142224D01*
X-786367Y142217D01*
X-786405Y142204D01*
X-786445Y142199D01*
X-786556Y142156D01*
X-786669Y142119D01*
X-786703Y142097D01*
X-786741Y142082D01*
X-786837Y142012D01*
X-786938Y141949D01*
X-786966Y141919D01*
X-786998Y141895D01*
X-787074Y141804D01*
X-787156Y141717D01*
X-787175Y141682D01*
X-787201Y141651D01*
X-787252Y141543D01*
X-787309Y141439D01*
X-787320Y141399D01*
X-787337Y141363D01*
X-787359Y141246D01*
X-787389Y141131D01*
X-787393Y141070D01*
X-787397Y141050D01*
X-787395Y141030D01*
X-787399Y140970D01*
X-787399Y139699D01*
X-787401Y139699D01*
G37*
%LPD*%
%LPC*%
G36*
X-787401Y431799D02*
X-787401Y431799D01*
X-787401Y433070D01*
X-787416Y433188D01*
X-787423Y433307D01*
X-787436Y433345D01*
X-787441Y433385D01*
X-787485Y433496D01*
X-787521Y433609D01*
X-787543Y433644D01*
X-787558Y433681D01*
X-787628Y433777D01*
X-787691Y433878D01*
X-787721Y433906D01*
X-787745Y433939D01*
X-787836Y434014D01*
X-787923Y434096D01*
X-787958Y434116D01*
X-787990Y434141D01*
X-788097Y434192D01*
X-788202Y434250D01*
X-788241Y434260D01*
X-788277Y434277D01*
X-788394Y434299D01*
X-788509Y434329D01*
X-788570Y434333D01*
X-788590Y434337D01*
X-788610Y434335D01*
X-788670Y434339D01*
X-799593Y434339D01*
X-799593Y436850D01*
X-793918Y442525D01*
X-793845Y442619D01*
X-793766Y442708D01*
X-793748Y442744D01*
X-793723Y442776D01*
X-793676Y442886D01*
X-793622Y442991D01*
X-793613Y443031D01*
X-793597Y443068D01*
X-793578Y443186D01*
X-793552Y443302D01*
X-793553Y443342D01*
X-793547Y443382D01*
X-793558Y443501D01*
X-793562Y443620D01*
X-793573Y443658D01*
X-793577Y443699D01*
X-793617Y443811D01*
X-793650Y443925D01*
X-793671Y443960D01*
X-793685Y443998D01*
X-793752Y444097D01*
X-793812Y444199D01*
X-793852Y444244D01*
X-793863Y444261D01*
X-793878Y444275D01*
X-793918Y444320D01*
X-801117Y451518D01*
X-801117Y462882D01*
X-794996Y469002D01*
X-794923Y469097D01*
X-794844Y469186D01*
X-794826Y469222D01*
X-794801Y469254D01*
X-794754Y469363D01*
X-794700Y469469D01*
X-794691Y469508D01*
X-794675Y469546D01*
X-794656Y469663D01*
X-794630Y469779D01*
X-794631Y469820D01*
X-794625Y469860D01*
X-794636Y469978D01*
X-794640Y470097D01*
X-794651Y470136D01*
X-794655Y470176D01*
X-794695Y470289D01*
X-794728Y470403D01*
X-794748Y470437D01*
X-794762Y470476D01*
X-794829Y470574D01*
X-794889Y470677D01*
X-794929Y470722D01*
X-794941Y470739D01*
X-794956Y470752D01*
X-794996Y470797D01*
X-801117Y476918D01*
X-801117Y488282D01*
X-793082Y496317D01*
X-781718Y496317D01*
X-773683Y488282D01*
X-773683Y476918D01*
X-779804Y470797D01*
X-779877Y470703D01*
X-779956Y470614D01*
X-779974Y470578D01*
X-779999Y470546D01*
X-780046Y470437D01*
X-780100Y470331D01*
X-780109Y470292D01*
X-780125Y470254D01*
X-780144Y470137D01*
X-780170Y470021D01*
X-780169Y469980D01*
X-780175Y469940D01*
X-780164Y469822D01*
X-780160Y469703D01*
X-780149Y469664D01*
X-780145Y469624D01*
X-780105Y469511D01*
X-780072Y469397D01*
X-780052Y469362D01*
X-780038Y469324D01*
X-779971Y469226D01*
X-779911Y469123D01*
X-779875Y469083D01*
X-779872Y469079D01*
X-779869Y469076D01*
X-779859Y469061D01*
X-779844Y469048D01*
X-779804Y469002D01*
X-773683Y462882D01*
X-773683Y451518D01*
X-780882Y444320D01*
X-780955Y444226D01*
X-781034Y444137D01*
X-781052Y444101D01*
X-781077Y444069D01*
X-781124Y443959D01*
X-781178Y443853D01*
X-781187Y443814D01*
X-781203Y443777D01*
X-781222Y443659D01*
X-781248Y443543D01*
X-781247Y443503D01*
X-781253Y443463D01*
X-781242Y443344D01*
X-781238Y443225D01*
X-781227Y443186D01*
X-781223Y443146D01*
X-781183Y443034D01*
X-781150Y442920D01*
X-781129Y442885D01*
X-781115Y442847D01*
X-781049Y442748D01*
X-780988Y442646D01*
X-780948Y442600D01*
X-780937Y442584D01*
X-780922Y442570D01*
X-780882Y442525D01*
X-775207Y436850D01*
X-775207Y434339D01*
X-786130Y434339D01*
X-786248Y434324D01*
X-786367Y434317D01*
X-786405Y434304D01*
X-786445Y434299D01*
X-786556Y434256D01*
X-786669Y434219D01*
X-786703Y434197D01*
X-786741Y434182D01*
X-786837Y434112D01*
X-786938Y434049D01*
X-786966Y434019D01*
X-786998Y433995D01*
X-787074Y433904D01*
X-787156Y433817D01*
X-787175Y433782D01*
X-787201Y433751D01*
X-787252Y433643D01*
X-787309Y433539D01*
X-787320Y433499D01*
X-787337Y433463D01*
X-787359Y433346D01*
X-787389Y433231D01*
X-787393Y433170D01*
X-787397Y433150D01*
X-787395Y433130D01*
X-787399Y433070D01*
X-787399Y431799D01*
X-787401Y431799D01*
G37*
%LPD*%
%LPC*%
G36*
X-335882Y443483D02*
X-335882Y443483D01*
X-343917Y451518D01*
X-343917Y462882D01*
X-335882Y470917D01*
X-324518Y470917D01*
X-317320Y463718D01*
X-317226Y463645D01*
X-317137Y463566D01*
X-317101Y463548D01*
X-317069Y463523D01*
X-316959Y463476D01*
X-316853Y463422D01*
X-316814Y463413D01*
X-316777Y463397D01*
X-316659Y463378D01*
X-316543Y463352D01*
X-316503Y463353D01*
X-316463Y463347D01*
X-316344Y463358D01*
X-316225Y463362D01*
X-316186Y463373D01*
X-316146Y463377D01*
X-316034Y463417D01*
X-315920Y463450D01*
X-315885Y463471D01*
X-315847Y463485D01*
X-315748Y463552D01*
X-315646Y463612D01*
X-315601Y463652D01*
X-315584Y463663D01*
X-315570Y463678D01*
X-315525Y463718D01*
X-309850Y469393D01*
X-307339Y469393D01*
X-307339Y458470D01*
X-307324Y458352D01*
X-307317Y458233D01*
X-307304Y458195D01*
X-307299Y458155D01*
X-307256Y458044D01*
X-307219Y457931D01*
X-307197Y457897D01*
X-307182Y457859D01*
X-307112Y457763D01*
X-307049Y457662D01*
X-307019Y457634D01*
X-306995Y457602D01*
X-306904Y457526D01*
X-306817Y457444D01*
X-306782Y457425D01*
X-306751Y457399D01*
X-306643Y457348D01*
X-306539Y457291D01*
X-306499Y457280D01*
X-306463Y457263D01*
X-306346Y457241D01*
X-306231Y457211D01*
X-306170Y457207D01*
X-306150Y457203D01*
X-306130Y457205D01*
X-306070Y457201D01*
X-304799Y457201D01*
X-304799Y457199D01*
X-306070Y457199D01*
X-306188Y457184D01*
X-306307Y457177D01*
X-306345Y457164D01*
X-306385Y457159D01*
X-306496Y457115D01*
X-306609Y457079D01*
X-306644Y457057D01*
X-306681Y457042D01*
X-306777Y456972D01*
X-306878Y456909D01*
X-306906Y456879D01*
X-306939Y456855D01*
X-307014Y456764D01*
X-307096Y456677D01*
X-307116Y456642D01*
X-307141Y456610D01*
X-307192Y456503D01*
X-307250Y456398D01*
X-307260Y456359D01*
X-307277Y456323D01*
X-307299Y456206D01*
X-307329Y456091D01*
X-307333Y456030D01*
X-307337Y456010D01*
X-307336Y456007D01*
X-307337Y456006D01*
X-307336Y455988D01*
X-307339Y455930D01*
X-307339Y445007D01*
X-309850Y445007D01*
X-315525Y450682D01*
X-315619Y450755D01*
X-315708Y450834D01*
X-315744Y450852D01*
X-315776Y450877D01*
X-315885Y450924D01*
X-315991Y450978D01*
X-316031Y450987D01*
X-316068Y451003D01*
X-316186Y451022D01*
X-316302Y451048D01*
X-316342Y451047D01*
X-316382Y451053D01*
X-316501Y451042D01*
X-316620Y451038D01*
X-316658Y451027D01*
X-316699Y451023D01*
X-316811Y450983D01*
X-316925Y450950D01*
X-316960Y450929D01*
X-316998Y450915D01*
X-317096Y450849D01*
X-317199Y450788D01*
X-317244Y450748D01*
X-317261Y450737D01*
X-317275Y450722D01*
X-317320Y450682D01*
X-324518Y443483D01*
X-335882Y443483D01*
G37*
%LPD*%
%LPC*%
G36*
X-787401Y241299D02*
X-787401Y241299D01*
X-787401Y242570D01*
X-787416Y242688D01*
X-787423Y242807D01*
X-787436Y242845D01*
X-787441Y242885D01*
X-787485Y242996D01*
X-787521Y243109D01*
X-787543Y243144D01*
X-787558Y243181D01*
X-787628Y243277D01*
X-787691Y243378D01*
X-787721Y243406D01*
X-787745Y243439D01*
X-787836Y243514D01*
X-787923Y243596D01*
X-787958Y243616D01*
X-787990Y243641D01*
X-788097Y243692D01*
X-788202Y243750D01*
X-788241Y243760D01*
X-788277Y243777D01*
X-788394Y243799D01*
X-788509Y243829D01*
X-788570Y243833D01*
X-788590Y243837D01*
X-788610Y243835D01*
X-788670Y243839D01*
X-799593Y243839D01*
X-799593Y246350D01*
X-793918Y252025D01*
X-793845Y252119D01*
X-793766Y252208D01*
X-793748Y252244D01*
X-793723Y252276D01*
X-793676Y252385D01*
X-793622Y252491D01*
X-793613Y252531D01*
X-793597Y252568D01*
X-793578Y252686D01*
X-793552Y252802D01*
X-793553Y252842D01*
X-793547Y252882D01*
X-793558Y253001D01*
X-793562Y253120D01*
X-793573Y253158D01*
X-793577Y253199D01*
X-793617Y253311D01*
X-793650Y253425D01*
X-793671Y253460D01*
X-793685Y253498D01*
X-793751Y253596D01*
X-793812Y253699D01*
X-793852Y253744D01*
X-793863Y253761D01*
X-793878Y253775D01*
X-793918Y253820D01*
X-801117Y261018D01*
X-801117Y272382D01*
X-793082Y280417D01*
X-781718Y280417D01*
X-773683Y272382D01*
X-773683Y261018D01*
X-780882Y253820D01*
X-780955Y253726D01*
X-781034Y253637D01*
X-781052Y253601D01*
X-781077Y253569D01*
X-781124Y253459D01*
X-781178Y253353D01*
X-781187Y253314D01*
X-781203Y253277D01*
X-781222Y253159D01*
X-781248Y253043D01*
X-781247Y253003D01*
X-781253Y252963D01*
X-781242Y252844D01*
X-781238Y252725D01*
X-781227Y252686D01*
X-781223Y252646D01*
X-781183Y252534D01*
X-781150Y252420D01*
X-781129Y252385D01*
X-781115Y252347D01*
X-781048Y252248D01*
X-780988Y252146D01*
X-780948Y252101D01*
X-780937Y252084D01*
X-780922Y252070D01*
X-780882Y252025D01*
X-775207Y246350D01*
X-775207Y243839D01*
X-786130Y243839D01*
X-786248Y243824D01*
X-786367Y243817D01*
X-786405Y243804D01*
X-786445Y243799D01*
X-786556Y243756D01*
X-786669Y243719D01*
X-786703Y243697D01*
X-786741Y243682D01*
X-786837Y243612D01*
X-786938Y243549D01*
X-786966Y243519D01*
X-786998Y243495D01*
X-787074Y243404D01*
X-787156Y243317D01*
X-787175Y243282D01*
X-787201Y243251D01*
X-787252Y243143D01*
X-787309Y243039D01*
X-787320Y242999D01*
X-787337Y242963D01*
X-787359Y242846D01*
X-787389Y242731D01*
X-787393Y242670D01*
X-787397Y242650D01*
X-787395Y242630D01*
X-787399Y242570D01*
X-787399Y241299D01*
X-787401Y241299D01*
G37*
%LPD*%
%LPC*%
G36*
X-520701Y431799D02*
X-520701Y431799D01*
X-520701Y433070D01*
X-520716Y433188D01*
X-520723Y433307D01*
X-520736Y433345D01*
X-520741Y433385D01*
X-520785Y433496D01*
X-520821Y433609D01*
X-520843Y433644D01*
X-520858Y433681D01*
X-520928Y433777D01*
X-520991Y433878D01*
X-521021Y433906D01*
X-521045Y433939D01*
X-521136Y434014D01*
X-521223Y434096D01*
X-521258Y434116D01*
X-521290Y434141D01*
X-521397Y434192D01*
X-521502Y434250D01*
X-521541Y434260D01*
X-521577Y434277D01*
X-521694Y434299D01*
X-521809Y434329D01*
X-521870Y434333D01*
X-521890Y434337D01*
X-521910Y434335D01*
X-521970Y434339D01*
X-532893Y434339D01*
X-532893Y436850D01*
X-527218Y442525D01*
X-527145Y442619D01*
X-527066Y442708D01*
X-527048Y442744D01*
X-527023Y442776D01*
X-526976Y442886D01*
X-526922Y442991D01*
X-526913Y443031D01*
X-526897Y443068D01*
X-526878Y443186D01*
X-526852Y443302D01*
X-526853Y443342D01*
X-526847Y443382D01*
X-526858Y443501D01*
X-526862Y443620D01*
X-526873Y443658D01*
X-526877Y443699D01*
X-526917Y443811D01*
X-526950Y443925D01*
X-526971Y443960D01*
X-526985Y443998D01*
X-527052Y444097D01*
X-527112Y444199D01*
X-527152Y444244D01*
X-527163Y444261D01*
X-527178Y444275D01*
X-527218Y444320D01*
X-534417Y451518D01*
X-534417Y462882D01*
X-526382Y470917D01*
X-515018Y470917D01*
X-506983Y462882D01*
X-506983Y451518D01*
X-514182Y444320D01*
X-514255Y444226D01*
X-514334Y444137D01*
X-514352Y444101D01*
X-514377Y444069D01*
X-514424Y443959D01*
X-514478Y443853D01*
X-514487Y443814D01*
X-514503Y443777D01*
X-514522Y443659D01*
X-514548Y443543D01*
X-514547Y443503D01*
X-514553Y443463D01*
X-514542Y443344D01*
X-514538Y443225D01*
X-514527Y443186D01*
X-514523Y443146D01*
X-514483Y443034D01*
X-514450Y442920D01*
X-514429Y442885D01*
X-514415Y442847D01*
X-514349Y442748D01*
X-514288Y442646D01*
X-514248Y442600D01*
X-514237Y442584D01*
X-514222Y442570D01*
X-514182Y442525D01*
X-508507Y436850D01*
X-508507Y434339D01*
X-519430Y434339D01*
X-519548Y434324D01*
X-519667Y434317D01*
X-519705Y434304D01*
X-519745Y434299D01*
X-519856Y434256D01*
X-519969Y434219D01*
X-520003Y434197D01*
X-520041Y434182D01*
X-520137Y434112D01*
X-520238Y434049D01*
X-520266Y434019D01*
X-520298Y433995D01*
X-520374Y433904D01*
X-520456Y433817D01*
X-520475Y433782D01*
X-520501Y433751D01*
X-520552Y433643D01*
X-520609Y433539D01*
X-520620Y433499D01*
X-520637Y433463D01*
X-520659Y433346D01*
X-520689Y433231D01*
X-520693Y433170D01*
X-520697Y433150D01*
X-520695Y433130D01*
X-520699Y433070D01*
X-520699Y431799D01*
X-520701Y431799D01*
G37*
%LPD*%
%LPC*%
G36*
X-360756Y25653D02*
X-360756Y25653D01*
X-368165Y33063D01*
X-368185Y33118D01*
X-368196Y33134D01*
X-368204Y33153D01*
X-368285Y33266D01*
X-368363Y33381D01*
X-368379Y33394D01*
X-368390Y33411D01*
X-368498Y33499D01*
X-368602Y33591D01*
X-368620Y33600D01*
X-368635Y33613D01*
X-368761Y33673D01*
X-368885Y33736D01*
X-368905Y33740D01*
X-368923Y33749D01*
X-369059Y33775D01*
X-369195Y33805D01*
X-369216Y33805D01*
X-369235Y33809D01*
X-369374Y33800D01*
X-369513Y33796D01*
X-369533Y33790D01*
X-369553Y33789D01*
X-369685Y33746D01*
X-369819Y33707D01*
X-369836Y33697D01*
X-369855Y33691D01*
X-369973Y33616D01*
X-370093Y33546D01*
X-370114Y33527D01*
X-370124Y33521D01*
X-370138Y33506D01*
X-370213Y33439D01*
X-376476Y27177D01*
X-378501Y27177D01*
X-378501Y36870D01*
X-378516Y36988D01*
X-378523Y37107D01*
X-378535Y37145D01*
X-378541Y37185D01*
X-378584Y37296D01*
X-378621Y37409D01*
X-378643Y37443D01*
X-378658Y37481D01*
X-378727Y37577D01*
X-378791Y37678D01*
X-378821Y37706D01*
X-378844Y37738D01*
X-378936Y37814D01*
X-379023Y37896D01*
X-379058Y37915D01*
X-379089Y37941D01*
X-379197Y37992D01*
X-379301Y38049D01*
X-379341Y38059D01*
X-379377Y38077D01*
X-379484Y38097D01*
X-379454Y38101D01*
X-379344Y38145D01*
X-379231Y38181D01*
X-379196Y38203D01*
X-379159Y38218D01*
X-379062Y38288D01*
X-378962Y38351D01*
X-378934Y38381D01*
X-378901Y38405D01*
X-378825Y38496D01*
X-378744Y38583D01*
X-378724Y38618D01*
X-378699Y38650D01*
X-378648Y38757D01*
X-378590Y38862D01*
X-378580Y38901D01*
X-378563Y38937D01*
X-378541Y39054D01*
X-378511Y39170D01*
X-378507Y39230D01*
X-378503Y39250D01*
X-378505Y39270D01*
X-378501Y39330D01*
X-378501Y49023D01*
X-376476Y49023D01*
X-370213Y42761D01*
X-370104Y42675D01*
X-369997Y42587D01*
X-369978Y42578D01*
X-369962Y42566D01*
X-369834Y42510D01*
X-369709Y42451D01*
X-369689Y42447D01*
X-369670Y42439D01*
X-369532Y42417D01*
X-369396Y42391D01*
X-369376Y42393D01*
X-369356Y42389D01*
X-369217Y42402D01*
X-369079Y42411D01*
X-369060Y42417D01*
X-369040Y42419D01*
X-368908Y42466D01*
X-368777Y42509D01*
X-368759Y42520D01*
X-368740Y42527D01*
X-368625Y42605D01*
X-368508Y42679D01*
X-368494Y42694D01*
X-368477Y42705D01*
X-368385Y42810D01*
X-368290Y42911D01*
X-368280Y42929D01*
X-368267Y42944D01*
X-368203Y43068D01*
X-368165Y43137D01*
X-360756Y50547D01*
X-350444Y50547D01*
X-343153Y43256D01*
X-343153Y32944D01*
X-350444Y25653D01*
X-360756Y25653D01*
G37*
%LPD*%
%LPC*%
G36*
X-399382Y443483D02*
X-399382Y443483D01*
X-407417Y451518D01*
X-407417Y462882D01*
X-399382Y470917D01*
X-388018Y470917D01*
X-379983Y462882D01*
X-379983Y451518D01*
X-388018Y443483D01*
X-399382Y443483D01*
G37*
%LPD*%
%LPC*%
G36*
X-729582Y24383D02*
X-729582Y24383D01*
X-737617Y32418D01*
X-737617Y43782D01*
X-729582Y51817D01*
X-718218Y51817D01*
X-710183Y43782D01*
X-710183Y32418D01*
X-718218Y24383D01*
X-729582Y24383D01*
G37*
%LPD*%
%LPC*%
G36*
X-360598Y165734D02*
X-360598Y165734D01*
X-367666Y172802D01*
X-367666Y182798D01*
X-360598Y189866D01*
X-350602Y189866D01*
X-343534Y182798D01*
X-343534Y172802D01*
X-350602Y165734D01*
X-360598Y165734D01*
G37*
%LPD*%
%LPC*%
G36*
X-309798Y165734D02*
X-309798Y165734D01*
X-316866Y172802D01*
X-316866Y182798D01*
X-309798Y189866D01*
X-299802Y189866D01*
X-292734Y182798D01*
X-292734Y172802D01*
X-299802Y165734D01*
X-309798Y165734D01*
G37*
%LPD*%
%LPC*%
G36*
X-360598Y305434D02*
X-360598Y305434D01*
X-367666Y312502D01*
X-367666Y322498D01*
X-360598Y329566D01*
X-350602Y329566D01*
X-343534Y322498D01*
X-343534Y312502D01*
X-350602Y305434D01*
X-360598Y305434D01*
G37*
%LPD*%
%LPC*%
G36*
X-459500Y458935D02*
X-459500Y458935D01*
X-463751Y460696D01*
X-467004Y463949D01*
X-468765Y468200D01*
X-468765Y472800D01*
X-467004Y477051D01*
X-463751Y480304D01*
X-459500Y482065D01*
X-454900Y482065D01*
X-450649Y480304D01*
X-447396Y477051D01*
X-445635Y472800D01*
X-445635Y468200D01*
X-447396Y463949D01*
X-450649Y460696D01*
X-454900Y458935D01*
X-459500Y458935D01*
G37*
%LPD*%
%LPC*%
G36*
X-459500Y432935D02*
X-459500Y432935D01*
X-463751Y434696D01*
X-467004Y437949D01*
X-468765Y442200D01*
X-468765Y446800D01*
X-467004Y451051D01*
X-463751Y454304D01*
X-459500Y456065D01*
X-454900Y456065D01*
X-450649Y454304D01*
X-447396Y451051D01*
X-445635Y446800D01*
X-445635Y442200D01*
X-447396Y437949D01*
X-450649Y434696D01*
X-454900Y432935D01*
X-459500Y432935D01*
G37*
%LPD*%
%LPC*%
G36*
X-586500Y356735D02*
X-586500Y356735D01*
X-590751Y358496D01*
X-594004Y361749D01*
X-595765Y366000D01*
X-595765Y370600D01*
X-594004Y374851D01*
X-590751Y378104D01*
X-586500Y379865D01*
X-581900Y379865D01*
X-577649Y378104D01*
X-574396Y374851D01*
X-572635Y370600D01*
X-572635Y366000D01*
X-574396Y361749D01*
X-577649Y358496D01*
X-581900Y356735D01*
X-586500Y356735D01*
G37*
%LPD*%
%LPC*%
G36*
X-677309Y332739D02*
X-677309Y332739D01*
X-683261Y338691D01*
X-683261Y347109D01*
X-677309Y353061D01*
X-668891Y353061D01*
X-662939Y347109D01*
X-662939Y338691D01*
X-668891Y332739D01*
X-677309Y332739D01*
G37*
%LPD*%
%LPC*%
G36*
X-639209Y396239D02*
X-639209Y396239D01*
X-645161Y402191D01*
X-645161Y410609D01*
X-639209Y416561D01*
X-630791Y416561D01*
X-624839Y410609D01*
X-624839Y402191D01*
X-630791Y396239D01*
X-639209Y396239D01*
G37*
%LPD*%
%LPC*%
G36*
X-677309Y281939D02*
X-677309Y281939D01*
X-683261Y287891D01*
X-683261Y296309D01*
X-677309Y302261D01*
X-668891Y302261D01*
X-662939Y296309D01*
X-662939Y287891D01*
X-668891Y281939D01*
X-677309Y281939D01*
G37*
%LPD*%
%LPC*%
G36*
X-677309Y383539D02*
X-677309Y383539D01*
X-683261Y389491D01*
X-683261Y397909D01*
X-677309Y403861D01*
X-668891Y403861D01*
X-662939Y397909D01*
X-662939Y389491D01*
X-668891Y383539D01*
X-677309Y383539D01*
G37*
%LPD*%
%LPC*%
G36*
X-436009Y396239D02*
X-436009Y396239D01*
X-441961Y402191D01*
X-441961Y410609D01*
X-436009Y416561D01*
X-427591Y416561D01*
X-421639Y410609D01*
X-421639Y402191D01*
X-427591Y396239D01*
X-436009Y396239D01*
G37*
%LPD*%
%LPC*%
G36*
X-334409Y396239D02*
X-334409Y396239D01*
X-340361Y402191D01*
X-340361Y410609D01*
X-334409Y416561D01*
X-325991Y416561D01*
X-320039Y410609D01*
X-320039Y402191D01*
X-325991Y396239D01*
X-334409Y396239D01*
G37*
%LPD*%
%LPC*%
G36*
X-664609Y78739D02*
X-664609Y78739D01*
X-670561Y84691D01*
X-670561Y93109D01*
X-664609Y99061D01*
X-656191Y99061D01*
X-650239Y93109D01*
X-650239Y84691D01*
X-656191Y78739D01*
X-664609Y78739D01*
G37*
%LPD*%
%LPC*%
G36*
X-535372Y256785D02*
X-535372Y256785D01*
X-539016Y258295D01*
X-541805Y261084D01*
X-543315Y264728D01*
X-543315Y268672D01*
X-541805Y272316D01*
X-539016Y275105D01*
X-535372Y276615D01*
X-531428Y276615D01*
X-527784Y275105D01*
X-524995Y272316D01*
X-523485Y268672D01*
X-523485Y264728D01*
X-524995Y261084D01*
X-527784Y258295D01*
X-531428Y256785D01*
X-535372Y256785D01*
G37*
%LPD*%
%LPC*%
G36*
X-446472Y104385D02*
X-446472Y104385D01*
X-450116Y105895D01*
X-452905Y108684D01*
X-454415Y112328D01*
X-454415Y116272D01*
X-452905Y119916D01*
X-450116Y122705D01*
X-446472Y124215D01*
X-442528Y124215D01*
X-438884Y122705D01*
X-436095Y119916D01*
X-434585Y116272D01*
X-434585Y112328D01*
X-436095Y108684D01*
X-438884Y105895D01*
X-442528Y104385D01*
X-446472Y104385D01*
G37*
%LPD*%
%LPC*%
G36*
X-535372Y104385D02*
X-535372Y104385D01*
X-539016Y105895D01*
X-541805Y108684D01*
X-543315Y112328D01*
X-543315Y116272D01*
X-541805Y119916D01*
X-539016Y122705D01*
X-535372Y124215D01*
X-531428Y124215D01*
X-527784Y122705D01*
X-524995Y119916D01*
X-523485Y116272D01*
X-523485Y112328D01*
X-524995Y108684D01*
X-527784Y105895D01*
X-531428Y104385D01*
X-535372Y104385D01*
G37*
%LPD*%
%LPC*%
G36*
X-535372Y205985D02*
X-535372Y205985D01*
X-539016Y207495D01*
X-541805Y210284D01*
X-543315Y213928D01*
X-543315Y217872D01*
X-541805Y221516D01*
X-539016Y224305D01*
X-535372Y225815D01*
X-531428Y225815D01*
X-527784Y224305D01*
X-524995Y221516D01*
X-523485Y217872D01*
X-523485Y213928D01*
X-524995Y210284D01*
X-527784Y207495D01*
X-531428Y205985D01*
X-535372Y205985D01*
G37*
%LPD*%
%LPC*%
G36*
X-316993Y104139D02*
X-316993Y104139D01*
X-316993Y106650D01*
X-309850Y113793D01*
X-307339Y113793D01*
X-307339Y104139D01*
X-316993Y104139D01*
G37*
%LPD*%
%LPC*%
G36*
X-200661Y459739D02*
X-200661Y459739D01*
X-200661Y469393D01*
X-198150Y469393D01*
X-191007Y462250D01*
X-191007Y459739D01*
X-200661Y459739D01*
G37*
%LPD*%
%LPC*%
G36*
X-525750Y419607D02*
X-525750Y419607D01*
X-532893Y426750D01*
X-532893Y429261D01*
X-523239Y429261D01*
X-523239Y419607D01*
X-525750Y419607D01*
G37*
%LPD*%
%LPC*%
G36*
X-259050Y419607D02*
X-259050Y419607D01*
X-266193Y426750D01*
X-266193Y429261D01*
X-256539Y429261D01*
X-256539Y419607D01*
X-259050Y419607D01*
G37*
%LPD*%
%LPC*%
G36*
X-792450Y127507D02*
X-792450Y127507D01*
X-799593Y134650D01*
X-799593Y137161D01*
X-789939Y137161D01*
X-789939Y127507D01*
X-792450Y127507D01*
G37*
%LPD*%
%LPC*%
G36*
X-792450Y419607D02*
X-792450Y419607D01*
X-799593Y426750D01*
X-799593Y429261D01*
X-789939Y429261D01*
X-789939Y419607D01*
X-792450Y419607D01*
G37*
%LPD*%
%LPC*%
G36*
X-792450Y229107D02*
X-792450Y229107D01*
X-799593Y236250D01*
X-799593Y238761D01*
X-789939Y238761D01*
X-789939Y229107D01*
X-792450Y229107D01*
G37*
%LPD*%
%LPC*%
G36*
X-302261Y459739D02*
X-302261Y459739D01*
X-302261Y469393D01*
X-299750Y469393D01*
X-292607Y462250D01*
X-292607Y459739D01*
X-302261Y459739D01*
G37*
%LPD*%
%LPC*%
G36*
X-784861Y127507D02*
X-784861Y127507D01*
X-784861Y137161D01*
X-775207Y137161D01*
X-775207Y134650D01*
X-782350Y127507D01*
X-784861Y127507D01*
G37*
%LPD*%
%LPC*%
G36*
X-784861Y419607D02*
X-784861Y419607D01*
X-784861Y429261D01*
X-775207Y429261D01*
X-775207Y426750D01*
X-782350Y419607D01*
X-784861Y419607D01*
G37*
%LPD*%
%LPC*%
G36*
X-784861Y229107D02*
X-784861Y229107D01*
X-784861Y238761D01*
X-775207Y238761D01*
X-775207Y236250D01*
X-782350Y229107D01*
X-784861Y229107D01*
G37*
%LPD*%
%LPC*%
G36*
X-518161Y419607D02*
X-518161Y419607D01*
X-518161Y429261D01*
X-508507Y429261D01*
X-508507Y426750D01*
X-515650Y419607D01*
X-518161Y419607D01*
G37*
%LPD*%
%LPC*%
G36*
X-251461Y419607D02*
X-251461Y419607D01*
X-251461Y429261D01*
X-241807Y429261D01*
X-241807Y426750D01*
X-248950Y419607D01*
X-251461Y419607D01*
G37*
%LPD*%
%LPC*%
G36*
X-302261Y445007D02*
X-302261Y445007D01*
X-302261Y454661D01*
X-292607Y454661D01*
X-292607Y452150D01*
X-299750Y445007D01*
X-302261Y445007D01*
G37*
%LPD*%
%LPC*%
G36*
X-200661Y445007D02*
X-200661Y445007D01*
X-200661Y454661D01*
X-191007Y454661D01*
X-191007Y452150D01*
X-198150Y445007D01*
X-200661Y445007D01*
G37*
%LPD*%
%LPC*%
G36*
X-315342Y230631D02*
X-315342Y230631D01*
X-315342Y232967D01*
X-309167Y239142D01*
X-306831Y239142D01*
X-306831Y230631D01*
X-315342Y230631D01*
G37*
%LPD*%
%LPC*%
G36*
X-366142Y230631D02*
X-366142Y230631D01*
X-366142Y232967D01*
X-359967Y239142D01*
X-357631Y239142D01*
X-357631Y230631D01*
X-366142Y230631D01*
G37*
%LPD*%
%LPC*%
G36*
X-366142Y268731D02*
X-366142Y268731D01*
X-366142Y271067D01*
X-359967Y277242D01*
X-357631Y277242D01*
X-357631Y268731D01*
X-366142Y268731D01*
G37*
%LPD*%
%LPC*%
G36*
X-359967Y129158D02*
X-359967Y129158D01*
X-366142Y135333D01*
X-366142Y137669D01*
X-357631Y137669D01*
X-357631Y129158D01*
X-359967Y129158D01*
G37*
%LPD*%
%LPC*%
G36*
X-359967Y256158D02*
X-359967Y256158D01*
X-366142Y262333D01*
X-366142Y264669D01*
X-357631Y264669D01*
X-357631Y256158D01*
X-359967Y256158D01*
G37*
%LPD*%
%LPC*%
G36*
X-353569Y268731D02*
X-353569Y268731D01*
X-353569Y277242D01*
X-351233Y277242D01*
X-345058Y271067D01*
X-345058Y268731D01*
X-353569Y268731D01*
G37*
%LPD*%
%LPC*%
G36*
X-353569Y230631D02*
X-353569Y230631D01*
X-353569Y239142D01*
X-351233Y239142D01*
X-345058Y232967D01*
X-345058Y230631D01*
X-353569Y230631D01*
G37*
%LPD*%
%LPC*%
G36*
X-309167Y218058D02*
X-309167Y218058D01*
X-315342Y224233D01*
X-315342Y226569D01*
X-306831Y226569D01*
X-306831Y218058D01*
X-309167Y218058D01*
G37*
%LPD*%
%LPC*%
G36*
X-359967Y218058D02*
X-359967Y218058D01*
X-366142Y224233D01*
X-366142Y226569D01*
X-357631Y226569D01*
X-357631Y218058D01*
X-359967Y218058D01*
G37*
%LPD*%
%LPC*%
G36*
X-302769Y230631D02*
X-302769Y230631D01*
X-302769Y239142D01*
X-300433Y239142D01*
X-294258Y232967D01*
X-294258Y230631D01*
X-302769Y230631D01*
G37*
%LPD*%
%LPC*%
G36*
X-302769Y218058D02*
X-302769Y218058D01*
X-302769Y226569D01*
X-294258Y226569D01*
X-294258Y224233D01*
X-300433Y218058D01*
X-302769Y218058D01*
G37*
%LPD*%
%LPC*%
G36*
X-353569Y129158D02*
X-353569Y129158D01*
X-353569Y137669D01*
X-345058Y137669D01*
X-345058Y135333D01*
X-351233Y129158D01*
X-353569Y129158D01*
G37*
%LPD*%
%LPC*%
G36*
X-353569Y218058D02*
X-353569Y218058D01*
X-353569Y226569D01*
X-345058Y226569D01*
X-345058Y224233D01*
X-351233Y218058D01*
X-353569Y218058D01*
G37*
%LPD*%
%LPC*%
G36*
X-353569Y256158D02*
X-353569Y256158D01*
X-353569Y264669D01*
X-345058Y264669D01*
X-345058Y262333D01*
X-351233Y256158D01*
X-353569Y256158D01*
G37*
%LPD*%
%LPC*%
G36*
X-391923Y40599D02*
X-391923Y40599D01*
X-391923Y42624D01*
X-385524Y49023D01*
X-383499Y49023D01*
X-383499Y40599D01*
X-391923Y40599D01*
G37*
%LPD*%
%LPC*%
G36*
X-385524Y27177D02*
X-385524Y27177D01*
X-391923Y33576D01*
X-391923Y35601D01*
X-383499Y35601D01*
X-383499Y27177D01*
X-385524Y27177D01*
G37*
%LPD*%
%LPC*%
G36*
X-403901Y40599D02*
X-403901Y40599D01*
X-403901Y49023D01*
X-401876Y49023D01*
X-395477Y42624D01*
X-395477Y40599D01*
X-403901Y40599D01*
G37*
%LPD*%
%LPC*%
G36*
X-403901Y27177D02*
X-403901Y27177D01*
X-403901Y35601D01*
X-395477Y35601D01*
X-395477Y33576D01*
X-401876Y27177D01*
X-403901Y27177D01*
G37*
%LPD*%
%LPC*%
G36*
X-593978Y344699D02*
X-593978Y344699D01*
X-593505Y346154D01*
X-592788Y347562D01*
X-591859Y348841D01*
X-590741Y349959D01*
X-589462Y350888D01*
X-588054Y351605D01*
X-586599Y352078D01*
X-586599Y344699D01*
X-593978Y344699D01*
G37*
%LPD*%
%LPC*%
G36*
X-466978Y420899D02*
X-466978Y420899D01*
X-466505Y422354D01*
X-465788Y423762D01*
X-464859Y425041D01*
X-463741Y426159D01*
X-462462Y427088D01*
X-461054Y427805D01*
X-459599Y428278D01*
X-459599Y420899D01*
X-466978Y420899D01*
G37*
%LPD*%
%LPC*%
G36*
X-461054Y409195D02*
X-461054Y409195D01*
X-462462Y409912D01*
X-463741Y410841D01*
X-464859Y411959D01*
X-465788Y413238D01*
X-466505Y414646D01*
X-466978Y416101D01*
X-459599Y416101D01*
X-459599Y408722D01*
X-461054Y409195D01*
G37*
%LPD*%
%LPC*%
G36*
X-581801Y344699D02*
X-581801Y344699D01*
X-581801Y352078D01*
X-580346Y351605D01*
X-578938Y350888D01*
X-577659Y349959D01*
X-576541Y348841D01*
X-575612Y347562D01*
X-574895Y346154D01*
X-574422Y344699D01*
X-581801Y344699D01*
G37*
%LPD*%
%LPC*%
G36*
X-588054Y332995D02*
X-588054Y332995D01*
X-589462Y333712D01*
X-590741Y334641D01*
X-591859Y335759D01*
X-592788Y337038D01*
X-593505Y338446D01*
X-593978Y339901D01*
X-586599Y339901D01*
X-586599Y332522D01*
X-588054Y332995D01*
G37*
%LPD*%
%LPC*%
G36*
X-454801Y420899D02*
X-454801Y420899D01*
X-454801Y428278D01*
X-453346Y427805D01*
X-451938Y427088D01*
X-450659Y426159D01*
X-449541Y425041D01*
X-448612Y423762D01*
X-447895Y422354D01*
X-447422Y420899D01*
X-454801Y420899D01*
G37*
%LPD*%
%LPC*%
G36*
X-454801Y416101D02*
X-454801Y416101D01*
X-447422Y416101D01*
X-447895Y414646D01*
X-448612Y413238D01*
X-449541Y411959D01*
X-450659Y410841D01*
X-451938Y409912D01*
X-453346Y409195D01*
X-454801Y408722D01*
X-454801Y416101D01*
G37*
%LPD*%
%LPC*%
G36*
X-581801Y339901D02*
X-581801Y339901D01*
X-574422Y339901D01*
X-574895Y338446D01*
X-575612Y337038D01*
X-576541Y335759D01*
X-577659Y334641D01*
X-578938Y333712D01*
X-580346Y332995D01*
X-581801Y332522D01*
X-581801Y339901D01*
G37*
%LPD*%
%LPC*%
G36*
X-797259Y91439D02*
X-797259Y91439D01*
X-796816Y92800D01*
X-796090Y94225D01*
X-795150Y95519D01*
X-794019Y96650D01*
X-792725Y97590D01*
X-791300Y98316D01*
X-789939Y98759D01*
X-789939Y91439D01*
X-797259Y91439D01*
G37*
%LPD*%
%LPC*%
G36*
X-797259Y40639D02*
X-797259Y40639D01*
X-796816Y42000D01*
X-796090Y43425D01*
X-795150Y44719D01*
X-794019Y45850D01*
X-792725Y46790D01*
X-791300Y47516D01*
X-789939Y47959D01*
X-789939Y40639D01*
X-797259Y40639D01*
G37*
%LPD*%
%LPC*%
G36*
X-797259Y66039D02*
X-797259Y66039D01*
X-796816Y67400D01*
X-796090Y68825D01*
X-795150Y70119D01*
X-794019Y71250D01*
X-792725Y72190D01*
X-791300Y72916D01*
X-789939Y73359D01*
X-789939Y66039D01*
X-797259Y66039D01*
G37*
%LPD*%
%LPC*%
G36*
X-784861Y91439D02*
X-784861Y91439D01*
X-784861Y98759D01*
X-783500Y98316D01*
X-782075Y97590D01*
X-781222Y96971D01*
X-780781Y96650D01*
X-779650Y95519D01*
X-778710Y94225D01*
X-777984Y92800D01*
X-777541Y91439D01*
X-784861Y91439D01*
G37*
%LPD*%
%LPC*%
G36*
X-784861Y40639D02*
X-784861Y40639D01*
X-784861Y47959D01*
X-783500Y47516D01*
X-782075Y46790D01*
X-780781Y45850D01*
X-779650Y44719D01*
X-778710Y43425D01*
X-777984Y42000D01*
X-777541Y40639D01*
X-784861Y40639D01*
G37*
%LPD*%
%LPC*%
G36*
X-791300Y54084D02*
X-791300Y54084D01*
X-792725Y54810D01*
X-794019Y55750D01*
X-795150Y56881D01*
X-796090Y58175D01*
X-796816Y59600D01*
X-797259Y60961D01*
X-789939Y60961D01*
X-789939Y53641D01*
X-791300Y54084D01*
G37*
%LPD*%
%LPC*%
G36*
X-784861Y66039D02*
X-784861Y66039D01*
X-784861Y73359D01*
X-783500Y72916D01*
X-782075Y72190D01*
X-780781Y71250D01*
X-779650Y70119D01*
X-778710Y68825D01*
X-777984Y67400D01*
X-777541Y66039D01*
X-784861Y66039D01*
G37*
%LPD*%
%LPC*%
G36*
X-791300Y79484D02*
X-791300Y79484D01*
X-792725Y80210D01*
X-794019Y81150D01*
X-795150Y82281D01*
X-796090Y83575D01*
X-796816Y85000D01*
X-797259Y86361D01*
X-789939Y86361D01*
X-789939Y79041D01*
X-791300Y79484D01*
G37*
%LPD*%
%LPC*%
G36*
X-791300Y28684D02*
X-791300Y28684D01*
X-792725Y29410D01*
X-794019Y30350D01*
X-795150Y31481D01*
X-796090Y32775D01*
X-796816Y34200D01*
X-797259Y35561D01*
X-789939Y35561D01*
X-789939Y28241D01*
X-791300Y28684D01*
G37*
%LPD*%
%LPC*%
G36*
X-784861Y60961D02*
X-784861Y60961D01*
X-777541Y60961D01*
X-777984Y59600D01*
X-778710Y58175D01*
X-779650Y56881D01*
X-780781Y55750D01*
X-782075Y54810D01*
X-783500Y54084D01*
X-784861Y53641D01*
X-784861Y60961D01*
G37*
%LPD*%
%LPC*%
G36*
X-784861Y86361D02*
X-784861Y86361D01*
X-777541Y86361D01*
X-777984Y85000D01*
X-778710Y83575D01*
X-779650Y82281D01*
X-780781Y81150D01*
X-782075Y80210D01*
X-783500Y79484D01*
X-784861Y79041D01*
X-784861Y86361D01*
G37*
%LPD*%
%LPC*%
G36*
X-784861Y35561D02*
X-784861Y35561D01*
X-777541Y35561D01*
X-777984Y34200D01*
X-778710Y32775D01*
X-779650Y31481D01*
X-780781Y30350D01*
X-782075Y29410D01*
X-783500Y28684D01*
X-784861Y28241D01*
X-784861Y35561D01*
G37*
%LPD*%
%LPC*%
G36*
X-757937Y344931D02*
X-757937Y344931D01*
X-757937Y346477D01*
X-752877Y351537D01*
X-751331Y351537D01*
X-751331Y344931D01*
X-757937Y344931D01*
G37*
%LPD*%
%LPC*%
G36*
X-516637Y357631D02*
X-516637Y357631D01*
X-516637Y359177D01*
X-511577Y364237D01*
X-510031Y364237D01*
X-510031Y357631D01*
X-516637Y357631D01*
G37*
%LPD*%
%LPC*%
G36*
X-757937Y395731D02*
X-757937Y395731D01*
X-757937Y397277D01*
X-752877Y402337D01*
X-751331Y402337D01*
X-751331Y395731D01*
X-757937Y395731D01*
G37*
%LPD*%
%LPC*%
G36*
X-643637Y459231D02*
X-643637Y459231D01*
X-643637Y460777D01*
X-638577Y465837D01*
X-637031Y465837D01*
X-637031Y459231D01*
X-643637Y459231D01*
G37*
%LPD*%
%LPC*%
G36*
X-719837Y90931D02*
X-719837Y90931D01*
X-719837Y92477D01*
X-714777Y97537D01*
X-713231Y97537D01*
X-713231Y90931D01*
X-719837Y90931D01*
G37*
%LPD*%
%LPC*%
G36*
X-638577Y448563D02*
X-638577Y448563D01*
X-643637Y453623D01*
X-643637Y455169D01*
X-637031Y455169D01*
X-637031Y448563D01*
X-638577Y448563D01*
G37*
%LPD*%
%LPC*%
G36*
X-632969Y459231D02*
X-632969Y459231D01*
X-632969Y465837D01*
X-631423Y465837D01*
X-626363Y460777D01*
X-626363Y459231D01*
X-632969Y459231D01*
G37*
%LPD*%
%LPC*%
G36*
X-747269Y344931D02*
X-747269Y344931D01*
X-747269Y351537D01*
X-745723Y351537D01*
X-740663Y346477D01*
X-740663Y344931D01*
X-747269Y344931D01*
G37*
%LPD*%
%LPC*%
G36*
X-747269Y395731D02*
X-747269Y395731D01*
X-747269Y402337D01*
X-745723Y402337D01*
X-740663Y397277D01*
X-740663Y395731D01*
X-747269Y395731D01*
G37*
%LPD*%
%LPC*%
G36*
X-511577Y346963D02*
X-511577Y346963D01*
X-516637Y352023D01*
X-516637Y353569D01*
X-510031Y353569D01*
X-510031Y346963D01*
X-511577Y346963D01*
G37*
%LPD*%
%LPC*%
G36*
X-505969Y357631D02*
X-505969Y357631D01*
X-505969Y364237D01*
X-504423Y364237D01*
X-499363Y359177D01*
X-499363Y357631D01*
X-505969Y357631D01*
G37*
%LPD*%
%LPC*%
G36*
X-752877Y385063D02*
X-752877Y385063D01*
X-757937Y390123D01*
X-757937Y391669D01*
X-751331Y391669D01*
X-751331Y385063D01*
X-752877Y385063D01*
G37*
%LPD*%
%LPC*%
G36*
X-714777Y80263D02*
X-714777Y80263D01*
X-719837Y85323D01*
X-719837Y86869D01*
X-713231Y86869D01*
X-713231Y80263D01*
X-714777Y80263D01*
G37*
%LPD*%
%LPC*%
G36*
X-709169Y90931D02*
X-709169Y90931D01*
X-709169Y97537D01*
X-707623Y97537D01*
X-702563Y92477D01*
X-702563Y90931D01*
X-709169Y90931D01*
G37*
%LPD*%
%LPC*%
G36*
X-752877Y334263D02*
X-752877Y334263D01*
X-757937Y339323D01*
X-757937Y340869D01*
X-751331Y340869D01*
X-751331Y334263D01*
X-752877Y334263D01*
G37*
%LPD*%
%LPC*%
G36*
X-747269Y334263D02*
X-747269Y334263D01*
X-747269Y340869D01*
X-740663Y340869D01*
X-740663Y339323D01*
X-745723Y334263D01*
X-747269Y334263D01*
G37*
%LPD*%
%LPC*%
G36*
X-505969Y346963D02*
X-505969Y346963D01*
X-505969Y353569D01*
X-499363Y353569D01*
X-499363Y352023D01*
X-504423Y346963D01*
X-505969Y346963D01*
G37*
%LPD*%
%LPC*%
G36*
X-747269Y385063D02*
X-747269Y385063D01*
X-747269Y391669D01*
X-740663Y391669D01*
X-740663Y390123D01*
X-745723Y385063D01*
X-747269Y385063D01*
G37*
%LPD*%
%LPC*%
G36*
X-709169Y80263D02*
X-709169Y80263D01*
X-709169Y86869D01*
X-702563Y86869D01*
X-702563Y85323D01*
X-707623Y80263D01*
X-709169Y80263D01*
G37*
%LPD*%
%LPC*%
G36*
X-632969Y448563D02*
X-632969Y448563D01*
X-632969Y455169D01*
X-626363Y455169D01*
X-626363Y453623D01*
X-631423Y448563D01*
X-632969Y448563D01*
G37*
%LPD*%
%LPC*%
G36*
X-787401Y63499D02*
X-787401Y63499D01*
X-787401Y63501D01*
X-787399Y63501D01*
X-787399Y63499D01*
X-787401Y63499D01*
G37*
%LPD*%
%LPC*%
G36*
X-787401Y88899D02*
X-787401Y88899D01*
X-787401Y88901D01*
X-787399Y88901D01*
X-787399Y88899D01*
X-787401Y88899D01*
G37*
%LPD*%
%LPC*%
G36*
X-787401Y38099D02*
X-787401Y38099D01*
X-787401Y38101D01*
X-787399Y38101D01*
X-787399Y38099D01*
X-787401Y38099D01*
G37*
%LPD*%
D10*
X-787400Y165100D03*
X-787400Y139700D03*
X-787400Y190500D03*
X-787400Y457200D03*
X-787400Y431800D03*
X-787400Y482600D03*
X-254000Y457200D03*
X-254000Y431800D03*
X-520700Y457200D03*
X-520700Y431800D03*
D11*
X-355600Y177800D03*
X-355600Y228600D03*
X-304800Y177800D03*
X-304800Y228600D03*
D12*
X-355600Y317500D03*
X-355600Y266700D03*
D11*
X-355600Y88900D03*
X-355600Y139700D03*
D10*
X-393700Y457200D03*
D13*
X-787400Y38100D03*
X-787400Y63500D03*
X-787400Y88900D03*
D10*
X-228600Y457200D03*
D14*
X-622300Y241900D03*
X-622300Y215900D03*
X-622300Y189900D03*
X-584200Y342300D03*
X-584200Y368300D03*
X-584200Y394300D03*
D15*
X-749300Y292100D03*
X-673100Y292100D03*
X-749300Y342900D03*
X-673100Y342900D03*
X-749300Y393700D03*
X-673100Y393700D03*
D16*
X-241300Y355600D03*
D17*
X-241300Y330200D03*
X-241300Y304800D03*
D18*
X-241300Y228600D03*
D19*
X-241300Y203250D03*
X-241300Y177900D03*
D20*
X-533400Y114300D03*
X-533400Y165100D03*
X-533400Y215900D03*
X-533400Y266700D03*
X-444500Y114300D03*
X-444500Y165100D03*
X-444500Y215900D03*
X-444500Y266700D03*
D10*
X-787400Y355600D03*
X-787400Y381000D03*
X-279400Y101600D03*
X-304800Y101600D03*
D21*
X-279400Y520700D03*
X-304800Y38100D03*
X-254000Y520700D03*
X-228600Y520700D03*
X-203200Y520700D03*
X-177800Y520700D03*
X-304800Y520700D03*
X-330200Y520700D03*
X-355600Y520700D03*
X-396240Y520700D03*
X-421640Y520700D03*
X-447040Y520700D03*
X-472440Y520700D03*
X-497840Y520700D03*
X-523240Y520700D03*
X-548640Y520700D03*
X-574040Y520700D03*
X-279400Y38100D03*
X-254000Y38100D03*
X-228600Y38100D03*
X-203200Y38100D03*
X-177800Y38100D03*
X-355600Y38100D03*
X-381000Y38100D03*
X-406400Y38100D03*
X-431800Y38100D03*
X-457200Y38100D03*
X-482600Y38100D03*
X-599440Y520700D03*
X-624840Y520700D03*
X-508000Y38100D03*
X-533400Y38100D03*
D10*
X-787400Y266700D03*
X-330200Y457200D03*
X-787400Y241300D03*
X-304800Y76200D03*
D22*
X-635000Y406400D03*
X-635000Y457200D03*
D15*
X-508000Y355600D03*
X-406400Y355600D03*
X-431800Y406400D03*
X-330200Y406400D03*
D23*
X-660400Y88900D03*
X-711200Y88900D03*
D14*
X-457200Y418500D03*
X-457200Y444500D03*
X-457200Y470500D03*
D10*
X-304800Y457200D03*
X-203200Y457200D03*
X-723900Y38100D03*
D24*
X-228600Y419100D02*
X-228600Y457200D01*
X-355600Y355600D02*
X-444500Y266700D01*
X-292100Y355600D02*
X-228600Y419100D01*
X-292100Y355600D02*
X-355600Y355600D01*
X-406400Y355600D01*
X-355600Y88900D02*
X-622300Y88900D01*
X-723300Y189900D01*
X-723900Y190500D02*
X-762000Y228600D01*
X-762000Y279400D01*
X-774700Y292100D01*
X-774700Y342900D01*
X-762000Y355600D01*
X-787400Y381000D01*
X-469900Y139700D02*
X-444500Y165100D01*
X-572100Y139700D02*
X-622300Y189900D01*
X-572100Y139700D02*
X-469900Y139700D01*
X-622300Y189900D02*
X-723300Y189900D01*
X-723900Y190500D01*
X-558800Y330200D02*
X-444500Y215900D01*
X-558800Y330200D02*
X-558800Y381000D01*
X-572100Y394300D01*
X-584200Y394300D01*
X-622300Y342900D02*
X-622300Y241900D01*
D25*
X-622300Y342900D03*
D24*
X-660400Y254000D02*
X-622300Y215900D01*
X-660400Y254000D02*
X-723900Y254000D01*
X-749300Y279400D01*
X-749300Y292100D01*
X-533400Y165100D02*
X-508000Y190500D01*
X-393700Y190500D01*
D25*
X-393700Y190500D03*
D24*
X-279400Y114300D02*
X-279400Y101600D01*
X-317500Y152400D02*
X-381000Y152400D01*
D25*
X-381000Y152400D03*
D24*
X-317500Y152400D02*
X-279400Y114300D01*
M02*
