G04 EAGLE Gerber RS-274X export*
G75*
%MOMM*%
%FSLAX34Y34*%
%LPD*%
%INSoldermask Bottom*%
%IPPOS*%
%AMOC8*
5,1,8,0,0,1.08239X$1,22.5*%
G01*
%ADD10C,3.937000*%
%ADD11P,2.226909X8X22.500000*%
%ADD12P,1.869504X8X112.500000*%
%ADD13P,1.869504X8X292.500000*%
%ADD14C,1.651000*%
%ADD15C,1.627000*%
%ADD16P,1.457113X8X22.500000*%
%ADD17R,2.062000X2.062000*%
%ADD18C,2.062000*%
%ADD19R,2.182000X2.182000*%
%ADD20C,2.182000*%
%ADD21C,1.297000*%
%ADD22P,1.951982X8X22.500000*%
%ADD23P,1.457113X8X112.500000*%
%ADD24P,1.457113X8X202.500000*%
%ADD25C,0.652000*%


D10*
X-660400Y520700D03*
X-152400Y368300D03*
X-152400Y88900D03*
X-673100Y38100D03*
D11*
X-787400Y165100D03*
X-787400Y139700D03*
X-787400Y190500D03*
X-787400Y457200D03*
X-787400Y431800D03*
X-787400Y482600D03*
X-254000Y457200D03*
X-254000Y431800D03*
X-520700Y457200D03*
X-520700Y431800D03*
D12*
X-355600Y177800D03*
X-355600Y228600D03*
X-304800Y177800D03*
X-304800Y228600D03*
D13*
X-355600Y317500D03*
X-355600Y266700D03*
D12*
X-355600Y88900D03*
X-355600Y139700D03*
D11*
X-393700Y457200D03*
D14*
X-787400Y38100D03*
X-787400Y63500D03*
X-787400Y88900D03*
D11*
X-228600Y457200D03*
D15*
X-622300Y241900D03*
X-622300Y215900D03*
X-622300Y189900D03*
X-584200Y342300D03*
X-584200Y368300D03*
X-584200Y394300D03*
D16*
X-749300Y292100D03*
X-673100Y292100D03*
X-749300Y342900D03*
X-673100Y342900D03*
X-749300Y393700D03*
X-673100Y393700D03*
D17*
X-241300Y355600D03*
D18*
X-241300Y330200D03*
X-241300Y304800D03*
D19*
X-241300Y228600D03*
D20*
X-241300Y203250D03*
X-241300Y177900D03*
D21*
X-533400Y114300D03*
X-533400Y165100D03*
X-533400Y215900D03*
X-533400Y266700D03*
X-444500Y114300D03*
X-444500Y165100D03*
X-444500Y215900D03*
X-444500Y266700D03*
D11*
X-787400Y355600D03*
X-787400Y381000D03*
X-279400Y101600D03*
X-304800Y101600D03*
D22*
X-279400Y520700D03*
X-304800Y38100D03*
X-254000Y520700D03*
X-228600Y520700D03*
X-203200Y520700D03*
X-177800Y520700D03*
X-304800Y520700D03*
X-330200Y520700D03*
X-355600Y520700D03*
X-396240Y520700D03*
X-421640Y520700D03*
X-447040Y520700D03*
X-472440Y520700D03*
X-497840Y520700D03*
X-523240Y520700D03*
X-548640Y520700D03*
X-574040Y520700D03*
X-279400Y38100D03*
X-254000Y38100D03*
X-228600Y38100D03*
X-203200Y38100D03*
X-177800Y38100D03*
X-355600Y38100D03*
X-381000Y38100D03*
X-406400Y38100D03*
X-431800Y38100D03*
X-457200Y38100D03*
X-482600Y38100D03*
X-599440Y520700D03*
X-624840Y520700D03*
X-508000Y38100D03*
X-533400Y38100D03*
D11*
X-787400Y266700D03*
X-330200Y457200D03*
X-787400Y241300D03*
X-304800Y76200D03*
D23*
X-635000Y406400D03*
X-635000Y457200D03*
D16*
X-508000Y355600D03*
X-406400Y355600D03*
X-431800Y406400D03*
X-330200Y406400D03*
D24*
X-660400Y88900D03*
X-711200Y88900D03*
D15*
X-457200Y418500D03*
X-457200Y444500D03*
X-457200Y470500D03*
D11*
X-304800Y457200D03*
X-203200Y457200D03*
X-723900Y38100D03*
D25*
X-622300Y342900D03*
X-393700Y190500D03*
X-381000Y152400D03*
M02*
