M48
;GenerationSoftware,Autodesk,EAGLE,9.4.2*%
;CreationDate,2019-08-14T14:31:52Z*%
FMAT,2
ICI,OFF
METRIC,TZ,000.000
T9C0.350
T8C0.770
T7C0.813
T6C0.960
T5C1.000
T4C1.016
T3C1.290
T2C1.370
T1C3.810
%
G90
M71
T1
X-15240Y36830
X-15240Y8890
X-67310Y3810
X-66040Y52070
T2
X-24130Y22860
X-24130Y20325
X-24130Y17790
T3
X-24130Y35560
X-24130Y33020
X-24130Y30480
T4
X-78740Y45720
X-78740Y43180
X-78740Y48260
X-78740Y3810
X-25400Y43180
X-52070Y45720
X-52070Y43180
X-20320Y45720
X-30480Y45720
X-30480Y7620
X-78740Y24130
X-25400Y45720
X-78740Y38100
X-78740Y35560
X-78740Y16510
X-39370Y45720
X-78740Y13970
X-78740Y6350
X-78740Y8890
X-22860Y45720
X-78740Y19050
X-33020Y45720
X-78740Y26670
X-72390Y3810
X-30480Y10160
X-27940Y10160
T5
X-49784Y52070
X-52324Y52070
X-54864Y52070
X-57404Y52070
X-27940Y3810
X-25400Y3810
X-22860Y3810
X-20320Y3810
X-17780Y3810
X-35560Y3810
X-40640Y3810
X-43180Y3810
X-45720Y3810
X-48260Y3810
X-59944Y52070
X-62484Y52070
X-50800Y3810
X-53340Y3810
X-38100Y3810
X-35560Y52070
X-27940Y52070
X-30480Y3810
X-25400Y52070
X-22860Y52070
X-20320Y52070
X-17780Y52070
X-30480Y52070
X-33020Y52070
X-39624Y52070
X-42164Y52070
X-44704Y52070
X-47244Y52070
T6
X-45720Y41850
X-45720Y47050
X-62230Y24190
X-62230Y21590
X-62230Y18990
X-58420Y34230
X-58420Y36830
X-58420Y39430
X-45720Y44450
T7
X-30480Y22860
X-63500Y40640
X-35560Y17780
X-35560Y22860
X-30480Y17780
X-67310Y39370
X-35560Y31750
X-35560Y26670
X-35560Y8890
X-35560Y13970
X-74930Y29210
X-67310Y29210
X-40640Y35560
X-74930Y39370
X-63500Y45720
X-50800Y35560
X-43180Y40640
X-33020Y40640
X-66040Y8890
X-71120Y8890
X-67310Y34290
X-74930Y34290
T8
X-53340Y11430
X-53340Y21590
X-44450Y26670
X-44450Y16510
X-44450Y11430
X-44450Y21590
X-53340Y16510
X-53340Y26670
T9
X-38100Y15240
X-39370Y19050
X-62230Y34290
M30