M48
;GenerationSoftware,Autodesk,EAGLE,9.4.2*%
;CreationDate,2019-09-11T13:25:42Z*%
FMAT,2
ICI,OFF
METRIC,TZ,000.000
T8C0.350
T7C0.813
T6C1.000
T5C1.016
T4C1.118
T3C1.280
T2C1.321
T1C3.810
%
G90
M71
T1
X-66040Y52070
X-15240Y36830
X-15240Y8890
X-67310Y3810
T2
X-33020Y46990
X-21590Y46990
X-39370Y46990
X-35560Y46990
T3
X-57150Y13970
X-57150Y11430
X-57150Y29210
X-57150Y26670
X-57150Y24130
X-57150Y16510
T4
X-40640Y21590
X-50800Y16510
X-50800Y21590
X-40640Y16510
T5
X-73660Y6350
X-52070Y44450
X-78740Y16510
X-76200Y52070
X-73660Y52070
X-71120Y52070
X-78740Y21590
X-78740Y19050
X-78740Y6350
X-78740Y8890
X-25400Y46990
X-27940Y46990
X-52070Y46990
X-30480Y11430
X-27940Y11430
X-78740Y11430
X-30480Y8890
X-78740Y29210
X-78740Y26670
X-78740Y35560
X-78740Y33020
X-78740Y40640
X-78740Y43180
X-33020Y44450
X-35560Y44450
X-21590Y44450
T6
X-26670Y27940
X-49784Y52070
X-59944Y52070
X-62484Y52070
X-40640Y3810
X-50800Y3810
X-53340Y3810
X-27940Y52070
X-30480Y3810
X-25400Y52070
X-22860Y52070
X-20320Y52070
X-17780Y52070
X-30480Y52070
X-33020Y52070
X-35560Y52070
X-39624Y52070
X-42164Y52070
X-44704Y52070
X-47244Y52070
X-52324Y52070
X-57404Y52070
X-27940Y3810
X-25400Y3810
X-22860Y3810
X-54864Y52070
X-20320Y3810
X-17780Y3810
X-35560Y3810
X-38100Y3810
X-48260Y3810
X-43180Y3810
X-45720Y3810
X-26670Y33020
X-26670Y30480
T7
X-66040Y44450
X-43180Y10160
X-48260Y10160
X-34290Y38100
X-34290Y35560
X-33655Y29337
X-33655Y26797
X-62230Y8890
X-62230Y16510
X-66040Y16510
X-59690Y38100
X-41910Y33020
X-41910Y25400
X-50800Y36830
X-49530Y34925
X-48260Y36830
X-43180Y39370
X-66040Y8890
X-45085Y38100
X-43180Y36830
X-35560Y21590
X-35560Y16510
X-67310Y34290
X-59690Y34290
X-46990Y25400
X-46990Y33020
X-59690Y45720
X-66040Y39370
X-62230Y26670
X-62230Y19050
X-66040Y19050
X-66040Y26670
T8
X-43180Y27940
X-36830Y12700
X-36830Y10160
X-72390Y31750
X-72390Y25400
M30