G04 EAGLE Gerber RS-274X export*
G75*
%MOMM*%
%FSLAX34Y34*%
%LPD*%
%INBottom Copper*%
%IPPOS*%
%AMOC8*
5,1,8,0,0,1.08239X$1,22.5*%
G01*
%ADD10P,1.319650X8X22.500000*%
%ADD11P,1.319650X8X112.500000*%
%ADD12P,1.319650X8X292.500000*%
%ADD13P,1.814519X8X22.500000*%
%ADD14P,1.319650X8X202.500000*%
%ADD15C,1.219200*%
%ADD16C,1.676400*%
%ADD17P,2.336880X8X22.500000*%
%ADD18P,1.732040X8X22.500000*%
%ADD19R,1.920000X1.920000*%
%ADD20C,1.920000*%
%ADD21P,2.089446X8X22.500000*%
%ADD22C,1.524000*%
%ADD23C,0.304800*%
%ADD24C,0.406400*%
%ADD25C,0.203200*%
%ADD26C,0.525000*%

G36*
X-679386Y14738D02*
X-679386Y14738D01*
X-679336Y14736D01*
X-679213Y14758D01*
X-679090Y14773D01*
X-679043Y14790D01*
X-678993Y14799D01*
X-678879Y14848D01*
X-678762Y14890D01*
X-678719Y14917D01*
X-678673Y14937D01*
X-678573Y15012D01*
X-678469Y15079D01*
X-678434Y15115D01*
X-678394Y15145D01*
X-678313Y15240D01*
X-678227Y15330D01*
X-678201Y15373D01*
X-678168Y15411D01*
X-678112Y15522D01*
X-678048Y15629D01*
X-678033Y15677D01*
X-678010Y15722D01*
X-677980Y15842D01*
X-677942Y15961D01*
X-677938Y16011D01*
X-677926Y16060D01*
X-677924Y16184D01*
X-677914Y16308D01*
X-677921Y16358D01*
X-677920Y16408D01*
X-677947Y16530D01*
X-677965Y16653D01*
X-677984Y16700D01*
X-677995Y16749D01*
X-678048Y16861D01*
X-678094Y16977D01*
X-678123Y17018D01*
X-678145Y17064D01*
X-678222Y17161D01*
X-678293Y17263D01*
X-678330Y17297D01*
X-678362Y17336D01*
X-678460Y17413D01*
X-678552Y17496D01*
X-678596Y17521D01*
X-678635Y17552D01*
X-678853Y17663D01*
X-685042Y20227D01*
X-690973Y26158D01*
X-694183Y33906D01*
X-694183Y42294D01*
X-690973Y50042D01*
X-685042Y55973D01*
X-681919Y57267D01*
X-681875Y57291D01*
X-681828Y57308D01*
X-681723Y57376D01*
X-681615Y57436D01*
X-681577Y57470D01*
X-681535Y57497D01*
X-681449Y57587D01*
X-681356Y57670D01*
X-681328Y57712D01*
X-681293Y57748D01*
X-681229Y57855D01*
X-681158Y57957D01*
X-681140Y58004D01*
X-681114Y58047D01*
X-681076Y58165D01*
X-681030Y58281D01*
X-681023Y58331D01*
X-681008Y58379D01*
X-680998Y58502D01*
X-680980Y58626D01*
X-680984Y58676D01*
X-680980Y58726D01*
X-680998Y58849D01*
X-681009Y58973D01*
X-681024Y59021D01*
X-681031Y59071D01*
X-681077Y59186D01*
X-681116Y59305D01*
X-681142Y59348D01*
X-681160Y59395D01*
X-681231Y59497D01*
X-681295Y59603D01*
X-681330Y59640D01*
X-681359Y59681D01*
X-681451Y59764D01*
X-681538Y59853D01*
X-681581Y59881D01*
X-681618Y59914D01*
X-681727Y59974D01*
X-681831Y60042D01*
X-681879Y60059D01*
X-681923Y60083D01*
X-682043Y60117D01*
X-682160Y60158D01*
X-682210Y60164D01*
X-682258Y60178D01*
X-682502Y60197D01*
X-724154Y60197D01*
X-724180Y60194D01*
X-724206Y60196D01*
X-724353Y60174D01*
X-724500Y60157D01*
X-724525Y60149D01*
X-724551Y60145D01*
X-724689Y60090D01*
X-724828Y60040D01*
X-724850Y60026D01*
X-724875Y60016D01*
X-724996Y59931D01*
X-725121Y59851D01*
X-725139Y59832D01*
X-725161Y59817D01*
X-725260Y59707D01*
X-725363Y59600D01*
X-725377Y59578D01*
X-725394Y59558D01*
X-725466Y59428D01*
X-725542Y59301D01*
X-725550Y59276D01*
X-725563Y59253D01*
X-725603Y59110D01*
X-725632Y59021D01*
X-732076Y52577D01*
X-741124Y52577D01*
X-747523Y58976D01*
X-747523Y68024D01*
X-741124Y74423D01*
X-732076Y74423D01*
X-725638Y67985D01*
X-725637Y67980D01*
X-725629Y67955D01*
X-725625Y67929D01*
X-725570Y67791D01*
X-725520Y67652D01*
X-725506Y67630D01*
X-725496Y67605D01*
X-725411Y67484D01*
X-725331Y67359D01*
X-725312Y67341D01*
X-725297Y67319D01*
X-725187Y67220D01*
X-725080Y67117D01*
X-725058Y67103D01*
X-725038Y67086D01*
X-724908Y67014D01*
X-724781Y66938D01*
X-724756Y66930D01*
X-724733Y66917D01*
X-724590Y66877D01*
X-724449Y66832D01*
X-724423Y66830D01*
X-724398Y66822D01*
X-724154Y66803D01*
X-459199Y66803D01*
X-459073Y66817D01*
X-458947Y66824D01*
X-458901Y66837D01*
X-458853Y66843D01*
X-458734Y66885D01*
X-458612Y66920D01*
X-458570Y66944D01*
X-458525Y66960D01*
X-458418Y67029D01*
X-458308Y67090D01*
X-458262Y67130D01*
X-458232Y67149D01*
X-458198Y67184D01*
X-458122Y67249D01*
X-435549Y89822D01*
X-435486Y89901D01*
X-435420Y89969D01*
X-435408Y89990D01*
X-435386Y90015D01*
X-435362Y90057D01*
X-435332Y90095D01*
X-435284Y90198D01*
X-435242Y90268D01*
X-435236Y90286D01*
X-435217Y90320D01*
X-435204Y90366D01*
X-435183Y90410D01*
X-435157Y90532D01*
X-435135Y90600D01*
X-435134Y90613D01*
X-435122Y90655D01*
X-435117Y90716D01*
X-435110Y90751D01*
X-435111Y90799D01*
X-435103Y90899D01*
X-435103Y93854D01*
X-435117Y93979D01*
X-435124Y94105D01*
X-435137Y94152D01*
X-435143Y94200D01*
X-435185Y94319D01*
X-435220Y94440D01*
X-435244Y94483D01*
X-435260Y94528D01*
X-435329Y94634D01*
X-435390Y94745D01*
X-435430Y94791D01*
X-435449Y94821D01*
X-435484Y94854D01*
X-435549Y94931D01*
X-439167Y98549D01*
X-439167Y104651D01*
X-434851Y108967D01*
X-428749Y108967D01*
X-424433Y104651D01*
X-424433Y98549D01*
X-428051Y94931D01*
X-428130Y94832D01*
X-428214Y94738D01*
X-428238Y94696D01*
X-428268Y94658D01*
X-428322Y94544D01*
X-428383Y94433D01*
X-428396Y94386D01*
X-428417Y94343D01*
X-428443Y94219D01*
X-428478Y94097D01*
X-428483Y94037D01*
X-428490Y94002D01*
X-428489Y93954D01*
X-428497Y93854D01*
X-428497Y87532D01*
X-451452Y64577D01*
X-451468Y64557D01*
X-451488Y64540D01*
X-451577Y64420D01*
X-451669Y64304D01*
X-451680Y64280D01*
X-451696Y64259D01*
X-451754Y64123D01*
X-451818Y63989D01*
X-451823Y63963D01*
X-451834Y63939D01*
X-451860Y63793D01*
X-451891Y63648D01*
X-451891Y63622D01*
X-451895Y63596D01*
X-451888Y63448D01*
X-451885Y63300D01*
X-451879Y63274D01*
X-451877Y63248D01*
X-451836Y63106D01*
X-451800Y62962D01*
X-451788Y62938D01*
X-451781Y62913D01*
X-451708Y62784D01*
X-451640Y62652D01*
X-451623Y62632D01*
X-451611Y62609D01*
X-451507Y62487D01*
X-451495Y62470D01*
X-451483Y62459D01*
X-451452Y62423D01*
X-437228Y48199D01*
X-437129Y48120D01*
X-437035Y48036D01*
X-436993Y48012D01*
X-436955Y47982D01*
X-436841Y47928D01*
X-436730Y47867D01*
X-436684Y47854D01*
X-436640Y47833D01*
X-436517Y47807D01*
X-436395Y47772D01*
X-436334Y47767D01*
X-436299Y47760D01*
X-436251Y47761D01*
X-436151Y47753D01*
X-427802Y47753D01*
X-422147Y42098D01*
X-422147Y34102D01*
X-427802Y28447D01*
X-435798Y28447D01*
X-441453Y34102D01*
X-441453Y42451D01*
X-441467Y42577D01*
X-441474Y42703D01*
X-441487Y42749D01*
X-441493Y42797D01*
X-441535Y42916D01*
X-441570Y43038D01*
X-441594Y43080D01*
X-441610Y43125D01*
X-441679Y43232D01*
X-441740Y43342D01*
X-441780Y43388D01*
X-441799Y43418D01*
X-441834Y43452D01*
X-441899Y43528D01*
X-458122Y59751D01*
X-458221Y59830D01*
X-458315Y59914D01*
X-458357Y59938D01*
X-458395Y59968D01*
X-458509Y60022D01*
X-458620Y60083D01*
X-458666Y60096D01*
X-458710Y60117D01*
X-458833Y60143D01*
X-458955Y60178D01*
X-459016Y60183D01*
X-459051Y60190D01*
X-459099Y60189D01*
X-459199Y60197D01*
X-663698Y60197D01*
X-663748Y60192D01*
X-663798Y60194D01*
X-663921Y60172D01*
X-664044Y60157D01*
X-664091Y60140D01*
X-664141Y60131D01*
X-664255Y60082D01*
X-664372Y60040D01*
X-664414Y60013D01*
X-664461Y59993D01*
X-664561Y59918D01*
X-664665Y59851D01*
X-664700Y59815D01*
X-664740Y59785D01*
X-664821Y59690D01*
X-664907Y59600D01*
X-664933Y59557D01*
X-664966Y59519D01*
X-665022Y59408D01*
X-665086Y59301D01*
X-665101Y59253D01*
X-665124Y59208D01*
X-665154Y59088D01*
X-665192Y58969D01*
X-665196Y58919D01*
X-665208Y58870D01*
X-665210Y58746D01*
X-665220Y58622D01*
X-665213Y58572D01*
X-665213Y58522D01*
X-665187Y58400D01*
X-665169Y58277D01*
X-665150Y58230D01*
X-665139Y58181D01*
X-665086Y58069D01*
X-665040Y57953D01*
X-665011Y57912D01*
X-664989Y57866D01*
X-664912Y57769D01*
X-664841Y57667D01*
X-664804Y57633D01*
X-664772Y57594D01*
X-664674Y57517D01*
X-664582Y57434D01*
X-664538Y57409D01*
X-664498Y57378D01*
X-664281Y57267D01*
X-661158Y55973D01*
X-655227Y50042D01*
X-652017Y42294D01*
X-652017Y33906D01*
X-655227Y26158D01*
X-661158Y20227D01*
X-667347Y17663D01*
X-667391Y17639D01*
X-667438Y17622D01*
X-667543Y17554D01*
X-667651Y17494D01*
X-667689Y17460D01*
X-667731Y17433D01*
X-667817Y17343D01*
X-667910Y17260D01*
X-667938Y17218D01*
X-667973Y17182D01*
X-668037Y17075D01*
X-668108Y16973D01*
X-668126Y16926D01*
X-668152Y16883D01*
X-668190Y16765D01*
X-668236Y16649D01*
X-668243Y16599D01*
X-668258Y16551D01*
X-668268Y16427D01*
X-668286Y16304D01*
X-668282Y16254D01*
X-668286Y16204D01*
X-668268Y16081D01*
X-668258Y15957D01*
X-668242Y15909D01*
X-668235Y15859D01*
X-668189Y15744D01*
X-668150Y15625D01*
X-668124Y15582D01*
X-668106Y15535D01*
X-668035Y15433D01*
X-667971Y15327D01*
X-667936Y15290D01*
X-667907Y15249D01*
X-667815Y15166D01*
X-667728Y15077D01*
X-667686Y15049D01*
X-667648Y15016D01*
X-667539Y14956D01*
X-667435Y14888D01*
X-667387Y14871D01*
X-667343Y14847D01*
X-667223Y14813D01*
X-667106Y14772D01*
X-667056Y14766D01*
X-667008Y14752D01*
X-666764Y14733D01*
X-155956Y14733D01*
X-155930Y14736D01*
X-155904Y14734D01*
X-155757Y14756D01*
X-155610Y14773D01*
X-155585Y14781D01*
X-155559Y14785D01*
X-155421Y14840D01*
X-155282Y14890D01*
X-155260Y14904D01*
X-155235Y14914D01*
X-155114Y14999D01*
X-154989Y15079D01*
X-154971Y15098D01*
X-154949Y15113D01*
X-154850Y15223D01*
X-154747Y15330D01*
X-154733Y15352D01*
X-154716Y15372D01*
X-154644Y15502D01*
X-154568Y15629D01*
X-154560Y15654D01*
X-154547Y15677D01*
X-154507Y15820D01*
X-154462Y15961D01*
X-154460Y15987D01*
X-154452Y16012D01*
X-154433Y16256D01*
X-154433Y38942D01*
X-129479Y63896D01*
X-129400Y63995D01*
X-129316Y64089D01*
X-129292Y64131D01*
X-129262Y64169D01*
X-129208Y64283D01*
X-129147Y64394D01*
X-129134Y64440D01*
X-129113Y64484D01*
X-129087Y64607D01*
X-129052Y64729D01*
X-129047Y64790D01*
X-129040Y64825D01*
X-129041Y64873D01*
X-129033Y64973D01*
X-129033Y82564D01*
X-129038Y82614D01*
X-129036Y82664D01*
X-129058Y82787D01*
X-129073Y82910D01*
X-129090Y82957D01*
X-129099Y83007D01*
X-129148Y83121D01*
X-129190Y83238D01*
X-129217Y83281D01*
X-129237Y83327D01*
X-129312Y83427D01*
X-129379Y83531D01*
X-129415Y83566D01*
X-129445Y83606D01*
X-129540Y83687D01*
X-129630Y83773D01*
X-129673Y83799D01*
X-129711Y83832D01*
X-129822Y83888D01*
X-129929Y83952D01*
X-129977Y83967D01*
X-130022Y83990D01*
X-130142Y84020D01*
X-130261Y84058D01*
X-130311Y84062D01*
X-130360Y84074D01*
X-130484Y84076D01*
X-130608Y84086D01*
X-130658Y84079D01*
X-130708Y84080D01*
X-130830Y84053D01*
X-130953Y84035D01*
X-131000Y84016D01*
X-131049Y84005D01*
X-131161Y83952D01*
X-131277Y83906D01*
X-131318Y83877D01*
X-131364Y83855D01*
X-131461Y83778D01*
X-131563Y83707D01*
X-131597Y83670D01*
X-131636Y83638D01*
X-131713Y83540D01*
X-131796Y83448D01*
X-131821Y83404D01*
X-131852Y83365D01*
X-131963Y83147D01*
X-134527Y76958D01*
X-140458Y71027D01*
X-148206Y67817D01*
X-156594Y67817D01*
X-164342Y71027D01*
X-170273Y76958D01*
X-173483Y84706D01*
X-173483Y93094D01*
X-170273Y100842D01*
X-164342Y106773D01*
X-156594Y109983D01*
X-148206Y109983D01*
X-140458Y106773D01*
X-134527Y100842D01*
X-131963Y94653D01*
X-131939Y94609D01*
X-131922Y94562D01*
X-131854Y94457D01*
X-131794Y94349D01*
X-131760Y94311D01*
X-131733Y94269D01*
X-131643Y94183D01*
X-131560Y94090D01*
X-131518Y94062D01*
X-131482Y94027D01*
X-131375Y93963D01*
X-131273Y93892D01*
X-131226Y93874D01*
X-131183Y93848D01*
X-131065Y93810D01*
X-130949Y93764D01*
X-130899Y93757D01*
X-130851Y93742D01*
X-130727Y93732D01*
X-130604Y93714D01*
X-130554Y93718D01*
X-130504Y93714D01*
X-130381Y93732D01*
X-130257Y93742D01*
X-130209Y93758D01*
X-130159Y93765D01*
X-130044Y93811D01*
X-129925Y93850D01*
X-129882Y93876D01*
X-129835Y93894D01*
X-129733Y93965D01*
X-129627Y94029D01*
X-129590Y94064D01*
X-129549Y94093D01*
X-129466Y94185D01*
X-129377Y94272D01*
X-129349Y94314D01*
X-129316Y94352D01*
X-129256Y94461D01*
X-129188Y94565D01*
X-129171Y94613D01*
X-129147Y94657D01*
X-129113Y94777D01*
X-129072Y94894D01*
X-129066Y94944D01*
X-129052Y94992D01*
X-129033Y95236D01*
X-129033Y361964D01*
X-129038Y362014D01*
X-129036Y362064D01*
X-129058Y362187D01*
X-129073Y362310D01*
X-129090Y362357D01*
X-129099Y362407D01*
X-129148Y362521D01*
X-129190Y362638D01*
X-129217Y362681D01*
X-129237Y362727D01*
X-129312Y362827D01*
X-129379Y362931D01*
X-129415Y362966D01*
X-129445Y363006D01*
X-129540Y363087D01*
X-129630Y363173D01*
X-129673Y363199D01*
X-129711Y363232D01*
X-129822Y363288D01*
X-129929Y363352D01*
X-129977Y363367D01*
X-130022Y363390D01*
X-130142Y363420D01*
X-130261Y363458D01*
X-130311Y363462D01*
X-130360Y363474D01*
X-130484Y363476D01*
X-130608Y363486D01*
X-130658Y363479D01*
X-130708Y363480D01*
X-130830Y363453D01*
X-130953Y363435D01*
X-131000Y363416D01*
X-131049Y363405D01*
X-131161Y363352D01*
X-131277Y363306D01*
X-131318Y363277D01*
X-131364Y363255D01*
X-131461Y363178D01*
X-131563Y363107D01*
X-131597Y363070D01*
X-131636Y363038D01*
X-131713Y362940D01*
X-131796Y362848D01*
X-131821Y362804D01*
X-131852Y362765D01*
X-131963Y362547D01*
X-134527Y356358D01*
X-140458Y350427D01*
X-148206Y347217D01*
X-156594Y347217D01*
X-164342Y350427D01*
X-170273Y356358D01*
X-173483Y364106D01*
X-173483Y372494D01*
X-170273Y380242D01*
X-164342Y386173D01*
X-156594Y389383D01*
X-148206Y389383D01*
X-140458Y386173D01*
X-134527Y380242D01*
X-131963Y374053D01*
X-131939Y374009D01*
X-131922Y373962D01*
X-131854Y373857D01*
X-131794Y373749D01*
X-131760Y373711D01*
X-131733Y373669D01*
X-131643Y373583D01*
X-131560Y373490D01*
X-131518Y373462D01*
X-131482Y373427D01*
X-131375Y373363D01*
X-131273Y373292D01*
X-131226Y373274D01*
X-131183Y373248D01*
X-131065Y373210D01*
X-130949Y373164D01*
X-130899Y373157D01*
X-130851Y373142D01*
X-130727Y373132D01*
X-130604Y373114D01*
X-130554Y373118D01*
X-130504Y373114D01*
X-130381Y373132D01*
X-130257Y373142D01*
X-130209Y373158D01*
X-130159Y373165D01*
X-130044Y373211D01*
X-129925Y373250D01*
X-129882Y373276D01*
X-129835Y373294D01*
X-129733Y373365D01*
X-129627Y373429D01*
X-129590Y373464D01*
X-129549Y373493D01*
X-129466Y373585D01*
X-129377Y373672D01*
X-129349Y373714D01*
X-129316Y373752D01*
X-129256Y373861D01*
X-129188Y373965D01*
X-129171Y374013D01*
X-129147Y374057D01*
X-129113Y374177D01*
X-129072Y374294D01*
X-129066Y374344D01*
X-129052Y374392D01*
X-129033Y374636D01*
X-129033Y389687D01*
X-129047Y389813D01*
X-129054Y389939D01*
X-129067Y389985D01*
X-129073Y390033D01*
X-129115Y390152D01*
X-129150Y390274D01*
X-129174Y390316D01*
X-129190Y390361D01*
X-129259Y390468D01*
X-129320Y390578D01*
X-129360Y390624D01*
X-129379Y390654D01*
X-129414Y390688D01*
X-129479Y390764D01*
X-154433Y415718D01*
X-154433Y529387D01*
X-154447Y529513D01*
X-154454Y529639D01*
X-154467Y529685D01*
X-154473Y529733D01*
X-154515Y529852D01*
X-154550Y529974D01*
X-154574Y530016D01*
X-154590Y530061D01*
X-154659Y530168D01*
X-154720Y530278D01*
X-154760Y530324D01*
X-154779Y530354D01*
X-154814Y530388D01*
X-154879Y530464D01*
X-168036Y543621D01*
X-168135Y543700D01*
X-168229Y543784D01*
X-168271Y543808D01*
X-168309Y543838D01*
X-168423Y543892D01*
X-168534Y543953D01*
X-168580Y543966D01*
X-168624Y543987D01*
X-168747Y544013D01*
X-168869Y544048D01*
X-168930Y544053D01*
X-168965Y544060D01*
X-169013Y544059D01*
X-169113Y544067D01*
X-654064Y544067D01*
X-654114Y544062D01*
X-654164Y544064D01*
X-654287Y544042D01*
X-654410Y544027D01*
X-654457Y544010D01*
X-654507Y544001D01*
X-654621Y543952D01*
X-654738Y543910D01*
X-654781Y543883D01*
X-654827Y543863D01*
X-654927Y543788D01*
X-655031Y543721D01*
X-655066Y543685D01*
X-655106Y543655D01*
X-655187Y543560D01*
X-655273Y543470D01*
X-655299Y543427D01*
X-655332Y543389D01*
X-655388Y543278D01*
X-655452Y543171D01*
X-655467Y543123D01*
X-655490Y543078D01*
X-655520Y542958D01*
X-655558Y542839D01*
X-655562Y542789D01*
X-655574Y542740D01*
X-655576Y542616D01*
X-655586Y542492D01*
X-655579Y542442D01*
X-655580Y542392D01*
X-655553Y542270D01*
X-655535Y542147D01*
X-655516Y542100D01*
X-655505Y542051D01*
X-655452Y541939D01*
X-655406Y541823D01*
X-655377Y541782D01*
X-655355Y541736D01*
X-655278Y541639D01*
X-655207Y541537D01*
X-655170Y541503D01*
X-655138Y541464D01*
X-655040Y541387D01*
X-654948Y541304D01*
X-654904Y541279D01*
X-654865Y541248D01*
X-654647Y541137D01*
X-648458Y538573D01*
X-642527Y532642D01*
X-639317Y524894D01*
X-639317Y516506D01*
X-642527Y508758D01*
X-648458Y502827D01*
X-656206Y499617D01*
X-664594Y499617D01*
X-672342Y502827D01*
X-678273Y508758D01*
X-681483Y516506D01*
X-681483Y524894D01*
X-678273Y532642D01*
X-672342Y538573D01*
X-666153Y541137D01*
X-666109Y541161D01*
X-666062Y541178D01*
X-665957Y541246D01*
X-665849Y541306D01*
X-665811Y541340D01*
X-665769Y541367D01*
X-665683Y541457D01*
X-665590Y541540D01*
X-665562Y541582D01*
X-665527Y541618D01*
X-665463Y541725D01*
X-665392Y541827D01*
X-665374Y541874D01*
X-665348Y541917D01*
X-665310Y542035D01*
X-665264Y542151D01*
X-665257Y542201D01*
X-665242Y542249D01*
X-665232Y542373D01*
X-665214Y542496D01*
X-665218Y542546D01*
X-665214Y542596D01*
X-665232Y542719D01*
X-665242Y542843D01*
X-665258Y542891D01*
X-665265Y542941D01*
X-665311Y543056D01*
X-665350Y543175D01*
X-665376Y543218D01*
X-665394Y543265D01*
X-665465Y543367D01*
X-665529Y543473D01*
X-665564Y543510D01*
X-665593Y543551D01*
X-665685Y543634D01*
X-665772Y543723D01*
X-665814Y543751D01*
X-665852Y543784D01*
X-665961Y543844D01*
X-666065Y543912D01*
X-666113Y543929D01*
X-666157Y543953D01*
X-666277Y543987D01*
X-666394Y544028D01*
X-666444Y544034D01*
X-666492Y544048D01*
X-666736Y544067D01*
X-809244Y544067D01*
X-809270Y544064D01*
X-809296Y544066D01*
X-809443Y544044D01*
X-809590Y544027D01*
X-809615Y544019D01*
X-809641Y544015D01*
X-809779Y543960D01*
X-809918Y543910D01*
X-809940Y543896D01*
X-809965Y543886D01*
X-810086Y543801D01*
X-810211Y543721D01*
X-810229Y543702D01*
X-810251Y543687D01*
X-810350Y543577D01*
X-810453Y543470D01*
X-810467Y543448D01*
X-810484Y543428D01*
X-810556Y543298D01*
X-810632Y543171D01*
X-810640Y543146D01*
X-810653Y543123D01*
X-810693Y542980D01*
X-810738Y542839D01*
X-810740Y542813D01*
X-810748Y542788D01*
X-810767Y542544D01*
X-810767Y16256D01*
X-810764Y16230D01*
X-810766Y16204D01*
X-810744Y16057D01*
X-810727Y15910D01*
X-810719Y15885D01*
X-810715Y15859D01*
X-810660Y15721D01*
X-810610Y15582D01*
X-810596Y15560D01*
X-810586Y15535D01*
X-810501Y15414D01*
X-810421Y15289D01*
X-810402Y15271D01*
X-810387Y15249D01*
X-810277Y15150D01*
X-810170Y15047D01*
X-810148Y15033D01*
X-810128Y15016D01*
X-809998Y14944D01*
X-809871Y14868D01*
X-809846Y14860D01*
X-809823Y14847D01*
X-809680Y14807D01*
X-809539Y14762D01*
X-809513Y14760D01*
X-809488Y14752D01*
X-809244Y14733D01*
X-679436Y14733D01*
X-679386Y14738D01*
G37*
%LPC*%
G36*
X-442907Y20573D02*
X-442907Y20573D01*
X-444693Y22359D01*
X-450914Y28580D01*
X-450935Y28597D01*
X-450952Y28617D01*
X-451071Y28705D01*
X-451187Y28797D01*
X-451211Y28808D01*
X-451232Y28824D01*
X-451368Y28883D01*
X-451502Y28946D01*
X-451528Y28951D01*
X-451552Y28962D01*
X-451698Y28988D01*
X-451843Y29019D01*
X-451869Y29019D01*
X-451895Y29024D01*
X-452044Y29016D01*
X-452192Y29013D01*
X-452217Y29007D01*
X-452243Y29006D01*
X-452386Y28965D01*
X-452530Y28928D01*
X-452553Y28916D01*
X-452578Y28909D01*
X-452707Y28837D01*
X-452839Y28769D01*
X-452859Y28752D01*
X-452882Y28739D01*
X-453069Y28580D01*
X-453202Y28447D01*
X-461198Y28447D01*
X-466853Y34102D01*
X-466853Y42098D01*
X-461198Y47753D01*
X-453202Y47753D01*
X-447547Y42098D01*
X-447547Y34102D01*
X-447680Y33969D01*
X-447697Y33948D01*
X-447717Y33931D01*
X-447805Y33812D01*
X-447897Y33696D01*
X-447908Y33672D01*
X-447924Y33651D01*
X-447983Y33515D01*
X-448046Y33380D01*
X-448051Y33355D01*
X-448062Y33331D01*
X-448088Y33184D01*
X-448119Y33040D01*
X-448119Y33014D01*
X-448124Y32988D01*
X-448116Y32839D01*
X-448113Y32691D01*
X-448107Y32666D01*
X-448106Y32640D01*
X-448065Y32497D01*
X-448028Y32353D01*
X-448016Y32330D01*
X-448009Y32305D01*
X-447937Y32175D01*
X-447869Y32043D01*
X-447852Y32023D01*
X-447839Y32001D01*
X-447680Y31814D01*
X-441459Y25593D01*
X-441360Y25514D01*
X-441266Y25430D01*
X-441224Y25406D01*
X-441186Y25376D01*
X-441072Y25322D01*
X-440961Y25261D01*
X-440914Y25248D01*
X-440871Y25227D01*
X-440747Y25201D01*
X-440626Y25166D01*
X-440565Y25161D01*
X-440530Y25154D01*
X-440482Y25155D01*
X-440382Y25147D01*
X-412571Y25147D01*
X-412471Y25158D01*
X-412371Y25160D01*
X-412299Y25178D01*
X-412225Y25187D01*
X-412131Y25220D01*
X-412033Y25245D01*
X-411967Y25279D01*
X-411897Y25304D01*
X-411813Y25359D01*
X-411723Y25405D01*
X-411667Y25453D01*
X-411604Y25493D01*
X-411534Y25565D01*
X-411458Y25630D01*
X-411414Y25690D01*
X-411362Y25744D01*
X-411310Y25830D01*
X-411251Y25911D01*
X-411221Y25979D01*
X-411183Y26043D01*
X-411152Y26139D01*
X-411113Y26231D01*
X-411100Y26304D01*
X-411077Y26375D01*
X-411069Y26475D01*
X-411051Y26574D01*
X-411055Y26648D01*
X-411049Y26722D01*
X-411064Y26822D01*
X-411069Y26922D01*
X-411090Y26993D01*
X-411101Y27067D01*
X-411138Y27160D01*
X-411165Y27257D01*
X-411202Y27322D01*
X-411229Y27391D01*
X-411287Y27473D01*
X-411336Y27561D01*
X-411401Y27637D01*
X-411428Y27677D01*
X-411455Y27701D01*
X-411494Y27747D01*
X-417323Y33576D01*
X-417323Y35601D01*
X-407376Y35601D01*
X-407350Y35604D01*
X-407324Y35602D01*
X-407177Y35624D01*
X-407030Y35641D01*
X-407005Y35649D01*
X-406979Y35653D01*
X-406842Y35708D01*
X-406702Y35758D01*
X-406680Y35772D01*
X-406655Y35782D01*
X-406534Y35867D01*
X-406409Y35947D01*
X-406391Y35966D01*
X-406369Y35981D01*
X-406270Y36091D01*
X-406167Y36198D01*
X-406153Y36220D01*
X-406136Y36240D01*
X-406064Y36370D01*
X-405988Y36497D01*
X-405980Y36522D01*
X-405967Y36545D01*
X-405927Y36688D01*
X-405882Y36829D01*
X-405880Y36855D01*
X-405873Y36880D01*
X-405853Y37124D01*
X-405853Y37553D01*
X-405424Y37553D01*
X-405398Y37556D01*
X-405372Y37554D01*
X-405225Y37576D01*
X-405078Y37593D01*
X-405053Y37602D01*
X-405027Y37606D01*
X-404889Y37660D01*
X-404750Y37710D01*
X-404728Y37725D01*
X-404703Y37734D01*
X-404582Y37819D01*
X-404457Y37899D01*
X-404439Y37918D01*
X-404417Y37933D01*
X-404318Y38043D01*
X-404215Y38150D01*
X-404201Y38173D01*
X-404184Y38192D01*
X-404112Y38322D01*
X-404036Y38449D01*
X-404028Y38474D01*
X-404015Y38497D01*
X-403975Y38640D01*
X-403930Y38781D01*
X-403927Y38807D01*
X-403920Y38832D01*
X-403901Y39076D01*
X-403901Y49023D01*
X-401876Y49023D01*
X-398587Y45734D01*
X-398509Y45672D01*
X-398436Y45602D01*
X-398372Y45564D01*
X-398314Y45518D01*
X-398223Y45475D01*
X-398137Y45423D01*
X-398066Y45400D01*
X-397999Y45369D01*
X-397901Y45347D01*
X-397805Y45317D01*
X-397731Y45311D01*
X-397658Y45295D01*
X-397558Y45297D01*
X-397458Y45289D01*
X-397384Y45300D01*
X-397310Y45301D01*
X-397213Y45326D01*
X-397113Y45341D01*
X-397044Y45368D01*
X-396972Y45386D01*
X-396882Y45432D01*
X-396789Y45469D01*
X-396728Y45512D01*
X-396662Y45546D01*
X-396586Y45611D01*
X-396503Y45668D01*
X-396453Y45723D01*
X-396397Y45772D01*
X-396337Y45852D01*
X-396270Y45927D01*
X-396234Y45992D01*
X-396189Y46052D01*
X-396150Y46144D01*
X-396101Y46232D01*
X-396081Y46304D01*
X-396051Y46372D01*
X-396034Y46471D01*
X-396006Y46567D01*
X-395998Y46667D01*
X-395990Y46715D01*
X-395992Y46751D01*
X-395987Y46811D01*
X-395987Y158185D01*
X-395998Y158285D01*
X-396000Y158385D01*
X-396018Y158457D01*
X-396027Y158531D01*
X-396060Y158625D01*
X-396085Y158723D01*
X-396119Y158789D01*
X-396144Y158859D01*
X-396199Y158943D01*
X-396245Y159033D01*
X-396293Y159089D01*
X-396333Y159152D01*
X-396405Y159222D01*
X-396470Y159298D01*
X-396530Y159342D01*
X-396584Y159394D01*
X-396670Y159446D01*
X-396751Y159505D01*
X-396819Y159535D01*
X-396883Y159573D01*
X-396979Y159604D01*
X-397071Y159643D01*
X-397144Y159656D01*
X-397215Y159679D01*
X-397315Y159687D01*
X-397414Y159705D01*
X-397488Y159701D01*
X-397562Y159707D01*
X-397662Y159692D01*
X-397762Y159687D01*
X-397833Y159666D01*
X-397907Y159655D01*
X-398000Y159618D01*
X-398097Y159591D01*
X-398162Y159554D01*
X-398231Y159527D01*
X-398313Y159469D01*
X-398401Y159420D01*
X-398477Y159355D01*
X-398517Y159328D01*
X-398541Y159301D01*
X-398587Y159262D01*
X-400932Y156917D01*
X-404480Y155447D01*
X-408320Y155447D01*
X-411868Y156917D01*
X-414583Y159632D01*
X-416053Y163180D01*
X-416053Y167020D01*
X-414583Y170568D01*
X-411868Y173283D01*
X-408320Y174753D01*
X-404480Y174753D01*
X-400932Y173283D01*
X-398587Y170938D01*
X-398509Y170876D01*
X-398436Y170806D01*
X-398372Y170768D01*
X-398314Y170721D01*
X-398223Y170679D01*
X-398137Y170627D01*
X-398066Y170604D01*
X-397999Y170573D01*
X-397901Y170551D01*
X-397805Y170521D01*
X-397731Y170515D01*
X-397658Y170499D01*
X-397558Y170501D01*
X-397458Y170493D01*
X-397384Y170504D01*
X-397310Y170505D01*
X-397213Y170530D01*
X-397113Y170545D01*
X-397044Y170572D01*
X-396972Y170590D01*
X-396883Y170636D01*
X-396789Y170673D01*
X-396728Y170716D01*
X-396662Y170750D01*
X-396586Y170815D01*
X-396503Y170872D01*
X-396453Y170927D01*
X-396397Y170976D01*
X-396337Y171056D01*
X-396270Y171131D01*
X-396234Y171196D01*
X-396189Y171256D01*
X-396150Y171348D01*
X-396101Y171436D01*
X-396081Y171508D01*
X-396051Y171576D01*
X-396034Y171675D01*
X-396006Y171771D01*
X-395998Y171871D01*
X-395990Y171919D01*
X-395992Y171955D01*
X-395987Y172015D01*
X-395987Y208985D01*
X-395998Y209085D01*
X-396000Y209185D01*
X-396018Y209257D01*
X-396027Y209331D01*
X-396060Y209425D01*
X-396085Y209523D01*
X-396119Y209589D01*
X-396144Y209659D01*
X-396199Y209743D01*
X-396245Y209833D01*
X-396293Y209889D01*
X-396333Y209952D01*
X-396405Y210022D01*
X-396470Y210098D01*
X-396530Y210142D01*
X-396584Y210194D01*
X-396670Y210246D01*
X-396751Y210305D01*
X-396819Y210335D01*
X-396883Y210373D01*
X-396979Y210404D01*
X-397071Y210443D01*
X-397144Y210456D01*
X-397215Y210479D01*
X-397315Y210487D01*
X-397414Y210505D01*
X-397488Y210501D01*
X-397562Y210507D01*
X-397662Y210492D01*
X-397762Y210487D01*
X-397833Y210466D01*
X-397907Y210455D01*
X-398000Y210418D01*
X-398097Y210391D01*
X-398162Y210354D01*
X-398231Y210327D01*
X-398313Y210269D01*
X-398401Y210220D01*
X-398477Y210155D01*
X-398517Y210128D01*
X-398541Y210101D01*
X-398587Y210062D01*
X-400932Y207717D01*
X-404480Y206247D01*
X-408320Y206247D01*
X-411868Y207717D01*
X-414583Y210432D01*
X-416053Y213980D01*
X-416053Y217820D01*
X-415545Y219045D01*
X-415524Y219119D01*
X-415494Y219189D01*
X-415477Y219285D01*
X-415450Y219380D01*
X-415446Y219456D01*
X-415432Y219532D01*
X-415438Y219630D01*
X-415433Y219728D01*
X-415446Y219803D01*
X-415450Y219880D01*
X-415478Y219974D01*
X-415495Y220071D01*
X-415526Y220141D01*
X-415547Y220214D01*
X-415595Y220300D01*
X-415634Y220391D01*
X-415680Y220452D01*
X-415717Y220519D01*
X-415814Y220632D01*
X-415842Y220670D01*
X-415857Y220683D01*
X-415876Y220705D01*
X-508922Y313751D01*
X-509021Y313830D01*
X-509115Y313914D01*
X-509157Y313938D01*
X-509195Y313968D01*
X-509309Y314022D01*
X-509420Y314083D01*
X-509466Y314096D01*
X-509510Y314117D01*
X-509633Y314143D01*
X-509755Y314178D01*
X-509816Y314183D01*
X-509851Y314190D01*
X-509899Y314189D01*
X-509999Y314197D01*
X-687168Y314197D01*
X-724822Y351851D01*
X-724921Y351930D01*
X-725015Y352014D01*
X-725057Y352038D01*
X-725095Y352068D01*
X-725209Y352122D01*
X-725320Y352183D01*
X-725366Y352196D01*
X-725410Y352217D01*
X-725533Y352243D01*
X-725655Y352278D01*
X-725716Y352283D01*
X-725751Y352290D01*
X-725799Y352289D01*
X-725899Y352297D01*
X-774954Y352297D01*
X-774980Y352294D01*
X-775006Y352296D01*
X-775153Y352274D01*
X-775300Y352257D01*
X-775325Y352249D01*
X-775351Y352245D01*
X-775489Y352190D01*
X-775628Y352140D01*
X-775650Y352126D01*
X-775675Y352116D01*
X-775796Y352031D01*
X-775921Y351951D01*
X-775939Y351932D01*
X-775961Y351917D01*
X-776060Y351807D01*
X-776163Y351700D01*
X-776177Y351678D01*
X-776194Y351658D01*
X-776266Y351528D01*
X-776342Y351401D01*
X-776350Y351376D01*
X-776363Y351353D01*
X-776403Y351210D01*
X-776432Y351121D01*
X-782876Y344677D01*
X-791924Y344677D01*
X-798323Y351076D01*
X-798323Y360124D01*
X-791924Y366523D01*
X-782876Y366523D01*
X-776438Y360085D01*
X-776437Y360080D01*
X-776429Y360055D01*
X-776425Y360029D01*
X-776370Y359891D01*
X-776320Y359752D01*
X-776306Y359730D01*
X-776296Y359705D01*
X-776211Y359584D01*
X-776131Y359459D01*
X-776112Y359441D01*
X-776097Y359419D01*
X-775987Y359320D01*
X-775880Y359217D01*
X-775858Y359203D01*
X-775838Y359186D01*
X-775708Y359114D01*
X-775581Y359038D01*
X-775556Y359030D01*
X-775533Y359017D01*
X-775390Y358977D01*
X-775249Y358932D01*
X-775223Y358930D01*
X-775198Y358922D01*
X-774954Y358903D01*
X-722532Y358903D01*
X-684878Y321249D01*
X-684779Y321170D01*
X-684685Y321086D01*
X-684643Y321062D01*
X-684605Y321032D01*
X-684491Y320978D01*
X-684380Y320917D01*
X-684334Y320904D01*
X-684290Y320883D01*
X-684167Y320857D01*
X-684045Y320822D01*
X-683984Y320817D01*
X-683949Y320810D01*
X-683901Y320811D01*
X-683801Y320803D01*
X-506632Y320803D01*
X-504251Y318422D01*
X-411205Y225376D01*
X-411145Y225328D01*
X-411092Y225273D01*
X-411045Y225243D01*
X-411024Y225224D01*
X-410992Y225206D01*
X-410932Y225159D01*
X-410863Y225126D01*
X-410798Y225085D01*
X-410724Y225059D01*
X-410719Y225056D01*
X-410705Y225052D01*
X-410617Y225010D01*
X-410542Y224994D01*
X-410470Y224968D01*
X-410372Y224957D01*
X-410276Y224937D01*
X-410200Y224938D01*
X-410124Y224929D01*
X-410026Y224941D01*
X-409928Y224943D01*
X-409853Y224961D01*
X-409778Y224970D01*
X-409635Y225016D01*
X-409590Y225028D01*
X-409573Y225036D01*
X-409545Y225045D01*
X-408320Y225553D01*
X-404480Y225553D01*
X-400932Y224083D01*
X-398587Y221738D01*
X-398509Y221676D01*
X-398436Y221606D01*
X-398372Y221568D01*
X-398314Y221521D01*
X-398223Y221479D01*
X-398137Y221427D01*
X-398066Y221404D01*
X-397999Y221373D01*
X-397901Y221351D01*
X-397805Y221321D01*
X-397731Y221315D01*
X-397658Y221299D01*
X-397558Y221301D01*
X-397458Y221293D01*
X-397384Y221304D01*
X-397310Y221305D01*
X-397213Y221330D01*
X-397113Y221345D01*
X-397044Y221372D01*
X-396972Y221390D01*
X-396883Y221436D01*
X-396789Y221473D01*
X-396728Y221516D01*
X-396662Y221550D01*
X-396586Y221615D01*
X-396503Y221672D01*
X-396453Y221727D01*
X-396397Y221776D01*
X-396337Y221856D01*
X-396270Y221931D01*
X-396234Y221996D01*
X-396189Y222056D01*
X-396150Y222148D01*
X-396101Y222236D01*
X-396081Y222308D01*
X-396051Y222376D01*
X-396034Y222475D01*
X-396006Y222571D01*
X-395998Y222671D01*
X-395990Y222719D01*
X-395992Y222755D01*
X-395987Y222815D01*
X-395987Y227022D01*
X-396001Y227147D01*
X-396008Y227274D01*
X-396021Y227320D01*
X-396027Y227368D01*
X-396069Y227487D01*
X-396104Y227608D01*
X-396128Y227651D01*
X-396144Y227696D01*
X-396213Y227803D01*
X-396274Y227913D01*
X-396314Y227959D01*
X-396333Y227989D01*
X-396368Y228023D01*
X-396433Y228099D01*
X-414521Y246187D01*
X-414620Y246266D01*
X-414714Y246350D01*
X-414756Y246374D01*
X-414794Y246404D01*
X-414908Y246458D01*
X-415019Y246519D01*
X-415065Y246532D01*
X-415109Y246553D01*
X-415233Y246579D01*
X-415354Y246614D01*
X-415415Y246619D01*
X-415450Y246626D01*
X-415498Y246625D01*
X-415598Y246633D01*
X-422151Y246633D01*
X-426467Y250949D01*
X-426467Y257051D01*
X-422151Y261367D01*
X-416049Y261367D01*
X-411733Y257051D01*
X-411733Y250498D01*
X-411719Y250373D01*
X-411712Y250246D01*
X-411699Y250200D01*
X-411693Y250152D01*
X-411651Y250033D01*
X-411616Y249911D01*
X-411592Y249869D01*
X-411576Y249824D01*
X-411507Y249718D01*
X-411446Y249607D01*
X-411406Y249561D01*
X-411387Y249531D01*
X-411352Y249497D01*
X-411287Y249421D01*
X-393199Y231333D01*
X-391413Y229547D01*
X-391413Y46811D01*
X-391402Y46711D01*
X-391400Y46611D01*
X-391382Y46539D01*
X-391373Y46465D01*
X-391340Y46371D01*
X-391315Y46273D01*
X-391281Y46207D01*
X-391256Y46137D01*
X-391201Y46053D01*
X-391155Y45963D01*
X-391107Y45907D01*
X-391067Y45844D01*
X-390995Y45774D01*
X-390930Y45698D01*
X-390870Y45654D01*
X-390816Y45602D01*
X-390730Y45550D01*
X-390649Y45491D01*
X-390581Y45461D01*
X-390517Y45423D01*
X-390421Y45392D01*
X-390329Y45353D01*
X-390256Y45340D01*
X-390185Y45317D01*
X-390085Y45309D01*
X-389986Y45291D01*
X-389912Y45295D01*
X-389838Y45289D01*
X-389738Y45304D01*
X-389638Y45309D01*
X-389567Y45330D01*
X-389493Y45341D01*
X-389400Y45378D01*
X-389303Y45405D01*
X-389238Y45442D01*
X-389169Y45469D01*
X-389087Y45527D01*
X-388999Y45576D01*
X-388923Y45641D01*
X-388883Y45668D01*
X-388859Y45695D01*
X-388813Y45734D01*
X-385524Y49023D01*
X-383499Y49023D01*
X-383499Y39076D01*
X-383498Y39062D01*
X-383498Y39053D01*
X-383497Y39043D01*
X-383498Y39024D01*
X-383476Y38877D01*
X-383459Y38730D01*
X-383451Y38705D01*
X-383447Y38679D01*
X-383392Y38542D01*
X-383342Y38402D01*
X-383328Y38380D01*
X-383318Y38355D01*
X-383233Y38234D01*
X-383153Y38109D01*
X-383140Y38097D01*
X-383185Y38050D01*
X-383199Y38027D01*
X-383216Y38008D01*
X-383288Y37878D01*
X-383364Y37751D01*
X-383372Y37726D01*
X-383385Y37703D01*
X-383425Y37560D01*
X-383470Y37419D01*
X-383472Y37393D01*
X-383480Y37368D01*
X-383499Y37124D01*
X-383499Y27177D01*
X-385524Y27177D01*
X-388813Y30466D01*
X-388891Y30528D01*
X-388964Y30598D01*
X-389028Y30636D01*
X-389086Y30682D01*
X-389177Y30725D01*
X-389263Y30777D01*
X-389334Y30800D01*
X-389401Y30831D01*
X-389499Y30853D01*
X-389595Y30883D01*
X-389669Y30889D01*
X-389742Y30905D01*
X-389842Y30903D01*
X-389942Y30911D01*
X-390016Y30900D01*
X-390090Y30899D01*
X-390187Y30874D01*
X-390287Y30859D01*
X-390356Y30832D01*
X-390428Y30814D01*
X-390518Y30768D01*
X-390611Y30731D01*
X-390672Y30688D01*
X-390738Y30654D01*
X-390814Y30589D01*
X-390897Y30532D01*
X-390947Y30477D01*
X-391003Y30428D01*
X-391063Y30348D01*
X-391130Y30273D01*
X-391166Y30208D01*
X-391211Y30148D01*
X-391250Y30056D01*
X-391299Y29968D01*
X-391319Y29896D01*
X-391349Y29828D01*
X-391366Y29729D01*
X-391394Y29633D01*
X-391401Y29545D01*
X-400373Y20573D01*
X-442907Y20573D01*
G37*
%LPD*%
%LPC*%
G36*
X-369914Y123104D02*
X-369914Y123104D01*
X-372196Y125386D01*
X-372196Y128614D01*
X-369914Y130896D01*
X-366686Y130896D01*
X-366031Y130241D01*
X-365932Y130162D01*
X-365839Y130078D01*
X-365796Y130054D01*
X-365758Y130024D01*
X-365644Y129970D01*
X-365534Y129909D01*
X-365487Y129896D01*
X-365443Y129875D01*
X-365320Y129849D01*
X-365198Y129814D01*
X-365137Y129809D01*
X-365103Y129802D01*
X-365055Y129803D01*
X-364954Y129795D01*
X-319289Y129795D01*
X-319163Y129809D01*
X-319037Y129816D01*
X-318990Y129829D01*
X-318942Y129835D01*
X-318823Y129877D01*
X-318702Y129912D01*
X-318660Y129936D01*
X-318614Y129952D01*
X-318508Y130021D01*
X-318398Y130082D01*
X-318351Y130122D01*
X-318321Y130141D01*
X-318288Y130176D01*
X-318211Y130241D01*
X-308041Y140411D01*
X-307962Y140510D01*
X-307878Y140604D01*
X-307854Y140647D01*
X-307824Y140684D01*
X-307770Y140799D01*
X-307709Y140909D01*
X-307696Y140956D01*
X-307675Y141000D01*
X-307649Y141123D01*
X-307614Y141245D01*
X-307609Y141306D01*
X-307602Y141340D01*
X-307603Y141388D01*
X-307595Y141489D01*
X-307595Y455411D01*
X-307609Y455537D01*
X-307616Y455663D01*
X-307629Y455710D01*
X-307635Y455758D01*
X-307677Y455877D01*
X-307712Y455998D01*
X-307736Y456040D01*
X-307752Y456086D01*
X-307821Y456192D01*
X-307882Y456302D01*
X-307922Y456348D01*
X-307941Y456379D01*
X-307976Y456412D01*
X-308041Y456489D01*
X-316217Y464665D01*
X-316238Y464681D01*
X-316255Y464701D01*
X-316374Y464790D01*
X-316490Y464882D01*
X-316514Y464893D01*
X-316535Y464908D01*
X-316671Y464967D01*
X-316805Y465031D01*
X-316831Y465036D01*
X-316855Y465046D01*
X-317001Y465073D01*
X-317146Y465104D01*
X-317172Y465103D01*
X-317198Y465108D01*
X-317347Y465100D01*
X-317495Y465098D01*
X-317520Y465092D01*
X-317546Y465090D01*
X-317689Y465049D01*
X-317833Y465013D01*
X-317856Y465001D01*
X-317881Y464994D01*
X-318010Y464921D01*
X-318142Y464853D01*
X-318162Y464836D01*
X-318185Y464823D01*
X-318372Y464665D01*
X-324670Y458367D01*
X-324686Y458346D01*
X-324706Y458329D01*
X-324794Y458210D01*
X-324886Y458094D01*
X-324897Y458070D01*
X-324913Y458049D01*
X-324972Y457913D01*
X-325035Y457779D01*
X-325041Y457753D01*
X-325051Y457729D01*
X-325077Y457583D01*
X-325109Y457438D01*
X-325108Y457412D01*
X-325113Y457386D01*
X-325105Y457237D01*
X-325103Y457090D01*
X-325096Y457064D01*
X-325095Y457038D01*
X-325054Y456896D01*
X-325018Y456752D01*
X-325006Y456728D01*
X-324998Y456703D01*
X-324926Y456574D01*
X-324858Y456442D01*
X-324841Y456422D01*
X-324828Y456399D01*
X-324670Y456213D01*
X-318007Y449550D01*
X-318007Y447039D01*
X-329184Y447039D01*
X-329210Y447036D01*
X-329236Y447038D01*
X-329383Y447016D01*
X-329530Y446999D01*
X-329555Y446991D01*
X-329581Y446987D01*
X-329718Y446932D01*
X-329858Y446882D01*
X-329880Y446868D01*
X-329905Y446858D01*
X-330026Y446773D01*
X-330151Y446693D01*
X-330169Y446674D01*
X-330191Y446659D01*
X-330205Y446643D01*
X-330290Y446725D01*
X-330313Y446739D01*
X-330332Y446756D01*
X-330462Y446828D01*
X-330589Y446904D01*
X-330614Y446912D01*
X-330637Y446925D01*
X-330780Y446965D01*
X-330921Y447010D01*
X-330947Y447012D01*
X-330972Y447020D01*
X-331216Y447039D01*
X-354584Y447039D01*
X-354610Y447036D01*
X-354636Y447038D01*
X-354783Y447016D01*
X-354930Y446999D01*
X-354955Y446991D01*
X-354981Y446987D01*
X-355118Y446932D01*
X-355258Y446882D01*
X-355280Y446868D01*
X-355305Y446858D01*
X-355426Y446773D01*
X-355551Y446693D01*
X-355569Y446674D01*
X-355591Y446659D01*
X-355605Y446643D01*
X-355690Y446725D01*
X-355713Y446739D01*
X-355732Y446756D01*
X-355862Y446828D01*
X-355989Y446904D01*
X-356014Y446912D01*
X-356037Y446925D01*
X-356180Y446965D01*
X-356321Y447010D01*
X-356347Y447012D01*
X-356372Y447020D01*
X-356616Y447039D01*
X-367793Y447039D01*
X-367793Y450077D01*
X-367804Y450177D01*
X-367806Y450278D01*
X-367824Y450350D01*
X-367833Y450424D01*
X-367866Y450518D01*
X-367891Y450616D01*
X-367925Y450682D01*
X-367950Y450752D01*
X-368005Y450836D01*
X-368051Y450925D01*
X-368099Y450982D01*
X-368139Y451045D01*
X-368211Y451114D01*
X-368276Y451191D01*
X-368336Y451235D01*
X-368390Y451287D01*
X-368476Y451338D01*
X-368557Y451398D01*
X-368625Y451427D01*
X-368689Y451466D01*
X-368785Y451496D01*
X-368877Y451536D01*
X-368950Y451549D01*
X-369021Y451572D01*
X-369121Y451580D01*
X-369220Y451598D01*
X-369294Y451594D01*
X-369368Y451600D01*
X-369468Y451585D01*
X-369568Y451580D01*
X-369639Y451559D01*
X-369713Y451548D01*
X-369806Y451511D01*
X-369903Y451483D01*
X-369968Y451447D01*
X-370037Y451419D01*
X-370119Y451362D01*
X-370207Y451313D01*
X-370283Y451248D01*
X-370323Y451220D01*
X-370347Y451194D01*
X-370393Y451155D01*
X-403159Y418389D01*
X-403238Y418290D01*
X-403322Y418196D01*
X-403346Y418153D01*
X-403376Y418116D01*
X-403430Y418001D01*
X-403491Y417891D01*
X-403504Y417844D01*
X-403525Y417800D01*
X-403551Y417677D01*
X-403586Y417555D01*
X-403591Y417494D01*
X-403598Y417460D01*
X-403597Y417412D01*
X-403605Y417311D01*
X-403605Y303642D01*
X-427458Y279790D01*
X-427537Y279691D01*
X-427621Y279597D01*
X-427645Y279554D01*
X-427675Y279517D01*
X-427729Y279402D01*
X-427790Y279292D01*
X-427803Y279245D01*
X-427824Y279201D01*
X-427850Y279078D01*
X-427885Y278956D01*
X-427890Y278895D01*
X-427897Y278861D01*
X-427896Y278813D01*
X-427904Y278712D01*
X-427904Y277786D01*
X-430186Y275504D01*
X-433414Y275504D01*
X-435696Y277786D01*
X-435696Y281014D01*
X-433414Y283296D01*
X-432488Y283296D01*
X-432362Y283310D01*
X-432236Y283317D01*
X-432189Y283330D01*
X-432141Y283336D01*
X-432022Y283378D01*
X-431901Y283413D01*
X-431859Y283437D01*
X-431813Y283453D01*
X-431707Y283522D01*
X-431597Y283583D01*
X-431550Y283623D01*
X-431520Y283642D01*
X-431487Y283677D01*
X-431410Y283742D01*
X-409641Y305511D01*
X-409562Y305610D01*
X-409478Y305704D01*
X-409454Y305747D01*
X-409424Y305784D01*
X-409370Y305899D01*
X-409309Y306009D01*
X-409296Y306056D01*
X-409275Y306100D01*
X-409249Y306223D01*
X-409214Y306345D01*
X-409209Y306406D01*
X-409202Y306440D01*
X-409203Y306488D01*
X-409195Y306589D01*
X-409195Y326010D01*
X-409206Y326110D01*
X-409208Y326210D01*
X-409226Y326282D01*
X-409235Y326356D01*
X-409268Y326450D01*
X-409293Y326548D01*
X-409327Y326614D01*
X-409352Y326684D01*
X-409407Y326768D01*
X-409453Y326858D01*
X-409501Y326914D01*
X-409541Y326977D01*
X-409613Y327047D01*
X-409678Y327123D01*
X-409738Y327167D01*
X-409792Y327219D01*
X-409878Y327271D01*
X-409959Y327330D01*
X-410027Y327360D01*
X-410091Y327398D01*
X-410187Y327428D01*
X-410279Y327468D01*
X-410352Y327481D01*
X-410423Y327504D01*
X-410523Y327512D01*
X-410622Y327530D01*
X-410696Y327526D01*
X-410770Y327532D01*
X-410870Y327517D01*
X-410970Y327512D01*
X-411041Y327491D01*
X-411115Y327480D01*
X-411208Y327443D01*
X-411305Y327415D01*
X-411370Y327379D01*
X-411439Y327352D01*
X-411521Y327294D01*
X-411609Y327245D01*
X-411685Y327180D01*
X-411725Y327153D01*
X-411749Y327126D01*
X-411795Y327087D01*
X-416049Y322833D01*
X-422151Y322833D01*
X-426467Y327149D01*
X-426467Y333251D01*
X-422151Y337567D01*
X-416049Y337567D01*
X-411795Y333313D01*
X-411717Y333251D01*
X-411644Y333181D01*
X-411580Y333143D01*
X-411522Y333097D01*
X-411431Y333054D01*
X-411345Y333002D01*
X-411274Y332979D01*
X-411207Y332948D01*
X-411109Y332927D01*
X-411013Y332896D01*
X-410939Y332890D01*
X-410866Y332874D01*
X-410766Y332876D01*
X-410666Y332868D01*
X-410592Y332879D01*
X-410518Y332880D01*
X-410421Y332905D01*
X-410321Y332920D01*
X-410252Y332947D01*
X-410180Y332965D01*
X-410090Y333011D01*
X-409997Y333048D01*
X-409936Y333091D01*
X-409870Y333125D01*
X-409793Y333190D01*
X-409711Y333247D01*
X-409661Y333302D01*
X-409605Y333351D01*
X-409545Y333432D01*
X-409478Y333506D01*
X-409442Y333571D01*
X-409397Y333631D01*
X-409358Y333723D01*
X-409309Y333811D01*
X-409289Y333883D01*
X-409259Y333951D01*
X-409242Y334050D01*
X-409214Y334147D01*
X-409206Y334247D01*
X-409198Y334294D01*
X-409200Y334330D01*
X-409195Y334390D01*
X-409195Y420258D01*
X-367185Y462267D01*
X-367169Y462288D01*
X-367149Y462305D01*
X-367060Y462424D01*
X-366968Y462540D01*
X-366957Y462564D01*
X-366942Y462585D01*
X-366883Y462721D01*
X-366819Y462855D01*
X-366814Y462881D01*
X-366804Y462905D01*
X-366777Y463052D01*
X-366746Y463196D01*
X-366747Y463222D01*
X-366742Y463248D01*
X-366750Y463397D01*
X-366752Y463545D01*
X-366758Y463570D01*
X-366760Y463596D01*
X-366801Y463738D01*
X-366837Y463883D01*
X-366849Y463906D01*
X-366856Y463931D01*
X-366929Y464060D01*
X-366997Y464192D01*
X-367014Y464212D01*
X-367027Y464235D01*
X-367185Y464422D01*
X-367666Y464902D01*
X-367666Y474898D01*
X-360598Y481966D01*
X-350602Y481966D01*
X-343977Y475341D01*
X-343957Y475324D01*
X-343940Y475304D01*
X-343820Y475216D01*
X-343704Y475124D01*
X-343680Y475113D01*
X-343659Y475097D01*
X-343523Y475038D01*
X-343389Y474975D01*
X-343363Y474970D01*
X-343339Y474959D01*
X-343193Y474933D01*
X-343048Y474902D01*
X-343022Y474902D01*
X-342996Y474897D01*
X-342848Y474905D01*
X-342700Y474908D01*
X-342674Y474914D01*
X-342648Y474915D01*
X-342506Y474956D01*
X-342362Y474993D01*
X-342339Y475005D01*
X-342313Y475012D01*
X-342184Y475084D01*
X-342052Y475152D01*
X-342032Y475169D01*
X-342009Y475182D01*
X-341823Y475341D01*
X-335198Y481966D01*
X-325202Y481966D01*
X-318134Y474898D01*
X-318134Y474218D01*
X-318131Y474192D01*
X-318133Y474166D01*
X-318111Y474019D01*
X-318094Y473872D01*
X-318086Y473847D01*
X-318082Y473821D01*
X-318027Y473683D01*
X-317977Y473544D01*
X-317963Y473522D01*
X-317953Y473497D01*
X-317868Y473376D01*
X-317788Y473251D01*
X-317769Y473233D01*
X-317754Y473211D01*
X-317644Y473112D01*
X-317537Y473009D01*
X-317515Y472995D01*
X-317495Y472978D01*
X-317365Y472906D01*
X-317238Y472830D01*
X-317213Y472822D01*
X-317190Y472809D01*
X-317047Y472769D01*
X-316906Y472724D01*
X-316880Y472722D01*
X-316855Y472714D01*
X-316611Y472695D01*
X-316342Y472695D01*
X-302005Y458358D01*
X-302005Y138542D01*
X-316342Y124205D01*
X-364954Y124205D01*
X-365080Y124191D01*
X-365206Y124184D01*
X-365253Y124171D01*
X-365301Y124165D01*
X-365420Y124123D01*
X-365541Y124088D01*
X-365583Y124064D01*
X-365629Y124048D01*
X-365735Y123979D01*
X-365845Y123918D01*
X-365891Y123878D01*
X-365921Y123859D01*
X-365955Y123824D01*
X-366031Y123759D01*
X-366686Y123104D01*
X-369914Y123104D01*
G37*
%LPD*%
%LPC*%
G36*
X-571501Y114299D02*
X-571501Y114299D01*
X-571501Y115824D01*
X-571504Y115850D01*
X-571502Y115876D01*
X-571524Y116023D01*
X-571541Y116170D01*
X-571550Y116195D01*
X-571553Y116221D01*
X-571608Y116359D01*
X-571658Y116498D01*
X-571673Y116520D01*
X-571682Y116545D01*
X-571767Y116666D01*
X-571847Y116791D01*
X-571866Y116809D01*
X-571881Y116831D01*
X-571991Y116930D01*
X-572098Y117033D01*
X-572120Y117047D01*
X-572140Y117064D01*
X-572270Y117136D01*
X-572397Y117212D01*
X-572422Y117220D01*
X-572445Y117233D01*
X-572588Y117273D01*
X-572729Y117318D01*
X-572755Y117320D01*
X-572780Y117328D01*
X-573024Y117347D01*
X-583275Y117347D01*
X-582751Y118960D01*
X-581884Y120663D01*
X-580760Y122209D01*
X-579409Y123560D01*
X-577863Y124684D01*
X-576160Y125551D01*
X-574252Y126171D01*
X-574108Y126237D01*
X-573960Y126301D01*
X-573949Y126310D01*
X-573935Y126316D01*
X-573810Y126413D01*
X-573681Y126509D01*
X-573671Y126520D01*
X-573660Y126529D01*
X-573559Y126653D01*
X-573455Y126775D01*
X-573449Y126788D01*
X-573440Y126800D01*
X-573370Y126943D01*
X-573297Y127086D01*
X-573293Y127100D01*
X-573287Y127113D01*
X-573251Y127269D01*
X-573213Y127424D01*
X-573212Y127438D01*
X-573209Y127452D01*
X-573210Y127612D01*
X-573207Y127772D01*
X-573211Y127787D01*
X-573211Y127801D01*
X-573248Y127956D01*
X-573282Y128113D01*
X-573288Y128126D01*
X-573291Y128140D01*
X-573363Y128284D01*
X-573432Y128427D01*
X-573441Y128439D01*
X-573447Y128452D01*
X-573550Y128575D01*
X-573649Y128700D01*
X-573660Y128709D01*
X-573670Y128720D01*
X-573798Y128817D01*
X-573922Y128916D01*
X-573938Y128924D01*
X-573947Y128931D01*
X-573982Y128946D01*
X-574140Y129027D01*
X-577658Y130484D01*
X-580716Y133542D01*
X-581719Y135965D01*
X-581756Y136032D01*
X-581785Y136103D01*
X-581841Y136184D01*
X-581889Y136270D01*
X-581940Y136326D01*
X-581984Y136389D01*
X-582057Y136455D01*
X-582123Y136528D01*
X-582186Y136571D01*
X-582242Y136622D01*
X-582328Y136670D01*
X-582409Y136726D01*
X-582481Y136754D01*
X-582547Y136791D01*
X-582642Y136818D01*
X-582734Y136854D01*
X-582809Y136865D01*
X-582883Y136886D01*
X-583032Y136898D01*
X-583078Y136905D01*
X-583098Y136903D01*
X-583127Y136905D01*
X-674258Y136905D01*
X-726695Y189342D01*
X-726695Y250654D01*
X-726709Y250780D01*
X-726716Y250906D01*
X-726729Y250953D01*
X-726735Y251001D01*
X-726777Y251119D01*
X-726812Y251241D01*
X-726836Y251283D01*
X-726852Y251329D01*
X-726921Y251435D01*
X-726982Y251545D01*
X-727022Y251591D01*
X-727041Y251621D01*
X-727076Y251655D01*
X-727141Y251731D01*
X-727796Y252386D01*
X-727796Y255614D01*
X-725514Y257896D01*
X-722286Y257896D01*
X-720004Y255614D01*
X-720004Y252386D01*
X-720659Y251731D01*
X-720738Y251632D01*
X-720822Y251539D01*
X-720846Y251496D01*
X-720876Y251458D01*
X-720930Y251344D01*
X-720991Y251234D01*
X-721004Y251187D01*
X-721025Y251143D01*
X-721051Y251020D01*
X-721086Y250898D01*
X-721091Y250837D01*
X-721098Y250803D01*
X-721097Y250755D01*
X-721105Y250654D01*
X-721105Y192289D01*
X-721091Y192163D01*
X-721084Y192037D01*
X-721071Y191990D01*
X-721065Y191942D01*
X-721023Y191823D01*
X-720988Y191702D01*
X-720964Y191660D01*
X-720948Y191614D01*
X-720879Y191508D01*
X-720818Y191398D01*
X-720778Y191351D01*
X-720759Y191321D01*
X-720724Y191288D01*
X-720659Y191211D01*
X-672389Y142941D01*
X-672290Y142862D01*
X-672196Y142778D01*
X-672153Y142754D01*
X-672116Y142724D01*
X-672001Y142670D01*
X-671891Y142609D01*
X-671844Y142596D01*
X-671800Y142575D01*
X-671677Y142549D01*
X-671555Y142514D01*
X-671494Y142509D01*
X-671460Y142502D01*
X-671412Y142503D01*
X-671311Y142495D01*
X-583127Y142495D01*
X-583051Y142503D01*
X-582974Y142502D01*
X-582878Y142523D01*
X-582780Y142535D01*
X-582708Y142560D01*
X-582634Y142577D01*
X-582545Y142619D01*
X-582452Y142652D01*
X-582388Y142694D01*
X-582319Y142726D01*
X-582242Y142788D01*
X-582159Y142841D01*
X-582106Y142896D01*
X-582047Y142944D01*
X-581986Y143021D01*
X-581917Y143092D01*
X-581878Y143157D01*
X-581831Y143217D01*
X-581763Y143350D01*
X-581738Y143391D01*
X-581733Y143409D01*
X-581719Y143435D01*
X-580716Y145858D01*
X-577658Y148916D01*
X-573662Y150571D01*
X-569338Y150571D01*
X-565342Y148916D01*
X-562284Y145858D01*
X-561281Y143435D01*
X-561244Y143368D01*
X-561215Y143297D01*
X-561159Y143216D01*
X-561111Y143130D01*
X-561060Y143074D01*
X-561016Y143011D01*
X-560943Y142945D01*
X-560877Y142872D01*
X-560814Y142829D01*
X-560758Y142778D01*
X-560672Y142730D01*
X-560591Y142674D01*
X-560519Y142646D01*
X-560453Y142609D01*
X-560358Y142582D01*
X-560266Y142546D01*
X-560191Y142535D01*
X-560117Y142514D01*
X-559968Y142502D01*
X-559922Y142495D01*
X-559902Y142497D01*
X-559873Y142495D01*
X-535189Y142495D01*
X-535063Y142509D01*
X-534937Y142516D01*
X-534890Y142529D01*
X-534842Y142535D01*
X-534723Y142577D01*
X-534602Y142612D01*
X-534560Y142636D01*
X-534514Y142652D01*
X-534408Y142721D01*
X-534298Y142782D01*
X-534252Y142822D01*
X-534221Y142841D01*
X-534188Y142876D01*
X-534111Y142941D01*
X-517265Y159787D01*
X-517218Y159847D01*
X-517163Y159900D01*
X-517110Y159983D01*
X-517049Y160060D01*
X-517016Y160129D01*
X-516975Y160194D01*
X-516942Y160286D01*
X-516900Y160375D01*
X-516884Y160450D01*
X-516858Y160522D01*
X-516847Y160620D01*
X-516826Y160716D01*
X-516828Y160792D01*
X-516819Y160868D01*
X-516831Y160966D01*
X-516832Y161064D01*
X-516851Y161138D01*
X-516860Y161214D01*
X-516906Y161357D01*
X-516917Y161402D01*
X-516926Y161419D01*
X-516935Y161447D01*
X-517653Y163180D01*
X-517653Y167020D01*
X-516183Y170568D01*
X-513468Y173283D01*
X-509920Y174753D01*
X-506080Y174753D01*
X-502532Y173283D01*
X-499817Y170568D01*
X-498347Y167020D01*
X-498347Y163180D01*
X-499817Y159632D01*
X-502532Y156917D01*
X-506080Y155447D01*
X-509920Y155447D01*
X-511653Y156165D01*
X-511726Y156186D01*
X-511797Y156216D01*
X-511893Y156234D01*
X-511988Y156261D01*
X-512064Y156264D01*
X-512140Y156278D01*
X-512238Y156273D01*
X-512336Y156278D01*
X-512411Y156264D01*
X-512488Y156260D01*
X-512582Y156233D01*
X-512679Y156215D01*
X-512749Y156185D01*
X-512822Y156163D01*
X-512908Y156115D01*
X-512999Y156076D01*
X-513060Y156031D01*
X-513127Y155993D01*
X-513240Y155896D01*
X-513278Y155868D01*
X-513291Y155854D01*
X-513313Y155835D01*
X-532242Y136905D01*
X-559873Y136905D01*
X-559949Y136897D01*
X-560026Y136898D01*
X-560122Y136877D01*
X-560220Y136865D01*
X-560292Y136840D01*
X-560366Y136823D01*
X-560455Y136781D01*
X-560548Y136748D01*
X-560612Y136706D01*
X-560681Y136674D01*
X-560758Y136612D01*
X-560841Y136559D01*
X-560894Y136504D01*
X-560953Y136456D01*
X-561014Y136379D01*
X-561083Y136308D01*
X-561122Y136243D01*
X-561169Y136183D01*
X-561237Y136050D01*
X-561262Y136009D01*
X-561267Y135991D01*
X-561281Y135965D01*
X-562284Y133542D01*
X-565342Y130484D01*
X-568860Y129027D01*
X-568999Y128950D01*
X-569141Y128875D01*
X-569152Y128865D01*
X-569164Y128858D01*
X-569283Y128751D01*
X-569403Y128645D01*
X-569412Y128634D01*
X-569423Y128624D01*
X-569514Y128492D01*
X-569607Y128362D01*
X-569613Y128349D01*
X-569621Y128337D01*
X-569679Y128188D01*
X-569741Y128041D01*
X-569743Y128026D01*
X-569749Y128013D01*
X-569772Y127855D01*
X-569798Y127697D01*
X-569797Y127682D01*
X-569799Y127668D01*
X-569786Y127509D01*
X-569776Y127349D01*
X-569772Y127335D01*
X-569770Y127321D01*
X-569721Y127169D01*
X-569675Y127016D01*
X-569668Y127003D01*
X-569663Y126989D01*
X-569581Y126852D01*
X-569501Y126714D01*
X-569491Y126703D01*
X-569484Y126690D01*
X-569372Y126576D01*
X-569263Y126459D01*
X-569251Y126451D01*
X-569241Y126441D01*
X-569107Y126354D01*
X-568973Y126265D01*
X-568957Y126259D01*
X-568948Y126252D01*
X-568911Y126239D01*
X-568748Y126171D01*
X-566840Y125551D01*
X-565137Y124684D01*
X-563591Y123560D01*
X-562240Y122209D01*
X-561116Y120663D01*
X-560249Y118960D01*
X-559725Y117347D01*
X-569976Y117347D01*
X-570002Y117344D01*
X-570028Y117346D01*
X-570175Y117324D01*
X-570322Y117307D01*
X-570347Y117299D01*
X-570373Y117295D01*
X-570511Y117240D01*
X-570650Y117190D01*
X-570672Y117176D01*
X-570697Y117166D01*
X-570818Y117081D01*
X-570943Y117001D01*
X-570961Y116982D01*
X-570983Y116967D01*
X-571082Y116857D01*
X-571185Y116750D01*
X-571199Y116728D01*
X-571216Y116708D01*
X-571288Y116578D01*
X-571364Y116451D01*
X-571372Y116426D01*
X-571385Y116403D01*
X-571425Y116260D01*
X-571470Y116119D01*
X-571472Y116093D01*
X-571479Y116068D01*
X-571499Y115824D01*
X-571499Y114299D01*
X-571501Y114299D01*
G37*
%LPD*%
%LPC*%
G36*
X-571501Y241299D02*
X-571501Y241299D01*
X-571501Y242824D01*
X-571504Y242850D01*
X-571502Y242876D01*
X-571524Y243023D01*
X-571541Y243170D01*
X-571550Y243195D01*
X-571553Y243221D01*
X-571608Y243359D01*
X-571658Y243498D01*
X-571673Y243520D01*
X-571682Y243545D01*
X-571767Y243666D01*
X-571847Y243791D01*
X-571866Y243809D01*
X-571881Y243831D01*
X-571991Y243930D01*
X-572098Y244033D01*
X-572120Y244047D01*
X-572140Y244064D01*
X-572270Y244136D01*
X-572397Y244212D01*
X-572422Y244220D01*
X-572445Y244233D01*
X-572588Y244273D01*
X-572729Y244318D01*
X-572755Y244320D01*
X-572780Y244328D01*
X-573024Y244347D01*
X-583275Y244347D01*
X-582751Y245960D01*
X-581884Y247663D01*
X-580760Y249209D01*
X-579409Y250560D01*
X-577863Y251684D01*
X-576160Y252551D01*
X-574252Y253171D01*
X-574108Y253237D01*
X-573960Y253301D01*
X-573949Y253310D01*
X-573935Y253316D01*
X-573810Y253413D01*
X-573681Y253509D01*
X-573671Y253520D01*
X-573660Y253529D01*
X-573559Y253653D01*
X-573455Y253775D01*
X-573449Y253788D01*
X-573440Y253800D01*
X-573370Y253943D01*
X-573297Y254086D01*
X-573293Y254100D01*
X-573287Y254113D01*
X-573251Y254269D01*
X-573213Y254424D01*
X-573212Y254438D01*
X-573209Y254452D01*
X-573210Y254612D01*
X-573207Y254772D01*
X-573211Y254787D01*
X-573211Y254801D01*
X-573248Y254956D01*
X-573282Y255113D01*
X-573288Y255126D01*
X-573291Y255140D01*
X-573363Y255284D01*
X-573432Y255427D01*
X-573441Y255439D01*
X-573447Y255452D01*
X-573550Y255575D01*
X-573649Y255700D01*
X-573660Y255709D01*
X-573670Y255720D01*
X-573798Y255817D01*
X-573922Y255916D01*
X-573938Y255924D01*
X-573947Y255931D01*
X-573982Y255946D01*
X-574140Y256027D01*
X-577658Y257484D01*
X-580716Y260542D01*
X-581719Y262965D01*
X-581756Y263032D01*
X-581785Y263103D01*
X-581841Y263184D01*
X-581889Y263270D01*
X-581940Y263326D01*
X-581984Y263389D01*
X-582057Y263455D01*
X-582123Y263528D01*
X-582186Y263571D01*
X-582242Y263622D01*
X-582328Y263670D01*
X-582409Y263726D01*
X-582481Y263754D01*
X-582547Y263791D01*
X-582642Y263818D01*
X-582734Y263854D01*
X-582809Y263865D01*
X-582883Y263886D01*
X-583032Y263898D01*
X-583078Y263905D01*
X-583098Y263903D01*
X-583127Y263905D01*
X-598058Y263905D01*
X-623011Y288859D01*
X-623110Y288938D01*
X-623204Y289022D01*
X-623247Y289046D01*
X-623284Y289076D01*
X-623399Y289130D01*
X-623509Y289191D01*
X-623556Y289204D01*
X-623600Y289225D01*
X-623723Y289251D01*
X-623845Y289286D01*
X-623906Y289291D01*
X-623940Y289298D01*
X-623988Y289297D01*
X-624089Y289305D01*
X-709411Y289305D01*
X-709537Y289291D01*
X-709663Y289284D01*
X-709710Y289271D01*
X-709758Y289265D01*
X-709877Y289223D01*
X-709998Y289188D01*
X-710040Y289164D01*
X-710086Y289148D01*
X-710192Y289079D01*
X-710302Y289018D01*
X-710349Y288978D01*
X-710379Y288959D01*
X-710412Y288924D01*
X-710489Y288859D01*
X-735442Y263905D01*
X-774954Y263905D01*
X-774980Y263902D01*
X-775006Y263904D01*
X-775153Y263882D01*
X-775300Y263865D01*
X-775325Y263857D01*
X-775351Y263853D01*
X-775489Y263798D01*
X-775628Y263748D01*
X-775650Y263734D01*
X-775675Y263724D01*
X-775796Y263639D01*
X-775921Y263559D01*
X-775939Y263540D01*
X-775961Y263525D01*
X-776060Y263415D01*
X-776163Y263308D01*
X-776177Y263286D01*
X-776194Y263266D01*
X-776266Y263136D01*
X-776342Y263009D01*
X-776350Y262984D01*
X-776363Y262961D01*
X-776403Y262818D01*
X-776448Y262677D01*
X-776450Y262651D01*
X-776458Y262626D01*
X-776477Y262382D01*
X-776477Y262176D01*
X-782876Y255777D01*
X-791924Y255777D01*
X-798323Y262176D01*
X-798323Y271224D01*
X-791924Y277623D01*
X-782876Y277623D01*
X-776477Y271224D01*
X-776477Y271018D01*
X-776474Y270992D01*
X-776476Y270966D01*
X-776454Y270819D01*
X-776437Y270672D01*
X-776429Y270647D01*
X-776425Y270621D01*
X-776370Y270483D01*
X-776320Y270344D01*
X-776306Y270322D01*
X-776296Y270297D01*
X-776211Y270176D01*
X-776131Y270051D01*
X-776112Y270033D01*
X-776097Y270011D01*
X-775987Y269912D01*
X-775880Y269809D01*
X-775858Y269795D01*
X-775838Y269778D01*
X-775708Y269706D01*
X-775581Y269630D01*
X-775556Y269622D01*
X-775533Y269609D01*
X-775390Y269569D01*
X-775249Y269524D01*
X-775223Y269522D01*
X-775198Y269514D01*
X-774954Y269495D01*
X-738389Y269495D01*
X-738263Y269509D01*
X-738137Y269516D01*
X-738090Y269529D01*
X-738042Y269535D01*
X-737923Y269577D01*
X-737802Y269612D01*
X-737760Y269636D01*
X-737714Y269652D01*
X-737608Y269721D01*
X-737498Y269782D01*
X-737451Y269822D01*
X-737421Y269841D01*
X-737388Y269876D01*
X-737311Y269941D01*
X-712358Y294895D01*
X-621142Y294895D01*
X-596189Y269941D01*
X-596090Y269862D01*
X-595996Y269778D01*
X-595953Y269754D01*
X-595916Y269724D01*
X-595801Y269670D01*
X-595691Y269609D01*
X-595644Y269596D01*
X-595600Y269575D01*
X-595477Y269549D01*
X-595355Y269514D01*
X-595294Y269509D01*
X-595260Y269502D01*
X-595212Y269503D01*
X-595111Y269495D01*
X-583127Y269495D01*
X-583051Y269503D01*
X-582974Y269502D01*
X-582878Y269523D01*
X-582780Y269535D01*
X-582708Y269560D01*
X-582634Y269577D01*
X-582545Y269619D01*
X-582452Y269652D01*
X-582388Y269694D01*
X-582319Y269726D01*
X-582242Y269788D01*
X-582159Y269841D01*
X-582106Y269896D01*
X-582047Y269944D01*
X-581986Y270021D01*
X-581917Y270092D01*
X-581878Y270157D01*
X-581831Y270217D01*
X-581763Y270350D01*
X-581738Y270391D01*
X-581733Y270409D01*
X-581719Y270435D01*
X-580716Y272858D01*
X-577658Y275916D01*
X-573662Y277571D01*
X-569338Y277571D01*
X-565342Y275916D01*
X-562284Y272858D01*
X-560629Y268862D01*
X-560629Y264538D01*
X-562284Y260542D01*
X-565342Y257484D01*
X-568860Y256027D01*
X-568999Y255950D01*
X-569141Y255875D01*
X-569152Y255865D01*
X-569164Y255858D01*
X-569283Y255751D01*
X-569403Y255645D01*
X-569412Y255634D01*
X-569423Y255624D01*
X-569514Y255492D01*
X-569607Y255362D01*
X-569613Y255349D01*
X-569621Y255337D01*
X-569679Y255188D01*
X-569741Y255041D01*
X-569743Y255026D01*
X-569749Y255013D01*
X-569772Y254854D01*
X-569798Y254697D01*
X-569797Y254682D01*
X-569799Y254668D01*
X-569786Y254509D01*
X-569776Y254349D01*
X-569772Y254335D01*
X-569770Y254321D01*
X-569721Y254169D01*
X-569675Y254016D01*
X-569668Y254003D01*
X-569663Y253989D01*
X-569581Y253852D01*
X-569501Y253714D01*
X-569491Y253703D01*
X-569484Y253690D01*
X-569372Y253576D01*
X-569263Y253459D01*
X-569251Y253451D01*
X-569241Y253441D01*
X-569107Y253354D01*
X-568973Y253265D01*
X-568957Y253259D01*
X-568948Y253252D01*
X-568911Y253239D01*
X-568748Y253171D01*
X-566840Y252551D01*
X-565137Y251684D01*
X-563591Y250560D01*
X-562240Y249209D01*
X-561116Y247663D01*
X-560249Y245960D01*
X-559725Y244347D01*
X-569976Y244347D01*
X-570002Y244344D01*
X-570028Y244346D01*
X-570175Y244324D01*
X-570322Y244307D01*
X-570347Y244299D01*
X-570373Y244295D01*
X-570511Y244240D01*
X-570650Y244190D01*
X-570672Y244176D01*
X-570697Y244166D01*
X-570818Y244081D01*
X-570943Y244001D01*
X-570961Y243982D01*
X-570983Y243967D01*
X-571082Y243857D01*
X-571185Y243750D01*
X-571199Y243728D01*
X-571216Y243708D01*
X-571288Y243578D01*
X-571364Y243451D01*
X-571372Y243426D01*
X-571385Y243403D01*
X-571425Y243260D01*
X-571470Y243119D01*
X-571472Y243093D01*
X-571479Y243068D01*
X-571499Y242824D01*
X-571499Y241299D01*
X-571501Y241299D01*
G37*
%LPD*%
%LPC*%
G36*
X-511051Y360933D02*
X-511051Y360933D01*
X-515367Y365249D01*
X-515367Y371083D01*
X-515381Y371209D01*
X-515388Y371335D01*
X-515401Y371382D01*
X-515407Y371430D01*
X-515449Y371549D01*
X-515484Y371670D01*
X-515508Y371712D01*
X-515524Y371758D01*
X-515593Y371864D01*
X-515654Y371974D01*
X-515694Y372021D01*
X-515713Y372051D01*
X-515748Y372084D01*
X-515813Y372161D01*
X-521411Y377759D01*
X-521510Y377838D01*
X-521604Y377922D01*
X-521647Y377946D01*
X-521684Y377976D01*
X-521799Y378030D01*
X-521909Y378091D01*
X-521956Y378104D01*
X-522000Y378125D01*
X-522123Y378151D01*
X-522245Y378186D01*
X-522306Y378191D01*
X-522340Y378198D01*
X-522388Y378197D01*
X-522489Y378205D01*
X-588646Y378205D01*
X-588771Y378191D01*
X-588897Y378184D01*
X-588944Y378171D01*
X-588992Y378165D01*
X-589111Y378123D01*
X-589232Y378088D01*
X-589274Y378064D01*
X-589320Y378048D01*
X-589426Y377979D01*
X-589536Y377918D01*
X-589583Y377878D01*
X-589613Y377859D01*
X-589646Y377824D01*
X-589723Y377759D01*
X-593849Y373633D01*
X-599951Y373633D01*
X-604267Y377949D01*
X-604267Y383783D01*
X-604281Y383909D01*
X-604288Y384035D01*
X-604301Y384082D01*
X-604307Y384130D01*
X-604349Y384249D01*
X-604384Y384370D01*
X-604408Y384412D01*
X-604424Y384458D01*
X-604493Y384564D01*
X-604554Y384674D01*
X-604594Y384721D01*
X-604613Y384751D01*
X-604648Y384784D01*
X-604713Y384861D01*
X-610311Y390459D01*
X-610410Y390538D01*
X-610504Y390622D01*
X-610547Y390646D01*
X-610584Y390676D01*
X-610699Y390730D01*
X-610809Y390791D01*
X-610856Y390804D01*
X-610900Y390825D01*
X-611023Y390851D01*
X-611145Y390886D01*
X-611206Y390891D01*
X-611240Y390898D01*
X-611288Y390897D01*
X-611389Y390905D01*
X-652146Y390905D01*
X-652271Y390891D01*
X-652397Y390884D01*
X-652444Y390871D01*
X-652492Y390865D01*
X-652611Y390823D01*
X-652732Y390788D01*
X-652774Y390764D01*
X-652820Y390748D01*
X-652926Y390679D01*
X-653036Y390618D01*
X-653083Y390578D01*
X-653113Y390559D01*
X-653146Y390524D01*
X-653223Y390459D01*
X-657349Y386333D01*
X-663451Y386333D01*
X-667767Y390649D01*
X-667767Y396751D01*
X-663451Y401067D01*
X-657349Y401067D01*
X-653223Y396941D01*
X-653124Y396862D01*
X-653030Y396778D01*
X-652988Y396754D01*
X-652950Y396724D01*
X-652836Y396670D01*
X-652725Y396609D01*
X-652678Y396596D01*
X-652635Y396575D01*
X-652511Y396549D01*
X-652389Y396514D01*
X-652329Y396509D01*
X-652294Y396502D01*
X-652246Y396503D01*
X-652146Y396495D01*
X-608442Y396495D01*
X-600761Y388813D01*
X-600662Y388734D01*
X-600568Y388650D01*
X-600525Y388626D01*
X-600488Y388596D01*
X-600373Y388542D01*
X-600263Y388481D01*
X-600216Y388468D01*
X-600172Y388447D01*
X-600049Y388421D01*
X-599927Y388386D01*
X-599867Y388381D01*
X-599832Y388374D01*
X-599784Y388375D01*
X-599683Y388367D01*
X-593849Y388367D01*
X-589723Y384241D01*
X-589624Y384162D01*
X-589530Y384078D01*
X-589488Y384054D01*
X-589450Y384024D01*
X-589336Y383970D01*
X-589225Y383909D01*
X-589178Y383896D01*
X-589135Y383875D01*
X-589011Y383849D01*
X-588889Y383814D01*
X-588829Y383809D01*
X-588794Y383802D01*
X-588746Y383803D01*
X-588646Y383795D01*
X-519542Y383795D01*
X-511861Y376113D01*
X-511762Y376034D01*
X-511668Y375950D01*
X-511625Y375926D01*
X-511588Y375896D01*
X-511473Y375842D01*
X-511363Y375781D01*
X-511316Y375768D01*
X-511272Y375747D01*
X-511149Y375721D01*
X-511027Y375686D01*
X-510967Y375681D01*
X-510932Y375674D01*
X-510884Y375675D01*
X-510783Y375667D01*
X-505217Y375667D01*
X-505091Y375681D01*
X-504965Y375688D01*
X-504918Y375701D01*
X-504870Y375707D01*
X-504751Y375749D01*
X-504630Y375784D01*
X-504588Y375808D01*
X-504542Y375824D01*
X-504436Y375893D01*
X-504326Y375954D01*
X-504279Y375994D01*
X-504249Y376013D01*
X-504216Y376048D01*
X-504139Y376113D01*
X-498541Y381711D01*
X-496458Y383795D01*
X-459104Y383795D01*
X-458979Y383809D01*
X-458853Y383816D01*
X-458806Y383829D01*
X-458758Y383835D01*
X-458639Y383877D01*
X-458518Y383912D01*
X-458475Y383936D01*
X-458430Y383952D01*
X-458324Y384021D01*
X-458213Y384082D01*
X-458167Y384122D01*
X-458137Y384141D01*
X-458104Y384176D01*
X-458027Y384241D01*
X-453901Y388367D01*
X-447799Y388367D01*
X-443483Y384051D01*
X-443483Y377949D01*
X-447799Y373633D01*
X-453901Y373633D01*
X-458027Y377759D01*
X-458126Y377838D01*
X-458220Y377922D01*
X-458262Y377946D01*
X-458300Y377976D01*
X-458414Y378030D01*
X-458525Y378091D01*
X-458572Y378104D01*
X-458615Y378125D01*
X-458739Y378151D01*
X-458861Y378186D01*
X-458921Y378191D01*
X-458956Y378198D01*
X-459004Y378197D01*
X-459104Y378205D01*
X-478410Y378205D01*
X-478510Y378194D01*
X-478610Y378192D01*
X-478682Y378174D01*
X-478756Y378165D01*
X-478850Y378132D01*
X-478948Y378107D01*
X-479014Y378073D01*
X-479084Y378048D01*
X-479168Y377993D01*
X-479258Y377947D01*
X-479314Y377899D01*
X-479377Y377859D01*
X-479447Y377787D01*
X-479523Y377722D01*
X-479567Y377662D01*
X-479619Y377608D01*
X-479671Y377522D01*
X-479730Y377441D01*
X-479760Y377373D01*
X-479798Y377309D01*
X-479828Y377213D01*
X-479868Y377121D01*
X-479881Y377048D01*
X-479904Y376977D01*
X-479912Y376877D01*
X-479930Y376778D01*
X-479926Y376704D01*
X-479932Y376630D01*
X-479917Y376530D01*
X-479912Y376430D01*
X-479891Y376359D01*
X-479880Y376285D01*
X-479843Y376192D01*
X-479815Y376095D01*
X-479779Y376030D01*
X-479752Y375961D01*
X-479694Y375879D01*
X-479645Y375791D01*
X-479580Y375715D01*
X-479553Y375675D01*
X-479526Y375651D01*
X-479487Y375605D01*
X-475233Y371351D01*
X-475233Y365249D01*
X-479549Y360933D01*
X-485651Y360933D01*
X-489967Y365249D01*
X-489967Y371351D01*
X-485713Y375605D01*
X-485651Y375683D01*
X-485581Y375756D01*
X-485543Y375820D01*
X-485497Y375878D01*
X-485454Y375969D01*
X-485402Y376055D01*
X-485379Y376126D01*
X-485348Y376193D01*
X-485327Y376291D01*
X-485296Y376387D01*
X-485290Y376461D01*
X-485274Y376534D01*
X-485276Y376634D01*
X-485268Y376734D01*
X-485279Y376808D01*
X-485280Y376882D01*
X-485305Y376979D01*
X-485320Y377079D01*
X-485347Y377148D01*
X-485365Y377220D01*
X-485411Y377310D01*
X-485448Y377403D01*
X-485491Y377464D01*
X-485525Y377530D01*
X-485590Y377607D01*
X-485647Y377689D01*
X-485702Y377739D01*
X-485751Y377795D01*
X-485832Y377855D01*
X-485906Y377922D01*
X-485971Y377958D01*
X-486031Y378003D01*
X-486123Y378042D01*
X-486211Y378091D01*
X-486283Y378111D01*
X-486351Y378141D01*
X-486450Y378158D01*
X-486547Y378186D01*
X-486647Y378194D01*
X-486694Y378202D01*
X-486730Y378200D01*
X-486790Y378205D01*
X-493511Y378205D01*
X-493637Y378191D01*
X-493763Y378184D01*
X-493810Y378171D01*
X-493858Y378165D01*
X-493977Y378123D01*
X-494098Y378088D01*
X-494140Y378064D01*
X-494186Y378048D01*
X-494292Y377979D01*
X-494402Y377918D01*
X-494448Y377878D01*
X-494479Y377859D01*
X-494512Y377824D01*
X-494589Y377759D01*
X-500187Y372161D01*
X-500266Y372062D01*
X-500350Y371968D01*
X-500374Y371925D01*
X-500404Y371888D01*
X-500458Y371773D01*
X-500519Y371663D01*
X-500532Y371616D01*
X-500553Y371572D01*
X-500579Y371449D01*
X-500614Y371327D01*
X-500619Y371267D01*
X-500626Y371232D01*
X-500625Y371184D01*
X-500633Y371083D01*
X-500633Y365249D01*
X-504949Y360933D01*
X-511051Y360933D01*
G37*
%LPD*%
%LPC*%
G36*
X-599951Y335533D02*
X-599951Y335533D01*
X-604267Y339849D01*
X-604267Y345683D01*
X-604281Y345809D01*
X-604288Y345935D01*
X-604301Y345982D01*
X-604307Y346030D01*
X-604349Y346149D01*
X-604384Y346270D01*
X-604408Y346312D01*
X-604424Y346358D01*
X-604493Y346464D01*
X-604554Y346574D01*
X-604594Y346621D01*
X-604613Y346651D01*
X-604648Y346684D01*
X-604713Y346761D01*
X-623011Y365059D01*
X-623110Y365138D01*
X-623204Y365222D01*
X-623247Y365246D01*
X-623284Y365276D01*
X-623399Y365330D01*
X-623509Y365391D01*
X-623556Y365404D01*
X-623600Y365425D01*
X-623723Y365451D01*
X-623845Y365486D01*
X-623906Y365491D01*
X-623940Y365498D01*
X-623988Y365497D01*
X-624089Y365505D01*
X-725058Y365505D01*
X-727141Y367589D01*
X-780576Y421023D01*
X-780596Y421039D01*
X-780613Y421060D01*
X-780711Y421132D01*
X-780740Y421158D01*
X-780757Y421167D01*
X-780849Y421240D01*
X-780872Y421251D01*
X-780893Y421267D01*
X-781030Y421325D01*
X-781164Y421389D01*
X-781189Y421394D01*
X-781213Y421405D01*
X-781360Y421431D01*
X-781504Y421462D01*
X-781530Y421462D01*
X-781556Y421466D01*
X-781705Y421459D01*
X-781853Y421456D01*
X-781878Y421450D01*
X-781904Y421448D01*
X-782047Y421407D01*
X-782191Y421371D01*
X-782214Y421359D01*
X-782239Y421352D01*
X-782369Y421279D01*
X-782501Y421212D01*
X-782521Y421195D01*
X-782544Y421182D01*
X-782640Y421100D01*
X-782649Y421094D01*
X-782659Y421084D01*
X-782730Y421023D01*
X-782876Y420877D01*
X-791924Y420877D01*
X-798323Y427276D01*
X-798323Y436324D01*
X-791924Y442723D01*
X-782876Y442723D01*
X-776477Y436324D01*
X-776477Y427276D01*
X-776623Y427130D01*
X-776639Y427109D01*
X-776659Y427092D01*
X-776748Y426973D01*
X-776840Y426857D01*
X-776851Y426833D01*
X-776867Y426812D01*
X-776925Y426676D01*
X-776989Y426542D01*
X-776994Y426516D01*
X-777005Y426492D01*
X-777031Y426346D01*
X-777062Y426201D01*
X-777062Y426175D01*
X-777066Y426149D01*
X-777059Y426000D01*
X-777056Y425853D01*
X-777050Y425827D01*
X-777048Y425801D01*
X-777007Y425658D01*
X-776971Y425515D01*
X-776959Y425491D01*
X-776952Y425466D01*
X-776879Y425337D01*
X-776812Y425205D01*
X-776794Y425185D01*
X-776782Y425162D01*
X-776623Y424976D01*
X-723189Y371541D01*
X-723090Y371462D01*
X-722996Y371378D01*
X-722953Y371354D01*
X-722916Y371324D01*
X-722801Y371270D01*
X-722691Y371209D01*
X-722644Y371196D01*
X-722600Y371175D01*
X-722477Y371149D01*
X-722355Y371114D01*
X-722294Y371109D01*
X-722260Y371102D01*
X-722212Y371103D01*
X-722111Y371095D01*
X-621142Y371095D01*
X-600761Y350713D01*
X-600662Y350634D01*
X-600568Y350550D01*
X-600525Y350526D01*
X-600488Y350496D01*
X-600373Y350442D01*
X-600263Y350381D01*
X-600216Y350368D01*
X-600172Y350347D01*
X-600049Y350321D01*
X-599927Y350286D01*
X-599866Y350281D01*
X-599832Y350274D01*
X-599784Y350275D01*
X-599683Y350267D01*
X-593849Y350267D01*
X-589533Y345951D01*
X-589533Y339849D01*
X-593849Y335533D01*
X-599951Y335533D01*
G37*
%LPD*%
%LPC*%
G36*
X-359440Y206628D02*
X-359440Y206628D01*
X-364872Y212060D01*
X-364872Y219740D01*
X-359349Y225263D01*
X-359270Y225362D01*
X-359186Y225456D01*
X-359162Y225498D01*
X-359132Y225536D01*
X-359078Y225650D01*
X-359017Y225761D01*
X-359004Y225808D01*
X-358983Y225851D01*
X-358957Y225975D01*
X-358922Y226097D01*
X-358917Y226157D01*
X-358910Y226192D01*
X-358911Y226240D01*
X-358903Y226340D01*
X-358903Y344268D01*
X-350626Y352545D01*
X-350579Y352605D01*
X-350524Y352658D01*
X-350470Y352741D01*
X-350409Y352818D01*
X-350377Y352887D01*
X-350335Y352951D01*
X-350302Y353044D01*
X-350260Y353133D01*
X-350244Y353208D01*
X-350219Y353280D01*
X-350208Y353378D01*
X-350187Y353474D01*
X-350188Y353550D01*
X-350180Y353626D01*
X-350191Y353724D01*
X-350193Y353822D01*
X-350212Y353896D01*
X-350221Y353972D01*
X-350267Y354114D01*
X-350267Y354115D01*
X-350267Y357065D01*
X-349145Y359773D01*
X-347073Y361845D01*
X-344365Y362967D01*
X-341435Y362967D01*
X-338727Y361845D01*
X-336655Y359773D01*
X-335533Y357065D01*
X-335533Y354135D01*
X-336655Y351427D01*
X-338727Y349355D01*
X-341435Y348233D01*
X-344387Y348233D01*
X-344439Y348255D01*
X-344536Y348273D01*
X-344630Y348300D01*
X-344706Y348304D01*
X-344782Y348317D01*
X-344880Y348312D01*
X-344978Y348317D01*
X-345054Y348303D01*
X-345130Y348299D01*
X-345224Y348272D01*
X-345321Y348254D01*
X-345391Y348224D01*
X-345465Y348203D01*
X-345551Y348155D01*
X-345641Y348115D01*
X-345702Y348070D01*
X-345769Y348033D01*
X-345883Y347936D01*
X-345921Y347908D01*
X-345933Y347893D01*
X-345955Y347874D01*
X-351851Y341978D01*
X-351930Y341879D01*
X-352014Y341785D01*
X-352038Y341743D01*
X-352068Y341705D01*
X-352122Y341591D01*
X-352183Y341480D01*
X-352196Y341434D01*
X-352217Y341390D01*
X-352243Y341267D01*
X-352278Y341145D01*
X-352283Y341084D01*
X-352290Y341049D01*
X-352289Y341001D01*
X-352297Y340901D01*
X-352297Y226340D01*
X-352283Y226215D01*
X-352276Y226089D01*
X-352263Y226042D01*
X-352257Y225994D01*
X-352215Y225875D01*
X-352180Y225754D01*
X-352156Y225712D01*
X-352140Y225666D01*
X-352071Y225560D01*
X-352010Y225450D01*
X-351970Y225403D01*
X-351951Y225373D01*
X-351916Y225340D01*
X-351851Y225263D01*
X-346328Y219740D01*
X-346328Y212060D01*
X-351760Y206628D01*
X-359440Y206628D01*
G37*
%LPD*%
%LPC*%
G36*
X-369914Y97704D02*
X-369914Y97704D01*
X-372196Y99986D01*
X-372196Y103214D01*
X-369914Y105496D01*
X-368988Y105496D01*
X-368862Y105510D01*
X-368736Y105517D01*
X-368689Y105530D01*
X-368641Y105536D01*
X-368522Y105578D01*
X-368401Y105613D01*
X-368359Y105637D01*
X-368313Y105653D01*
X-368207Y105722D01*
X-368097Y105783D01*
X-368050Y105823D01*
X-368020Y105842D01*
X-367987Y105877D01*
X-367910Y105942D01*
X-356758Y117095D01*
X-317246Y117095D01*
X-317220Y117098D01*
X-317194Y117096D01*
X-317047Y117118D01*
X-316900Y117135D01*
X-316875Y117143D01*
X-316849Y117147D01*
X-316711Y117202D01*
X-316572Y117252D01*
X-316550Y117266D01*
X-316525Y117276D01*
X-316404Y117361D01*
X-316279Y117441D01*
X-316261Y117460D01*
X-316239Y117475D01*
X-316140Y117585D01*
X-316037Y117692D01*
X-316023Y117714D01*
X-316006Y117734D01*
X-315934Y117864D01*
X-315858Y117991D01*
X-315850Y118016D01*
X-315837Y118039D01*
X-315797Y118182D01*
X-315752Y118323D01*
X-315750Y118349D01*
X-315742Y118374D01*
X-315723Y118618D01*
X-315723Y118824D01*
X-309324Y125223D01*
X-300276Y125223D01*
X-294075Y119022D01*
X-294055Y119006D01*
X-294038Y118986D01*
X-293918Y118898D01*
X-293802Y118806D01*
X-293778Y118794D01*
X-293757Y118779D01*
X-293621Y118720D01*
X-293487Y118657D01*
X-293461Y118651D01*
X-293437Y118641D01*
X-293291Y118614D01*
X-293146Y118583D01*
X-293120Y118584D01*
X-293094Y118579D01*
X-292946Y118587D01*
X-292798Y118589D01*
X-292772Y118596D01*
X-292746Y118597D01*
X-292604Y118638D01*
X-292460Y118674D01*
X-292437Y118686D01*
X-292411Y118694D01*
X-292282Y118766D01*
X-292150Y118834D01*
X-292130Y118851D01*
X-292107Y118864D01*
X-291921Y119022D01*
X-284450Y126493D01*
X-281939Y126493D01*
X-281939Y115316D01*
X-281936Y115290D01*
X-281938Y115264D01*
X-281916Y115117D01*
X-281899Y114970D01*
X-281891Y114945D01*
X-281887Y114919D01*
X-281832Y114782D01*
X-281782Y114642D01*
X-281768Y114620D01*
X-281758Y114595D01*
X-281673Y114474D01*
X-281593Y114349D01*
X-281574Y114331D01*
X-281559Y114309D01*
X-281543Y114295D01*
X-281625Y114210D01*
X-281639Y114187D01*
X-281656Y114168D01*
X-281728Y114038D01*
X-281804Y113911D01*
X-281812Y113886D01*
X-281825Y113863D01*
X-281865Y113720D01*
X-281910Y113579D01*
X-281912Y113553D01*
X-281920Y113528D01*
X-281939Y113284D01*
X-281939Y102107D01*
X-284450Y102107D01*
X-291921Y109578D01*
X-291941Y109594D01*
X-291958Y109614D01*
X-292078Y109702D01*
X-292194Y109794D01*
X-292218Y109806D01*
X-292239Y109821D01*
X-292375Y109880D01*
X-292509Y109943D01*
X-292535Y109949D01*
X-292559Y109959D01*
X-292705Y109986D01*
X-292850Y110017D01*
X-292876Y110016D01*
X-292902Y110021D01*
X-293050Y110013D01*
X-293198Y110011D01*
X-293224Y110004D01*
X-293250Y110003D01*
X-293392Y109962D01*
X-293536Y109926D01*
X-293559Y109914D01*
X-293585Y109906D01*
X-293714Y109834D01*
X-293846Y109766D01*
X-293866Y109749D01*
X-293889Y109736D01*
X-294075Y109578D01*
X-300276Y103377D01*
X-309324Y103377D01*
X-315723Y109776D01*
X-315723Y109982D01*
X-315726Y110008D01*
X-315724Y110034D01*
X-315746Y110181D01*
X-315763Y110328D01*
X-315771Y110353D01*
X-315775Y110379D01*
X-315830Y110517D01*
X-315880Y110656D01*
X-315894Y110678D01*
X-315904Y110703D01*
X-315989Y110824D01*
X-316069Y110949D01*
X-316088Y110967D01*
X-316103Y110989D01*
X-316213Y111088D01*
X-316320Y111191D01*
X-316342Y111205D01*
X-316362Y111222D01*
X-316492Y111294D01*
X-316619Y111370D01*
X-316644Y111378D01*
X-316667Y111391D01*
X-316810Y111431D01*
X-316951Y111476D01*
X-316977Y111478D01*
X-317002Y111486D01*
X-317246Y111505D01*
X-353811Y111505D01*
X-353937Y111491D01*
X-354063Y111484D01*
X-354110Y111471D01*
X-354158Y111465D01*
X-354277Y111423D01*
X-354398Y111388D01*
X-354440Y111364D01*
X-354486Y111348D01*
X-354592Y111279D01*
X-354702Y111218D01*
X-354749Y111178D01*
X-354779Y111159D01*
X-354812Y111124D01*
X-354889Y111059D01*
X-363958Y101990D01*
X-364037Y101891D01*
X-364121Y101797D01*
X-364145Y101754D01*
X-364175Y101717D01*
X-364229Y101602D01*
X-364290Y101492D01*
X-364303Y101445D01*
X-364324Y101401D01*
X-364350Y101278D01*
X-364385Y101156D01*
X-364390Y101095D01*
X-364397Y101061D01*
X-364396Y101013D01*
X-364404Y100912D01*
X-364404Y99986D01*
X-366686Y97704D01*
X-369914Y97704D01*
G37*
%LPD*%
%LPC*%
G36*
X-581626Y154229D02*
X-581626Y154229D01*
X-582371Y154974D01*
X-582371Y171387D01*
X-582385Y171513D01*
X-582392Y171639D01*
X-582405Y171686D01*
X-582411Y171734D01*
X-582453Y171853D01*
X-582488Y171974D01*
X-582512Y172016D01*
X-582528Y172062D01*
X-582597Y172168D01*
X-582658Y172278D01*
X-582698Y172325D01*
X-582717Y172355D01*
X-582752Y172388D01*
X-582817Y172465D01*
X-597611Y187259D01*
X-597710Y187338D01*
X-597804Y187422D01*
X-597847Y187446D01*
X-597884Y187476D01*
X-597999Y187530D01*
X-598109Y187591D01*
X-598156Y187604D01*
X-598200Y187625D01*
X-598323Y187651D01*
X-598445Y187686D01*
X-598506Y187691D01*
X-598540Y187698D01*
X-598588Y187697D01*
X-598689Y187705D01*
X-614046Y187705D01*
X-614171Y187691D01*
X-614297Y187684D01*
X-614344Y187671D01*
X-614392Y187665D01*
X-614511Y187623D01*
X-614632Y187588D01*
X-614674Y187564D01*
X-614720Y187548D01*
X-614826Y187479D01*
X-614936Y187418D01*
X-614983Y187378D01*
X-615013Y187359D01*
X-615046Y187324D01*
X-615123Y187259D01*
X-619249Y183133D01*
X-625351Y183133D01*
X-629667Y187449D01*
X-629667Y193551D01*
X-625351Y197867D01*
X-619249Y197867D01*
X-615123Y193741D01*
X-615024Y193662D01*
X-614930Y193578D01*
X-614888Y193554D01*
X-614850Y193524D01*
X-614736Y193470D01*
X-614625Y193409D01*
X-614578Y193396D01*
X-614535Y193375D01*
X-614411Y193349D01*
X-614289Y193314D01*
X-614229Y193309D01*
X-614194Y193302D01*
X-614146Y193303D01*
X-614046Y193295D01*
X-595742Y193295D01*
X-578865Y176417D01*
X-578766Y176338D01*
X-578672Y176254D01*
X-578629Y176230D01*
X-578592Y176200D01*
X-578477Y176146D01*
X-578367Y176085D01*
X-578320Y176072D01*
X-578276Y176051D01*
X-578153Y176025D01*
X-578031Y175990D01*
X-577970Y175985D01*
X-577936Y175978D01*
X-577888Y175979D01*
X-577787Y175971D01*
X-561374Y175971D01*
X-560629Y175226D01*
X-560629Y154974D01*
X-561374Y154229D01*
X-581626Y154229D01*
G37*
%LPD*%
%LPC*%
G36*
X-725514Y313604D02*
X-725514Y313604D01*
X-727796Y315886D01*
X-727796Y316812D01*
X-727810Y316938D01*
X-727817Y317064D01*
X-727830Y317111D01*
X-727836Y317159D01*
X-727878Y317278D01*
X-727913Y317399D01*
X-727937Y317441D01*
X-727953Y317487D01*
X-728022Y317593D01*
X-728083Y317703D01*
X-728123Y317750D01*
X-728142Y317780D01*
X-728177Y317813D01*
X-728242Y317890D01*
X-737311Y326959D01*
X-737410Y327038D01*
X-737504Y327122D01*
X-737547Y327146D01*
X-737584Y327176D01*
X-737699Y327230D01*
X-737809Y327291D01*
X-737856Y327304D01*
X-737900Y327325D01*
X-738023Y327351D01*
X-738145Y327386D01*
X-738206Y327391D01*
X-738240Y327398D01*
X-738288Y327397D01*
X-738389Y327405D01*
X-774954Y327405D01*
X-774980Y327402D01*
X-775006Y327404D01*
X-775153Y327382D01*
X-775300Y327365D01*
X-775325Y327357D01*
X-775351Y327353D01*
X-775489Y327298D01*
X-775628Y327248D01*
X-775650Y327234D01*
X-775675Y327224D01*
X-775796Y327139D01*
X-775921Y327059D01*
X-775939Y327040D01*
X-775961Y327025D01*
X-776060Y326915D01*
X-776163Y326808D01*
X-776177Y326786D01*
X-776194Y326766D01*
X-776266Y326636D01*
X-776342Y326509D01*
X-776350Y326484D01*
X-776363Y326461D01*
X-776403Y326318D01*
X-776448Y326177D01*
X-776450Y326151D01*
X-776458Y326126D01*
X-776477Y325882D01*
X-776477Y325676D01*
X-782876Y319277D01*
X-791924Y319277D01*
X-798323Y325676D01*
X-798323Y334724D01*
X-791924Y341123D01*
X-782876Y341123D01*
X-776477Y334724D01*
X-776477Y334518D01*
X-776474Y334492D01*
X-776476Y334466D01*
X-776454Y334319D01*
X-776437Y334172D01*
X-776429Y334147D01*
X-776425Y334121D01*
X-776370Y333983D01*
X-776320Y333844D01*
X-776306Y333822D01*
X-776296Y333797D01*
X-776211Y333676D01*
X-776131Y333551D01*
X-776112Y333533D01*
X-776097Y333511D01*
X-775987Y333412D01*
X-775880Y333309D01*
X-775858Y333295D01*
X-775838Y333278D01*
X-775708Y333206D01*
X-775581Y333130D01*
X-775556Y333122D01*
X-775533Y333109D01*
X-775390Y333069D01*
X-775249Y333024D01*
X-775223Y333022D01*
X-775198Y333014D01*
X-774954Y332995D01*
X-735442Y332995D01*
X-724290Y321842D01*
X-724191Y321763D01*
X-724097Y321679D01*
X-724054Y321655D01*
X-724017Y321625D01*
X-723902Y321571D01*
X-723792Y321510D01*
X-723745Y321497D01*
X-723701Y321476D01*
X-723578Y321450D01*
X-723456Y321415D01*
X-723395Y321410D01*
X-723361Y321403D01*
X-723313Y321404D01*
X-723212Y321396D01*
X-722286Y321396D01*
X-720004Y319114D01*
X-720004Y315886D01*
X-722286Y313604D01*
X-725514Y313604D01*
G37*
%LPD*%
%LPC*%
G36*
X-215990Y446725D02*
X-215990Y446725D01*
X-216013Y446739D01*
X-216032Y446756D01*
X-216162Y446828D01*
X-216289Y446904D01*
X-216314Y446912D01*
X-216337Y446925D01*
X-216480Y446965D01*
X-216621Y447010D01*
X-216647Y447012D01*
X-216672Y447020D01*
X-216916Y447039D01*
X-228093Y447039D01*
X-228093Y449550D01*
X-221430Y456213D01*
X-221414Y456233D01*
X-221394Y456250D01*
X-221306Y456370D01*
X-221214Y456486D01*
X-221203Y456509D01*
X-221187Y456531D01*
X-221128Y456667D01*
X-221065Y456801D01*
X-221059Y456826D01*
X-221049Y456851D01*
X-221023Y456997D01*
X-220991Y457141D01*
X-220992Y457168D01*
X-220987Y457194D01*
X-220995Y457342D01*
X-220997Y457490D01*
X-221004Y457515D01*
X-221005Y457542D01*
X-221046Y457684D01*
X-221082Y457828D01*
X-221094Y457851D01*
X-221102Y457876D01*
X-221174Y458006D01*
X-221242Y458138D01*
X-221259Y458158D01*
X-221272Y458181D01*
X-221430Y458367D01*
X-227966Y464902D01*
X-227966Y474898D01*
X-220898Y481966D01*
X-210902Y481966D01*
X-203834Y474898D01*
X-203834Y464902D01*
X-210370Y458367D01*
X-210386Y458346D01*
X-210406Y458329D01*
X-210494Y458210D01*
X-210586Y458094D01*
X-210597Y458070D01*
X-210613Y458049D01*
X-210672Y457913D01*
X-210735Y457779D01*
X-210741Y457753D01*
X-210751Y457729D01*
X-210777Y457583D01*
X-210809Y457438D01*
X-210808Y457412D01*
X-210813Y457386D01*
X-210805Y457237D01*
X-210803Y457090D01*
X-210796Y457064D01*
X-210795Y457038D01*
X-210754Y456896D01*
X-210718Y456752D01*
X-210706Y456728D01*
X-210698Y456703D01*
X-210626Y456574D01*
X-210558Y456442D01*
X-210541Y456422D01*
X-210528Y456399D01*
X-210370Y456213D01*
X-203707Y449550D01*
X-203707Y447039D01*
X-214884Y447039D01*
X-214910Y447036D01*
X-214936Y447038D01*
X-215083Y447016D01*
X-215230Y446999D01*
X-215255Y446991D01*
X-215281Y446987D01*
X-215418Y446932D01*
X-215558Y446882D01*
X-215580Y446868D01*
X-215605Y446858D01*
X-215726Y446773D01*
X-215851Y446693D01*
X-215869Y446674D01*
X-215891Y446659D01*
X-215905Y446643D01*
X-215990Y446725D01*
G37*
%LPD*%
%LPC*%
G36*
X-520790Y446725D02*
X-520790Y446725D01*
X-520813Y446739D01*
X-520832Y446756D01*
X-520962Y446828D01*
X-521089Y446904D01*
X-521114Y446912D01*
X-521137Y446925D01*
X-521280Y446965D01*
X-521421Y447010D01*
X-521447Y447012D01*
X-521472Y447020D01*
X-521716Y447039D01*
X-532893Y447039D01*
X-532893Y449550D01*
X-525422Y457021D01*
X-525406Y457041D01*
X-525386Y457058D01*
X-525298Y457178D01*
X-525206Y457294D01*
X-525194Y457318D01*
X-525179Y457339D01*
X-525120Y457475D01*
X-525057Y457609D01*
X-525051Y457635D01*
X-525041Y457659D01*
X-525014Y457805D01*
X-524983Y457950D01*
X-524984Y457976D01*
X-524979Y458002D01*
X-524987Y458150D01*
X-524989Y458298D01*
X-524996Y458324D01*
X-524997Y458350D01*
X-525038Y458492D01*
X-525074Y458636D01*
X-525086Y458659D01*
X-525094Y458685D01*
X-525166Y458814D01*
X-525234Y458946D01*
X-525251Y458966D01*
X-525264Y458989D01*
X-525422Y459175D01*
X-531623Y465376D01*
X-531623Y474424D01*
X-525224Y480823D01*
X-516176Y480823D01*
X-509777Y474424D01*
X-509777Y465376D01*
X-515978Y459175D01*
X-515994Y459155D01*
X-516014Y459138D01*
X-516102Y459018D01*
X-516194Y458902D01*
X-516206Y458878D01*
X-516221Y458857D01*
X-516280Y458721D01*
X-516343Y458587D01*
X-516349Y458561D01*
X-516359Y458537D01*
X-516386Y458391D01*
X-516417Y458246D01*
X-516416Y458220D01*
X-516421Y458194D01*
X-516413Y458046D01*
X-516411Y457898D01*
X-516404Y457872D01*
X-516403Y457846D01*
X-516362Y457703D01*
X-516326Y457560D01*
X-516314Y457537D01*
X-516306Y457511D01*
X-516234Y457382D01*
X-516166Y457250D01*
X-516149Y457230D01*
X-516136Y457207D01*
X-515978Y457021D01*
X-508507Y449550D01*
X-508507Y447039D01*
X-519684Y447039D01*
X-519710Y447036D01*
X-519736Y447038D01*
X-519883Y447016D01*
X-520030Y446999D01*
X-520055Y446991D01*
X-520081Y446987D01*
X-520218Y446932D01*
X-520358Y446882D01*
X-520380Y446868D01*
X-520405Y446858D01*
X-520526Y446773D01*
X-520651Y446693D01*
X-520669Y446674D01*
X-520691Y446659D01*
X-520705Y446643D01*
X-520790Y446725D01*
G37*
%LPD*%
%LPC*%
G36*
X-787490Y192725D02*
X-787490Y192725D01*
X-787513Y192739D01*
X-787532Y192756D01*
X-787662Y192828D01*
X-787789Y192904D01*
X-787814Y192912D01*
X-787837Y192925D01*
X-787980Y192965D01*
X-788121Y193010D01*
X-788147Y193012D01*
X-788172Y193020D01*
X-788416Y193039D01*
X-799593Y193039D01*
X-799593Y195550D01*
X-792122Y203021D01*
X-792106Y203041D01*
X-792086Y203058D01*
X-791998Y203178D01*
X-791906Y203294D01*
X-791894Y203318D01*
X-791879Y203339D01*
X-791820Y203475D01*
X-791757Y203609D01*
X-791751Y203635D01*
X-791741Y203659D01*
X-791714Y203805D01*
X-791683Y203950D01*
X-791684Y203976D01*
X-791679Y204002D01*
X-791687Y204150D01*
X-791689Y204298D01*
X-791696Y204324D01*
X-791697Y204350D01*
X-791738Y204492D01*
X-791774Y204636D01*
X-791786Y204659D01*
X-791794Y204685D01*
X-791866Y204814D01*
X-791934Y204946D01*
X-791951Y204966D01*
X-791964Y204989D01*
X-792122Y205175D01*
X-798323Y211376D01*
X-798323Y220424D01*
X-791924Y226823D01*
X-782876Y226823D01*
X-776477Y220424D01*
X-776477Y211376D01*
X-782678Y205175D01*
X-782694Y205155D01*
X-782714Y205138D01*
X-782802Y205018D01*
X-782894Y204902D01*
X-782906Y204878D01*
X-782921Y204857D01*
X-782980Y204721D01*
X-783043Y204587D01*
X-783049Y204561D01*
X-783059Y204537D01*
X-783086Y204391D01*
X-783117Y204246D01*
X-783116Y204220D01*
X-783121Y204194D01*
X-783113Y204046D01*
X-783111Y203898D01*
X-783104Y203872D01*
X-783103Y203846D01*
X-783062Y203704D01*
X-783026Y203560D01*
X-783014Y203537D01*
X-783006Y203511D01*
X-782934Y203382D01*
X-782866Y203250D01*
X-782849Y203230D01*
X-782836Y203207D01*
X-782678Y203021D01*
X-775207Y195550D01*
X-775207Y193039D01*
X-786384Y193039D01*
X-786410Y193036D01*
X-786436Y193038D01*
X-786583Y193016D01*
X-786730Y192999D01*
X-786755Y192991D01*
X-786781Y192987D01*
X-786918Y192932D01*
X-787058Y192882D01*
X-787080Y192868D01*
X-787105Y192858D01*
X-787226Y192773D01*
X-787351Y192693D01*
X-787369Y192674D01*
X-787391Y192659D01*
X-787405Y192643D01*
X-787490Y192725D01*
G37*
%LPD*%
%LPC*%
G36*
X-787490Y91125D02*
X-787490Y91125D01*
X-787513Y91139D01*
X-787532Y91156D01*
X-787662Y91228D01*
X-787789Y91304D01*
X-787814Y91312D01*
X-787837Y91325D01*
X-787980Y91365D01*
X-788121Y91410D01*
X-788147Y91412D01*
X-788172Y91420D01*
X-788416Y91439D01*
X-799593Y91439D01*
X-799593Y93950D01*
X-792122Y101421D01*
X-792106Y101441D01*
X-792086Y101458D01*
X-791998Y101578D01*
X-791906Y101694D01*
X-791894Y101718D01*
X-791879Y101739D01*
X-791820Y101875D01*
X-791757Y102009D01*
X-791751Y102035D01*
X-791741Y102059D01*
X-791714Y102205D01*
X-791683Y102350D01*
X-791684Y102376D01*
X-791679Y102402D01*
X-791687Y102550D01*
X-791689Y102698D01*
X-791696Y102724D01*
X-791697Y102750D01*
X-791738Y102892D01*
X-791774Y103036D01*
X-791786Y103059D01*
X-791794Y103085D01*
X-791866Y103214D01*
X-791934Y103346D01*
X-791951Y103366D01*
X-791964Y103389D01*
X-792122Y103575D01*
X-798323Y109776D01*
X-798323Y118824D01*
X-791924Y125223D01*
X-782876Y125223D01*
X-776477Y118824D01*
X-776477Y109776D01*
X-782678Y103575D01*
X-782694Y103555D01*
X-782714Y103538D01*
X-782802Y103418D01*
X-782894Y103302D01*
X-782906Y103278D01*
X-782921Y103257D01*
X-782980Y103121D01*
X-783043Y102987D01*
X-783049Y102961D01*
X-783059Y102937D01*
X-783086Y102791D01*
X-783117Y102646D01*
X-783116Y102620D01*
X-783121Y102594D01*
X-783113Y102446D01*
X-783111Y102298D01*
X-783104Y102272D01*
X-783103Y102246D01*
X-783062Y102104D01*
X-783026Y101960D01*
X-783014Y101937D01*
X-783006Y101911D01*
X-782934Y101782D01*
X-782866Y101650D01*
X-782849Y101630D01*
X-782836Y101607D01*
X-782678Y101421D01*
X-775207Y93950D01*
X-775207Y91439D01*
X-786384Y91439D01*
X-786410Y91436D01*
X-786436Y91438D01*
X-786583Y91416D01*
X-786730Y91399D01*
X-786755Y91391D01*
X-786781Y91387D01*
X-786918Y91332D01*
X-787058Y91282D01*
X-787080Y91268D01*
X-787105Y91258D01*
X-787226Y91173D01*
X-787351Y91093D01*
X-787369Y91074D01*
X-787391Y91059D01*
X-787405Y91043D01*
X-787490Y91125D01*
G37*
%LPD*%
%LPC*%
G36*
X-791924Y52577D02*
X-791924Y52577D01*
X-798323Y58976D01*
X-798323Y68024D01*
X-792122Y74225D01*
X-792106Y74245D01*
X-792086Y74262D01*
X-791998Y74382D01*
X-791906Y74498D01*
X-791894Y74522D01*
X-791879Y74543D01*
X-791820Y74679D01*
X-791757Y74813D01*
X-791751Y74839D01*
X-791741Y74863D01*
X-791714Y75009D01*
X-791683Y75154D01*
X-791684Y75180D01*
X-791679Y75206D01*
X-791687Y75354D01*
X-791689Y75502D01*
X-791696Y75528D01*
X-791697Y75554D01*
X-791738Y75696D01*
X-791774Y75840D01*
X-791786Y75863D01*
X-791794Y75889D01*
X-791866Y76018D01*
X-791934Y76150D01*
X-791951Y76170D01*
X-791964Y76193D01*
X-792122Y76379D01*
X-799593Y83850D01*
X-799593Y86361D01*
X-788416Y86361D01*
X-788390Y86364D01*
X-788364Y86362D01*
X-788217Y86384D01*
X-788070Y86401D01*
X-788045Y86409D01*
X-788019Y86413D01*
X-787882Y86468D01*
X-787742Y86518D01*
X-787720Y86532D01*
X-787695Y86542D01*
X-787574Y86627D01*
X-787449Y86707D01*
X-787431Y86726D01*
X-787409Y86741D01*
X-787395Y86757D01*
X-787310Y86675D01*
X-787287Y86661D01*
X-787268Y86644D01*
X-787138Y86572D01*
X-787011Y86496D01*
X-786986Y86488D01*
X-786963Y86475D01*
X-786820Y86435D01*
X-786679Y86390D01*
X-786653Y86387D01*
X-786628Y86380D01*
X-786384Y86361D01*
X-775207Y86361D01*
X-775207Y83850D01*
X-782678Y76379D01*
X-782694Y76359D01*
X-782714Y76342D01*
X-782802Y76222D01*
X-782894Y76106D01*
X-782906Y76082D01*
X-782921Y76061D01*
X-782980Y75925D01*
X-783043Y75791D01*
X-783049Y75765D01*
X-783059Y75741D01*
X-783086Y75595D01*
X-783117Y75450D01*
X-783116Y75424D01*
X-783121Y75398D01*
X-783113Y75250D01*
X-783111Y75102D01*
X-783104Y75076D01*
X-783103Y75050D01*
X-783062Y74908D01*
X-783026Y74764D01*
X-783014Y74741D01*
X-783006Y74715D01*
X-782934Y74586D01*
X-782866Y74454D01*
X-782849Y74434D01*
X-782836Y74411D01*
X-782678Y74225D01*
X-776477Y68024D01*
X-776477Y58976D01*
X-782876Y52577D01*
X-791924Y52577D01*
G37*
%LPD*%
%LPC*%
G36*
X-791924Y154177D02*
X-791924Y154177D01*
X-798323Y160576D01*
X-798323Y169624D01*
X-792122Y175825D01*
X-792106Y175845D01*
X-792086Y175862D01*
X-791998Y175982D01*
X-791906Y176098D01*
X-791894Y176122D01*
X-791879Y176143D01*
X-791820Y176279D01*
X-791757Y176413D01*
X-791751Y176439D01*
X-791741Y176463D01*
X-791714Y176609D01*
X-791683Y176754D01*
X-791684Y176780D01*
X-791679Y176806D01*
X-791687Y176954D01*
X-791689Y177102D01*
X-791696Y177128D01*
X-791697Y177154D01*
X-791738Y177296D01*
X-791774Y177440D01*
X-791786Y177463D01*
X-791794Y177489D01*
X-791866Y177618D01*
X-791934Y177750D01*
X-791951Y177770D01*
X-791964Y177793D01*
X-792122Y177979D01*
X-799593Y185450D01*
X-799593Y187961D01*
X-788416Y187961D01*
X-788390Y187964D01*
X-788364Y187962D01*
X-788217Y187984D01*
X-788070Y188001D01*
X-788045Y188009D01*
X-788019Y188013D01*
X-787882Y188068D01*
X-787742Y188118D01*
X-787720Y188132D01*
X-787695Y188142D01*
X-787574Y188227D01*
X-787449Y188307D01*
X-787431Y188326D01*
X-787409Y188341D01*
X-787395Y188357D01*
X-787310Y188275D01*
X-787287Y188261D01*
X-787268Y188244D01*
X-787138Y188172D01*
X-787011Y188096D01*
X-786986Y188088D01*
X-786963Y188075D01*
X-786820Y188035D01*
X-786679Y187990D01*
X-786653Y187987D01*
X-786628Y187980D01*
X-786384Y187961D01*
X-775207Y187961D01*
X-775207Y185450D01*
X-782678Y177979D01*
X-782694Y177959D01*
X-782714Y177942D01*
X-782802Y177822D01*
X-782894Y177706D01*
X-782906Y177682D01*
X-782921Y177661D01*
X-782980Y177525D01*
X-783043Y177391D01*
X-783049Y177365D01*
X-783059Y177341D01*
X-783086Y177195D01*
X-783117Y177050D01*
X-783116Y177024D01*
X-783121Y176998D01*
X-783113Y176850D01*
X-783111Y176702D01*
X-783104Y176676D01*
X-783103Y176650D01*
X-783062Y176508D01*
X-783026Y176364D01*
X-783014Y176341D01*
X-783006Y176315D01*
X-782934Y176186D01*
X-782866Y176054D01*
X-782849Y176034D01*
X-782836Y176011D01*
X-782678Y175825D01*
X-776477Y169624D01*
X-776477Y160576D01*
X-782876Y154177D01*
X-791924Y154177D01*
G37*
%LPD*%
%LPC*%
G36*
X-276861Y457707D02*
X-276861Y457707D01*
X-276861Y468884D01*
X-276864Y468910D01*
X-276862Y468936D01*
X-276884Y469083D01*
X-276901Y469230D01*
X-276909Y469255D01*
X-276913Y469281D01*
X-276968Y469418D01*
X-277018Y469558D01*
X-277032Y469580D01*
X-277042Y469605D01*
X-277127Y469726D01*
X-277207Y469851D01*
X-277226Y469869D01*
X-277241Y469891D01*
X-277257Y469905D01*
X-277175Y469990D01*
X-277161Y470013D01*
X-277144Y470032D01*
X-277072Y470162D01*
X-276996Y470289D01*
X-276988Y470314D01*
X-276975Y470337D01*
X-276935Y470480D01*
X-276890Y470621D01*
X-276887Y470647D01*
X-276880Y470672D01*
X-276861Y470916D01*
X-276861Y482093D01*
X-274350Y482093D01*
X-266879Y474622D01*
X-266859Y474606D01*
X-266842Y474586D01*
X-266722Y474498D01*
X-266606Y474406D01*
X-266582Y474394D01*
X-266561Y474379D01*
X-266425Y474320D01*
X-266291Y474257D01*
X-266265Y474251D01*
X-266241Y474241D01*
X-266095Y474214D01*
X-265950Y474183D01*
X-265924Y474184D01*
X-265898Y474179D01*
X-265750Y474187D01*
X-265602Y474189D01*
X-265576Y474196D01*
X-265550Y474197D01*
X-265408Y474238D01*
X-265264Y474274D01*
X-265241Y474286D01*
X-265215Y474294D01*
X-265086Y474366D01*
X-264954Y474434D01*
X-264934Y474451D01*
X-264911Y474464D01*
X-264725Y474622D01*
X-258524Y480823D01*
X-249476Y480823D01*
X-243077Y474424D01*
X-243077Y465376D01*
X-249476Y458977D01*
X-258524Y458977D01*
X-264725Y465178D01*
X-264745Y465194D01*
X-264762Y465214D01*
X-264849Y465278D01*
X-264909Y465332D01*
X-264943Y465351D01*
X-264998Y465394D01*
X-265022Y465406D01*
X-265043Y465421D01*
X-265169Y465476D01*
X-265214Y465500D01*
X-265234Y465506D01*
X-265313Y465543D01*
X-265339Y465549D01*
X-265363Y465559D01*
X-265509Y465586D01*
X-265535Y465591D01*
X-265549Y465595D01*
X-265556Y465596D01*
X-265654Y465617D01*
X-265680Y465616D01*
X-265706Y465621D01*
X-265854Y465613D01*
X-266002Y465611D01*
X-266028Y465604D01*
X-266054Y465603D01*
X-266147Y465576D01*
X-266157Y465575D01*
X-266182Y465566D01*
X-266196Y465562D01*
X-266340Y465526D01*
X-266363Y465514D01*
X-266389Y465506D01*
X-266460Y465466D01*
X-266486Y465457D01*
X-266536Y465425D01*
X-266650Y465366D01*
X-266670Y465349D01*
X-266693Y465336D01*
X-266755Y465283D01*
X-266778Y465268D01*
X-266804Y465241D01*
X-266879Y465178D01*
X-274350Y457707D01*
X-276861Y457707D01*
G37*
%LPD*%
%LPC*%
G36*
X-398698Y457834D02*
X-398698Y457834D01*
X-405766Y464902D01*
X-405766Y474898D01*
X-398698Y481966D01*
X-388702Y481966D01*
X-381634Y474898D01*
X-381634Y464902D01*
X-388702Y457834D01*
X-398698Y457834D01*
G37*
%LPD*%
%LPC*%
G36*
X-581626Y281229D02*
X-581626Y281229D01*
X-582371Y281974D01*
X-582371Y302226D01*
X-581626Y302971D01*
X-561374Y302971D01*
X-560629Y302226D01*
X-560629Y281974D01*
X-561374Y281229D01*
X-581626Y281229D01*
G37*
%LPD*%
%LPC*%
G36*
X-791924Y395477D02*
X-791924Y395477D01*
X-798323Y401876D01*
X-798323Y410924D01*
X-791924Y417323D01*
X-782876Y417323D01*
X-776477Y410924D01*
X-776477Y401876D01*
X-782876Y395477D01*
X-791924Y395477D01*
G37*
%LPD*%
%LPC*%
G36*
X-309324Y77977D02*
X-309324Y77977D01*
X-315723Y84376D01*
X-315723Y93424D01*
X-309324Y99823D01*
X-300276Y99823D01*
X-293877Y93424D01*
X-293877Y84376D01*
X-300276Y77977D01*
X-309324Y77977D01*
G37*
%LPD*%
%LPC*%
G36*
X-791924Y281177D02*
X-791924Y281177D01*
X-798323Y287576D01*
X-798323Y296624D01*
X-791924Y303023D01*
X-782876Y303023D01*
X-776477Y296624D01*
X-776477Y287576D01*
X-782876Y281177D01*
X-791924Y281177D01*
G37*
%LPD*%
%LPC*%
G36*
X-603438Y511047D02*
X-603438Y511047D01*
X-609093Y516702D01*
X-609093Y524698D01*
X-603438Y530353D01*
X-595442Y530353D01*
X-589787Y524698D01*
X-589787Y516702D01*
X-595442Y511047D01*
X-603438Y511047D01*
G37*
%LPD*%
%LPC*%
G36*
X-283398Y511047D02*
X-283398Y511047D01*
X-289053Y516702D01*
X-289053Y524698D01*
X-283398Y530353D01*
X-275402Y530353D01*
X-269747Y524698D01*
X-269747Y516702D01*
X-275402Y511047D01*
X-283398Y511047D01*
G37*
%LPD*%
%LPC*%
G36*
X-232598Y511047D02*
X-232598Y511047D01*
X-238253Y516702D01*
X-238253Y524698D01*
X-232598Y530353D01*
X-224602Y530353D01*
X-218947Y524698D01*
X-218947Y516702D01*
X-224602Y511047D01*
X-232598Y511047D01*
G37*
%LPD*%
%LPC*%
G36*
X-207198Y28447D02*
X-207198Y28447D01*
X-212853Y34102D01*
X-212853Y42098D01*
X-207198Y47753D01*
X-199202Y47753D01*
X-193547Y42098D01*
X-193547Y34102D01*
X-199202Y28447D01*
X-207198Y28447D01*
G37*
%LPD*%
%LPC*%
G36*
X-181798Y28447D02*
X-181798Y28447D01*
X-187453Y34102D01*
X-187453Y42098D01*
X-181798Y47753D01*
X-173802Y47753D01*
X-168147Y42098D01*
X-168147Y34102D01*
X-173802Y28447D01*
X-181798Y28447D01*
G37*
%LPD*%
%LPC*%
G36*
X-257998Y28447D02*
X-257998Y28447D01*
X-263653Y34102D01*
X-263653Y42098D01*
X-257998Y47753D01*
X-250002Y47753D01*
X-244347Y42098D01*
X-244347Y34102D01*
X-250002Y28447D01*
X-257998Y28447D01*
G37*
%LPD*%
%LPC*%
G36*
X-257998Y511047D02*
X-257998Y511047D01*
X-263653Y516702D01*
X-263653Y524698D01*
X-257998Y530353D01*
X-250002Y530353D01*
X-244347Y524698D01*
X-244347Y516702D01*
X-250002Y511047D01*
X-257998Y511047D01*
G37*
%LPD*%
%LPC*%
G36*
X-578038Y511047D02*
X-578038Y511047D01*
X-583693Y516702D01*
X-583693Y524698D01*
X-578038Y530353D01*
X-570042Y530353D01*
X-564387Y524698D01*
X-564387Y516702D01*
X-570042Y511047D01*
X-578038Y511047D01*
G37*
%LPD*%
%LPC*%
G36*
X-207198Y511047D02*
X-207198Y511047D01*
X-212853Y516702D01*
X-212853Y524698D01*
X-207198Y530353D01*
X-199202Y530353D01*
X-193547Y524698D01*
X-193547Y516702D01*
X-199202Y511047D01*
X-207198Y511047D01*
G37*
%LPD*%
%LPC*%
G36*
X-308798Y511047D02*
X-308798Y511047D01*
X-314453Y516702D01*
X-314453Y524698D01*
X-308798Y530353D01*
X-300802Y530353D01*
X-295147Y524698D01*
X-295147Y516702D01*
X-300802Y511047D01*
X-308798Y511047D01*
G37*
%LPD*%
%LPC*%
G36*
X-334198Y511047D02*
X-334198Y511047D01*
X-339853Y516702D01*
X-339853Y524698D01*
X-334198Y530353D01*
X-326202Y530353D01*
X-320547Y524698D01*
X-320547Y516702D01*
X-326202Y511047D01*
X-334198Y511047D01*
G37*
%LPD*%
%LPC*%
G36*
X-359598Y511047D02*
X-359598Y511047D01*
X-365253Y516702D01*
X-365253Y524698D01*
X-359598Y530353D01*
X-351602Y530353D01*
X-345947Y524698D01*
X-345947Y516702D01*
X-351602Y511047D01*
X-359598Y511047D01*
G37*
%LPD*%
%LPC*%
G36*
X-400238Y511047D02*
X-400238Y511047D01*
X-405893Y516702D01*
X-405893Y524698D01*
X-400238Y530353D01*
X-392242Y530353D01*
X-386587Y524698D01*
X-386587Y516702D01*
X-392242Y511047D01*
X-400238Y511047D01*
G37*
%LPD*%
%LPC*%
G36*
X-425638Y511047D02*
X-425638Y511047D01*
X-431293Y516702D01*
X-431293Y524698D01*
X-425638Y530353D01*
X-417642Y530353D01*
X-411987Y524698D01*
X-411987Y516702D01*
X-417642Y511047D01*
X-425638Y511047D01*
G37*
%LPD*%
%LPC*%
G36*
X-451038Y511047D02*
X-451038Y511047D01*
X-456693Y516702D01*
X-456693Y524698D01*
X-451038Y530353D01*
X-443042Y530353D01*
X-437387Y524698D01*
X-437387Y516702D01*
X-443042Y511047D01*
X-451038Y511047D01*
G37*
%LPD*%
%LPC*%
G36*
X-476438Y511047D02*
X-476438Y511047D01*
X-482093Y516702D01*
X-482093Y524698D01*
X-476438Y530353D01*
X-468442Y530353D01*
X-462787Y524698D01*
X-462787Y516702D01*
X-468442Y511047D01*
X-476438Y511047D01*
G37*
%LPD*%
%LPC*%
G36*
X-501838Y511047D02*
X-501838Y511047D01*
X-507493Y516702D01*
X-507493Y524698D01*
X-501838Y530353D01*
X-493842Y530353D01*
X-488187Y524698D01*
X-488187Y516702D01*
X-493842Y511047D01*
X-501838Y511047D01*
G37*
%LPD*%
%LPC*%
G36*
X-527238Y511047D02*
X-527238Y511047D01*
X-532893Y516702D01*
X-532893Y524698D01*
X-527238Y530353D01*
X-519242Y530353D01*
X-513587Y524698D01*
X-513587Y516702D01*
X-519242Y511047D01*
X-527238Y511047D01*
G37*
%LPD*%
%LPC*%
G36*
X-181798Y511047D02*
X-181798Y511047D01*
X-187453Y516702D01*
X-187453Y524698D01*
X-181798Y530353D01*
X-173802Y530353D01*
X-168147Y524698D01*
X-168147Y516702D01*
X-173802Y511047D01*
X-181798Y511047D01*
G37*
%LPD*%
%LPC*%
G36*
X-537398Y28447D02*
X-537398Y28447D01*
X-543053Y34102D01*
X-543053Y42098D01*
X-537398Y47753D01*
X-529402Y47753D01*
X-523747Y42098D01*
X-523747Y34102D01*
X-529402Y28447D01*
X-537398Y28447D01*
G37*
%LPD*%
%LPC*%
G36*
X-511998Y28447D02*
X-511998Y28447D01*
X-517653Y34102D01*
X-517653Y42098D01*
X-511998Y47753D01*
X-504002Y47753D01*
X-498347Y42098D01*
X-498347Y34102D01*
X-504002Y28447D01*
X-511998Y28447D01*
G37*
%LPD*%
%LPC*%
G36*
X-486598Y28447D02*
X-486598Y28447D01*
X-492253Y34102D01*
X-492253Y42098D01*
X-486598Y47753D01*
X-478602Y47753D01*
X-472947Y42098D01*
X-472947Y34102D01*
X-478602Y28447D01*
X-486598Y28447D01*
G37*
%LPD*%
%LPC*%
G36*
X-359598Y28447D02*
X-359598Y28447D01*
X-365253Y34102D01*
X-365253Y42098D01*
X-359598Y47753D01*
X-351602Y47753D01*
X-345947Y42098D01*
X-345947Y34102D01*
X-351602Y28447D01*
X-359598Y28447D01*
G37*
%LPD*%
%LPC*%
G36*
X-308798Y28447D02*
X-308798Y28447D01*
X-314453Y34102D01*
X-314453Y42098D01*
X-308798Y47753D01*
X-300802Y47753D01*
X-295147Y42098D01*
X-295147Y34102D01*
X-300802Y28447D01*
X-308798Y28447D01*
G37*
%LPD*%
%LPC*%
G36*
X-628838Y511047D02*
X-628838Y511047D01*
X-634493Y516702D01*
X-634493Y524698D01*
X-628838Y530353D01*
X-620842Y530353D01*
X-615187Y524698D01*
X-615187Y516702D01*
X-620842Y511047D01*
X-628838Y511047D01*
G37*
%LPD*%
%LPC*%
G36*
X-283398Y28447D02*
X-283398Y28447D01*
X-289053Y34102D01*
X-289053Y42098D01*
X-283398Y47753D01*
X-275402Y47753D01*
X-269747Y42098D01*
X-269747Y34102D01*
X-275402Y28447D01*
X-283398Y28447D01*
G37*
%LPD*%
%LPC*%
G36*
X-232598Y28447D02*
X-232598Y28447D01*
X-238253Y34102D01*
X-238253Y42098D01*
X-232598Y47753D01*
X-224602Y47753D01*
X-218947Y42098D01*
X-218947Y34102D01*
X-224602Y28447D01*
X-232598Y28447D01*
G37*
%LPD*%
%LPC*%
G36*
X-509920Y206247D02*
X-509920Y206247D01*
X-513468Y207717D01*
X-516183Y210432D01*
X-517653Y213980D01*
X-517653Y217820D01*
X-516183Y221368D01*
X-513468Y224083D01*
X-509920Y225553D01*
X-506080Y225553D01*
X-502532Y224083D01*
X-499817Y221368D01*
X-498347Y217820D01*
X-498347Y213980D01*
X-499817Y210432D01*
X-502532Y207717D01*
X-506080Y206247D01*
X-509920Y206247D01*
G37*
%LPD*%
%LPC*%
G36*
X-268620Y269747D02*
X-268620Y269747D01*
X-272168Y271217D01*
X-274883Y273932D01*
X-276353Y277480D01*
X-276353Y281320D01*
X-274883Y284868D01*
X-272168Y287583D01*
X-268620Y289053D01*
X-264780Y289053D01*
X-261232Y287583D01*
X-258517Y284868D01*
X-257047Y281320D01*
X-257047Y277480D01*
X-258517Y273932D01*
X-261232Y271217D01*
X-264780Y269747D01*
X-268620Y269747D01*
G37*
%LPD*%
%LPC*%
G36*
X-268620Y320547D02*
X-268620Y320547D01*
X-272168Y322017D01*
X-274883Y324732D01*
X-276353Y328280D01*
X-276353Y332120D01*
X-274883Y335668D01*
X-272168Y338383D01*
X-268620Y339853D01*
X-264780Y339853D01*
X-261232Y338383D01*
X-258517Y335668D01*
X-257047Y332120D01*
X-257047Y328280D01*
X-258517Y324732D01*
X-261232Y322017D01*
X-264780Y320547D01*
X-268620Y320547D01*
G37*
%LPD*%
%LPC*%
G36*
X-359440Y155828D02*
X-359440Y155828D01*
X-364872Y161260D01*
X-364872Y168940D01*
X-359440Y174372D01*
X-351760Y174372D01*
X-346328Y168940D01*
X-346328Y161260D01*
X-351760Y155828D01*
X-359440Y155828D01*
G37*
%LPD*%
%LPC*%
G36*
X-498351Y341883D02*
X-498351Y341883D01*
X-502667Y346199D01*
X-502667Y352301D01*
X-498351Y356617D01*
X-492249Y356617D01*
X-487933Y352301D01*
X-487933Y346199D01*
X-492249Y341883D01*
X-498351Y341883D01*
G37*
%LPD*%
%LPC*%
G36*
X-663451Y81533D02*
X-663451Y81533D01*
X-667767Y85849D01*
X-667767Y91951D01*
X-663451Y96267D01*
X-657349Y96267D01*
X-653033Y91951D01*
X-653033Y85849D01*
X-657349Y81533D01*
X-663451Y81533D01*
G37*
%LPD*%
%LPC*%
G36*
X-625351Y259333D02*
X-625351Y259333D01*
X-629667Y263649D01*
X-629667Y269751D01*
X-625351Y274067D01*
X-619249Y274067D01*
X-614933Y269751D01*
X-614933Y263649D01*
X-619249Y259333D01*
X-625351Y259333D01*
G37*
%LPD*%
%LPC*%
G36*
X-663451Y259333D02*
X-663451Y259333D01*
X-667767Y263649D01*
X-667767Y269751D01*
X-663451Y274067D01*
X-657349Y274067D01*
X-653033Y269751D01*
X-653033Y263649D01*
X-657349Y259333D01*
X-663451Y259333D01*
G37*
%LPD*%
%LPC*%
G36*
X-625351Y157733D02*
X-625351Y157733D01*
X-629667Y162049D01*
X-629667Y168151D01*
X-625351Y172467D01*
X-619249Y172467D01*
X-614933Y168151D01*
X-614933Y162049D01*
X-619249Y157733D01*
X-625351Y157733D01*
G37*
%LPD*%
%LPC*%
G36*
X-676151Y335533D02*
X-676151Y335533D01*
X-680467Y339849D01*
X-680467Y345951D01*
X-676151Y350267D01*
X-670049Y350267D01*
X-665733Y345951D01*
X-665733Y339849D01*
X-670049Y335533D01*
X-676151Y335533D01*
G37*
%LPD*%
%LPC*%
G36*
X-434851Y360933D02*
X-434851Y360933D01*
X-439167Y365249D01*
X-439167Y371351D01*
X-434851Y375667D01*
X-428749Y375667D01*
X-424433Y371351D01*
X-424433Y365249D01*
X-428749Y360933D01*
X-434851Y360933D01*
G37*
%LPD*%
%LPC*%
G36*
X-472951Y322833D02*
X-472951Y322833D01*
X-477267Y327149D01*
X-477267Y333251D01*
X-472951Y337567D01*
X-466849Y337567D01*
X-462533Y333251D01*
X-462533Y327149D01*
X-466849Y322833D01*
X-472951Y322833D01*
G37*
%LPD*%
%LPC*%
G36*
X-625351Y81533D02*
X-625351Y81533D01*
X-629667Y85849D01*
X-629667Y91951D01*
X-625351Y96267D01*
X-619249Y96267D01*
X-614933Y91951D01*
X-614933Y85849D01*
X-619249Y81533D01*
X-625351Y81533D01*
G37*
%LPD*%
%LPC*%
G36*
X-338015Y260603D02*
X-338015Y260603D01*
X-340723Y261725D01*
X-342795Y263797D01*
X-343917Y266505D01*
X-343917Y269435D01*
X-342795Y272143D01*
X-340723Y274215D01*
X-338015Y275337D01*
X-335085Y275337D01*
X-332377Y274215D01*
X-330305Y272143D01*
X-329183Y269435D01*
X-329183Y266505D01*
X-330305Y263797D01*
X-332377Y261725D01*
X-335085Y260603D01*
X-338015Y260603D01*
G37*
%LPD*%
%LPC*%
G36*
X-335250Y432307D02*
X-335250Y432307D01*
X-341823Y438880D01*
X-341843Y438896D01*
X-341860Y438916D01*
X-341980Y439004D01*
X-342096Y439096D01*
X-342120Y439108D01*
X-342141Y439123D01*
X-342277Y439182D01*
X-342411Y439245D01*
X-342437Y439251D01*
X-342461Y439261D01*
X-342607Y439288D01*
X-342752Y439319D01*
X-342778Y439318D01*
X-342804Y439323D01*
X-342952Y439315D01*
X-343100Y439313D01*
X-343126Y439306D01*
X-343152Y439305D01*
X-343294Y439264D01*
X-343438Y439228D01*
X-343461Y439216D01*
X-343487Y439208D01*
X-343616Y439136D01*
X-343748Y439068D01*
X-343768Y439051D01*
X-343791Y439038D01*
X-343977Y438880D01*
X-350550Y432307D01*
X-353061Y432307D01*
X-353061Y441961D01*
X-332739Y441961D01*
X-332739Y432307D01*
X-335250Y432307D01*
G37*
%LPD*%
%LPC*%
G36*
X-291593Y472439D02*
X-291593Y472439D01*
X-291593Y474950D01*
X-284450Y482093D01*
X-281939Y482093D01*
X-281939Y472439D01*
X-291593Y472439D01*
G37*
%LPD*%
%LPC*%
G36*
X-525750Y432307D02*
X-525750Y432307D01*
X-532893Y439450D01*
X-532893Y441961D01*
X-523239Y441961D01*
X-523239Y432307D01*
X-525750Y432307D01*
G37*
%LPD*%
%LPC*%
G36*
X-360650Y432307D02*
X-360650Y432307D01*
X-367793Y439450D01*
X-367793Y441961D01*
X-358139Y441961D01*
X-358139Y432307D01*
X-360650Y432307D01*
G37*
%LPD*%
%LPC*%
G36*
X-284450Y457707D02*
X-284450Y457707D01*
X-291593Y464850D01*
X-291593Y467361D01*
X-281939Y467361D01*
X-281939Y457707D01*
X-284450Y457707D01*
G37*
%LPD*%
%LPC*%
G36*
X-220950Y432307D02*
X-220950Y432307D01*
X-228093Y439450D01*
X-228093Y441961D01*
X-218439Y441961D01*
X-218439Y432307D01*
X-220950Y432307D01*
G37*
%LPD*%
%LPC*%
G36*
X-276861Y116839D02*
X-276861Y116839D01*
X-276861Y126493D01*
X-274350Y126493D01*
X-267207Y119350D01*
X-267207Y116839D01*
X-276861Y116839D01*
G37*
%LPD*%
%LPC*%
G36*
X-276861Y102107D02*
X-276861Y102107D01*
X-276861Y111761D01*
X-267207Y111761D01*
X-267207Y109250D01*
X-274350Y102107D01*
X-276861Y102107D01*
G37*
%LPD*%
%LPC*%
G36*
X-327661Y432307D02*
X-327661Y432307D01*
X-327661Y441961D01*
X-318007Y441961D01*
X-318007Y439450D01*
X-325150Y432307D01*
X-327661Y432307D01*
G37*
%LPD*%
%LPC*%
G36*
X-518161Y432307D02*
X-518161Y432307D01*
X-518161Y441961D01*
X-508507Y441961D01*
X-508507Y439450D01*
X-515650Y432307D01*
X-518161Y432307D01*
G37*
%LPD*%
%LPC*%
G36*
X-213361Y432307D02*
X-213361Y432307D01*
X-213361Y441961D01*
X-203707Y441961D01*
X-203707Y439450D01*
X-210850Y432307D01*
X-213361Y432307D01*
G37*
%LPD*%
%LPC*%
G36*
X-576160Y103049D02*
X-576160Y103049D01*
X-577863Y103916D01*
X-579409Y105040D01*
X-580760Y106391D01*
X-581884Y107937D01*
X-582751Y109640D01*
X-583275Y111253D01*
X-574547Y111253D01*
X-574547Y102525D01*
X-576160Y103049D01*
G37*
%LPD*%
%LPC*%
G36*
X-576160Y230049D02*
X-576160Y230049D01*
X-577863Y230916D01*
X-579409Y232040D01*
X-580760Y233391D01*
X-581884Y234937D01*
X-582751Y236640D01*
X-583275Y238253D01*
X-574547Y238253D01*
X-574547Y229525D01*
X-576160Y230049D01*
G37*
%LPD*%
%LPC*%
G36*
X-568453Y111253D02*
X-568453Y111253D01*
X-559725Y111253D01*
X-560249Y109640D01*
X-561116Y107937D01*
X-562240Y106391D01*
X-563591Y105040D01*
X-565137Y103916D01*
X-566840Y103049D01*
X-568453Y102525D01*
X-568453Y111253D01*
G37*
%LPD*%
%LPC*%
G36*
X-568453Y238253D02*
X-568453Y238253D01*
X-559725Y238253D01*
X-560249Y236640D01*
X-561116Y234937D01*
X-562240Y233391D01*
X-563591Y232040D01*
X-565137Y230916D01*
X-566840Y230049D01*
X-568453Y229525D01*
X-568453Y238253D01*
G37*
%LPD*%
%LPC*%
G36*
X-559563Y523199D02*
X-559563Y523199D01*
X-559563Y525224D01*
X-553164Y531623D01*
X-551139Y531623D01*
X-551139Y523199D01*
X-559563Y523199D01*
G37*
%LPD*%
%LPC*%
G36*
X-417323Y40599D02*
X-417323Y40599D01*
X-417323Y42624D01*
X-410924Y49023D01*
X-408899Y49023D01*
X-408899Y40599D01*
X-417323Y40599D01*
G37*
%LPD*%
%LPC*%
G36*
X-553164Y509777D02*
X-553164Y509777D01*
X-559563Y516176D01*
X-559563Y518201D01*
X-551139Y518201D01*
X-551139Y509777D01*
X-553164Y509777D01*
G37*
%LPD*%
%LPC*%
G36*
X-546141Y523199D02*
X-546141Y523199D01*
X-546141Y531623D01*
X-544116Y531623D01*
X-537717Y525224D01*
X-537717Y523199D01*
X-546141Y523199D01*
G37*
%LPD*%
%LPC*%
G36*
X-378501Y40599D02*
X-378501Y40599D01*
X-378501Y49023D01*
X-376476Y49023D01*
X-370077Y42624D01*
X-370077Y40599D01*
X-378501Y40599D01*
G37*
%LPD*%
%LPC*%
G36*
X-546141Y509777D02*
X-546141Y509777D01*
X-546141Y518201D01*
X-537717Y518201D01*
X-537717Y516176D01*
X-544116Y509777D01*
X-546141Y509777D01*
G37*
%LPD*%
%LPC*%
G36*
X-378501Y27177D02*
X-378501Y27177D01*
X-378501Y35601D01*
X-370077Y35601D01*
X-370077Y33576D01*
X-376476Y27177D01*
X-378501Y27177D01*
G37*
%LPD*%
%LPC*%
G36*
X-277363Y307299D02*
X-277363Y307299D01*
X-277354Y307358D01*
X-276822Y308993D01*
X-276042Y310525D01*
X-275031Y311916D01*
X-273816Y313131D01*
X-272425Y314142D01*
X-270893Y314922D01*
X-269258Y315454D01*
X-269199Y315463D01*
X-269199Y307299D01*
X-277363Y307299D01*
G37*
%LPD*%
%LPC*%
G36*
X-269258Y294146D02*
X-269258Y294146D01*
X-270893Y294678D01*
X-272425Y295458D01*
X-273816Y296469D01*
X-275031Y297684D01*
X-276042Y299075D01*
X-276822Y300607D01*
X-277354Y302242D01*
X-277363Y302301D01*
X-269199Y302301D01*
X-269199Y294137D01*
X-269258Y294146D01*
G37*
%LPD*%
%LPC*%
G36*
X-264201Y307299D02*
X-264201Y307299D01*
X-264201Y315463D01*
X-264142Y315454D01*
X-262507Y314922D01*
X-260975Y314142D01*
X-259584Y313131D01*
X-258369Y311916D01*
X-257358Y310525D01*
X-256578Y308993D01*
X-256046Y307358D01*
X-256037Y307299D01*
X-264201Y307299D01*
G37*
%LPD*%
%LPC*%
G36*
X-264201Y302301D02*
X-264201Y302301D01*
X-256037Y302301D01*
X-256046Y302242D01*
X-256578Y300607D01*
X-257358Y299075D01*
X-258369Y297684D01*
X-259584Y296469D01*
X-260975Y295458D01*
X-262507Y294678D01*
X-264142Y294146D01*
X-264201Y294137D01*
X-264201Y302301D01*
G37*
%LPD*%
%LPC*%
G36*
X-771859Y523239D02*
X-771859Y523239D01*
X-771416Y524600D01*
X-770690Y526025D01*
X-769750Y527319D01*
X-768619Y528450D01*
X-767325Y529390D01*
X-765900Y530116D01*
X-764539Y530559D01*
X-764539Y523239D01*
X-771859Y523239D01*
G37*
%LPD*%
%LPC*%
G36*
X-746459Y523239D02*
X-746459Y523239D01*
X-746016Y524600D01*
X-745290Y526025D01*
X-744350Y527319D01*
X-743219Y528450D01*
X-741925Y529390D01*
X-740500Y530116D01*
X-739139Y530559D01*
X-739139Y523239D01*
X-746459Y523239D01*
G37*
%LPD*%
%LPC*%
G36*
X-721059Y523239D02*
X-721059Y523239D01*
X-720616Y524600D01*
X-719890Y526025D01*
X-718950Y527319D01*
X-717819Y528450D01*
X-716525Y529390D01*
X-715100Y530116D01*
X-713739Y530559D01*
X-713739Y523239D01*
X-721059Y523239D01*
G37*
%LPD*%
%LPC*%
G36*
X-759461Y523239D02*
X-759461Y523239D01*
X-759461Y530559D01*
X-758100Y530116D01*
X-756675Y529390D01*
X-755381Y528450D01*
X-754250Y527319D01*
X-753310Y526025D01*
X-752584Y524600D01*
X-752141Y523239D01*
X-759461Y523239D01*
G37*
%LPD*%
%LPC*%
G36*
X-734061Y523239D02*
X-734061Y523239D01*
X-734061Y530559D01*
X-732700Y530116D01*
X-731275Y529390D01*
X-729981Y528450D01*
X-728850Y527319D01*
X-727910Y526025D01*
X-727184Y524600D01*
X-726741Y523239D01*
X-734061Y523239D01*
G37*
%LPD*%
%LPC*%
G36*
X-708661Y523239D02*
X-708661Y523239D01*
X-708661Y530559D01*
X-707300Y530116D01*
X-705875Y529390D01*
X-704581Y528450D01*
X-703450Y527319D01*
X-702510Y526025D01*
X-701784Y524600D01*
X-701341Y523239D01*
X-708661Y523239D01*
G37*
%LPD*%
%LPC*%
G36*
X-715100Y511284D02*
X-715100Y511284D01*
X-716525Y512010D01*
X-717819Y512950D01*
X-718950Y514081D01*
X-719890Y515375D01*
X-720616Y516800D01*
X-721059Y518161D01*
X-713739Y518161D01*
X-713739Y510841D01*
X-715100Y511284D01*
G37*
%LPD*%
%LPC*%
G36*
X-740500Y511284D02*
X-740500Y511284D01*
X-741925Y512010D01*
X-743219Y512950D01*
X-744350Y514081D01*
X-745290Y515375D01*
X-746016Y516800D01*
X-746459Y518161D01*
X-739139Y518161D01*
X-739139Y510841D01*
X-740500Y511284D01*
G37*
%LPD*%
%LPC*%
G36*
X-765900Y511284D02*
X-765900Y511284D01*
X-767325Y512010D01*
X-768619Y512950D01*
X-769750Y514081D01*
X-770690Y515375D01*
X-771416Y516800D01*
X-771859Y518161D01*
X-764539Y518161D01*
X-764539Y510841D01*
X-765900Y511284D01*
G37*
%LPD*%
%LPC*%
G36*
X-708661Y518161D02*
X-708661Y518161D01*
X-701341Y518161D01*
X-701784Y516800D01*
X-702510Y515375D01*
X-703450Y514081D01*
X-704581Y512950D01*
X-705875Y512010D01*
X-707300Y511284D01*
X-708661Y510841D01*
X-708661Y518161D01*
G37*
%LPD*%
%LPC*%
G36*
X-734061Y518161D02*
X-734061Y518161D01*
X-726741Y518161D01*
X-727184Y516800D01*
X-727910Y515375D01*
X-728850Y514081D01*
X-729981Y512950D01*
X-731275Y512010D01*
X-732700Y511284D01*
X-734061Y510841D01*
X-734061Y518161D01*
G37*
%LPD*%
%LPC*%
G36*
X-759461Y518161D02*
X-759461Y518161D01*
X-752141Y518161D01*
X-752584Y516800D01*
X-753310Y515375D01*
X-754250Y514081D01*
X-755381Y512950D01*
X-756675Y512010D01*
X-758100Y511284D01*
X-759461Y510841D01*
X-759461Y518161D01*
G37*
%LPD*%
%LPC*%
G36*
X-605537Y459231D02*
X-605537Y459231D01*
X-605537Y460777D01*
X-600477Y465837D01*
X-598931Y465837D01*
X-598931Y459231D01*
X-605537Y459231D01*
G37*
%LPD*%
%LPC*%
G36*
X-478537Y256031D02*
X-478537Y256031D01*
X-478537Y257577D01*
X-473477Y262637D01*
X-471931Y262637D01*
X-471931Y256031D01*
X-478537Y256031D01*
G37*
%LPD*%
%LPC*%
G36*
X-440437Y395731D02*
X-440437Y395731D01*
X-440437Y397277D01*
X-435377Y402337D01*
X-433831Y402337D01*
X-433831Y395731D01*
X-440437Y395731D01*
G37*
%LPD*%
%LPC*%
G36*
X-669037Y192531D02*
X-669037Y192531D01*
X-669037Y194077D01*
X-663977Y199137D01*
X-662431Y199137D01*
X-662431Y192531D01*
X-669037Y192531D01*
G37*
%LPD*%
%LPC*%
G36*
X-345187Y295401D02*
X-345187Y295401D01*
X-345187Y296947D01*
X-340127Y302007D01*
X-338581Y302007D01*
X-338581Y295401D01*
X-345187Y295401D01*
G37*
%LPD*%
%LPC*%
G36*
X-491237Y103631D02*
X-491237Y103631D01*
X-491237Y105177D01*
X-486177Y110237D01*
X-484631Y110237D01*
X-484631Y103631D01*
X-491237Y103631D01*
G37*
%LPD*%
%LPC*%
G36*
X-351537Y383031D02*
X-351537Y383031D01*
X-351537Y384577D01*
X-346477Y389637D01*
X-344931Y389637D01*
X-344931Y383031D01*
X-351537Y383031D01*
G37*
%LPD*%
%LPC*%
G36*
X-669037Y167131D02*
X-669037Y167131D01*
X-669037Y168677D01*
X-663977Y173737D01*
X-662431Y173737D01*
X-662431Y167131D01*
X-669037Y167131D01*
G37*
%LPD*%
%LPC*%
G36*
X-669037Y446531D02*
X-669037Y446531D01*
X-669037Y448077D01*
X-663977Y453137D01*
X-662431Y453137D01*
X-662431Y446531D01*
X-669037Y446531D01*
G37*
%LPD*%
%LPC*%
G36*
X-663977Y156463D02*
X-663977Y156463D01*
X-669037Y161523D01*
X-669037Y163069D01*
X-662431Y163069D01*
X-662431Y156463D01*
X-663977Y156463D01*
G37*
%LPD*%
%LPC*%
G36*
X-346477Y372363D02*
X-346477Y372363D01*
X-351537Y377423D01*
X-351537Y378969D01*
X-344931Y378969D01*
X-344931Y372363D01*
X-346477Y372363D01*
G37*
%LPD*%
%LPC*%
G36*
X-473477Y245363D02*
X-473477Y245363D01*
X-478537Y250423D01*
X-478537Y251969D01*
X-471931Y251969D01*
X-471931Y245363D01*
X-473477Y245363D01*
G37*
%LPD*%
%LPC*%
G36*
X-435377Y385063D02*
X-435377Y385063D01*
X-440437Y390123D01*
X-440437Y391669D01*
X-433831Y391669D01*
X-433831Y385063D01*
X-435377Y385063D01*
G37*
%LPD*%
%LPC*%
G36*
X-663977Y181863D02*
X-663977Y181863D01*
X-669037Y186923D01*
X-669037Y188469D01*
X-662431Y188469D01*
X-662431Y181863D01*
X-663977Y181863D01*
G37*
%LPD*%
%LPC*%
G36*
X-663977Y435863D02*
X-663977Y435863D01*
X-669037Y440923D01*
X-669037Y442469D01*
X-662431Y442469D01*
X-662431Y435863D01*
X-663977Y435863D01*
G37*
%LPD*%
%LPC*%
G36*
X-340127Y284733D02*
X-340127Y284733D01*
X-345187Y289793D01*
X-345187Y291339D01*
X-338581Y291339D01*
X-338581Y284733D01*
X-340127Y284733D01*
G37*
%LPD*%
%LPC*%
G36*
X-600477Y448563D02*
X-600477Y448563D01*
X-605537Y453623D01*
X-605537Y455169D01*
X-598931Y455169D01*
X-598931Y448563D01*
X-600477Y448563D01*
G37*
%LPD*%
%LPC*%
G36*
X-486177Y92963D02*
X-486177Y92963D01*
X-491237Y98023D01*
X-491237Y99569D01*
X-484631Y99569D01*
X-484631Y92963D01*
X-486177Y92963D01*
G37*
%LPD*%
%LPC*%
G36*
X-658369Y192531D02*
X-658369Y192531D01*
X-658369Y199137D01*
X-656823Y199137D01*
X-651763Y194077D01*
X-651763Y192531D01*
X-658369Y192531D01*
G37*
%LPD*%
%LPC*%
G36*
X-467869Y256031D02*
X-467869Y256031D01*
X-467869Y262637D01*
X-466323Y262637D01*
X-461263Y257577D01*
X-461263Y256031D01*
X-467869Y256031D01*
G37*
%LPD*%
%LPC*%
G36*
X-658369Y167131D02*
X-658369Y167131D01*
X-658369Y173737D01*
X-656823Y173737D01*
X-651763Y168677D01*
X-651763Y167131D01*
X-658369Y167131D01*
G37*
%LPD*%
%LPC*%
G36*
X-480569Y103631D02*
X-480569Y103631D01*
X-480569Y110237D01*
X-479023Y110237D01*
X-473963Y105177D01*
X-473963Y103631D01*
X-480569Y103631D01*
G37*
%LPD*%
%LPC*%
G36*
X-340869Y383031D02*
X-340869Y383031D01*
X-340869Y389637D01*
X-339323Y389637D01*
X-334263Y384577D01*
X-334263Y383031D01*
X-340869Y383031D01*
G37*
%LPD*%
%LPC*%
G36*
X-334519Y295401D02*
X-334519Y295401D01*
X-334519Y302007D01*
X-332973Y302007D01*
X-327913Y296947D01*
X-327913Y295401D01*
X-334519Y295401D01*
G37*
%LPD*%
%LPC*%
G36*
X-658369Y446531D02*
X-658369Y446531D01*
X-658369Y453137D01*
X-656823Y453137D01*
X-651763Y448077D01*
X-651763Y446531D01*
X-658369Y446531D01*
G37*
%LPD*%
%LPC*%
G36*
X-429769Y395731D02*
X-429769Y395731D01*
X-429769Y402337D01*
X-428223Y402337D01*
X-423163Y397277D01*
X-423163Y395731D01*
X-429769Y395731D01*
G37*
%LPD*%
%LPC*%
G36*
X-594869Y459231D02*
X-594869Y459231D01*
X-594869Y465837D01*
X-593323Y465837D01*
X-588263Y460777D01*
X-588263Y459231D01*
X-594869Y459231D01*
G37*
%LPD*%
%LPC*%
G36*
X-480569Y92963D02*
X-480569Y92963D01*
X-480569Y99569D01*
X-473963Y99569D01*
X-473963Y98023D01*
X-479023Y92963D01*
X-480569Y92963D01*
G37*
%LPD*%
%LPC*%
G36*
X-429769Y385063D02*
X-429769Y385063D01*
X-429769Y391669D01*
X-423163Y391669D01*
X-423163Y390123D01*
X-428223Y385063D01*
X-429769Y385063D01*
G37*
%LPD*%
%LPC*%
G36*
X-340869Y372363D02*
X-340869Y372363D01*
X-340869Y378969D01*
X-334263Y378969D01*
X-334263Y377423D01*
X-339323Y372363D01*
X-340869Y372363D01*
G37*
%LPD*%
%LPC*%
G36*
X-467869Y245363D02*
X-467869Y245363D01*
X-467869Y251969D01*
X-461263Y251969D01*
X-461263Y250423D01*
X-466323Y245363D01*
X-467869Y245363D01*
G37*
%LPD*%
%LPC*%
G36*
X-658369Y156463D02*
X-658369Y156463D01*
X-658369Y163069D01*
X-651763Y163069D01*
X-651763Y161523D01*
X-656823Y156463D01*
X-658369Y156463D01*
G37*
%LPD*%
%LPC*%
G36*
X-334519Y284733D02*
X-334519Y284733D01*
X-334519Y291339D01*
X-327913Y291339D01*
X-327913Y289793D01*
X-332973Y284733D01*
X-334519Y284733D01*
G37*
%LPD*%
%LPC*%
G36*
X-658369Y435863D02*
X-658369Y435863D01*
X-658369Y442469D01*
X-651763Y442469D01*
X-651763Y440923D01*
X-656823Y435863D01*
X-658369Y435863D01*
G37*
%LPD*%
%LPC*%
G36*
X-594869Y448563D02*
X-594869Y448563D01*
X-594869Y455169D01*
X-588263Y455169D01*
X-588263Y453623D01*
X-593323Y448563D01*
X-594869Y448563D01*
G37*
%LPD*%
%LPC*%
G36*
X-658369Y181863D02*
X-658369Y181863D01*
X-658369Y188469D01*
X-651763Y188469D01*
X-651763Y186923D01*
X-656823Y181863D01*
X-658369Y181863D01*
G37*
%LPD*%
D10*
X-673100Y342900D03*
X-596900Y342900D03*
D11*
X-469900Y254000D03*
X-469900Y330200D03*
D12*
X-596900Y457200D03*
X-596900Y381000D03*
D13*
X-279400Y520700D03*
X-304800Y38100D03*
X-254000Y520700D03*
X-228600Y520700D03*
X-203200Y520700D03*
X-177800Y520700D03*
X-304800Y520700D03*
X-330200Y520700D03*
X-355600Y520700D03*
X-396240Y520700D03*
X-421640Y520700D03*
X-447040Y520700D03*
X-472440Y520700D03*
X-497840Y520700D03*
X-523240Y520700D03*
X-548640Y520700D03*
X-574040Y520700D03*
X-279400Y38100D03*
X-254000Y38100D03*
X-228600Y38100D03*
X-203200Y38100D03*
X-177800Y38100D03*
X-355600Y38100D03*
X-381000Y38100D03*
X-406400Y38100D03*
X-431800Y38100D03*
X-457200Y38100D03*
X-482600Y38100D03*
X-599440Y520700D03*
X-624840Y520700D03*
X-508000Y38100D03*
X-533400Y38100D03*
D11*
X-660400Y393700D03*
X-660400Y444500D03*
D14*
X-431800Y101600D03*
X-482600Y101600D03*
D11*
X-342900Y381000D03*
D15*
X-342900Y355600D03*
D11*
X-336550Y293370D03*
D15*
X-336550Y267970D03*
D11*
X-622300Y88900D03*
X-622300Y165100D03*
D12*
X-660400Y165100D03*
X-660400Y88900D03*
D16*
X-508000Y215900D03*
X-406400Y215900D03*
D12*
X-419100Y330200D03*
X-419100Y254000D03*
D14*
X-508000Y368300D03*
X-495300Y349250D03*
X-482600Y368300D03*
D11*
X-431800Y393700D03*
X-450850Y381000D03*
X-431800Y368300D03*
D17*
X-393700Y469900D03*
X-215900Y469900D03*
X-330200Y469900D03*
D18*
X-355600Y215900D03*
X-355600Y165100D03*
D16*
X-266700Y330200D03*
X-266700Y304800D03*
X-266700Y279400D03*
D19*
X-571500Y292100D03*
D20*
X-571500Y266700D03*
X-571500Y241300D03*
D12*
X-622300Y266700D03*
X-622300Y190500D03*
D11*
X-660400Y190500D03*
X-660400Y266700D03*
D16*
X-508000Y165100D03*
X-406400Y165100D03*
D17*
X-355600Y469900D03*
D19*
X-571500Y165100D03*
D20*
X-571500Y139700D03*
X-571500Y114300D03*
D21*
X-787400Y165100D03*
D22*
X-762000Y520700D03*
X-736600Y520700D03*
X-711200Y520700D03*
D21*
X-787400Y215900D03*
X-787400Y190500D03*
X-787400Y63500D03*
X-787400Y88900D03*
X-254000Y469900D03*
X-279400Y469900D03*
X-520700Y469900D03*
X-520700Y444500D03*
X-304800Y114300D03*
X-279400Y114300D03*
X-787400Y114300D03*
X-304800Y88900D03*
X-736600Y63500D03*
X-787400Y292100D03*
X-787400Y266700D03*
X-787400Y355600D03*
X-787400Y330200D03*
X-787400Y406400D03*
X-787400Y431800D03*
X-330200Y444500D03*
X-355600Y444500D03*
X-215900Y444500D03*
D23*
X-723900Y368300D02*
X-787400Y431800D01*
X-622300Y368300D02*
X-596900Y342900D01*
X-622300Y368300D02*
X-723900Y368300D01*
X-660400Y393700D02*
X-609600Y393700D01*
X-596900Y381000D01*
X-520700Y381000D01*
X-508000Y368300D01*
X-495300Y381000D01*
X-450850Y381000D01*
D24*
X-355600Y342900D02*
X-355600Y215900D01*
X-355600Y342900D02*
X-342900Y355600D01*
X-723900Y355600D02*
X-787400Y355600D01*
X-723900Y355600D02*
X-685800Y317500D01*
X-508000Y317500D02*
X-406400Y215900D01*
X-508000Y317500D02*
X-685800Y317500D01*
D25*
X-419100Y254000D02*
X-393700Y228600D01*
X-393700Y30480D01*
X-441960Y22860D02*
X-457200Y38100D01*
X-401320Y22860D02*
X-393700Y30480D01*
X-401320Y22860D02*
X-441960Y22860D01*
D23*
X-330200Y469900D02*
X-317500Y469900D01*
X-304800Y457200D01*
X-304800Y139700D01*
X-317500Y127000D01*
X-368300Y127000D01*
D26*
X-368300Y127000D03*
D23*
X-431800Y279400D02*
X-406400Y304800D01*
D26*
X-431800Y279400D03*
D23*
X-406400Y419100D02*
X-355600Y469900D01*
X-406400Y419100D02*
X-406400Y304800D01*
X-596900Y190500D02*
X-622300Y190500D01*
X-596900Y190500D02*
X-571500Y165100D01*
X-571500Y266700D02*
X-596900Y266700D01*
X-622300Y292100D01*
X-711200Y292100D01*
X-736600Y266700D01*
X-787400Y266700D01*
X-673100Y139700D02*
X-571500Y139700D01*
X-723900Y190500D02*
X-723900Y254000D01*
D26*
X-723900Y254000D03*
X-723900Y317500D03*
D23*
X-736600Y330200D01*
X-787400Y330200D01*
X-723900Y190500D02*
X-673100Y139700D01*
X-571500Y139700D02*
X-533400Y139700D01*
X-508000Y165100D01*
D24*
X-457200Y63500D02*
X-736600Y63500D01*
X-457200Y63500D02*
X-431800Y38100D01*
X-457200Y63500D02*
X-431800Y88900D01*
X-431800Y101600D01*
D26*
X-368300Y101600D03*
D23*
X-355600Y114300D01*
X-304800Y114300D01*
M02*
