G04 EAGLE Gerber RS-274X export*
G75*
%MOMM*%
%FSLAX34Y34*%
%LPD*%
%INTop Copper*%
%IPPOS*%
%AMOC8*
5,1,8,0,0,1.08239X$1,22.5*%
G01*
%ADD10P,1.319650X8X22.500000*%
%ADD11P,1.319650X8X112.500000*%
%ADD12P,1.319650X8X292.500000*%
%ADD13P,1.814519X8X22.500000*%
%ADD14P,1.319650X8X202.500000*%
%ADD15C,1.219200*%
%ADD16C,1.676400*%
%ADD17P,2.336880X8X22.500000*%
%ADD18P,1.732040X8X22.500000*%
%ADD19R,1.920000X1.920000*%
%ADD20C,1.920000*%
%ADD21P,2.089446X8X22.500000*%
%ADD22C,1.524000*%
%ADD23C,0.304800*%
%ADD24C,0.406400*%
%ADD25C,0.525000*%

G36*
X-155174Y14736D02*
X-155174Y14736D01*
X-155155Y14734D01*
X-155053Y14756D01*
X-154951Y14772D01*
X-154934Y14782D01*
X-154914Y14786D01*
X-154825Y14839D01*
X-154734Y14888D01*
X-154720Y14902D01*
X-154703Y14912D01*
X-154636Y14991D01*
X-154564Y15066D01*
X-154556Y15084D01*
X-154543Y15099D01*
X-154504Y15195D01*
X-154461Y15289D01*
X-154459Y15309D01*
X-154451Y15327D01*
X-154433Y15494D01*
X-154433Y38942D01*
X-129256Y64119D01*
X-129203Y64193D01*
X-129143Y64262D01*
X-129131Y64293D01*
X-129112Y64319D01*
X-129085Y64406D01*
X-129051Y64491D01*
X-129047Y64532D01*
X-129040Y64554D01*
X-129041Y64586D01*
X-129033Y64657D01*
X-129033Y390003D01*
X-129047Y390093D01*
X-129055Y390184D01*
X-129067Y390213D01*
X-129072Y390245D01*
X-129115Y390326D01*
X-129151Y390410D01*
X-129177Y390442D01*
X-129188Y390463D01*
X-129211Y390485D01*
X-129237Y390518D01*
X-129239Y390520D01*
X-129240Y390521D01*
X-129256Y390541D01*
X-154433Y415718D01*
X-154433Y529703D01*
X-154447Y529793D01*
X-154455Y529884D01*
X-154467Y529913D01*
X-154472Y529945D01*
X-154515Y530026D01*
X-154551Y530110D01*
X-154577Y530142D01*
X-154588Y530163D01*
X-154611Y530185D01*
X-154656Y530241D01*
X-168259Y543844D01*
X-168333Y543897D01*
X-168402Y543957D01*
X-168433Y543969D01*
X-168459Y543988D01*
X-168546Y544015D01*
X-168631Y544049D01*
X-168672Y544053D01*
X-168694Y544060D01*
X-168726Y544059D01*
X-168797Y544067D01*
X-810006Y544067D01*
X-810026Y544064D01*
X-810045Y544066D01*
X-810147Y544044D01*
X-810249Y544028D01*
X-810266Y544018D01*
X-810286Y544014D01*
X-810375Y543961D01*
X-810466Y543912D01*
X-810480Y543898D01*
X-810497Y543888D01*
X-810564Y543809D01*
X-810636Y543734D01*
X-810644Y543716D01*
X-810657Y543701D01*
X-810696Y543605D01*
X-810739Y543511D01*
X-810741Y543491D01*
X-810749Y543473D01*
X-810767Y543306D01*
X-810767Y15494D01*
X-810764Y15474D01*
X-810766Y15455D01*
X-810744Y15353D01*
X-810728Y15251D01*
X-810718Y15234D01*
X-810714Y15214D01*
X-810661Y15125D01*
X-810612Y15034D01*
X-810598Y15020D01*
X-810588Y15003D01*
X-810509Y14936D01*
X-810434Y14864D01*
X-810416Y14856D01*
X-810401Y14843D01*
X-810305Y14804D01*
X-810211Y14761D01*
X-810191Y14759D01*
X-810173Y14751D01*
X-810006Y14733D01*
X-155194Y14733D01*
X-155174Y14736D01*
G37*
%LPC*%
G36*
X-359598Y28447D02*
X-359598Y28447D01*
X-365253Y34102D01*
X-365253Y42098D01*
X-359590Y47761D01*
X-359523Y47776D01*
X-359421Y47792D01*
X-359404Y47802D01*
X-359384Y47806D01*
X-359295Y47859D01*
X-359204Y47908D01*
X-359190Y47922D01*
X-359173Y47932D01*
X-359106Y48011D01*
X-359034Y48086D01*
X-359026Y48104D01*
X-359013Y48119D01*
X-358974Y48215D01*
X-358931Y48309D01*
X-358929Y48329D01*
X-358921Y48347D01*
X-358903Y48514D01*
X-358903Y59436D01*
X-358906Y59456D01*
X-358904Y59475D01*
X-358926Y59577D01*
X-358942Y59679D01*
X-358952Y59696D01*
X-358956Y59716D01*
X-359009Y59805D01*
X-359058Y59896D01*
X-359072Y59910D01*
X-359082Y59927D01*
X-359161Y59994D01*
X-359236Y60066D01*
X-359254Y60074D01*
X-359269Y60087D01*
X-359365Y60126D01*
X-359459Y60169D01*
X-359479Y60171D01*
X-359497Y60179D01*
X-359664Y60197D01*
X-661768Y60197D01*
X-712345Y110774D01*
X-712419Y110827D01*
X-712488Y110887D01*
X-712519Y110899D01*
X-712545Y110918D01*
X-712632Y110945D01*
X-712717Y110979D01*
X-712758Y110983D01*
X-712780Y110990D01*
X-712812Y110989D01*
X-712883Y110997D01*
X-764889Y110997D01*
X-764959Y110986D01*
X-765031Y110984D01*
X-765080Y110966D01*
X-765131Y110958D01*
X-765195Y110924D01*
X-765262Y110899D01*
X-765303Y110867D01*
X-765349Y110842D01*
X-765398Y110790D01*
X-765454Y110746D01*
X-765482Y110702D01*
X-765518Y110664D01*
X-765548Y110599D01*
X-765587Y110539D01*
X-765600Y110488D01*
X-765622Y110441D01*
X-765630Y110370D01*
X-765647Y110300D01*
X-765643Y110248D01*
X-765649Y110197D01*
X-765634Y110126D01*
X-765628Y110055D01*
X-765608Y110007D01*
X-765597Y109956D01*
X-765560Y109895D01*
X-765532Y109829D01*
X-765487Y109773D01*
X-765470Y109745D01*
X-765453Y109730D01*
X-765427Y109698D01*
X-760855Y105126D01*
X-758697Y102968D01*
X-758697Y74832D01*
X-773332Y60197D01*
X-775716Y60197D01*
X-775736Y60194D01*
X-775755Y60196D01*
X-775857Y60174D01*
X-775959Y60158D01*
X-775976Y60148D01*
X-775996Y60144D01*
X-776085Y60091D01*
X-776176Y60042D01*
X-776190Y60028D01*
X-776207Y60018D01*
X-776274Y59939D01*
X-776346Y59864D01*
X-776354Y59846D01*
X-776367Y59831D01*
X-776406Y59735D01*
X-776449Y59641D01*
X-776451Y59621D01*
X-776459Y59603D01*
X-776477Y59436D01*
X-776477Y58976D01*
X-782876Y52577D01*
X-791924Y52577D01*
X-798323Y58976D01*
X-798323Y68024D01*
X-791924Y74423D01*
X-782876Y74423D01*
X-776433Y67980D01*
X-776404Y67925D01*
X-776379Y67858D01*
X-776347Y67817D01*
X-776322Y67771D01*
X-776270Y67722D01*
X-776226Y67666D01*
X-776182Y67638D01*
X-776144Y67602D01*
X-776079Y67572D01*
X-776019Y67533D01*
X-775968Y67520D01*
X-775921Y67498D01*
X-775850Y67490D01*
X-775780Y67473D01*
X-775728Y67477D01*
X-775677Y67471D01*
X-775606Y67486D01*
X-775535Y67492D01*
X-775487Y67512D01*
X-775436Y67523D01*
X-775375Y67560D01*
X-775309Y67588D01*
X-775253Y67633D01*
X-775225Y67650D01*
X-775210Y67667D01*
X-775178Y67693D01*
X-765526Y77345D01*
X-765473Y77419D01*
X-765413Y77488D01*
X-765401Y77519D01*
X-765382Y77545D01*
X-765355Y77632D01*
X-765321Y77717D01*
X-765317Y77758D01*
X-765310Y77780D01*
X-765311Y77812D01*
X-765303Y77883D01*
X-765303Y99917D01*
X-765317Y100007D01*
X-765325Y100098D01*
X-765337Y100127D01*
X-765342Y100159D01*
X-765385Y100240D01*
X-765421Y100324D01*
X-765447Y100356D01*
X-765458Y100377D01*
X-765481Y100399D01*
X-765526Y100455D01*
X-775178Y110107D01*
X-775236Y110149D01*
X-775288Y110198D01*
X-775335Y110220D01*
X-775377Y110251D01*
X-775446Y110272D01*
X-775511Y110302D01*
X-775563Y110308D01*
X-775613Y110323D01*
X-775684Y110321D01*
X-775755Y110329D01*
X-775806Y110318D01*
X-775858Y110317D01*
X-775926Y110292D01*
X-775996Y110277D01*
X-776041Y110250D01*
X-776089Y110232D01*
X-776145Y110187D01*
X-776207Y110150D01*
X-776241Y110111D01*
X-776281Y110078D01*
X-776320Y110018D01*
X-776367Y109964D01*
X-776386Y109915D01*
X-776414Y109871D01*
X-776426Y109827D01*
X-782876Y103377D01*
X-791924Y103377D01*
X-798323Y109776D01*
X-798323Y118824D01*
X-791924Y125223D01*
X-782876Y125223D01*
X-776477Y118824D01*
X-776477Y118364D01*
X-776474Y118344D01*
X-776476Y118325D01*
X-776454Y118223D01*
X-776438Y118121D01*
X-776428Y118104D01*
X-776424Y118084D01*
X-776371Y117995D01*
X-776322Y117904D01*
X-776308Y117890D01*
X-776298Y117873D01*
X-776219Y117806D01*
X-776144Y117734D01*
X-776126Y117726D01*
X-776111Y117713D01*
X-776015Y117674D01*
X-775921Y117631D01*
X-775901Y117629D01*
X-775883Y117621D01*
X-775716Y117603D01*
X-709832Y117603D01*
X-659255Y67026D01*
X-659181Y66973D01*
X-659112Y66913D01*
X-659081Y66901D01*
X-659055Y66882D01*
X-658968Y66855D01*
X-658883Y66821D01*
X-658842Y66817D01*
X-658820Y66810D01*
X-658788Y66811D01*
X-658717Y66803D01*
X-359664Y66803D01*
X-359644Y66806D01*
X-359625Y66804D01*
X-359523Y66826D01*
X-359421Y66842D01*
X-359404Y66852D01*
X-359384Y66856D01*
X-359295Y66909D01*
X-359204Y66958D01*
X-359190Y66972D01*
X-359173Y66982D01*
X-359106Y67061D01*
X-359034Y67136D01*
X-359026Y67154D01*
X-359013Y67169D01*
X-358974Y67265D01*
X-358931Y67359D01*
X-358929Y67379D01*
X-358921Y67397D01*
X-358903Y67564D01*
X-358903Y155067D01*
X-358906Y155087D01*
X-358904Y155106D01*
X-358926Y155208D01*
X-358942Y155310D01*
X-358952Y155327D01*
X-358956Y155347D01*
X-359009Y155436D01*
X-359058Y155527D01*
X-359072Y155541D01*
X-359082Y155558D01*
X-359161Y155625D01*
X-359236Y155697D01*
X-359254Y155705D01*
X-359269Y155718D01*
X-359365Y155757D01*
X-359372Y155760D01*
X-364872Y161260D01*
X-364872Y168940D01*
X-359388Y174424D01*
X-359384Y174425D01*
X-359295Y174478D01*
X-359204Y174527D01*
X-359190Y174541D01*
X-359173Y174551D01*
X-359106Y174630D01*
X-359034Y174705D01*
X-359026Y174723D01*
X-359013Y174738D01*
X-358974Y174834D01*
X-358931Y174928D01*
X-358929Y174948D01*
X-358921Y174966D01*
X-358903Y175133D01*
X-358903Y179168D01*
X-333726Y204345D01*
X-333673Y204419D01*
X-333613Y204488D01*
X-333601Y204519D01*
X-333582Y204545D01*
X-333555Y204632D01*
X-333521Y204717D01*
X-333517Y204758D01*
X-333510Y204780D01*
X-333511Y204812D01*
X-333503Y204883D01*
X-333503Y259937D01*
X-333517Y260027D01*
X-333525Y260118D01*
X-333537Y260147D01*
X-333542Y260179D01*
X-333585Y260260D01*
X-333621Y260344D01*
X-333647Y260376D01*
X-333658Y260397D01*
X-333681Y260419D01*
X-333726Y260475D01*
X-333855Y260604D01*
X-333950Y260672D01*
X-334043Y260742D01*
X-334049Y260744D01*
X-334054Y260748D01*
X-334167Y260782D01*
X-334277Y260818D01*
X-334284Y260818D01*
X-334290Y260820D01*
X-334406Y260817D01*
X-334523Y260816D01*
X-334531Y260814D01*
X-334535Y260814D01*
X-334553Y260807D01*
X-334684Y260769D01*
X-335085Y260603D01*
X-338015Y260603D01*
X-340723Y261725D01*
X-342795Y263797D01*
X-342961Y264197D01*
X-343022Y264296D01*
X-343083Y264397D01*
X-343087Y264401D01*
X-343091Y264406D01*
X-343180Y264480D01*
X-343269Y264557D01*
X-343275Y264559D01*
X-343280Y264563D01*
X-343388Y264605D01*
X-343498Y264649D01*
X-343505Y264650D01*
X-343510Y264651D01*
X-343528Y264652D01*
X-343664Y264667D01*
X-396338Y264667D01*
X-398496Y266825D01*
X-445645Y313974D01*
X-447803Y316132D01*
X-447803Y328517D01*
X-447817Y328607D01*
X-447825Y328698D01*
X-447837Y328727D01*
X-447842Y328759D01*
X-447885Y328840D01*
X-447921Y328924D01*
X-447947Y328956D01*
X-447958Y328977D01*
X-447981Y328999D01*
X-448026Y329055D01*
X-479681Y360710D01*
X-479755Y360763D01*
X-479824Y360823D01*
X-479855Y360835D01*
X-479881Y360854D01*
X-479968Y360881D01*
X-480053Y360915D01*
X-480094Y360919D01*
X-480116Y360926D01*
X-480148Y360925D01*
X-480219Y360933D01*
X-485651Y360933D01*
X-489967Y365249D01*
X-489967Y370681D01*
X-489981Y370771D01*
X-489989Y370862D01*
X-490001Y370891D01*
X-490006Y370923D01*
X-490049Y371004D01*
X-490085Y371088D01*
X-490111Y371120D01*
X-490122Y371141D01*
X-490145Y371163D01*
X-490190Y371219D01*
X-509145Y390174D01*
X-509219Y390227D01*
X-509288Y390287D01*
X-509319Y390299D01*
X-509345Y390318D01*
X-509432Y390345D01*
X-509517Y390379D01*
X-509558Y390383D01*
X-509580Y390390D01*
X-509612Y390389D01*
X-509683Y390397D01*
X-519017Y390397D01*
X-519107Y390383D01*
X-519198Y390375D01*
X-519227Y390363D01*
X-519259Y390358D01*
X-519340Y390315D01*
X-519424Y390279D01*
X-519456Y390253D01*
X-519477Y390242D01*
X-519499Y390219D01*
X-519555Y390174D01*
X-544732Y364997D01*
X-674468Y364997D01*
X-712345Y402874D01*
X-712419Y402927D01*
X-712488Y402987D01*
X-712519Y402999D01*
X-712545Y403018D01*
X-712632Y403045D01*
X-712717Y403079D01*
X-712758Y403083D01*
X-712780Y403090D01*
X-712812Y403089D01*
X-712883Y403097D01*
X-775716Y403097D01*
X-775736Y403094D01*
X-775755Y403096D01*
X-775857Y403074D01*
X-775959Y403058D01*
X-775976Y403048D01*
X-775996Y403044D01*
X-776085Y402991D01*
X-776176Y402942D01*
X-776190Y402928D01*
X-776207Y402918D01*
X-776274Y402839D01*
X-776346Y402764D01*
X-776354Y402746D01*
X-776367Y402731D01*
X-776406Y402635D01*
X-776449Y402541D01*
X-776451Y402521D01*
X-776459Y402503D01*
X-776477Y402336D01*
X-776477Y401876D01*
X-782876Y395477D01*
X-791924Y395477D01*
X-798323Y401876D01*
X-798323Y410924D01*
X-791924Y417323D01*
X-782876Y417323D01*
X-776477Y410924D01*
X-776477Y410464D01*
X-776474Y410444D01*
X-776476Y410425D01*
X-776454Y410323D01*
X-776438Y410221D01*
X-776428Y410204D01*
X-776424Y410184D01*
X-776371Y410095D01*
X-776322Y410004D01*
X-776308Y409990D01*
X-776298Y409973D01*
X-776219Y409906D01*
X-776144Y409834D01*
X-776126Y409826D01*
X-776111Y409813D01*
X-776015Y409774D01*
X-775921Y409731D01*
X-775901Y409729D01*
X-775883Y409721D01*
X-775716Y409703D01*
X-709832Y409703D01*
X-671955Y371826D01*
X-671881Y371773D01*
X-671812Y371713D01*
X-671781Y371701D01*
X-671755Y371682D01*
X-671668Y371655D01*
X-671583Y371621D01*
X-671542Y371617D01*
X-671520Y371610D01*
X-671488Y371611D01*
X-671417Y371603D01*
X-547783Y371603D01*
X-547693Y371617D01*
X-547602Y371625D01*
X-547573Y371637D01*
X-547541Y371642D01*
X-547460Y371685D01*
X-547376Y371721D01*
X-547344Y371747D01*
X-547323Y371758D01*
X-547301Y371781D01*
X-547245Y371826D01*
X-522068Y397003D01*
X-506632Y397003D01*
X-485519Y375890D01*
X-485445Y375837D01*
X-485376Y375777D01*
X-485345Y375765D01*
X-485319Y375746D01*
X-485232Y375719D01*
X-485147Y375685D01*
X-485106Y375681D01*
X-485084Y375674D01*
X-485052Y375675D01*
X-484981Y375667D01*
X-479549Y375667D01*
X-475233Y371351D01*
X-475233Y365919D01*
X-475219Y365829D01*
X-475211Y365738D01*
X-475199Y365709D01*
X-475194Y365677D01*
X-475151Y365596D01*
X-475115Y365512D01*
X-475089Y365480D01*
X-475078Y365459D01*
X-475055Y365437D01*
X-475010Y365381D01*
X-441197Y331568D01*
X-441197Y319183D01*
X-441183Y319093D01*
X-441175Y319002D01*
X-441163Y318973D01*
X-441158Y318941D01*
X-441115Y318860D01*
X-441079Y318776D01*
X-441053Y318744D01*
X-441042Y318723D01*
X-441019Y318701D01*
X-440974Y318645D01*
X-393825Y271496D01*
X-393751Y271443D01*
X-393682Y271383D01*
X-393651Y271371D01*
X-393625Y271352D01*
X-393538Y271325D01*
X-393453Y271291D01*
X-393412Y271287D01*
X-393390Y271280D01*
X-393358Y271281D01*
X-393287Y271273D01*
X-343664Y271273D01*
X-343550Y271291D01*
X-343433Y271309D01*
X-343428Y271311D01*
X-343422Y271312D01*
X-343319Y271367D01*
X-343214Y271420D01*
X-343210Y271425D01*
X-343204Y271428D01*
X-343124Y271512D01*
X-343042Y271596D01*
X-343038Y271602D01*
X-343035Y271606D01*
X-343027Y271623D01*
X-342961Y271743D01*
X-342795Y272143D01*
X-340723Y274215D01*
X-338015Y275337D01*
X-335085Y275337D01*
X-332377Y274215D01*
X-330305Y272143D01*
X-329183Y269435D01*
X-329183Y269145D01*
X-329172Y269075D01*
X-329170Y269003D01*
X-329152Y268954D01*
X-329144Y268903D01*
X-329110Y268839D01*
X-329085Y268772D01*
X-329053Y268731D01*
X-329028Y268685D01*
X-328976Y268636D01*
X-328932Y268580D01*
X-328888Y268552D01*
X-328850Y268516D01*
X-328785Y268486D01*
X-328725Y268447D01*
X-328674Y268434D01*
X-328627Y268412D01*
X-328556Y268404D01*
X-328486Y268387D01*
X-328434Y268391D01*
X-328383Y268385D01*
X-328312Y268400D01*
X-328241Y268406D01*
X-328193Y268426D01*
X-328142Y268437D01*
X-328081Y268474D01*
X-328015Y268502D01*
X-327959Y268547D01*
X-327931Y268564D01*
X-327916Y268581D01*
X-327884Y268607D01*
X-315946Y280545D01*
X-313788Y282703D01*
X-276289Y282703D01*
X-276174Y282722D01*
X-276058Y282739D01*
X-276052Y282741D01*
X-276046Y282742D01*
X-275943Y282797D01*
X-275838Y282850D01*
X-275834Y282855D01*
X-275829Y282858D01*
X-275749Y282942D01*
X-275666Y283026D01*
X-275663Y283032D01*
X-275659Y283036D01*
X-275651Y283053D01*
X-275585Y283173D01*
X-274883Y284868D01*
X-272168Y287583D01*
X-268620Y289053D01*
X-264780Y289053D01*
X-261232Y287583D01*
X-258517Y284868D01*
X-257047Y281320D01*
X-257047Y277480D01*
X-258517Y273932D01*
X-261232Y271217D01*
X-264780Y269747D01*
X-268620Y269747D01*
X-272168Y271217D01*
X-274883Y273932D01*
X-275585Y275627D01*
X-275647Y275727D01*
X-275707Y275827D01*
X-275712Y275831D01*
X-275715Y275836D01*
X-275805Y275911D01*
X-275894Y275987D01*
X-275900Y275989D01*
X-275904Y275993D01*
X-276013Y276035D01*
X-276122Y276079D01*
X-276129Y276080D01*
X-276134Y276081D01*
X-276152Y276082D01*
X-276289Y276097D01*
X-310737Y276097D01*
X-310827Y276083D01*
X-310918Y276075D01*
X-310947Y276063D01*
X-310979Y276058D01*
X-311060Y276015D01*
X-311144Y275979D01*
X-311176Y275953D01*
X-311197Y275942D01*
X-311219Y275919D01*
X-311275Y275874D01*
X-326674Y260475D01*
X-326727Y260401D01*
X-326787Y260332D01*
X-326799Y260301D01*
X-326818Y260275D01*
X-326845Y260188D01*
X-326879Y260103D01*
X-326883Y260062D01*
X-326890Y260040D01*
X-326889Y260008D01*
X-326897Y259937D01*
X-326897Y201832D01*
X-352074Y176655D01*
X-352116Y176597D01*
X-352164Y176546D01*
X-352173Y176528D01*
X-352187Y176512D01*
X-352199Y176481D01*
X-352218Y176455D01*
X-352240Y176383D01*
X-352268Y176323D01*
X-352270Y176305D01*
X-352279Y176283D01*
X-352283Y176242D01*
X-352290Y176220D01*
X-352289Y176188D01*
X-352297Y176117D01*
X-352297Y175133D01*
X-352294Y175113D01*
X-352296Y175094D01*
X-352274Y174992D01*
X-352258Y174890D01*
X-352248Y174873D01*
X-352244Y174853D01*
X-352191Y174764D01*
X-352142Y174673D01*
X-352128Y174659D01*
X-352118Y174642D01*
X-352039Y174575D01*
X-351964Y174503D01*
X-351946Y174495D01*
X-351931Y174482D01*
X-351835Y174443D01*
X-351828Y174440D01*
X-346328Y168940D01*
X-346328Y161260D01*
X-351812Y155776D01*
X-351816Y155775D01*
X-351905Y155722D01*
X-351996Y155673D01*
X-352010Y155659D01*
X-352027Y155649D01*
X-352094Y155570D01*
X-352166Y155495D01*
X-352174Y155477D01*
X-352187Y155462D01*
X-352226Y155366D01*
X-352269Y155272D01*
X-352271Y155252D01*
X-352279Y155234D01*
X-352297Y155067D01*
X-352297Y48514D01*
X-352294Y48494D01*
X-352296Y48475D01*
X-352274Y48373D01*
X-352258Y48271D01*
X-352248Y48254D01*
X-352244Y48234D01*
X-352191Y48145D01*
X-352142Y48054D01*
X-352128Y48040D01*
X-352118Y48023D01*
X-352039Y47956D01*
X-351964Y47884D01*
X-351946Y47876D01*
X-351931Y47863D01*
X-351835Y47824D01*
X-351741Y47781D01*
X-351721Y47779D01*
X-351703Y47771D01*
X-351610Y47761D01*
X-345947Y42098D01*
X-345947Y34102D01*
X-351602Y28447D01*
X-359598Y28447D01*
G37*
%LPD*%
%LPC*%
G36*
X-625351Y157733D02*
X-625351Y157733D01*
X-629667Y162049D01*
X-629667Y168151D01*
X-625351Y172467D01*
X-619201Y172467D01*
X-619111Y172481D01*
X-619020Y172489D01*
X-618990Y172501D01*
X-618958Y172506D01*
X-618878Y172549D01*
X-618794Y172585D01*
X-618762Y172611D01*
X-618741Y172622D01*
X-618719Y172645D01*
X-618663Y172690D01*
X-599918Y191435D01*
X-599865Y191509D01*
X-599805Y191578D01*
X-599793Y191608D01*
X-599774Y191634D01*
X-599747Y191721D01*
X-599713Y191806D01*
X-599709Y191847D01*
X-599702Y191869D01*
X-599703Y191902D01*
X-599695Y191973D01*
X-599695Y267858D01*
X-582594Y284959D01*
X-582541Y285033D01*
X-582481Y285102D01*
X-582469Y285132D01*
X-582450Y285158D01*
X-582423Y285245D01*
X-582389Y285330D01*
X-582385Y285371D01*
X-582378Y285393D01*
X-582379Y285426D01*
X-582371Y285497D01*
X-582371Y300839D01*
X-582382Y300910D01*
X-582384Y300982D01*
X-582402Y301031D01*
X-582410Y301082D01*
X-582444Y301145D01*
X-582469Y301213D01*
X-582501Y301253D01*
X-582526Y301299D01*
X-582577Y301349D01*
X-582622Y301405D01*
X-582666Y301433D01*
X-582704Y301469D01*
X-582769Y301499D01*
X-582829Y301538D01*
X-582880Y301550D01*
X-582927Y301572D01*
X-582998Y301580D01*
X-583068Y301598D01*
X-583120Y301594D01*
X-583171Y301599D01*
X-583242Y301584D01*
X-583313Y301579D01*
X-583361Y301558D01*
X-583412Y301547D01*
X-583473Y301510D01*
X-583539Y301482D01*
X-583595Y301437D01*
X-583623Y301421D01*
X-583638Y301403D01*
X-583670Y301377D01*
X-614710Y270337D01*
X-614763Y270263D01*
X-614823Y270194D01*
X-614835Y270164D01*
X-614854Y270138D01*
X-614881Y270051D01*
X-614915Y269966D01*
X-614919Y269925D01*
X-614926Y269903D01*
X-614925Y269870D01*
X-614933Y269799D01*
X-614933Y263649D01*
X-619249Y259333D01*
X-625351Y259333D01*
X-629700Y263682D01*
X-629774Y263735D01*
X-629844Y263795D01*
X-629874Y263807D01*
X-629900Y263826D01*
X-629987Y263853D01*
X-630072Y263887D01*
X-630113Y263891D01*
X-630135Y263898D01*
X-630167Y263897D01*
X-630239Y263905D01*
X-652461Y263905D01*
X-652551Y263891D01*
X-652642Y263883D01*
X-652672Y263871D01*
X-652704Y263866D01*
X-652785Y263823D01*
X-652869Y263787D01*
X-652901Y263761D01*
X-652921Y263750D01*
X-652944Y263727D01*
X-653000Y263682D01*
X-657349Y259333D01*
X-663451Y259333D01*
X-667767Y263649D01*
X-667767Y269751D01*
X-663451Y274067D01*
X-657349Y274067D01*
X-653000Y269718D01*
X-652926Y269665D01*
X-652856Y269605D01*
X-652826Y269593D01*
X-652800Y269574D01*
X-652713Y269547D01*
X-652628Y269513D01*
X-652587Y269509D01*
X-652565Y269502D01*
X-652533Y269503D01*
X-652461Y269495D01*
X-630239Y269495D01*
X-630149Y269509D01*
X-630058Y269517D01*
X-630028Y269529D01*
X-629996Y269534D01*
X-629915Y269577D01*
X-629831Y269613D01*
X-629799Y269639D01*
X-629779Y269650D01*
X-629756Y269673D01*
X-629700Y269718D01*
X-625351Y274067D01*
X-619201Y274067D01*
X-619111Y274081D01*
X-619020Y274089D01*
X-618990Y274101D01*
X-618958Y274106D01*
X-618877Y274149D01*
X-618794Y274185D01*
X-618761Y274211D01*
X-618741Y274222D01*
X-618719Y274245D01*
X-618663Y274290D01*
X-572658Y320295D01*
X-557642Y320295D01*
X-519765Y282418D01*
X-519691Y282365D01*
X-519622Y282305D01*
X-519592Y282293D01*
X-519566Y282274D01*
X-519479Y282247D01*
X-519394Y282213D01*
X-519353Y282209D01*
X-519331Y282202D01*
X-519298Y282203D01*
X-519227Y282195D01*
X-434830Y282195D01*
X-434740Y282209D01*
X-434649Y282217D01*
X-434619Y282229D01*
X-434587Y282234D01*
X-434507Y282277D01*
X-434423Y282313D01*
X-434391Y282339D01*
X-434370Y282350D01*
X-434348Y282373D01*
X-434292Y282418D01*
X-433414Y283296D01*
X-430186Y283296D01*
X-427904Y281014D01*
X-427904Y277786D01*
X-430186Y275504D01*
X-433414Y275504D01*
X-434292Y276382D01*
X-434366Y276435D01*
X-434435Y276495D01*
X-434465Y276507D01*
X-434491Y276526D01*
X-434578Y276553D01*
X-434663Y276587D01*
X-434704Y276591D01*
X-434727Y276598D01*
X-434759Y276597D01*
X-434830Y276605D01*
X-521858Y276605D01*
X-559735Y314482D01*
X-559809Y314535D01*
X-559878Y314595D01*
X-559908Y314607D01*
X-559934Y314626D01*
X-560021Y314653D01*
X-560106Y314687D01*
X-560147Y314691D01*
X-560169Y314698D01*
X-560202Y314697D01*
X-560273Y314705D01*
X-570027Y314705D01*
X-570117Y314691D01*
X-570208Y314683D01*
X-570238Y314671D01*
X-570270Y314666D01*
X-570350Y314623D01*
X-570434Y314587D01*
X-570466Y314561D01*
X-570487Y314550D01*
X-570509Y314527D01*
X-570565Y314482D01*
X-580777Y304270D01*
X-580819Y304212D01*
X-580869Y304160D01*
X-580891Y304113D01*
X-580921Y304071D01*
X-580942Y304002D01*
X-580972Y303937D01*
X-580978Y303885D01*
X-580993Y303835D01*
X-580991Y303764D01*
X-580999Y303693D01*
X-580988Y303642D01*
X-580987Y303590D01*
X-580962Y303522D01*
X-580947Y303452D01*
X-580920Y303407D01*
X-580902Y303359D01*
X-580858Y303303D01*
X-580821Y303241D01*
X-580781Y303207D01*
X-580749Y303167D01*
X-580688Y303128D01*
X-580634Y303081D01*
X-580586Y303062D01*
X-580542Y303034D01*
X-580472Y303016D01*
X-580406Y302989D01*
X-580334Y302981D01*
X-580303Y302973D01*
X-580280Y302975D01*
X-580239Y302971D01*
X-561374Y302971D01*
X-560629Y302226D01*
X-560629Y281974D01*
X-561374Y281229D01*
X-578103Y281229D01*
X-578193Y281215D01*
X-578284Y281207D01*
X-578314Y281195D01*
X-578346Y281190D01*
X-578426Y281147D01*
X-578510Y281111D01*
X-578542Y281085D01*
X-578563Y281074D01*
X-578585Y281051D01*
X-578641Y281006D01*
X-593882Y265765D01*
X-593935Y265691D01*
X-593995Y265622D01*
X-594007Y265592D01*
X-594026Y265566D01*
X-594053Y265479D01*
X-594087Y265394D01*
X-594091Y265353D01*
X-594098Y265331D01*
X-594097Y265298D01*
X-594105Y265227D01*
X-594105Y189342D01*
X-614710Y168737D01*
X-614763Y168663D01*
X-614823Y168594D01*
X-614835Y168564D01*
X-614854Y168538D01*
X-614881Y168451D01*
X-614915Y168366D01*
X-614919Y168325D01*
X-614926Y168303D01*
X-614925Y168270D01*
X-614933Y168199D01*
X-614933Y162049D01*
X-619249Y157733D01*
X-625351Y157733D01*
G37*
%LPD*%
%LPC*%
G36*
X-791924Y154177D02*
X-791924Y154177D01*
X-798323Y160576D01*
X-798323Y169624D01*
X-791924Y176023D01*
X-782876Y176023D01*
X-776433Y169580D01*
X-776404Y169525D01*
X-776379Y169458D01*
X-776347Y169417D01*
X-776322Y169371D01*
X-776270Y169322D01*
X-776226Y169266D01*
X-776182Y169238D01*
X-776144Y169202D01*
X-776079Y169172D01*
X-776019Y169133D01*
X-775968Y169120D01*
X-775921Y169098D01*
X-775850Y169090D01*
X-775780Y169073D01*
X-775728Y169077D01*
X-775677Y169071D01*
X-775606Y169086D01*
X-775535Y169092D01*
X-775487Y169112D01*
X-775436Y169123D01*
X-775375Y169160D01*
X-775309Y169188D01*
X-775253Y169233D01*
X-775225Y169250D01*
X-775210Y169267D01*
X-775178Y169293D01*
X-765526Y178945D01*
X-765473Y179019D01*
X-765413Y179088D01*
X-765401Y179119D01*
X-765382Y179145D01*
X-765355Y179232D01*
X-765321Y179317D01*
X-765317Y179358D01*
X-765310Y179380D01*
X-765311Y179412D01*
X-765303Y179483D01*
X-765303Y201517D01*
X-765317Y201607D01*
X-765325Y201698D01*
X-765337Y201727D01*
X-765342Y201759D01*
X-765385Y201840D01*
X-765421Y201924D01*
X-765447Y201956D01*
X-765458Y201977D01*
X-765481Y201999D01*
X-765526Y202055D01*
X-775178Y211707D01*
X-775236Y211749D01*
X-775288Y211798D01*
X-775335Y211820D01*
X-775377Y211851D01*
X-775446Y211872D01*
X-775511Y211902D01*
X-775563Y211908D01*
X-775613Y211923D01*
X-775684Y211921D01*
X-775755Y211929D01*
X-775806Y211918D01*
X-775858Y211917D01*
X-775926Y211892D01*
X-775996Y211877D01*
X-776041Y211850D01*
X-776089Y211832D01*
X-776145Y211787D01*
X-776207Y211750D01*
X-776241Y211711D01*
X-776281Y211678D01*
X-776320Y211618D01*
X-776367Y211564D01*
X-776386Y211515D01*
X-776414Y211471D01*
X-776426Y211427D01*
X-782876Y204977D01*
X-791924Y204977D01*
X-798323Y211376D01*
X-798323Y220424D01*
X-791924Y226823D01*
X-782876Y226823D01*
X-782550Y226497D01*
X-782534Y226486D01*
X-782521Y226470D01*
X-782434Y226414D01*
X-782350Y226354D01*
X-782331Y226348D01*
X-782315Y226337D01*
X-782214Y226312D01*
X-782115Y226281D01*
X-782095Y226282D01*
X-782076Y226277D01*
X-781973Y226285D01*
X-781869Y226288D01*
X-781851Y226295D01*
X-781831Y226296D01*
X-781736Y226336D01*
X-781638Y226372D01*
X-781623Y226385D01*
X-781605Y226392D01*
X-781474Y226497D01*
X-765526Y242445D01*
X-765473Y242519D01*
X-765413Y242588D01*
X-765401Y242619D01*
X-765382Y242645D01*
X-765355Y242732D01*
X-765321Y242817D01*
X-765317Y242858D01*
X-765310Y242880D01*
X-765311Y242912D01*
X-765303Y242983D01*
X-765303Y277717D01*
X-765317Y277807D01*
X-765325Y277898D01*
X-765337Y277927D01*
X-765342Y277959D01*
X-765385Y278040D01*
X-765421Y278124D01*
X-765447Y278156D01*
X-765458Y278177D01*
X-765481Y278199D01*
X-765526Y278255D01*
X-775178Y287907D01*
X-775236Y287949D01*
X-775288Y287998D01*
X-775335Y288020D01*
X-775377Y288051D01*
X-775446Y288072D01*
X-775511Y288102D01*
X-775563Y288108D01*
X-775613Y288123D01*
X-775684Y288121D01*
X-775755Y288129D01*
X-775806Y288118D01*
X-775858Y288117D01*
X-775926Y288092D01*
X-775996Y288077D01*
X-776041Y288050D01*
X-776089Y288032D01*
X-776145Y287987D01*
X-776207Y287950D01*
X-776241Y287911D01*
X-776281Y287878D01*
X-776320Y287818D01*
X-776367Y287764D01*
X-776386Y287715D01*
X-776414Y287671D01*
X-776426Y287627D01*
X-782876Y281177D01*
X-791924Y281177D01*
X-798323Y287576D01*
X-798323Y296624D01*
X-791924Y303023D01*
X-782876Y303023D01*
X-776477Y296624D01*
X-776477Y296164D01*
X-776474Y296144D01*
X-776476Y296125D01*
X-776454Y296023D01*
X-776438Y295921D01*
X-776428Y295904D01*
X-776424Y295884D01*
X-776371Y295795D01*
X-776322Y295704D01*
X-776308Y295690D01*
X-776298Y295673D01*
X-776219Y295606D01*
X-776144Y295534D01*
X-776126Y295526D01*
X-776111Y295513D01*
X-776015Y295474D01*
X-775921Y295431D01*
X-775901Y295429D01*
X-775883Y295421D01*
X-775716Y295403D01*
X-773332Y295403D01*
X-771174Y293245D01*
X-766602Y288673D01*
X-766544Y288631D01*
X-766492Y288582D01*
X-766445Y288560D01*
X-766403Y288529D01*
X-766334Y288508D01*
X-766269Y288478D01*
X-766217Y288472D01*
X-766167Y288457D01*
X-766096Y288459D01*
X-766025Y288451D01*
X-765974Y288462D01*
X-765922Y288463D01*
X-765854Y288488D01*
X-765784Y288503D01*
X-765739Y288530D01*
X-765691Y288548D01*
X-765635Y288593D01*
X-765573Y288630D01*
X-765539Y288669D01*
X-765499Y288702D01*
X-765460Y288762D01*
X-765413Y288816D01*
X-765394Y288865D01*
X-765366Y288909D01*
X-765348Y288978D01*
X-765321Y289045D01*
X-765313Y289116D01*
X-765305Y289147D01*
X-765307Y289170D01*
X-765303Y289211D01*
X-765303Y341217D01*
X-765317Y341307D01*
X-765325Y341398D01*
X-765337Y341427D01*
X-765342Y341459D01*
X-765385Y341540D01*
X-765421Y341624D01*
X-765447Y341656D01*
X-765458Y341677D01*
X-765481Y341699D01*
X-765526Y341755D01*
X-775178Y351407D01*
X-775236Y351449D01*
X-775288Y351498D01*
X-775335Y351520D01*
X-775377Y351551D01*
X-775446Y351572D01*
X-775511Y351602D01*
X-775563Y351608D01*
X-775613Y351623D01*
X-775684Y351621D01*
X-775755Y351629D01*
X-775806Y351618D01*
X-775858Y351617D01*
X-775926Y351592D01*
X-775996Y351577D01*
X-776041Y351550D01*
X-776089Y351532D01*
X-776145Y351487D01*
X-776207Y351450D01*
X-776241Y351411D01*
X-776281Y351378D01*
X-776320Y351318D01*
X-776367Y351264D01*
X-776386Y351215D01*
X-776414Y351171D01*
X-776426Y351127D01*
X-782876Y344677D01*
X-791924Y344677D01*
X-798323Y351076D01*
X-798323Y360124D01*
X-791924Y366523D01*
X-782876Y366523D01*
X-776477Y360124D01*
X-776477Y359664D01*
X-776474Y359644D01*
X-776476Y359625D01*
X-776454Y359523D01*
X-776438Y359421D01*
X-776428Y359404D01*
X-776424Y359384D01*
X-776371Y359295D01*
X-776322Y359204D01*
X-776308Y359190D01*
X-776298Y359173D01*
X-776219Y359106D01*
X-776144Y359034D01*
X-776126Y359026D01*
X-776111Y359013D01*
X-776015Y358974D01*
X-775921Y358931D01*
X-775901Y358929D01*
X-775883Y358921D01*
X-775716Y358903D01*
X-773332Y358903D01*
X-758697Y344268D01*
X-758697Y239932D01*
X-760855Y237774D01*
X-776803Y221826D01*
X-776814Y221810D01*
X-776830Y221798D01*
X-776886Y221710D01*
X-776946Y221627D01*
X-776952Y221608D01*
X-776963Y221591D01*
X-776988Y221490D01*
X-777019Y221392D01*
X-777018Y221372D01*
X-777023Y221352D01*
X-777015Y221249D01*
X-777012Y221146D01*
X-777005Y221127D01*
X-777004Y221107D01*
X-776964Y221012D01*
X-776928Y220915D01*
X-776915Y220899D01*
X-776908Y220881D01*
X-776803Y220750D01*
X-776477Y220424D01*
X-776477Y219964D01*
X-776474Y219944D01*
X-776476Y219925D01*
X-776454Y219823D01*
X-776438Y219721D01*
X-776428Y219704D01*
X-776424Y219684D01*
X-776371Y219595D01*
X-776322Y219504D01*
X-776308Y219490D01*
X-776298Y219473D01*
X-776219Y219406D01*
X-776144Y219334D01*
X-776126Y219326D01*
X-776111Y219313D01*
X-776015Y219274D01*
X-775921Y219231D01*
X-775901Y219229D01*
X-775883Y219221D01*
X-775716Y219203D01*
X-773332Y219203D01*
X-758697Y204568D01*
X-758697Y176432D01*
X-773332Y161797D01*
X-775716Y161797D01*
X-775736Y161794D01*
X-775755Y161796D01*
X-775857Y161774D01*
X-775959Y161758D01*
X-775976Y161748D01*
X-775996Y161744D01*
X-776085Y161691D01*
X-776176Y161642D01*
X-776190Y161628D01*
X-776207Y161618D01*
X-776274Y161539D01*
X-776346Y161464D01*
X-776354Y161446D01*
X-776367Y161431D01*
X-776406Y161335D01*
X-776449Y161241D01*
X-776451Y161221D01*
X-776459Y161203D01*
X-776477Y161036D01*
X-776477Y160576D01*
X-782876Y154177D01*
X-791924Y154177D01*
G37*
%LPD*%
%LPC*%
G36*
X-422151Y322833D02*
X-422151Y322833D01*
X-426467Y327149D01*
X-426467Y333251D01*
X-422118Y337600D01*
X-422065Y337674D01*
X-422005Y337744D01*
X-421993Y337774D01*
X-421974Y337800D01*
X-421947Y337887D01*
X-421913Y337972D01*
X-421909Y338013D01*
X-421902Y338035D01*
X-421903Y338067D01*
X-421895Y338139D01*
X-421895Y354127D01*
X-421909Y354217D01*
X-421917Y354308D01*
X-421929Y354338D01*
X-421934Y354370D01*
X-421977Y354450D01*
X-422013Y354534D01*
X-422039Y354566D01*
X-422050Y354587D01*
X-422073Y354609D01*
X-422118Y354665D01*
X-428163Y360710D01*
X-428237Y360763D01*
X-428306Y360823D01*
X-428336Y360835D01*
X-428362Y360854D01*
X-428449Y360881D01*
X-428534Y360915D01*
X-428575Y360919D01*
X-428597Y360926D01*
X-428630Y360925D01*
X-428701Y360933D01*
X-434851Y360933D01*
X-439167Y365249D01*
X-439167Y371351D01*
X-434851Y375667D01*
X-428701Y375667D01*
X-428611Y375681D01*
X-428520Y375689D01*
X-428490Y375701D01*
X-428458Y375706D01*
X-428378Y375749D01*
X-428294Y375785D01*
X-428262Y375811D01*
X-428241Y375822D01*
X-428219Y375845D01*
X-428163Y375890D01*
X-394858Y409195D01*
X-280873Y409195D01*
X-280783Y409209D01*
X-280692Y409217D01*
X-280662Y409229D01*
X-280630Y409234D01*
X-280550Y409277D01*
X-280466Y409313D01*
X-280434Y409339D01*
X-280413Y409350D01*
X-280391Y409373D01*
X-280335Y409418D01*
X-226946Y462806D01*
X-226935Y462822D01*
X-226919Y462835D01*
X-226863Y462922D01*
X-226803Y463006D01*
X-226797Y463025D01*
X-226786Y463042D01*
X-226761Y463142D01*
X-226730Y463241D01*
X-226731Y463261D01*
X-226726Y463280D01*
X-226734Y463383D01*
X-226737Y463487D01*
X-226744Y463506D01*
X-226745Y463525D01*
X-226785Y463620D01*
X-226821Y463718D01*
X-226834Y463733D01*
X-226841Y463752D01*
X-226946Y463883D01*
X-227966Y464902D01*
X-227966Y474898D01*
X-220898Y481966D01*
X-219456Y481966D01*
X-219436Y481969D01*
X-219417Y481967D01*
X-219315Y481989D01*
X-219213Y482005D01*
X-219196Y482015D01*
X-219176Y482019D01*
X-219087Y482072D01*
X-218996Y482121D01*
X-218982Y482135D01*
X-218965Y482145D01*
X-218898Y482224D01*
X-218826Y482299D01*
X-218818Y482317D01*
X-218805Y482332D01*
X-218766Y482428D01*
X-218723Y482522D01*
X-218721Y482542D01*
X-218713Y482560D01*
X-218695Y482727D01*
X-218695Y506527D01*
X-218696Y506536D01*
X-218696Y506540D01*
X-218700Y506559D01*
X-218709Y506617D01*
X-218717Y506708D01*
X-218729Y506738D01*
X-218734Y506770D01*
X-218777Y506850D01*
X-218813Y506934D01*
X-218839Y506966D01*
X-218850Y506987D01*
X-218873Y507009D01*
X-218918Y507065D01*
X-223212Y511360D01*
X-223229Y511372D01*
X-223241Y511387D01*
X-223328Y511443D01*
X-223412Y511504D01*
X-223431Y511509D01*
X-223448Y511520D01*
X-223548Y511545D01*
X-223647Y511576D01*
X-223667Y511575D01*
X-223686Y511580D01*
X-223789Y511572D01*
X-223893Y511570D01*
X-223912Y511563D01*
X-223932Y511561D01*
X-224027Y511521D01*
X-224124Y511485D01*
X-224140Y511473D01*
X-224158Y511465D01*
X-224289Y511360D01*
X-224602Y511047D01*
X-232598Y511047D01*
X-238253Y516702D01*
X-238253Y524698D01*
X-232598Y530353D01*
X-224602Y530353D01*
X-218947Y524698D01*
X-218947Y516702D01*
X-219260Y516389D01*
X-219272Y516373D01*
X-219287Y516360D01*
X-219343Y516273D01*
X-219404Y516189D01*
X-219409Y516170D01*
X-219420Y516153D01*
X-219446Y516053D01*
X-219476Y515954D01*
X-219475Y515934D01*
X-219480Y515915D01*
X-219472Y515812D01*
X-219470Y515708D01*
X-219463Y515689D01*
X-219461Y515670D01*
X-219421Y515575D01*
X-219385Y515477D01*
X-219373Y515462D01*
X-219365Y515443D01*
X-219260Y515312D01*
X-214965Y511018D01*
X-213105Y509158D01*
X-213105Y482727D01*
X-213102Y482707D01*
X-213104Y482688D01*
X-213082Y482586D01*
X-213066Y482484D01*
X-213056Y482467D01*
X-213052Y482447D01*
X-212999Y482358D01*
X-212950Y482267D01*
X-212936Y482253D01*
X-212926Y482236D01*
X-212847Y482169D01*
X-212772Y482097D01*
X-212754Y482089D01*
X-212739Y482076D01*
X-212643Y482037D01*
X-212549Y481994D01*
X-212529Y481992D01*
X-212511Y481984D01*
X-212344Y481966D01*
X-210902Y481966D01*
X-203834Y474898D01*
X-203834Y464902D01*
X-210908Y457828D01*
X-210920Y457812D01*
X-210936Y457799D01*
X-210992Y457712D01*
X-211052Y457628D01*
X-211058Y457609D01*
X-211069Y457593D01*
X-211094Y457492D01*
X-211124Y457393D01*
X-211124Y457373D01*
X-211129Y457354D01*
X-211121Y457251D01*
X-211118Y457147D01*
X-211111Y457129D01*
X-211110Y457109D01*
X-211069Y457014D01*
X-211034Y456916D01*
X-211021Y456901D01*
X-211013Y456882D01*
X-210908Y456752D01*
X-203707Y449550D01*
X-203707Y446023D01*
X-215138Y446023D01*
X-215158Y446020D01*
X-215177Y446022D01*
X-215279Y446000D01*
X-215381Y445983D01*
X-215398Y445974D01*
X-215418Y445970D01*
X-215507Y445917D01*
X-215598Y445868D01*
X-215612Y445854D01*
X-215629Y445844D01*
X-215696Y445765D01*
X-215767Y445690D01*
X-215776Y445672D01*
X-215789Y445657D01*
X-215827Y445561D01*
X-215871Y445467D01*
X-215873Y445447D01*
X-215881Y445429D01*
X-215899Y445262D01*
X-215899Y444499D01*
X-215901Y444499D01*
X-215901Y445262D01*
X-215904Y445282D01*
X-215902Y445301D01*
X-215924Y445403D01*
X-215941Y445505D01*
X-215950Y445522D01*
X-215954Y445542D01*
X-216007Y445631D01*
X-216056Y445722D01*
X-216070Y445736D01*
X-216080Y445753D01*
X-216159Y445820D01*
X-216234Y445891D01*
X-216252Y445900D01*
X-216267Y445913D01*
X-216363Y445952D01*
X-216457Y445995D01*
X-216477Y445997D01*
X-216495Y446005D01*
X-216662Y446023D01*
X-228093Y446023D01*
X-228093Y449550D01*
X-220892Y456752D01*
X-220880Y456768D01*
X-220864Y456780D01*
X-220808Y456867D01*
X-220748Y456951D01*
X-220742Y456970D01*
X-220731Y456987D01*
X-220706Y457088D01*
X-220676Y457186D01*
X-220676Y457206D01*
X-220671Y457226D01*
X-220679Y457329D01*
X-220682Y457432D01*
X-220689Y457451D01*
X-220690Y457471D01*
X-220731Y457566D01*
X-220766Y457663D01*
X-220779Y457679D01*
X-220787Y457697D01*
X-220892Y457828D01*
X-221917Y458854D01*
X-221933Y458865D01*
X-221946Y458881D01*
X-222033Y458937D01*
X-222117Y458997D01*
X-222136Y459003D01*
X-222153Y459014D01*
X-222253Y459039D01*
X-222352Y459070D01*
X-222372Y459069D01*
X-222391Y459074D01*
X-222494Y459066D01*
X-222598Y459063D01*
X-222617Y459056D01*
X-222637Y459055D01*
X-222731Y459015D01*
X-222829Y458979D01*
X-222845Y458966D01*
X-222863Y458959D01*
X-222994Y458854D01*
X-276382Y405465D01*
X-278242Y403605D01*
X-392227Y403605D01*
X-392317Y403591D01*
X-392408Y403583D01*
X-392438Y403571D01*
X-392470Y403566D01*
X-392550Y403523D01*
X-392634Y403487D01*
X-392666Y403461D01*
X-392687Y403450D01*
X-392709Y403427D01*
X-392765Y403382D01*
X-424210Y371937D01*
X-424263Y371863D01*
X-424323Y371794D01*
X-424335Y371764D01*
X-424354Y371738D01*
X-424381Y371651D01*
X-424415Y371566D01*
X-424419Y371525D01*
X-424426Y371503D01*
X-424425Y371470D01*
X-424433Y371399D01*
X-424433Y365201D01*
X-424419Y365111D01*
X-424411Y365020D01*
X-424399Y364990D01*
X-424394Y364958D01*
X-424351Y364878D01*
X-424315Y364794D01*
X-424289Y364762D01*
X-424278Y364741D01*
X-424255Y364719D01*
X-424210Y364663D01*
X-416305Y356758D01*
X-416305Y338139D01*
X-416291Y338049D01*
X-416283Y337958D01*
X-416271Y337928D01*
X-416266Y337896D01*
X-416223Y337815D01*
X-416187Y337731D01*
X-416161Y337699D01*
X-416150Y337679D01*
X-416127Y337656D01*
X-416082Y337600D01*
X-411733Y333251D01*
X-411733Y327149D01*
X-416049Y322833D01*
X-422151Y322833D01*
G37*
%LPD*%
%LPC*%
G36*
X-355601Y444499D02*
X-355601Y444499D01*
X-355601Y445262D01*
X-355604Y445282D01*
X-355602Y445301D01*
X-355624Y445403D01*
X-355641Y445505D01*
X-355650Y445522D01*
X-355654Y445542D01*
X-355707Y445631D01*
X-355756Y445722D01*
X-355770Y445736D01*
X-355780Y445753D01*
X-355859Y445820D01*
X-355934Y445891D01*
X-355952Y445900D01*
X-355967Y445913D01*
X-356063Y445952D01*
X-356157Y445995D01*
X-356177Y445997D01*
X-356195Y446005D01*
X-356362Y446023D01*
X-367793Y446023D01*
X-367793Y449550D01*
X-360592Y456752D01*
X-360580Y456768D01*
X-360564Y456780D01*
X-360508Y456867D01*
X-360448Y456951D01*
X-360442Y456970D01*
X-360431Y456987D01*
X-360406Y457088D01*
X-360376Y457186D01*
X-360376Y457206D01*
X-360371Y457226D01*
X-360379Y457329D01*
X-360382Y457432D01*
X-360389Y457451D01*
X-360390Y457471D01*
X-360431Y457566D01*
X-360466Y457663D01*
X-360479Y457679D01*
X-360487Y457697D01*
X-360592Y457828D01*
X-367666Y464902D01*
X-367666Y474898D01*
X-360598Y481966D01*
X-359156Y481966D01*
X-359136Y481969D01*
X-359117Y481967D01*
X-359015Y481989D01*
X-358913Y482005D01*
X-358896Y482015D01*
X-358876Y482019D01*
X-358787Y482072D01*
X-358696Y482121D01*
X-358682Y482135D01*
X-358665Y482145D01*
X-358598Y482224D01*
X-358526Y482299D01*
X-358518Y482317D01*
X-358505Y482332D01*
X-358466Y482428D01*
X-358423Y482522D01*
X-358421Y482542D01*
X-358413Y482560D01*
X-358395Y482727D01*
X-358395Y510286D01*
X-358398Y510306D01*
X-358396Y510325D01*
X-358418Y510427D01*
X-358434Y510529D01*
X-358444Y510546D01*
X-358448Y510566D01*
X-358501Y510655D01*
X-358550Y510746D01*
X-358564Y510760D01*
X-358574Y510777D01*
X-358653Y510844D01*
X-358728Y510916D01*
X-358746Y510924D01*
X-358761Y510937D01*
X-358857Y510976D01*
X-358951Y511019D01*
X-358971Y511021D01*
X-358989Y511029D01*
X-359156Y511047D01*
X-359598Y511047D01*
X-365253Y516702D01*
X-365253Y524698D01*
X-359598Y530353D01*
X-351602Y530353D01*
X-345947Y524698D01*
X-345947Y516702D01*
X-351602Y511047D01*
X-352044Y511047D01*
X-352064Y511044D01*
X-352083Y511046D01*
X-352185Y511024D01*
X-352287Y511008D01*
X-352304Y510998D01*
X-352324Y510994D01*
X-352413Y510941D01*
X-352504Y510892D01*
X-352518Y510878D01*
X-352535Y510868D01*
X-352602Y510789D01*
X-352674Y510714D01*
X-352682Y510696D01*
X-352695Y510681D01*
X-352734Y510585D01*
X-352777Y510491D01*
X-352779Y510471D01*
X-352787Y510453D01*
X-352805Y510286D01*
X-352805Y482727D01*
X-352802Y482707D01*
X-352804Y482688D01*
X-352782Y482586D01*
X-352766Y482484D01*
X-352756Y482467D01*
X-352752Y482447D01*
X-352699Y482358D01*
X-352650Y482267D01*
X-352636Y482253D01*
X-352626Y482236D01*
X-352547Y482169D01*
X-352472Y482097D01*
X-352454Y482089D01*
X-352439Y482076D01*
X-352343Y482037D01*
X-352249Y481994D01*
X-352229Y481992D01*
X-352211Y481984D01*
X-352044Y481966D01*
X-350602Y481966D01*
X-343438Y474802D01*
X-343422Y474790D01*
X-343410Y474775D01*
X-343322Y474719D01*
X-343239Y474658D01*
X-343220Y474652D01*
X-343203Y474642D01*
X-343102Y474616D01*
X-343003Y474586D01*
X-342984Y474586D01*
X-342964Y474582D01*
X-342861Y474590D01*
X-342758Y474592D01*
X-342739Y474599D01*
X-342719Y474601D01*
X-342624Y474641D01*
X-342527Y474677D01*
X-342511Y474689D01*
X-342493Y474697D01*
X-342362Y474802D01*
X-335198Y481966D01*
X-333756Y481966D01*
X-333736Y481969D01*
X-333717Y481967D01*
X-333615Y481989D01*
X-333513Y482005D01*
X-333496Y482015D01*
X-333476Y482019D01*
X-333387Y482072D01*
X-333296Y482121D01*
X-333282Y482135D01*
X-333265Y482145D01*
X-333198Y482224D01*
X-333126Y482299D01*
X-333118Y482317D01*
X-333105Y482332D01*
X-333066Y482428D01*
X-333023Y482522D01*
X-333021Y482542D01*
X-333013Y482560D01*
X-332995Y482727D01*
X-332995Y510286D01*
X-332998Y510306D01*
X-332996Y510325D01*
X-333018Y510427D01*
X-333034Y510529D01*
X-333044Y510546D01*
X-333048Y510566D01*
X-333101Y510655D01*
X-333150Y510746D01*
X-333164Y510760D01*
X-333174Y510777D01*
X-333253Y510844D01*
X-333328Y510916D01*
X-333346Y510924D01*
X-333361Y510937D01*
X-333457Y510976D01*
X-333551Y511019D01*
X-333571Y511021D01*
X-333589Y511029D01*
X-333756Y511047D01*
X-334198Y511047D01*
X-339853Y516702D01*
X-339853Y524698D01*
X-334198Y530353D01*
X-326202Y530353D01*
X-320547Y524698D01*
X-320547Y516702D01*
X-326202Y511047D01*
X-326644Y511047D01*
X-326664Y511044D01*
X-326683Y511046D01*
X-326785Y511024D01*
X-326887Y511008D01*
X-326904Y510998D01*
X-326924Y510994D01*
X-327013Y510941D01*
X-327104Y510892D01*
X-327118Y510878D01*
X-327135Y510868D01*
X-327202Y510789D01*
X-327274Y510714D01*
X-327282Y510696D01*
X-327295Y510681D01*
X-327334Y510585D01*
X-327377Y510491D01*
X-327379Y510471D01*
X-327387Y510453D01*
X-327405Y510286D01*
X-327405Y482727D01*
X-327402Y482707D01*
X-327404Y482688D01*
X-327382Y482586D01*
X-327366Y482484D01*
X-327356Y482467D01*
X-327352Y482447D01*
X-327299Y482358D01*
X-327250Y482267D01*
X-327236Y482253D01*
X-327226Y482236D01*
X-327147Y482169D01*
X-327072Y482097D01*
X-327054Y482089D01*
X-327039Y482076D01*
X-326943Y482037D01*
X-326849Y481994D01*
X-326829Y481992D01*
X-326811Y481984D01*
X-326644Y481966D01*
X-325202Y481966D01*
X-318134Y474898D01*
X-318134Y464902D01*
X-325208Y457828D01*
X-325220Y457812D01*
X-325236Y457799D01*
X-325292Y457712D01*
X-325352Y457628D01*
X-325358Y457609D01*
X-325369Y457593D01*
X-325394Y457492D01*
X-325424Y457393D01*
X-325424Y457373D01*
X-325429Y457354D01*
X-325421Y457251D01*
X-325418Y457147D01*
X-325411Y457129D01*
X-325410Y457109D01*
X-325369Y457014D01*
X-325334Y456916D01*
X-325321Y456901D01*
X-325313Y456882D01*
X-325208Y456752D01*
X-318007Y449550D01*
X-318007Y446023D01*
X-329438Y446023D01*
X-329458Y446020D01*
X-329477Y446022D01*
X-329579Y446000D01*
X-329681Y445983D01*
X-329698Y445974D01*
X-329718Y445970D01*
X-329807Y445917D01*
X-329898Y445868D01*
X-329912Y445854D01*
X-329929Y445844D01*
X-329996Y445765D01*
X-330067Y445690D01*
X-330076Y445672D01*
X-330089Y445657D01*
X-330127Y445561D01*
X-330171Y445467D01*
X-330173Y445447D01*
X-330181Y445429D01*
X-330199Y445262D01*
X-330199Y444499D01*
X-330201Y444499D01*
X-330201Y445262D01*
X-330204Y445282D01*
X-330202Y445301D01*
X-330224Y445403D01*
X-330241Y445505D01*
X-330250Y445522D01*
X-330254Y445542D01*
X-330307Y445631D01*
X-330356Y445722D01*
X-330370Y445736D01*
X-330380Y445753D01*
X-330459Y445820D01*
X-330534Y445891D01*
X-330552Y445900D01*
X-330567Y445913D01*
X-330663Y445952D01*
X-330757Y445995D01*
X-330777Y445997D01*
X-330795Y446005D01*
X-330962Y446023D01*
X-354838Y446023D01*
X-354858Y446020D01*
X-354877Y446022D01*
X-354979Y446000D01*
X-355081Y445983D01*
X-355098Y445974D01*
X-355118Y445970D01*
X-355207Y445917D01*
X-355298Y445868D01*
X-355312Y445854D01*
X-355329Y445844D01*
X-355396Y445765D01*
X-355467Y445690D01*
X-355476Y445672D01*
X-355489Y445657D01*
X-355527Y445561D01*
X-355571Y445467D01*
X-355573Y445447D01*
X-355581Y445429D01*
X-355599Y445262D01*
X-355599Y444499D01*
X-355601Y444499D01*
G37*
%LPD*%
%LPC*%
G36*
X-663451Y81533D02*
X-663451Y81533D01*
X-667767Y85849D01*
X-667767Y91951D01*
X-663451Y96267D01*
X-657349Y96267D01*
X-653000Y91918D01*
X-652926Y91865D01*
X-652856Y91805D01*
X-652826Y91793D01*
X-652800Y91774D01*
X-652713Y91747D01*
X-652628Y91713D01*
X-652587Y91709D01*
X-652565Y91702D01*
X-652533Y91703D01*
X-652461Y91695D01*
X-630239Y91695D01*
X-630149Y91709D01*
X-630058Y91717D01*
X-630028Y91729D01*
X-629996Y91734D01*
X-629915Y91777D01*
X-629831Y91813D01*
X-629799Y91839D01*
X-629779Y91850D01*
X-629756Y91873D01*
X-629700Y91918D01*
X-625351Y96267D01*
X-619249Y96267D01*
X-614900Y91918D01*
X-614826Y91865D01*
X-614756Y91805D01*
X-614726Y91793D01*
X-614700Y91774D01*
X-614613Y91747D01*
X-614528Y91713D01*
X-614487Y91709D01*
X-614465Y91702D01*
X-614433Y91703D01*
X-614361Y91695D01*
X-534873Y91695D01*
X-534783Y91709D01*
X-534692Y91717D01*
X-534662Y91729D01*
X-534630Y91734D01*
X-534550Y91777D01*
X-534466Y91813D01*
X-534434Y91839D01*
X-534413Y91850D01*
X-534391Y91873D01*
X-534335Y91918D01*
X-496458Y129795D01*
X-371330Y129795D01*
X-371240Y129809D01*
X-371149Y129817D01*
X-371119Y129829D01*
X-371087Y129834D01*
X-371007Y129877D01*
X-370923Y129913D01*
X-370890Y129939D01*
X-370870Y129950D01*
X-370848Y129973D01*
X-370792Y130018D01*
X-369914Y130896D01*
X-366686Y130896D01*
X-364404Y128614D01*
X-364404Y125386D01*
X-366686Y123104D01*
X-369914Y123104D01*
X-370792Y123982D01*
X-370866Y124035D01*
X-370935Y124095D01*
X-370965Y124107D01*
X-370991Y124126D01*
X-371078Y124153D01*
X-371163Y124187D01*
X-371204Y124191D01*
X-371226Y124198D01*
X-371259Y124197D01*
X-371330Y124205D01*
X-493827Y124205D01*
X-493917Y124191D01*
X-494008Y124183D01*
X-494038Y124171D01*
X-494070Y124166D01*
X-494150Y124123D01*
X-494234Y124087D01*
X-494266Y124061D01*
X-494287Y124050D01*
X-494309Y124027D01*
X-494365Y123982D01*
X-532242Y86105D01*
X-614361Y86105D01*
X-614451Y86091D01*
X-614542Y86083D01*
X-614572Y86071D01*
X-614604Y86066D01*
X-614685Y86023D01*
X-614769Y85987D01*
X-614801Y85961D01*
X-614821Y85950D01*
X-614844Y85927D01*
X-614900Y85882D01*
X-619249Y81533D01*
X-625351Y81533D01*
X-629700Y85882D01*
X-629774Y85935D01*
X-629844Y85995D01*
X-629874Y86007D01*
X-629900Y86026D01*
X-629987Y86053D01*
X-630072Y86087D01*
X-630113Y86091D01*
X-630135Y86098D01*
X-630167Y86097D01*
X-630239Y86105D01*
X-652461Y86105D01*
X-652551Y86091D01*
X-652642Y86083D01*
X-652672Y86071D01*
X-652704Y86066D01*
X-652785Y86023D01*
X-652869Y85987D01*
X-652901Y85961D01*
X-652921Y85950D01*
X-652944Y85927D01*
X-653000Y85882D01*
X-657349Y81533D01*
X-663451Y81533D01*
G37*
%LPD*%
%LPC*%
G36*
X-472951Y322833D02*
X-472951Y322833D01*
X-477306Y327188D01*
X-477306Y327192D01*
X-477349Y327272D01*
X-477385Y327356D01*
X-477411Y327388D01*
X-477422Y327409D01*
X-477445Y327431D01*
X-477490Y327487D01*
X-479268Y329265D01*
X-491663Y341660D01*
X-491737Y341713D01*
X-491806Y341773D01*
X-491836Y341785D01*
X-491862Y341804D01*
X-491949Y341831D01*
X-492034Y341865D01*
X-492075Y341869D01*
X-492097Y341876D01*
X-492130Y341875D01*
X-492201Y341883D01*
X-498351Y341883D01*
X-502667Y346199D01*
X-502667Y352044D01*
X-502670Y352064D01*
X-502668Y352083D01*
X-502690Y352185D01*
X-502706Y352287D01*
X-502716Y352304D01*
X-502720Y352324D01*
X-502773Y352413D01*
X-502822Y352504D01*
X-502836Y352518D01*
X-502846Y352535D01*
X-502925Y352602D01*
X-503000Y352674D01*
X-503018Y352682D01*
X-503033Y352695D01*
X-503129Y352734D01*
X-503223Y352777D01*
X-503243Y352779D01*
X-503261Y352787D01*
X-503428Y352805D01*
X-620827Y352805D01*
X-620917Y352791D01*
X-621008Y352783D01*
X-621038Y352771D01*
X-621070Y352766D01*
X-621150Y352723D01*
X-621234Y352687D01*
X-621266Y352661D01*
X-621287Y352650D01*
X-621309Y352627D01*
X-621365Y352582D01*
X-633842Y340105D01*
X-665161Y340105D01*
X-665251Y340091D01*
X-665342Y340083D01*
X-665372Y340071D01*
X-665404Y340066D01*
X-665485Y340023D01*
X-665569Y339987D01*
X-665601Y339961D01*
X-665621Y339950D01*
X-665644Y339927D01*
X-665700Y339882D01*
X-670049Y335533D01*
X-676151Y335533D01*
X-680467Y339849D01*
X-680467Y345951D01*
X-676151Y350267D01*
X-670049Y350267D01*
X-665700Y345918D01*
X-665626Y345865D01*
X-665556Y345805D01*
X-665526Y345793D01*
X-665500Y345774D01*
X-665413Y345747D01*
X-665328Y345713D01*
X-665287Y345709D01*
X-665265Y345702D01*
X-665233Y345703D01*
X-665161Y345695D01*
X-636473Y345695D01*
X-636383Y345709D01*
X-636292Y345717D01*
X-636262Y345729D01*
X-636230Y345734D01*
X-636150Y345777D01*
X-636066Y345813D01*
X-636034Y345839D01*
X-636013Y345850D01*
X-635991Y345873D01*
X-635935Y345918D01*
X-623458Y358395D01*
X-500492Y358395D01*
X-498937Y356840D01*
X-498863Y356787D01*
X-498794Y356727D01*
X-498764Y356715D01*
X-498738Y356696D01*
X-498651Y356669D01*
X-498566Y356635D01*
X-498525Y356631D01*
X-498503Y356624D01*
X-498470Y356625D01*
X-498399Y356617D01*
X-492249Y356617D01*
X-487933Y352301D01*
X-487933Y346151D01*
X-487919Y346061D01*
X-487911Y345970D01*
X-487899Y345940D01*
X-487894Y345908D01*
X-487851Y345827D01*
X-487815Y345744D01*
X-487789Y345711D01*
X-487778Y345691D01*
X-487755Y345669D01*
X-487710Y345613D01*
X-476846Y334749D01*
X-476830Y334737D01*
X-476818Y334721D01*
X-476730Y334665D01*
X-476646Y334605D01*
X-476627Y334599D01*
X-476611Y334588D01*
X-476510Y334563D01*
X-476411Y334533D01*
X-476391Y334533D01*
X-476372Y334528D01*
X-476269Y334536D01*
X-476165Y334539D01*
X-476147Y334546D01*
X-476127Y334547D01*
X-476032Y334588D01*
X-475934Y334623D01*
X-475919Y334636D01*
X-475901Y334644D01*
X-475770Y334749D01*
X-472951Y337567D01*
X-466849Y337567D01*
X-462533Y333251D01*
X-462533Y327149D01*
X-466849Y322833D01*
X-472951Y322833D01*
G37*
%LPD*%
%LPC*%
G36*
X-664594Y499617D02*
X-664594Y499617D01*
X-672342Y502827D01*
X-678273Y508758D01*
X-681483Y516506D01*
X-681483Y524894D01*
X-678273Y532642D01*
X-672342Y538573D01*
X-664594Y541783D01*
X-656206Y541783D01*
X-648458Y538573D01*
X-642527Y532642D01*
X-639317Y524894D01*
X-639317Y516506D01*
X-642527Y508758D01*
X-648458Y502827D01*
X-656206Y499617D01*
X-664594Y499617D01*
G37*
%LPD*%
%LPC*%
G36*
X-156594Y347217D02*
X-156594Y347217D01*
X-164342Y350427D01*
X-170273Y356358D01*
X-173483Y364106D01*
X-173483Y372494D01*
X-170273Y380242D01*
X-164342Y386173D01*
X-156594Y389383D01*
X-148206Y389383D01*
X-140458Y386173D01*
X-134527Y380242D01*
X-131317Y372494D01*
X-131317Y364106D01*
X-134527Y356358D01*
X-140458Y350427D01*
X-148206Y347217D01*
X-156594Y347217D01*
G37*
%LPD*%
%LPC*%
G36*
X-677294Y17017D02*
X-677294Y17017D01*
X-685042Y20227D01*
X-690973Y26158D01*
X-694183Y33906D01*
X-694183Y42294D01*
X-690973Y50042D01*
X-685042Y55973D01*
X-677294Y59183D01*
X-668906Y59183D01*
X-661158Y55973D01*
X-655227Y50042D01*
X-652017Y42294D01*
X-652017Y33906D01*
X-655227Y26158D01*
X-661158Y20227D01*
X-668906Y17017D01*
X-677294Y17017D01*
G37*
%LPD*%
%LPC*%
G36*
X-156594Y67817D02*
X-156594Y67817D01*
X-164342Y71027D01*
X-170273Y76958D01*
X-173483Y84706D01*
X-173483Y93094D01*
X-170273Y100842D01*
X-164342Y106773D01*
X-156594Y109983D01*
X-148206Y109983D01*
X-140458Y106773D01*
X-134527Y100842D01*
X-131317Y93094D01*
X-131317Y84706D01*
X-134527Y76958D01*
X-140458Y71027D01*
X-148206Y67817D01*
X-156594Y67817D01*
G37*
%LPD*%
%LPC*%
G36*
X-408320Y155447D02*
X-408320Y155447D01*
X-411868Y156917D01*
X-414583Y159632D01*
X-416053Y163180D01*
X-416053Y167020D01*
X-414583Y170568D01*
X-411868Y173283D01*
X-410173Y173985D01*
X-410073Y174047D01*
X-409973Y174107D01*
X-409969Y174112D01*
X-409964Y174115D01*
X-409889Y174205D01*
X-409813Y174294D01*
X-409811Y174300D01*
X-409807Y174304D01*
X-409765Y174413D01*
X-409721Y174522D01*
X-409720Y174529D01*
X-409719Y174534D01*
X-409718Y174552D01*
X-409703Y174689D01*
X-409703Y206311D01*
X-409722Y206426D01*
X-409739Y206542D01*
X-409741Y206548D01*
X-409742Y206554D01*
X-409797Y206657D01*
X-409850Y206762D01*
X-409855Y206766D01*
X-409858Y206771D01*
X-409942Y206851D01*
X-410026Y206934D01*
X-410032Y206937D01*
X-410036Y206941D01*
X-410053Y206949D01*
X-410173Y207015D01*
X-411868Y207717D01*
X-414583Y210432D01*
X-416053Y213980D01*
X-416053Y217820D01*
X-414583Y221368D01*
X-411868Y224083D01*
X-408320Y225553D01*
X-404480Y225553D01*
X-400932Y224083D01*
X-398217Y221368D01*
X-397515Y219673D01*
X-397453Y219573D01*
X-397393Y219473D01*
X-397388Y219469D01*
X-397385Y219464D01*
X-397295Y219389D01*
X-397206Y219313D01*
X-397200Y219311D01*
X-397196Y219307D01*
X-397087Y219265D01*
X-396978Y219221D01*
X-396971Y219220D01*
X-396966Y219219D01*
X-396948Y219218D01*
X-396811Y219203D01*
X-365633Y219203D01*
X-365613Y219206D01*
X-365594Y219204D01*
X-365492Y219226D01*
X-365390Y219242D01*
X-365373Y219252D01*
X-365353Y219256D01*
X-365264Y219309D01*
X-365173Y219358D01*
X-365159Y219372D01*
X-365142Y219382D01*
X-365075Y219461D01*
X-365003Y219536D01*
X-364995Y219554D01*
X-364982Y219569D01*
X-364943Y219665D01*
X-364940Y219672D01*
X-359440Y225172D01*
X-351760Y225172D01*
X-346328Y219740D01*
X-346328Y212060D01*
X-351760Y206628D01*
X-359440Y206628D01*
X-364924Y212112D01*
X-364925Y212116D01*
X-364978Y212205D01*
X-365027Y212296D01*
X-365041Y212310D01*
X-365051Y212327D01*
X-365130Y212394D01*
X-365205Y212466D01*
X-365223Y212474D01*
X-365238Y212487D01*
X-365334Y212526D01*
X-365428Y212569D01*
X-365448Y212571D01*
X-365466Y212579D01*
X-365633Y212597D01*
X-396811Y212597D01*
X-396926Y212578D01*
X-397042Y212561D01*
X-397048Y212559D01*
X-397054Y212558D01*
X-397157Y212503D01*
X-397262Y212450D01*
X-397266Y212445D01*
X-397271Y212442D01*
X-397351Y212358D01*
X-397434Y212274D01*
X-397437Y212268D01*
X-397441Y212264D01*
X-397449Y212247D01*
X-397515Y212127D01*
X-398217Y210432D01*
X-400932Y207717D01*
X-402627Y207015D01*
X-402727Y206953D01*
X-402827Y206893D01*
X-402831Y206888D01*
X-402836Y206885D01*
X-402911Y206795D01*
X-402987Y206706D01*
X-402989Y206700D01*
X-402993Y206696D01*
X-403035Y206587D01*
X-403079Y206478D01*
X-403080Y206471D01*
X-403081Y206466D01*
X-403082Y206448D01*
X-403097Y206311D01*
X-403097Y174689D01*
X-403078Y174574D01*
X-403061Y174458D01*
X-403059Y174452D01*
X-403058Y174446D01*
X-403003Y174343D01*
X-402950Y174238D01*
X-402945Y174234D01*
X-402942Y174229D01*
X-402858Y174149D01*
X-402774Y174066D01*
X-402768Y174063D01*
X-402764Y174059D01*
X-402747Y174051D01*
X-402627Y173985D01*
X-400932Y173283D01*
X-398217Y170568D01*
X-396747Y167020D01*
X-396747Y163180D01*
X-398217Y159632D01*
X-400932Y156917D01*
X-404480Y155447D01*
X-408320Y155447D01*
G37*
%LPD*%
%LPC*%
G36*
X-509920Y206247D02*
X-509920Y206247D01*
X-513468Y207717D01*
X-516183Y210432D01*
X-517653Y213980D01*
X-517653Y217820D01*
X-516740Y220023D01*
X-516732Y220058D01*
X-516729Y220065D01*
X-516727Y220078D01*
X-516714Y220137D01*
X-516685Y220250D01*
X-516685Y220257D01*
X-516684Y220263D01*
X-516695Y220379D01*
X-516704Y220496D01*
X-516706Y220501D01*
X-516707Y220508D01*
X-516755Y220615D01*
X-516800Y220722D01*
X-516805Y220728D01*
X-516807Y220732D01*
X-516820Y220746D01*
X-516905Y220853D01*
X-559735Y263682D01*
X-559809Y263735D01*
X-559878Y263795D01*
X-559908Y263807D01*
X-559934Y263826D01*
X-560021Y263853D01*
X-560106Y263887D01*
X-560147Y263891D01*
X-560169Y263898D01*
X-560202Y263897D01*
X-560273Y263905D01*
X-560383Y263905D01*
X-560497Y263886D01*
X-560614Y263869D01*
X-560619Y263867D01*
X-560625Y263866D01*
X-560728Y263811D01*
X-560833Y263758D01*
X-560837Y263753D01*
X-560843Y263750D01*
X-560923Y263666D01*
X-561005Y263582D01*
X-561009Y263576D01*
X-561012Y263572D01*
X-561020Y263555D01*
X-561086Y263435D01*
X-562284Y260542D01*
X-565342Y257484D01*
X-569338Y255829D01*
X-573662Y255829D01*
X-577658Y257484D01*
X-580716Y260542D01*
X-582371Y264538D01*
X-582371Y268862D01*
X-580716Y272858D01*
X-577658Y275916D01*
X-573662Y277571D01*
X-569338Y277571D01*
X-565342Y275916D01*
X-562284Y272858D01*
X-561086Y269965D01*
X-561024Y269865D01*
X-560964Y269765D01*
X-560960Y269761D01*
X-560956Y269756D01*
X-560867Y269681D01*
X-560777Y269605D01*
X-560772Y269603D01*
X-560767Y269599D01*
X-560659Y269557D01*
X-560549Y269513D01*
X-560542Y269512D01*
X-560537Y269511D01*
X-560519Y269510D01*
X-560383Y269495D01*
X-557642Y269495D01*
X-512953Y224805D01*
X-512859Y224738D01*
X-512764Y224667D01*
X-512758Y224665D01*
X-512753Y224662D01*
X-512642Y224628D01*
X-512530Y224591D01*
X-512524Y224591D01*
X-512518Y224589D01*
X-512401Y224592D01*
X-512284Y224593D01*
X-512277Y224596D01*
X-512272Y224596D01*
X-512255Y224602D01*
X-512123Y224640D01*
X-509920Y225553D01*
X-506080Y225553D01*
X-502532Y224083D01*
X-499817Y221368D01*
X-498347Y217820D01*
X-498347Y213980D01*
X-499817Y210432D01*
X-502532Y207717D01*
X-506080Y206247D01*
X-509920Y206247D01*
G37*
%LPD*%
%LPC*%
G36*
X-398698Y457834D02*
X-398698Y457834D01*
X-405766Y464902D01*
X-405766Y474898D01*
X-398698Y481966D01*
X-397256Y481966D01*
X-397236Y481969D01*
X-397217Y481967D01*
X-397115Y481989D01*
X-397013Y482005D01*
X-396996Y482015D01*
X-396976Y482019D01*
X-396887Y482072D01*
X-396796Y482121D01*
X-396782Y482135D01*
X-396765Y482145D01*
X-396698Y482224D01*
X-396626Y482299D01*
X-396618Y482317D01*
X-396605Y482332D01*
X-396566Y482428D01*
X-396523Y482522D01*
X-396521Y482542D01*
X-396513Y482560D01*
X-396495Y482727D01*
X-396495Y510286D01*
X-396498Y510306D01*
X-396496Y510325D01*
X-396518Y510427D01*
X-396534Y510529D01*
X-396544Y510546D01*
X-396548Y510566D01*
X-396601Y510655D01*
X-396650Y510746D01*
X-396664Y510760D01*
X-396674Y510777D01*
X-396753Y510844D01*
X-396828Y510916D01*
X-396846Y510924D01*
X-396861Y510937D01*
X-396957Y510976D01*
X-397051Y511019D01*
X-397071Y511021D01*
X-397089Y511029D01*
X-397256Y511047D01*
X-400238Y511047D01*
X-405893Y516702D01*
X-405893Y524698D01*
X-400238Y530353D01*
X-392242Y530353D01*
X-386587Y524698D01*
X-386587Y516702D01*
X-390682Y512607D01*
X-390735Y512533D01*
X-390795Y512463D01*
X-390807Y512433D01*
X-390826Y512407D01*
X-390853Y512320D01*
X-390887Y512235D01*
X-390891Y512194D01*
X-390898Y512172D01*
X-390897Y512140D01*
X-390905Y512068D01*
X-390905Y482727D01*
X-390902Y482707D01*
X-390904Y482688D01*
X-390882Y482586D01*
X-390866Y482484D01*
X-390856Y482467D01*
X-390852Y482447D01*
X-390799Y482358D01*
X-390750Y482267D01*
X-390736Y482253D01*
X-390726Y482236D01*
X-390647Y482169D01*
X-390572Y482097D01*
X-390554Y482089D01*
X-390539Y482076D01*
X-390443Y482037D01*
X-390349Y481994D01*
X-390329Y481992D01*
X-390311Y481984D01*
X-390144Y481966D01*
X-388702Y481966D01*
X-381634Y474898D01*
X-381634Y464902D01*
X-388702Y457834D01*
X-398698Y457834D01*
G37*
%LPD*%
%LPC*%
G36*
X-268620Y320547D02*
X-268620Y320547D01*
X-272168Y322017D01*
X-274883Y324732D01*
X-276353Y328280D01*
X-276353Y332120D01*
X-275651Y333815D01*
X-275624Y333929D01*
X-275595Y334042D01*
X-275596Y334049D01*
X-275594Y334055D01*
X-275605Y334171D01*
X-275614Y334288D01*
X-275617Y334293D01*
X-275617Y334300D01*
X-275665Y334407D01*
X-275711Y334514D01*
X-275715Y334520D01*
X-275717Y334524D01*
X-275730Y334538D01*
X-275816Y334645D01*
X-293245Y352074D01*
X-293319Y352127D01*
X-293388Y352187D01*
X-293419Y352199D01*
X-293445Y352218D01*
X-293532Y352245D01*
X-293617Y352279D01*
X-293658Y352283D01*
X-293680Y352290D01*
X-293712Y352289D01*
X-293783Y352297D01*
X-335786Y352297D01*
X-335900Y352279D01*
X-336017Y352261D01*
X-336022Y352259D01*
X-336028Y352258D01*
X-336131Y352203D01*
X-336236Y352150D01*
X-336240Y352145D01*
X-336246Y352142D01*
X-336326Y352058D01*
X-336408Y351974D01*
X-336412Y351968D01*
X-336415Y351964D01*
X-336423Y351947D01*
X-336489Y351827D01*
X-336655Y351427D01*
X-338727Y349355D01*
X-341435Y348233D01*
X-344365Y348233D01*
X-347073Y349355D01*
X-349145Y351427D01*
X-350267Y354135D01*
X-350267Y357065D01*
X-349145Y359773D01*
X-347073Y361845D01*
X-344365Y362967D01*
X-341435Y362967D01*
X-338727Y361845D01*
X-336655Y359773D01*
X-336489Y359373D01*
X-336428Y359274D01*
X-336367Y359173D01*
X-336363Y359169D01*
X-336359Y359164D01*
X-336270Y359090D01*
X-336181Y359013D01*
X-336175Y359011D01*
X-336170Y359007D01*
X-336062Y358965D01*
X-335952Y358921D01*
X-335945Y358920D01*
X-335940Y358919D01*
X-335922Y358918D01*
X-335786Y358903D01*
X-290732Y358903D01*
X-271145Y339316D01*
X-271050Y339248D01*
X-270956Y339178D01*
X-270950Y339176D01*
X-270945Y339172D01*
X-270834Y339138D01*
X-270722Y339101D01*
X-270716Y339102D01*
X-270710Y339100D01*
X-270593Y339103D01*
X-270476Y339104D01*
X-270469Y339106D01*
X-270464Y339106D01*
X-270447Y339112D01*
X-270315Y339151D01*
X-268620Y339853D01*
X-264780Y339853D01*
X-261232Y338383D01*
X-258517Y335668D01*
X-257047Y332120D01*
X-257047Y328280D01*
X-258517Y324732D01*
X-261232Y322017D01*
X-264780Y320547D01*
X-268620Y320547D01*
G37*
%LPD*%
%LPC*%
G36*
X-525224Y458977D02*
X-525224Y458977D01*
X-531623Y465376D01*
X-531623Y474424D01*
X-525224Y480823D01*
X-524256Y480823D01*
X-524236Y480826D01*
X-524217Y480824D01*
X-524115Y480846D01*
X-524013Y480862D01*
X-523996Y480872D01*
X-523976Y480876D01*
X-523887Y480929D01*
X-523796Y480978D01*
X-523782Y480992D01*
X-523765Y481002D01*
X-523698Y481081D01*
X-523626Y481156D01*
X-523618Y481174D01*
X-523605Y481189D01*
X-523566Y481285D01*
X-523523Y481379D01*
X-523521Y481399D01*
X-523513Y481417D01*
X-523495Y481584D01*
X-523495Y510286D01*
X-523498Y510306D01*
X-523496Y510325D01*
X-523518Y510427D01*
X-523534Y510529D01*
X-523544Y510546D01*
X-523548Y510566D01*
X-523601Y510655D01*
X-523650Y510746D01*
X-523664Y510760D01*
X-523674Y510777D01*
X-523753Y510844D01*
X-523828Y510916D01*
X-523846Y510924D01*
X-523861Y510937D01*
X-523957Y510976D01*
X-524051Y511019D01*
X-524071Y511021D01*
X-524089Y511029D01*
X-524256Y511047D01*
X-527238Y511047D01*
X-532893Y516702D01*
X-532893Y524698D01*
X-527238Y530353D01*
X-519242Y530353D01*
X-513587Y524698D01*
X-513587Y516702D01*
X-517682Y512607D01*
X-517735Y512533D01*
X-517795Y512463D01*
X-517807Y512433D01*
X-517826Y512407D01*
X-517853Y512320D01*
X-517887Y512235D01*
X-517891Y512194D01*
X-517898Y512172D01*
X-517897Y512140D01*
X-517905Y512068D01*
X-517905Y481584D01*
X-517902Y481564D01*
X-517904Y481545D01*
X-517882Y481443D01*
X-517866Y481341D01*
X-517856Y481324D01*
X-517852Y481304D01*
X-517799Y481215D01*
X-517750Y481124D01*
X-517736Y481110D01*
X-517726Y481093D01*
X-517647Y481026D01*
X-517572Y480954D01*
X-517554Y480946D01*
X-517539Y480933D01*
X-517443Y480894D01*
X-517349Y480851D01*
X-517329Y480849D01*
X-517311Y480841D01*
X-517144Y480823D01*
X-516176Y480823D01*
X-509777Y474424D01*
X-509777Y465376D01*
X-516176Y458977D01*
X-525224Y458977D01*
G37*
%LPD*%
%LPC*%
G36*
X-258524Y458977D02*
X-258524Y458977D01*
X-264923Y465376D01*
X-264923Y474424D01*
X-258524Y480823D01*
X-257556Y480823D01*
X-257536Y480826D01*
X-257517Y480824D01*
X-257415Y480846D01*
X-257313Y480862D01*
X-257296Y480872D01*
X-257276Y480876D01*
X-257187Y480929D01*
X-257096Y480978D01*
X-257082Y480992D01*
X-257065Y481002D01*
X-256998Y481081D01*
X-256926Y481156D01*
X-256918Y481174D01*
X-256905Y481189D01*
X-256866Y481285D01*
X-256823Y481379D01*
X-256821Y481399D01*
X-256813Y481417D01*
X-256795Y481584D01*
X-256795Y510286D01*
X-256798Y510306D01*
X-256796Y510325D01*
X-256818Y510427D01*
X-256834Y510529D01*
X-256844Y510546D01*
X-256848Y510566D01*
X-256901Y510655D01*
X-256950Y510746D01*
X-256964Y510760D01*
X-256974Y510777D01*
X-257053Y510844D01*
X-257128Y510916D01*
X-257146Y510924D01*
X-257161Y510937D01*
X-257257Y510976D01*
X-257351Y511019D01*
X-257371Y511021D01*
X-257389Y511029D01*
X-257556Y511047D01*
X-257998Y511047D01*
X-263653Y516702D01*
X-263653Y524698D01*
X-257998Y530353D01*
X-250002Y530353D01*
X-244347Y524698D01*
X-244347Y516702D01*
X-250002Y511047D01*
X-250444Y511047D01*
X-250464Y511044D01*
X-250483Y511046D01*
X-250585Y511024D01*
X-250687Y511008D01*
X-250704Y510998D01*
X-250724Y510994D01*
X-250813Y510941D01*
X-250904Y510892D01*
X-250918Y510878D01*
X-250935Y510868D01*
X-251002Y510789D01*
X-251074Y510714D01*
X-251082Y510696D01*
X-251095Y510681D01*
X-251134Y510585D01*
X-251177Y510491D01*
X-251179Y510471D01*
X-251187Y510453D01*
X-251205Y510286D01*
X-251205Y481584D01*
X-251202Y481564D01*
X-251204Y481545D01*
X-251182Y481443D01*
X-251166Y481341D01*
X-251156Y481324D01*
X-251152Y481304D01*
X-251099Y481215D01*
X-251050Y481124D01*
X-251036Y481110D01*
X-251026Y481093D01*
X-250947Y481026D01*
X-250872Y480954D01*
X-250854Y480946D01*
X-250839Y480933D01*
X-250743Y480894D01*
X-250649Y480851D01*
X-250629Y480849D01*
X-250611Y480841D01*
X-250444Y480823D01*
X-249476Y480823D01*
X-243077Y474424D01*
X-243077Y465376D01*
X-249476Y458977D01*
X-258524Y458977D01*
G37*
%LPD*%
%LPC*%
G36*
X-308798Y28447D02*
X-308798Y28447D01*
X-314453Y34102D01*
X-314453Y42098D01*
X-308798Y47753D01*
X-308356Y47753D01*
X-308336Y47756D01*
X-308317Y47754D01*
X-308215Y47776D01*
X-308113Y47792D01*
X-308096Y47802D01*
X-308076Y47806D01*
X-307987Y47859D01*
X-307896Y47908D01*
X-307882Y47922D01*
X-307865Y47932D01*
X-307798Y48011D01*
X-307726Y48086D01*
X-307718Y48104D01*
X-307705Y48119D01*
X-307666Y48215D01*
X-307623Y48309D01*
X-307621Y48329D01*
X-307613Y48347D01*
X-307595Y48514D01*
X-307595Y77216D01*
X-307598Y77236D01*
X-307596Y77255D01*
X-307618Y77357D01*
X-307634Y77459D01*
X-307644Y77476D01*
X-307648Y77496D01*
X-307701Y77585D01*
X-307750Y77676D01*
X-307764Y77690D01*
X-307774Y77707D01*
X-307853Y77774D01*
X-307928Y77846D01*
X-307946Y77854D01*
X-307961Y77867D01*
X-308057Y77906D01*
X-308151Y77949D01*
X-308171Y77951D01*
X-308189Y77959D01*
X-308356Y77977D01*
X-309324Y77977D01*
X-315723Y84376D01*
X-315723Y93424D01*
X-309324Y99823D01*
X-300276Y99823D01*
X-293877Y93424D01*
X-293877Y84376D01*
X-300276Y77977D01*
X-301244Y77977D01*
X-301264Y77974D01*
X-301283Y77976D01*
X-301385Y77954D01*
X-301487Y77938D01*
X-301504Y77928D01*
X-301524Y77924D01*
X-301613Y77871D01*
X-301704Y77822D01*
X-301718Y77808D01*
X-301735Y77798D01*
X-301802Y77719D01*
X-301874Y77644D01*
X-301882Y77626D01*
X-301895Y77611D01*
X-301934Y77515D01*
X-301977Y77421D01*
X-301979Y77401D01*
X-301987Y77383D01*
X-302005Y77216D01*
X-302005Y48514D01*
X-302002Y48494D01*
X-302004Y48475D01*
X-301982Y48373D01*
X-301966Y48271D01*
X-301956Y48254D01*
X-301952Y48234D01*
X-301899Y48145D01*
X-301850Y48054D01*
X-301836Y48040D01*
X-301826Y48023D01*
X-301747Y47956D01*
X-301672Y47884D01*
X-301654Y47876D01*
X-301639Y47863D01*
X-301543Y47824D01*
X-301449Y47781D01*
X-301429Y47779D01*
X-301411Y47771D01*
X-301244Y47753D01*
X-300802Y47753D01*
X-295147Y42098D01*
X-295147Y34102D01*
X-300802Y28447D01*
X-308798Y28447D01*
G37*
%LPD*%
%LPC*%
G36*
X-434851Y94233D02*
X-434851Y94233D01*
X-439167Y98549D01*
X-439167Y104651D01*
X-434851Y108967D01*
X-428749Y108967D01*
X-424400Y104618D01*
X-424326Y104565D01*
X-424256Y104505D01*
X-424226Y104493D01*
X-424200Y104474D01*
X-424113Y104447D01*
X-424028Y104413D01*
X-423987Y104409D01*
X-423965Y104402D01*
X-423933Y104403D01*
X-423861Y104395D01*
X-371330Y104395D01*
X-371240Y104409D01*
X-371149Y104417D01*
X-371119Y104429D01*
X-371087Y104434D01*
X-371007Y104477D01*
X-370923Y104513D01*
X-370891Y104539D01*
X-370870Y104550D01*
X-370848Y104573D01*
X-370792Y104618D01*
X-369914Y105496D01*
X-366686Y105496D01*
X-364404Y103214D01*
X-364404Y99986D01*
X-366686Y97704D01*
X-369914Y97704D01*
X-370792Y98582D01*
X-370866Y98635D01*
X-370935Y98695D01*
X-370965Y98707D01*
X-370991Y98726D01*
X-371078Y98753D01*
X-371163Y98787D01*
X-371204Y98791D01*
X-371227Y98798D01*
X-371259Y98797D01*
X-371330Y98805D01*
X-423861Y98805D01*
X-423951Y98791D01*
X-424042Y98783D01*
X-424072Y98771D01*
X-424104Y98766D01*
X-424185Y98723D01*
X-424269Y98687D01*
X-424301Y98661D01*
X-424321Y98650D01*
X-424344Y98627D01*
X-424400Y98582D01*
X-428749Y94233D01*
X-434851Y94233D01*
G37*
%LPD*%
%LPC*%
G36*
X-581626Y154229D02*
X-581626Y154229D01*
X-582371Y154974D01*
X-582371Y175226D01*
X-581626Y175971D01*
X-561374Y175971D01*
X-560629Y175226D01*
X-560629Y154974D01*
X-561374Y154229D01*
X-581626Y154229D01*
G37*
%LPD*%
%LPC*%
G36*
X-725514Y250104D02*
X-725514Y250104D01*
X-727796Y252386D01*
X-727796Y255614D01*
X-726918Y256492D01*
X-726865Y256566D01*
X-726805Y256635D01*
X-726793Y256665D01*
X-726774Y256691D01*
X-726747Y256778D01*
X-726713Y256863D01*
X-726709Y256904D01*
X-726702Y256927D01*
X-726703Y256959D01*
X-726695Y257030D01*
X-726695Y314470D01*
X-726709Y314560D01*
X-726717Y314651D01*
X-726729Y314681D01*
X-726734Y314713D01*
X-726777Y314793D01*
X-726813Y314877D01*
X-726839Y314909D01*
X-726850Y314930D01*
X-726873Y314952D01*
X-726918Y315008D01*
X-727796Y315886D01*
X-727796Y319114D01*
X-725514Y321396D01*
X-722286Y321396D01*
X-720004Y319114D01*
X-720004Y315886D01*
X-720882Y315008D01*
X-720935Y314934D01*
X-720995Y314865D01*
X-721007Y314835D01*
X-721026Y314809D01*
X-721053Y314722D01*
X-721087Y314637D01*
X-721091Y314596D01*
X-721098Y314573D01*
X-721097Y314541D01*
X-721105Y314470D01*
X-721105Y257030D01*
X-721091Y256940D01*
X-721083Y256849D01*
X-721071Y256819D01*
X-721066Y256787D01*
X-721023Y256707D01*
X-720987Y256623D01*
X-720961Y256591D01*
X-720950Y256570D01*
X-720927Y256548D01*
X-720882Y256492D01*
X-720004Y255614D01*
X-720004Y252386D01*
X-722286Y250104D01*
X-725514Y250104D01*
G37*
%LPD*%
%LPC*%
G36*
X-791924Y420877D02*
X-791924Y420877D01*
X-798323Y427276D01*
X-798323Y436324D01*
X-791924Y442723D01*
X-782876Y442723D01*
X-776477Y436324D01*
X-776477Y427276D01*
X-782876Y420877D01*
X-791924Y420877D01*
G37*
%LPD*%
%LPC*%
G36*
X-791924Y255777D02*
X-791924Y255777D01*
X-798323Y262176D01*
X-798323Y271224D01*
X-791924Y277623D01*
X-782876Y277623D01*
X-776477Y271224D01*
X-776477Y262176D01*
X-782876Y255777D01*
X-791924Y255777D01*
G37*
%LPD*%
%LPC*%
G36*
X-791924Y319277D02*
X-791924Y319277D01*
X-798323Y325676D01*
X-798323Y334724D01*
X-791924Y341123D01*
X-782876Y341123D01*
X-776477Y334724D01*
X-776477Y325676D01*
X-782876Y319277D01*
X-791924Y319277D01*
G37*
%LPD*%
%LPC*%
G36*
X-741124Y52577D02*
X-741124Y52577D01*
X-747523Y58976D01*
X-747523Y68024D01*
X-741124Y74423D01*
X-732076Y74423D01*
X-725677Y68024D01*
X-725677Y58976D01*
X-732076Y52577D01*
X-741124Y52577D01*
G37*
%LPD*%
%LPC*%
G36*
X-309324Y103377D02*
X-309324Y103377D01*
X-315723Y109776D01*
X-315723Y118824D01*
X-309324Y125223D01*
X-300276Y125223D01*
X-293877Y118824D01*
X-293877Y109776D01*
X-300276Y103377D01*
X-309324Y103377D01*
G37*
%LPD*%
%LPC*%
G36*
X-573662Y128829D02*
X-573662Y128829D01*
X-577658Y130484D01*
X-580716Y133542D01*
X-582371Y137538D01*
X-582371Y141862D01*
X-580716Y145858D01*
X-577658Y148916D01*
X-573662Y150571D01*
X-569338Y150571D01*
X-565342Y148916D01*
X-562284Y145858D01*
X-560629Y141862D01*
X-560629Y137538D01*
X-562284Y133542D01*
X-565342Y130484D01*
X-569338Y128829D01*
X-573662Y128829D01*
G37*
%LPD*%
%LPC*%
G36*
X-578038Y511047D02*
X-578038Y511047D01*
X-583693Y516702D01*
X-583693Y524698D01*
X-578038Y530353D01*
X-570042Y530353D01*
X-564387Y524698D01*
X-564387Y516702D01*
X-570042Y511047D01*
X-578038Y511047D01*
G37*
%LPD*%
%LPC*%
G36*
X-628838Y511047D02*
X-628838Y511047D01*
X-634493Y516702D01*
X-634493Y524698D01*
X-628838Y530353D01*
X-620842Y530353D01*
X-615187Y524698D01*
X-615187Y516702D01*
X-620842Y511047D01*
X-628838Y511047D01*
G37*
%LPD*%
%LPC*%
G36*
X-425638Y511047D02*
X-425638Y511047D01*
X-431293Y516702D01*
X-431293Y524698D01*
X-425638Y530353D01*
X-417642Y530353D01*
X-411987Y524698D01*
X-411987Y516702D01*
X-417642Y511047D01*
X-425638Y511047D01*
G37*
%LPD*%
%LPC*%
G36*
X-257998Y28447D02*
X-257998Y28447D01*
X-263653Y34102D01*
X-263653Y42098D01*
X-257998Y47753D01*
X-250002Y47753D01*
X-244347Y42098D01*
X-244347Y34102D01*
X-250002Y28447D01*
X-257998Y28447D01*
G37*
%LPD*%
%LPC*%
G36*
X-537398Y28447D02*
X-537398Y28447D01*
X-543053Y34102D01*
X-543053Y42098D01*
X-537398Y47753D01*
X-529402Y47753D01*
X-523747Y42098D01*
X-523747Y34102D01*
X-529402Y28447D01*
X-537398Y28447D01*
G37*
%LPD*%
%LPC*%
G36*
X-511998Y28447D02*
X-511998Y28447D01*
X-517653Y34102D01*
X-517653Y42098D01*
X-511998Y47753D01*
X-504002Y47753D01*
X-498347Y42098D01*
X-498347Y34102D01*
X-504002Y28447D01*
X-511998Y28447D01*
G37*
%LPD*%
%LPC*%
G36*
X-486598Y28447D02*
X-486598Y28447D01*
X-492253Y34102D01*
X-492253Y42098D01*
X-486598Y47753D01*
X-478602Y47753D01*
X-472947Y42098D01*
X-472947Y34102D01*
X-478602Y28447D01*
X-486598Y28447D01*
G37*
%LPD*%
%LPC*%
G36*
X-461198Y28447D02*
X-461198Y28447D01*
X-466853Y34102D01*
X-466853Y42098D01*
X-461198Y47753D01*
X-453202Y47753D01*
X-447547Y42098D01*
X-447547Y34102D01*
X-453202Y28447D01*
X-461198Y28447D01*
G37*
%LPD*%
%LPC*%
G36*
X-435798Y28447D02*
X-435798Y28447D01*
X-441453Y34102D01*
X-441453Y42098D01*
X-435798Y47753D01*
X-427802Y47753D01*
X-422147Y42098D01*
X-422147Y34102D01*
X-427802Y28447D01*
X-435798Y28447D01*
G37*
%LPD*%
%LPC*%
G36*
X-283398Y28447D02*
X-283398Y28447D01*
X-289053Y34102D01*
X-289053Y42098D01*
X-283398Y47753D01*
X-275402Y47753D01*
X-269747Y42098D01*
X-269747Y34102D01*
X-275402Y28447D01*
X-283398Y28447D01*
G37*
%LPD*%
%LPC*%
G36*
X-232598Y28447D02*
X-232598Y28447D01*
X-238253Y34102D01*
X-238253Y42098D01*
X-232598Y47753D01*
X-224602Y47753D01*
X-218947Y42098D01*
X-218947Y34102D01*
X-224602Y28447D01*
X-232598Y28447D01*
G37*
%LPD*%
%LPC*%
G36*
X-207198Y28447D02*
X-207198Y28447D01*
X-212853Y34102D01*
X-212853Y42098D01*
X-207198Y47753D01*
X-199202Y47753D01*
X-193547Y42098D01*
X-193547Y34102D01*
X-199202Y28447D01*
X-207198Y28447D01*
G37*
%LPD*%
%LPC*%
G36*
X-181798Y28447D02*
X-181798Y28447D01*
X-187453Y34102D01*
X-187453Y42098D01*
X-181798Y47753D01*
X-173802Y47753D01*
X-168147Y42098D01*
X-168147Y34102D01*
X-173802Y28447D01*
X-181798Y28447D01*
G37*
%LPD*%
%LPC*%
G36*
X-207198Y511047D02*
X-207198Y511047D01*
X-212853Y516702D01*
X-212853Y524698D01*
X-207198Y530353D01*
X-199202Y530353D01*
X-193547Y524698D01*
X-193547Y516702D01*
X-199202Y511047D01*
X-207198Y511047D01*
G37*
%LPD*%
%LPC*%
G36*
X-603438Y511047D02*
X-603438Y511047D01*
X-609093Y516702D01*
X-609093Y524698D01*
X-603438Y530353D01*
X-595442Y530353D01*
X-589787Y524698D01*
X-589787Y516702D01*
X-595442Y511047D01*
X-603438Y511047D01*
G37*
%LPD*%
%LPC*%
G36*
X-181798Y511047D02*
X-181798Y511047D01*
X-187453Y516702D01*
X-187453Y524698D01*
X-181798Y530353D01*
X-173802Y530353D01*
X-168147Y524698D01*
X-168147Y516702D01*
X-173802Y511047D01*
X-181798Y511047D01*
G37*
%LPD*%
%LPC*%
G36*
X-451038Y511047D02*
X-451038Y511047D01*
X-456693Y516702D01*
X-456693Y524698D01*
X-451038Y530353D01*
X-443042Y530353D01*
X-437387Y524698D01*
X-437387Y516702D01*
X-443042Y511047D01*
X-451038Y511047D01*
G37*
%LPD*%
%LPC*%
G36*
X-283398Y511047D02*
X-283398Y511047D01*
X-289053Y516702D01*
X-289053Y524698D01*
X-283398Y530353D01*
X-275402Y530353D01*
X-269747Y524698D01*
X-269747Y516702D01*
X-275402Y511047D01*
X-283398Y511047D01*
G37*
%LPD*%
%LPC*%
G36*
X-308798Y511047D02*
X-308798Y511047D01*
X-314453Y516702D01*
X-314453Y524698D01*
X-308798Y530353D01*
X-300802Y530353D01*
X-295147Y524698D01*
X-295147Y516702D01*
X-300802Y511047D01*
X-308798Y511047D01*
G37*
%LPD*%
%LPC*%
G36*
X-476438Y511047D02*
X-476438Y511047D01*
X-482093Y516702D01*
X-482093Y524698D01*
X-476438Y530353D01*
X-468442Y530353D01*
X-462787Y524698D01*
X-462787Y516702D01*
X-468442Y511047D01*
X-476438Y511047D01*
G37*
%LPD*%
%LPC*%
G36*
X-501838Y511047D02*
X-501838Y511047D01*
X-507493Y516702D01*
X-507493Y524698D01*
X-501838Y530353D01*
X-493842Y530353D01*
X-488187Y524698D01*
X-488187Y516702D01*
X-493842Y511047D01*
X-501838Y511047D01*
G37*
%LPD*%
%LPC*%
G36*
X-509920Y155447D02*
X-509920Y155447D01*
X-513468Y156917D01*
X-516183Y159632D01*
X-517653Y163180D01*
X-517653Y167020D01*
X-516183Y170568D01*
X-513468Y173283D01*
X-509920Y174753D01*
X-506080Y174753D01*
X-502532Y173283D01*
X-499817Y170568D01*
X-498347Y167020D01*
X-498347Y163180D01*
X-499817Y159632D01*
X-502532Y156917D01*
X-506080Y155447D01*
X-509920Y155447D01*
G37*
%LPD*%
%LPC*%
G36*
X-354077Y432307D02*
X-354077Y432307D01*
X-354077Y442977D01*
X-331723Y442977D01*
X-331723Y432307D01*
X-335250Y432307D01*
X-342362Y439419D01*
X-342378Y439430D01*
X-342390Y439446D01*
X-342478Y439502D01*
X-342561Y439562D01*
X-342580Y439568D01*
X-342597Y439579D01*
X-342698Y439604D01*
X-342797Y439635D01*
X-342816Y439634D01*
X-342836Y439639D01*
X-342939Y439631D01*
X-343042Y439628D01*
X-343061Y439621D01*
X-343081Y439620D01*
X-343176Y439579D01*
X-343273Y439544D01*
X-343289Y439531D01*
X-343307Y439523D01*
X-343438Y439419D01*
X-350550Y432307D01*
X-354077Y432307D01*
G37*
%LPD*%
%LPC*%
G36*
X-599951Y373633D02*
X-599951Y373633D01*
X-604267Y377949D01*
X-604267Y384051D01*
X-599951Y388367D01*
X-593849Y388367D01*
X-589533Y384051D01*
X-589533Y377949D01*
X-593849Y373633D01*
X-599951Y373633D01*
G37*
%LPD*%
%LPC*%
G36*
X-599951Y335533D02*
X-599951Y335533D01*
X-604267Y339849D01*
X-604267Y345951D01*
X-599951Y350267D01*
X-593849Y350267D01*
X-589533Y345951D01*
X-589533Y339849D01*
X-593849Y335533D01*
X-599951Y335533D01*
G37*
%LPD*%
%LPC*%
G36*
X-511051Y360933D02*
X-511051Y360933D01*
X-515367Y365249D01*
X-515367Y371351D01*
X-511051Y375667D01*
X-504949Y375667D01*
X-500633Y371351D01*
X-500633Y365249D01*
X-504949Y360933D01*
X-511051Y360933D01*
G37*
%LPD*%
%LPC*%
G36*
X-453901Y373633D02*
X-453901Y373633D01*
X-458217Y377949D01*
X-458217Y384051D01*
X-453901Y388367D01*
X-447799Y388367D01*
X-443483Y384051D01*
X-443483Y377949D01*
X-447799Y373633D01*
X-453901Y373633D01*
G37*
%LPD*%
%LPC*%
G36*
X-625351Y183133D02*
X-625351Y183133D01*
X-629667Y187449D01*
X-629667Y193551D01*
X-625351Y197867D01*
X-619249Y197867D01*
X-614933Y193551D01*
X-614933Y187449D01*
X-619249Y183133D01*
X-625351Y183133D01*
G37*
%LPD*%
%LPC*%
G36*
X-422151Y246633D02*
X-422151Y246633D01*
X-426467Y250949D01*
X-426467Y257051D01*
X-422151Y261367D01*
X-416049Y261367D01*
X-411733Y257051D01*
X-411733Y250949D01*
X-416049Y246633D01*
X-422151Y246633D01*
G37*
%LPD*%
%LPC*%
G36*
X-663451Y386333D02*
X-663451Y386333D01*
X-667767Y390649D01*
X-667767Y396751D01*
X-663451Y401067D01*
X-657349Y401067D01*
X-653033Y396751D01*
X-653033Y390649D01*
X-657349Y386333D01*
X-663451Y386333D01*
G37*
%LPD*%
%LPC*%
G36*
X-291593Y471423D02*
X-291593Y471423D01*
X-291593Y474950D01*
X-284450Y482093D01*
X-280923Y482093D01*
X-280923Y471423D01*
X-291593Y471423D01*
G37*
%LPD*%
%LPC*%
G36*
X-799593Y192023D02*
X-799593Y192023D01*
X-799593Y195550D01*
X-792450Y202693D01*
X-788923Y202693D01*
X-788923Y192023D01*
X-799593Y192023D01*
G37*
%LPD*%
%LPC*%
G36*
X-532893Y446023D02*
X-532893Y446023D01*
X-532893Y449550D01*
X-525750Y456693D01*
X-522223Y456693D01*
X-522223Y446023D01*
X-532893Y446023D01*
G37*
%LPD*%
%LPC*%
G36*
X-291593Y115823D02*
X-291593Y115823D01*
X-291593Y119350D01*
X-284450Y126493D01*
X-280923Y126493D01*
X-280923Y115823D01*
X-291593Y115823D01*
G37*
%LPD*%
%LPC*%
G36*
X-799593Y90423D02*
X-799593Y90423D01*
X-799593Y93950D01*
X-792450Y101093D01*
X-788923Y101093D01*
X-788923Y90423D01*
X-799593Y90423D01*
G37*
%LPD*%
%LPC*%
G36*
X-525750Y432307D02*
X-525750Y432307D01*
X-532893Y439450D01*
X-532893Y442977D01*
X-522223Y442977D01*
X-522223Y432307D01*
X-525750Y432307D01*
G37*
%LPD*%
%LPC*%
G36*
X-792450Y76707D02*
X-792450Y76707D01*
X-799593Y83850D01*
X-799593Y87377D01*
X-788923Y87377D01*
X-788923Y76707D01*
X-792450Y76707D01*
G37*
%LPD*%
%LPC*%
G36*
X-785877Y192023D02*
X-785877Y192023D01*
X-785877Y202693D01*
X-782350Y202693D01*
X-775207Y195550D01*
X-775207Y192023D01*
X-785877Y192023D01*
G37*
%LPD*%
%LPC*%
G36*
X-792450Y178307D02*
X-792450Y178307D01*
X-799593Y185450D01*
X-799593Y188977D01*
X-788923Y188977D01*
X-788923Y178307D01*
X-792450Y178307D01*
G37*
%LPD*%
%LPC*%
G36*
X-277877Y115823D02*
X-277877Y115823D01*
X-277877Y126493D01*
X-274350Y126493D01*
X-267207Y119350D01*
X-267207Y115823D01*
X-277877Y115823D01*
G37*
%LPD*%
%LPC*%
G36*
X-284450Y102107D02*
X-284450Y102107D01*
X-291593Y109250D01*
X-291593Y112777D01*
X-280923Y112777D01*
X-280923Y102107D01*
X-284450Y102107D01*
G37*
%LPD*%
%LPC*%
G36*
X-785877Y90423D02*
X-785877Y90423D01*
X-785877Y101093D01*
X-782350Y101093D01*
X-775207Y93950D01*
X-775207Y90423D01*
X-785877Y90423D01*
G37*
%LPD*%
%LPC*%
G36*
X-277877Y471423D02*
X-277877Y471423D01*
X-277877Y482093D01*
X-274350Y482093D01*
X-267207Y474950D01*
X-267207Y471423D01*
X-277877Y471423D01*
G37*
%LPD*%
%LPC*%
G36*
X-284450Y457707D02*
X-284450Y457707D01*
X-291593Y464850D01*
X-291593Y468377D01*
X-280923Y468377D01*
X-280923Y457707D01*
X-284450Y457707D01*
G37*
%LPD*%
%LPC*%
G36*
X-519177Y446023D02*
X-519177Y446023D01*
X-519177Y456693D01*
X-515650Y456693D01*
X-508507Y449550D01*
X-508507Y446023D01*
X-519177Y446023D01*
G37*
%LPD*%
%LPC*%
G36*
X-360650Y432307D02*
X-360650Y432307D01*
X-367793Y439450D01*
X-367793Y442977D01*
X-357123Y442977D01*
X-357123Y432307D01*
X-360650Y432307D01*
G37*
%LPD*%
%LPC*%
G36*
X-220950Y432307D02*
X-220950Y432307D01*
X-228093Y439450D01*
X-228093Y442977D01*
X-217423Y442977D01*
X-217423Y432307D01*
X-220950Y432307D01*
G37*
%LPD*%
%LPC*%
G36*
X-277877Y457707D02*
X-277877Y457707D01*
X-277877Y468377D01*
X-267207Y468377D01*
X-267207Y464850D01*
X-274350Y457707D01*
X-277877Y457707D01*
G37*
%LPD*%
%LPC*%
G36*
X-785877Y76707D02*
X-785877Y76707D01*
X-785877Y87377D01*
X-775207Y87377D01*
X-775207Y83850D01*
X-782350Y76707D01*
X-785877Y76707D01*
G37*
%LPD*%
%LPC*%
G36*
X-785877Y178307D02*
X-785877Y178307D01*
X-785877Y188977D01*
X-775207Y188977D01*
X-775207Y185450D01*
X-782350Y178307D01*
X-785877Y178307D01*
G37*
%LPD*%
%LPC*%
G36*
X-214377Y432307D02*
X-214377Y432307D01*
X-214377Y442977D01*
X-203707Y442977D01*
X-203707Y439450D01*
X-210850Y432307D01*
X-214377Y432307D01*
G37*
%LPD*%
%LPC*%
G36*
X-519177Y432307D02*
X-519177Y432307D01*
X-519177Y442977D01*
X-508507Y442977D01*
X-508507Y439450D01*
X-515650Y432307D01*
X-519177Y432307D01*
G37*
%LPD*%
%LPC*%
G36*
X-328677Y432307D02*
X-328677Y432307D01*
X-328677Y442977D01*
X-318007Y442977D01*
X-318007Y439450D01*
X-325150Y432307D01*
X-328677Y432307D01*
G37*
%LPD*%
%LPC*%
G36*
X-277877Y102107D02*
X-277877Y102107D01*
X-277877Y112777D01*
X-267207Y112777D01*
X-267207Y109250D01*
X-274350Y102107D01*
X-277877Y102107D01*
G37*
%LPD*%
%LPC*%
G36*
X-583551Y115823D02*
X-583551Y115823D01*
X-583342Y117143D01*
X-582751Y118960D01*
X-581884Y120663D01*
X-580760Y122209D01*
X-579409Y123560D01*
X-577863Y124684D01*
X-576160Y125551D01*
X-574343Y126142D01*
X-573023Y126351D01*
X-573023Y115823D01*
X-583551Y115823D01*
G37*
%LPD*%
%LPC*%
G36*
X-583551Y242823D02*
X-583551Y242823D01*
X-583342Y244143D01*
X-582751Y245960D01*
X-581884Y247663D01*
X-580760Y249209D01*
X-579409Y250560D01*
X-577863Y251684D01*
X-576160Y252551D01*
X-574343Y253142D01*
X-573023Y253351D01*
X-573023Y242823D01*
X-583551Y242823D01*
G37*
%LPD*%
%LPC*%
G36*
X-569977Y115823D02*
X-569977Y115823D01*
X-569977Y126351D01*
X-568657Y126142D01*
X-566840Y125551D01*
X-565137Y124684D01*
X-563591Y123560D01*
X-562240Y122209D01*
X-561116Y120663D01*
X-560249Y118960D01*
X-559658Y117143D01*
X-559449Y115823D01*
X-569977Y115823D01*
G37*
%LPD*%
%LPC*%
G36*
X-574343Y102458D02*
X-574343Y102458D01*
X-576160Y103049D01*
X-577863Y103916D01*
X-579409Y105040D01*
X-580760Y106391D01*
X-581884Y107937D01*
X-582751Y109640D01*
X-583342Y111457D01*
X-583551Y112777D01*
X-573023Y112777D01*
X-573023Y102249D01*
X-574343Y102458D01*
G37*
%LPD*%
%LPC*%
G36*
X-574343Y229458D02*
X-574343Y229458D01*
X-576160Y230049D01*
X-577863Y230916D01*
X-579409Y232040D01*
X-580760Y233391D01*
X-581884Y234937D01*
X-582751Y236640D01*
X-583342Y238457D01*
X-583551Y239777D01*
X-573023Y239777D01*
X-573023Y229249D01*
X-574343Y229458D01*
G37*
%LPD*%
%LPC*%
G36*
X-569977Y242823D02*
X-569977Y242823D01*
X-569977Y253351D01*
X-568657Y253142D01*
X-566840Y252551D01*
X-565137Y251684D01*
X-563591Y250560D01*
X-562240Y249209D01*
X-561116Y247663D01*
X-560249Y245960D01*
X-559658Y244143D01*
X-559449Y242823D01*
X-569977Y242823D01*
G37*
%LPD*%
%LPC*%
G36*
X-569977Y112777D02*
X-569977Y112777D01*
X-559449Y112777D01*
X-559658Y111457D01*
X-560249Y109640D01*
X-561116Y107937D01*
X-562240Y106391D01*
X-563591Y105040D01*
X-565137Y103916D01*
X-566840Y103049D01*
X-568657Y102458D01*
X-569977Y102249D01*
X-569977Y112777D01*
G37*
%LPD*%
%LPC*%
G36*
X-569977Y239777D02*
X-569977Y239777D01*
X-559449Y239777D01*
X-559658Y238457D01*
X-560249Y236640D01*
X-561116Y234937D01*
X-562240Y233391D01*
X-563591Y232040D01*
X-565137Y230916D01*
X-566840Y230049D01*
X-568657Y229458D01*
X-569977Y229249D01*
X-569977Y239777D01*
G37*
%LPD*%
%LPC*%
G36*
X-559563Y522223D02*
X-559563Y522223D01*
X-559563Y525224D01*
X-553164Y531623D01*
X-550163Y531623D01*
X-550163Y522223D01*
X-559563Y522223D01*
G37*
%LPD*%
%LPC*%
G36*
X-391923Y39623D02*
X-391923Y39623D01*
X-391923Y42624D01*
X-385524Y49023D01*
X-382523Y49023D01*
X-382523Y39623D01*
X-391923Y39623D01*
G37*
%LPD*%
%LPC*%
G36*
X-417323Y39623D02*
X-417323Y39623D01*
X-417323Y42624D01*
X-410924Y49023D01*
X-407923Y49023D01*
X-407923Y39623D01*
X-417323Y39623D01*
G37*
%LPD*%
%LPC*%
G36*
X-547117Y522223D02*
X-547117Y522223D01*
X-547117Y531623D01*
X-544116Y531623D01*
X-537717Y525224D01*
X-537717Y522223D01*
X-547117Y522223D01*
G37*
%LPD*%
%LPC*%
G36*
X-385524Y27177D02*
X-385524Y27177D01*
X-391923Y33576D01*
X-391923Y36577D01*
X-382523Y36577D01*
X-382523Y27177D01*
X-385524Y27177D01*
G37*
%LPD*%
%LPC*%
G36*
X-553164Y509777D02*
X-553164Y509777D01*
X-559563Y516176D01*
X-559563Y519177D01*
X-550163Y519177D01*
X-550163Y509777D01*
X-553164Y509777D01*
G37*
%LPD*%
%LPC*%
G36*
X-410924Y27177D02*
X-410924Y27177D01*
X-417323Y33576D01*
X-417323Y36577D01*
X-407923Y36577D01*
X-407923Y27177D01*
X-410924Y27177D01*
G37*
%LPD*%
%LPC*%
G36*
X-379477Y39623D02*
X-379477Y39623D01*
X-379477Y49023D01*
X-376476Y49023D01*
X-370077Y42624D01*
X-370077Y39623D01*
X-379477Y39623D01*
G37*
%LPD*%
%LPC*%
G36*
X-404877Y39623D02*
X-404877Y39623D01*
X-404877Y49023D01*
X-401876Y49023D01*
X-395477Y42624D01*
X-395477Y39623D01*
X-404877Y39623D01*
G37*
%LPD*%
%LPC*%
G36*
X-379477Y27177D02*
X-379477Y27177D01*
X-379477Y36577D01*
X-370077Y36577D01*
X-370077Y33576D01*
X-376476Y27177D01*
X-379477Y27177D01*
G37*
%LPD*%
%LPC*%
G36*
X-404877Y27177D02*
X-404877Y27177D01*
X-404877Y36577D01*
X-395477Y36577D01*
X-395477Y33576D01*
X-401876Y27177D01*
X-404877Y27177D01*
G37*
%LPD*%
%LPC*%
G36*
X-547117Y509777D02*
X-547117Y509777D01*
X-547117Y519177D01*
X-537717Y519177D01*
X-537717Y516176D01*
X-544116Y509777D01*
X-547117Y509777D01*
G37*
%LPD*%
%LPC*%
G36*
X-277518Y306323D02*
X-277518Y306323D01*
X-277354Y307358D01*
X-276822Y308993D01*
X-276042Y310525D01*
X-275031Y311916D01*
X-273816Y313131D01*
X-272425Y314142D01*
X-270893Y314922D01*
X-269258Y315454D01*
X-268223Y315618D01*
X-268223Y306323D01*
X-277518Y306323D01*
G37*
%LPD*%
%LPC*%
G36*
X-265177Y306323D02*
X-265177Y306323D01*
X-265177Y315618D01*
X-264142Y315454D01*
X-262507Y314922D01*
X-260975Y314142D01*
X-259584Y313131D01*
X-258369Y311916D01*
X-257358Y310525D01*
X-256578Y308993D01*
X-256046Y307358D01*
X-255882Y306323D01*
X-265177Y306323D01*
G37*
%LPD*%
%LPC*%
G36*
X-269258Y294146D02*
X-269258Y294146D01*
X-270893Y294678D01*
X-272425Y295458D01*
X-273816Y296469D01*
X-275031Y297684D01*
X-276042Y299075D01*
X-276822Y300607D01*
X-277354Y302242D01*
X-277518Y303277D01*
X-268223Y303277D01*
X-268223Y293982D01*
X-269258Y294146D01*
G37*
%LPD*%
%LPC*%
G36*
X-265177Y303277D02*
X-265177Y303277D01*
X-255882Y303277D01*
X-256046Y302242D01*
X-256578Y300607D01*
X-257358Y299075D01*
X-258369Y297684D01*
X-259584Y296469D01*
X-260975Y295458D01*
X-262507Y294678D01*
X-264142Y294146D01*
X-265177Y293982D01*
X-265177Y303277D01*
G37*
%LPD*%
%LPC*%
G36*
X-772046Y522223D02*
X-772046Y522223D01*
X-771911Y523079D01*
X-771416Y524600D01*
X-770690Y526025D01*
X-769750Y527319D01*
X-768619Y528450D01*
X-767325Y529390D01*
X-765900Y530116D01*
X-764379Y530611D01*
X-763523Y530746D01*
X-763523Y522223D01*
X-772046Y522223D01*
G37*
%LPD*%
%LPC*%
G36*
X-721246Y522223D02*
X-721246Y522223D01*
X-721111Y523079D01*
X-720616Y524600D01*
X-719890Y526025D01*
X-718950Y527319D01*
X-717819Y528450D01*
X-716525Y529390D01*
X-715100Y530116D01*
X-713579Y530611D01*
X-712723Y530746D01*
X-712723Y522223D01*
X-721246Y522223D01*
G37*
%LPD*%
%LPC*%
G36*
X-746646Y522223D02*
X-746646Y522223D01*
X-746511Y523079D01*
X-746016Y524600D01*
X-745290Y526025D01*
X-744350Y527319D01*
X-743219Y528450D01*
X-741925Y529390D01*
X-740500Y530116D01*
X-738979Y530611D01*
X-738123Y530746D01*
X-738123Y522223D01*
X-746646Y522223D01*
G37*
%LPD*%
%LPC*%
G36*
X-764379Y510789D02*
X-764379Y510789D01*
X-765900Y511284D01*
X-767325Y512010D01*
X-768619Y512950D01*
X-769750Y514081D01*
X-770690Y515375D01*
X-771416Y516800D01*
X-771911Y518321D01*
X-772046Y519177D01*
X-763523Y519177D01*
X-763523Y510654D01*
X-764379Y510789D01*
G37*
%LPD*%
%LPC*%
G36*
X-738979Y510789D02*
X-738979Y510789D01*
X-740500Y511284D01*
X-741925Y512010D01*
X-743219Y512950D01*
X-744350Y514081D01*
X-745290Y515375D01*
X-746016Y516800D01*
X-746511Y518321D01*
X-746646Y519177D01*
X-738123Y519177D01*
X-738123Y510654D01*
X-738979Y510789D01*
G37*
%LPD*%
%LPC*%
G36*
X-713579Y510789D02*
X-713579Y510789D01*
X-715100Y511284D01*
X-716525Y512010D01*
X-717819Y512950D01*
X-718950Y514081D01*
X-719890Y515375D01*
X-720616Y516800D01*
X-721111Y518321D01*
X-721246Y519177D01*
X-712723Y519177D01*
X-712723Y510654D01*
X-713579Y510789D01*
G37*
%LPD*%
%LPC*%
G36*
X-709677Y522223D02*
X-709677Y522223D01*
X-709677Y530746D01*
X-708821Y530611D01*
X-707300Y530116D01*
X-705875Y529390D01*
X-704581Y528450D01*
X-703450Y527319D01*
X-702510Y526025D01*
X-701784Y524600D01*
X-701289Y523079D01*
X-701154Y522223D01*
X-709677Y522223D01*
G37*
%LPD*%
%LPC*%
G36*
X-760477Y522223D02*
X-760477Y522223D01*
X-760477Y530746D01*
X-759621Y530611D01*
X-758100Y530116D01*
X-756675Y529390D01*
X-755381Y528450D01*
X-754250Y527319D01*
X-753310Y526025D01*
X-752584Y524600D01*
X-752089Y523079D01*
X-751954Y522223D01*
X-760477Y522223D01*
G37*
%LPD*%
%LPC*%
G36*
X-735077Y522223D02*
X-735077Y522223D01*
X-735077Y530746D01*
X-734221Y530611D01*
X-732700Y530116D01*
X-731275Y529390D01*
X-729981Y528450D01*
X-728850Y527319D01*
X-727910Y526025D01*
X-727184Y524600D01*
X-726689Y523079D01*
X-726554Y522223D01*
X-735077Y522223D01*
G37*
%LPD*%
%LPC*%
G36*
X-760477Y519177D02*
X-760477Y519177D01*
X-751954Y519177D01*
X-752089Y518321D01*
X-752584Y516800D01*
X-753310Y515375D01*
X-754250Y514081D01*
X-755381Y512950D01*
X-756675Y512010D01*
X-758100Y511284D01*
X-759621Y510789D01*
X-760477Y510654D01*
X-760477Y519177D01*
G37*
%LPD*%
%LPC*%
G36*
X-735077Y519177D02*
X-735077Y519177D01*
X-726554Y519177D01*
X-726689Y518321D01*
X-727184Y516800D01*
X-727910Y515375D01*
X-728850Y514081D01*
X-729981Y512950D01*
X-731275Y512010D01*
X-732700Y511284D01*
X-734221Y510789D01*
X-735077Y510654D01*
X-735077Y519177D01*
G37*
%LPD*%
%LPC*%
G36*
X-709677Y519177D02*
X-709677Y519177D01*
X-701154Y519177D01*
X-701289Y518321D01*
X-701784Y516800D01*
X-702510Y515375D01*
X-703450Y514081D01*
X-704581Y512950D01*
X-705875Y512010D01*
X-707300Y511284D01*
X-708821Y510789D01*
X-709677Y510654D01*
X-709677Y519177D01*
G37*
%LPD*%
%LPC*%
G36*
X-491237Y103123D02*
X-491237Y103123D01*
X-491237Y105177D01*
X-486177Y110237D01*
X-484123Y110237D01*
X-484123Y103123D01*
X-491237Y103123D01*
G37*
%LPD*%
%LPC*%
G36*
X-478537Y255523D02*
X-478537Y255523D01*
X-478537Y257577D01*
X-473477Y262637D01*
X-471423Y262637D01*
X-471423Y255523D01*
X-478537Y255523D01*
G37*
%LPD*%
%LPC*%
G36*
X-440437Y395223D02*
X-440437Y395223D01*
X-440437Y397277D01*
X-435377Y402337D01*
X-433323Y402337D01*
X-433323Y395223D01*
X-440437Y395223D01*
G37*
%LPD*%
%LPC*%
G36*
X-669037Y192023D02*
X-669037Y192023D01*
X-669037Y194077D01*
X-663977Y199137D01*
X-661923Y199137D01*
X-661923Y192023D01*
X-669037Y192023D01*
G37*
%LPD*%
%LPC*%
G36*
X-345187Y294893D02*
X-345187Y294893D01*
X-345187Y296947D01*
X-340127Y302007D01*
X-338073Y302007D01*
X-338073Y294893D01*
X-345187Y294893D01*
G37*
%LPD*%
%LPC*%
G36*
X-351537Y382523D02*
X-351537Y382523D01*
X-351537Y384577D01*
X-346477Y389637D01*
X-344423Y389637D01*
X-344423Y382523D01*
X-351537Y382523D01*
G37*
%LPD*%
%LPC*%
G36*
X-669037Y166623D02*
X-669037Y166623D01*
X-669037Y168677D01*
X-663977Y173737D01*
X-661923Y173737D01*
X-661923Y166623D01*
X-669037Y166623D01*
G37*
%LPD*%
%LPC*%
G36*
X-605537Y458723D02*
X-605537Y458723D01*
X-605537Y460777D01*
X-600477Y465837D01*
X-598423Y465837D01*
X-598423Y458723D01*
X-605537Y458723D01*
G37*
%LPD*%
%LPC*%
G36*
X-669037Y446023D02*
X-669037Y446023D01*
X-669037Y448077D01*
X-663977Y453137D01*
X-661923Y453137D01*
X-661923Y446023D01*
X-669037Y446023D01*
G37*
%LPD*%
%LPC*%
G36*
X-473477Y245363D02*
X-473477Y245363D01*
X-478537Y250423D01*
X-478537Y252477D01*
X-471423Y252477D01*
X-471423Y245363D01*
X-473477Y245363D01*
G37*
%LPD*%
%LPC*%
G36*
X-663977Y156463D02*
X-663977Y156463D01*
X-669037Y161523D01*
X-669037Y163577D01*
X-661923Y163577D01*
X-661923Y156463D01*
X-663977Y156463D01*
G37*
%LPD*%
%LPC*%
G36*
X-340127Y284733D02*
X-340127Y284733D01*
X-345187Y289793D01*
X-345187Y291847D01*
X-338073Y291847D01*
X-338073Y284733D01*
X-340127Y284733D01*
G37*
%LPD*%
%LPC*%
G36*
X-346477Y372363D02*
X-346477Y372363D01*
X-351537Y377423D01*
X-351537Y379477D01*
X-344423Y379477D01*
X-344423Y372363D01*
X-346477Y372363D01*
G37*
%LPD*%
%LPC*%
G36*
X-663977Y181863D02*
X-663977Y181863D01*
X-669037Y186923D01*
X-669037Y188977D01*
X-661923Y188977D01*
X-661923Y181863D01*
X-663977Y181863D01*
G37*
%LPD*%
%LPC*%
G36*
X-435377Y385063D02*
X-435377Y385063D01*
X-440437Y390123D01*
X-440437Y392177D01*
X-433323Y392177D01*
X-433323Y385063D01*
X-435377Y385063D01*
G37*
%LPD*%
%LPC*%
G36*
X-663977Y435863D02*
X-663977Y435863D01*
X-669037Y440923D01*
X-669037Y442977D01*
X-661923Y442977D01*
X-661923Y435863D01*
X-663977Y435863D01*
G37*
%LPD*%
%LPC*%
G36*
X-600477Y448563D02*
X-600477Y448563D01*
X-605537Y453623D01*
X-605537Y455677D01*
X-598423Y455677D01*
X-598423Y448563D01*
X-600477Y448563D01*
G37*
%LPD*%
%LPC*%
G36*
X-430277Y395223D02*
X-430277Y395223D01*
X-430277Y402337D01*
X-428223Y402337D01*
X-423163Y397277D01*
X-423163Y395223D01*
X-430277Y395223D01*
G37*
%LPD*%
%LPC*%
G36*
X-658877Y446023D02*
X-658877Y446023D01*
X-658877Y453137D01*
X-656823Y453137D01*
X-651763Y448077D01*
X-651763Y446023D01*
X-658877Y446023D01*
G37*
%LPD*%
%LPC*%
G36*
X-335027Y294893D02*
X-335027Y294893D01*
X-335027Y302007D01*
X-332973Y302007D01*
X-327913Y296947D01*
X-327913Y294893D01*
X-335027Y294893D01*
G37*
%LPD*%
%LPC*%
G36*
X-595377Y458723D02*
X-595377Y458723D01*
X-595377Y465837D01*
X-593323Y465837D01*
X-588263Y460777D01*
X-588263Y458723D01*
X-595377Y458723D01*
G37*
%LPD*%
%LPC*%
G36*
X-481077Y103123D02*
X-481077Y103123D01*
X-481077Y110237D01*
X-479023Y110237D01*
X-473963Y105177D01*
X-473963Y103123D01*
X-481077Y103123D01*
G37*
%LPD*%
%LPC*%
G36*
X-486177Y92963D02*
X-486177Y92963D01*
X-491237Y98023D01*
X-491237Y100077D01*
X-484123Y100077D01*
X-484123Y92963D01*
X-486177Y92963D01*
G37*
%LPD*%
%LPC*%
G36*
X-468377Y255523D02*
X-468377Y255523D01*
X-468377Y262637D01*
X-466323Y262637D01*
X-461263Y257577D01*
X-461263Y255523D01*
X-468377Y255523D01*
G37*
%LPD*%
%LPC*%
G36*
X-341377Y382523D02*
X-341377Y382523D01*
X-341377Y389637D01*
X-339323Y389637D01*
X-334263Y384577D01*
X-334263Y382523D01*
X-341377Y382523D01*
G37*
%LPD*%
%LPC*%
G36*
X-658877Y166623D02*
X-658877Y166623D01*
X-658877Y173737D01*
X-656823Y173737D01*
X-651763Y168677D01*
X-651763Y166623D01*
X-658877Y166623D01*
G37*
%LPD*%
%LPC*%
G36*
X-658877Y192023D02*
X-658877Y192023D01*
X-658877Y199137D01*
X-656823Y199137D01*
X-651763Y194077D01*
X-651763Y192023D01*
X-658877Y192023D01*
G37*
%LPD*%
%LPC*%
G36*
X-481077Y92963D02*
X-481077Y92963D01*
X-481077Y100077D01*
X-473963Y100077D01*
X-473963Y98023D01*
X-479023Y92963D01*
X-481077Y92963D01*
G37*
%LPD*%
%LPC*%
G36*
X-335027Y284733D02*
X-335027Y284733D01*
X-335027Y291847D01*
X-327913Y291847D01*
X-327913Y289793D01*
X-332973Y284733D01*
X-335027Y284733D01*
G37*
%LPD*%
%LPC*%
G36*
X-658877Y435863D02*
X-658877Y435863D01*
X-658877Y442977D01*
X-651763Y442977D01*
X-651763Y440923D01*
X-656823Y435863D01*
X-658877Y435863D01*
G37*
%LPD*%
%LPC*%
G36*
X-658877Y156463D02*
X-658877Y156463D01*
X-658877Y163577D01*
X-651763Y163577D01*
X-651763Y161523D01*
X-656823Y156463D01*
X-658877Y156463D01*
G37*
%LPD*%
%LPC*%
G36*
X-595377Y448563D02*
X-595377Y448563D01*
X-595377Y455677D01*
X-588263Y455677D01*
X-588263Y453623D01*
X-593323Y448563D01*
X-595377Y448563D01*
G37*
%LPD*%
%LPC*%
G36*
X-430277Y385063D02*
X-430277Y385063D01*
X-430277Y392177D01*
X-423163Y392177D01*
X-423163Y390123D01*
X-428223Y385063D01*
X-430277Y385063D01*
G37*
%LPD*%
%LPC*%
G36*
X-468377Y245363D02*
X-468377Y245363D01*
X-468377Y252477D01*
X-461263Y252477D01*
X-461263Y250423D01*
X-466323Y245363D01*
X-468377Y245363D01*
G37*
%LPD*%
%LPC*%
G36*
X-658877Y181863D02*
X-658877Y181863D01*
X-658877Y188977D01*
X-651763Y188977D01*
X-651763Y186923D01*
X-656823Y181863D01*
X-658877Y181863D01*
G37*
%LPD*%
%LPC*%
G36*
X-341377Y372363D02*
X-341377Y372363D01*
X-341377Y379477D01*
X-334263Y379477D01*
X-334263Y377423D01*
X-339323Y372363D01*
X-341377Y372363D01*
G37*
%LPD*%
%LPC*%
G36*
X-482601Y101599D02*
X-482601Y101599D01*
X-482601Y101601D01*
X-482599Y101601D01*
X-482599Y101599D01*
X-482601Y101599D01*
G37*
%LPD*%
%LPC*%
G36*
X-336551Y293369D02*
X-336551Y293369D01*
X-336551Y293371D01*
X-336549Y293371D01*
X-336549Y293369D01*
X-336551Y293369D01*
G37*
%LPD*%
%LPC*%
G36*
X-736601Y520699D02*
X-736601Y520699D01*
X-736601Y520701D01*
X-736599Y520701D01*
X-736599Y520699D01*
X-736601Y520699D01*
G37*
%LPD*%
%LPC*%
G36*
X-431801Y393699D02*
X-431801Y393699D01*
X-431801Y393701D01*
X-431799Y393701D01*
X-431799Y393699D01*
X-431801Y393699D01*
G37*
%LPD*%
%LPC*%
G36*
X-762001Y520699D02*
X-762001Y520699D01*
X-762001Y520701D01*
X-761999Y520701D01*
X-761999Y520699D01*
X-762001Y520699D01*
G37*
%LPD*%
%LPC*%
G36*
X-711201Y520699D02*
X-711201Y520699D01*
X-711201Y520701D01*
X-711199Y520701D01*
X-711199Y520699D01*
X-711201Y520699D01*
G37*
%LPD*%
%LPC*%
G36*
X-548641Y520699D02*
X-548641Y520699D01*
X-548641Y520701D01*
X-548639Y520701D01*
X-548639Y520699D01*
X-548641Y520699D01*
G37*
%LPD*%
%LPC*%
G36*
X-660401Y444499D02*
X-660401Y444499D01*
X-660401Y444501D01*
X-660399Y444501D01*
X-660399Y444499D01*
X-660401Y444499D01*
G37*
%LPD*%
%LPC*%
G36*
X-520701Y444499D02*
X-520701Y444499D01*
X-520701Y444501D01*
X-520699Y444501D01*
X-520699Y444499D01*
X-520701Y444499D01*
G37*
%LPD*%
%LPC*%
G36*
X-660401Y190499D02*
X-660401Y190499D01*
X-660401Y190501D01*
X-660399Y190501D01*
X-660399Y190499D01*
X-660401Y190499D01*
G37*
%LPD*%
%LPC*%
G36*
X-787401Y190499D02*
X-787401Y190499D01*
X-787401Y190501D01*
X-787399Y190501D01*
X-787399Y190499D01*
X-787401Y190499D01*
G37*
%LPD*%
%LPC*%
G36*
X-266701Y304799D02*
X-266701Y304799D01*
X-266701Y304801D01*
X-266699Y304801D01*
X-266699Y304799D01*
X-266701Y304799D01*
G37*
%LPD*%
%LPC*%
G36*
X-342901Y380999D02*
X-342901Y380999D01*
X-342901Y381001D01*
X-342899Y381001D01*
X-342899Y380999D01*
X-342901Y380999D01*
G37*
%LPD*%
%LPC*%
G36*
X-279401Y114299D02*
X-279401Y114299D01*
X-279401Y114301D01*
X-279399Y114301D01*
X-279399Y114299D01*
X-279401Y114299D01*
G37*
%LPD*%
%LPC*%
G36*
X-571501Y114299D02*
X-571501Y114299D01*
X-571501Y114301D01*
X-571499Y114301D01*
X-571499Y114299D01*
X-571501Y114299D01*
G37*
%LPD*%
%LPC*%
G36*
X-596901Y457199D02*
X-596901Y457199D01*
X-596901Y457201D01*
X-596899Y457201D01*
X-596899Y457199D01*
X-596901Y457199D01*
G37*
%LPD*%
%LPC*%
G36*
X-660401Y165099D02*
X-660401Y165099D01*
X-660401Y165101D01*
X-660399Y165101D01*
X-660399Y165099D01*
X-660401Y165099D01*
G37*
%LPD*%
%LPC*%
G36*
X-571501Y241299D02*
X-571501Y241299D01*
X-571501Y241301D01*
X-571499Y241301D01*
X-571499Y241299D01*
X-571501Y241299D01*
G37*
%LPD*%
%LPC*%
G36*
X-279401Y469899D02*
X-279401Y469899D01*
X-279401Y469901D01*
X-279399Y469901D01*
X-279399Y469899D01*
X-279401Y469899D01*
G37*
%LPD*%
%LPC*%
G36*
X-381001Y38099D02*
X-381001Y38099D01*
X-381001Y38101D01*
X-380999Y38101D01*
X-380999Y38099D01*
X-381001Y38099D01*
G37*
%LPD*%
%LPC*%
G36*
X-406401Y38099D02*
X-406401Y38099D01*
X-406401Y38101D01*
X-406399Y38101D01*
X-406399Y38099D01*
X-406401Y38099D01*
G37*
%LPD*%
%LPC*%
G36*
X-469901Y253999D02*
X-469901Y253999D01*
X-469901Y254001D01*
X-469899Y254001D01*
X-469899Y253999D01*
X-469901Y253999D01*
G37*
%LPD*%
%LPC*%
G36*
X-787401Y88899D02*
X-787401Y88899D01*
X-787401Y88901D01*
X-787399Y88901D01*
X-787399Y88899D01*
X-787401Y88899D01*
G37*
%LPD*%
D10*
X-673100Y342900D03*
X-596900Y342900D03*
D11*
X-469900Y254000D03*
X-469900Y330200D03*
D12*
X-596900Y457200D03*
X-596900Y381000D03*
D13*
X-279400Y520700D03*
X-304800Y38100D03*
X-254000Y520700D03*
X-228600Y520700D03*
X-203200Y520700D03*
X-177800Y520700D03*
X-304800Y520700D03*
X-330200Y520700D03*
X-355600Y520700D03*
X-396240Y520700D03*
X-421640Y520700D03*
X-447040Y520700D03*
X-472440Y520700D03*
X-497840Y520700D03*
X-523240Y520700D03*
X-548640Y520700D03*
X-574040Y520700D03*
X-279400Y38100D03*
X-254000Y38100D03*
X-228600Y38100D03*
X-203200Y38100D03*
X-177800Y38100D03*
X-355600Y38100D03*
X-381000Y38100D03*
X-406400Y38100D03*
X-431800Y38100D03*
X-457200Y38100D03*
X-482600Y38100D03*
X-599440Y520700D03*
X-624840Y520700D03*
X-508000Y38100D03*
X-533400Y38100D03*
D11*
X-660400Y393700D03*
X-660400Y444500D03*
D14*
X-431800Y101600D03*
X-482600Y101600D03*
D11*
X-342900Y381000D03*
D15*
X-342900Y355600D03*
D11*
X-336550Y293370D03*
D15*
X-336550Y267970D03*
D11*
X-622300Y88900D03*
X-622300Y165100D03*
D12*
X-660400Y165100D03*
X-660400Y88900D03*
D16*
X-508000Y215900D03*
X-406400Y215900D03*
D12*
X-419100Y330200D03*
X-419100Y254000D03*
D14*
X-508000Y368300D03*
X-495300Y349250D03*
X-482600Y368300D03*
D11*
X-431800Y393700D03*
X-450850Y381000D03*
X-431800Y368300D03*
D17*
X-393700Y469900D03*
X-215900Y469900D03*
X-330200Y469900D03*
D18*
X-355600Y215900D03*
X-355600Y165100D03*
D16*
X-266700Y330200D03*
X-266700Y304800D03*
X-266700Y279400D03*
D19*
X-571500Y292100D03*
D20*
X-571500Y266700D03*
X-571500Y241300D03*
D12*
X-622300Y266700D03*
X-622300Y190500D03*
D11*
X-660400Y190500D03*
X-660400Y266700D03*
D16*
X-508000Y165100D03*
X-406400Y165100D03*
D17*
X-355600Y469900D03*
D19*
X-571500Y165100D03*
D20*
X-571500Y139700D03*
X-571500Y114300D03*
D21*
X-787400Y165100D03*
D22*
X-762000Y520700D03*
X-736600Y520700D03*
X-711200Y520700D03*
D21*
X-787400Y215900D03*
X-787400Y190500D03*
X-787400Y63500D03*
X-787400Y88900D03*
X-254000Y469900D03*
X-279400Y469900D03*
X-520700Y469900D03*
X-520700Y444500D03*
X-304800Y114300D03*
X-279400Y114300D03*
X-787400Y114300D03*
X-304800Y88900D03*
X-736600Y63500D03*
X-787400Y292100D03*
X-787400Y266700D03*
X-787400Y355600D03*
X-787400Y330200D03*
X-787400Y406400D03*
X-787400Y431800D03*
X-330200Y444500D03*
X-355600Y444500D03*
X-215900Y444500D03*
D23*
X-215900Y508000D02*
X-228600Y520700D01*
X-215900Y508000D02*
X-215900Y469900D01*
X-279400Y406400D01*
X-393700Y406400D02*
X-431800Y368300D01*
X-393700Y406400D02*
X-279400Y406400D01*
X-419100Y355600D02*
X-431800Y368300D01*
X-419100Y355600D02*
X-419100Y330200D01*
X-393700Y518160D02*
X-396240Y520700D01*
X-393700Y518160D02*
X-393700Y469900D01*
X-254000Y469900D02*
X-254000Y520700D01*
X-520700Y518160D02*
X-523240Y520700D01*
X-520700Y518160D02*
X-520700Y469900D01*
X-635000Y342900D02*
X-673100Y342900D01*
X-635000Y342900D02*
X-622300Y355600D01*
X-501650Y355600D01*
X-495300Y349250D01*
X-476250Y330200D01*
X-469900Y330200D01*
D24*
X-355600Y63500D02*
X-355600Y38100D01*
X-355600Y63500D02*
X-355600Y165100D01*
X-355600Y177800D01*
X-330200Y203200D01*
X-330200Y261620D01*
X-336550Y267970D01*
X-330200Y261620D02*
X-312420Y279400D01*
X-266700Y279400D01*
X-336550Y267970D02*
X-394970Y267970D01*
X-444500Y317500D02*
X-444500Y330200D01*
X-482600Y368300D01*
X-444500Y317500D02*
X-394970Y267970D01*
X-711200Y406400D02*
X-787400Y406400D01*
X-711200Y406400D02*
X-673100Y368300D01*
X-546100Y368300D01*
X-520700Y393700D01*
X-508000Y393700D01*
X-482600Y368300D01*
X-774700Y114300D02*
X-787400Y114300D01*
X-774700Y114300D02*
X-762000Y101600D01*
X-762000Y76200D01*
X-774700Y63500D01*
X-787400Y63500D01*
X-787400Y114300D02*
X-711200Y114300D01*
X-660400Y63500D02*
X-355600Y63500D01*
X-660400Y63500D02*
X-711200Y114300D01*
D23*
X-596900Y266700D02*
X-571500Y292100D01*
X-596900Y266700D02*
X-596900Y190500D01*
X-622300Y165100D01*
D24*
X-774700Y165100D02*
X-787400Y165100D01*
X-774700Y165100D02*
X-762000Y177800D01*
X-762000Y203200D01*
X-774700Y215900D01*
X-787400Y215900D01*
X-762000Y241300D01*
X-762000Y279400D02*
X-774700Y292100D01*
X-787400Y292100D01*
X-762000Y279400D02*
X-762000Y241300D01*
X-762000Y279400D02*
X-762000Y342900D01*
X-774700Y355600D01*
X-787400Y355600D01*
X-406400Y215900D02*
X-355600Y215900D01*
X-406400Y215900D02*
X-406400Y165100D01*
X-342900Y355600D02*
X-292100Y355600D01*
X-266700Y330200D01*
D23*
X-330200Y469900D02*
X-330200Y520700D01*
X-622300Y88900D02*
X-660400Y88900D01*
D25*
X-368300Y127000D03*
D23*
X-495300Y127000D01*
X-533400Y88900D01*
X-622300Y88900D01*
X-304800Y88900D02*
X-304800Y38100D01*
X-355600Y469900D02*
X-355600Y520700D01*
X-622300Y266700D02*
X-660400Y266700D01*
D25*
X-431800Y279400D03*
D23*
X-520700Y279400D01*
X-558800Y317500D01*
X-571500Y317500D01*
X-622300Y266700D01*
X-571500Y266700D02*
X-558800Y266700D01*
X-508000Y215900D01*
D25*
X-723900Y254000D03*
D23*
X-723900Y317500D01*
D25*
X-723900Y317500D03*
D23*
X-431800Y101600D02*
X-368300Y101600D01*
D25*
X-368300Y101600D03*
M02*
